<mxfile host="Electron" agent="Mozilla/5.0 (X11; Linux x86_64) AppleWebKit/537.36 (KHTML, like Gecko) draw.io/26.0.9 Chrome/128.0.6613.186 Electron/32.2.5 Safari/537.36" version="26.0.9" pages="2">
  <diagram name="Page-1" id="28Tg4gX-hNRc7rQRmmWM">
    <mxGraphModel dx="562" dy="355" grid="1" gridSize="10" guides="1" tooltips="1" connect="1" arrows="1" fold="1" page="1" pageScale="1" pageWidth="850" pageHeight="1100" math="1" shadow="0">
      <root>
        <mxCell id="0" />
        <mxCell id="1" parent="0" />
        <mxCell id="sKd0x-B3Wk1eNcuhRph2-1" value="" style="rounded=1;whiteSpace=wrap;html=1;dashed=1;labelBorderColor=none;strokeWidth=2;strokeColor=light-dark(#FB5656,#EDEDED);" parent="1" vertex="1">
          <mxGeometry x="465" y="190" width="200" height="180" as="geometry" />
        </mxCell>
        <mxCell id="sKd0x-B3Wk1eNcuhRph2-2" value="Segmentatore Semantico" style="text;html=1;align=center;verticalAlign=middle;whiteSpace=wrap;rounded=0;fontSize=20;fontFamily=Computer Modern;fontColor=light-dark(#5C5C5C,#EDEDED);" parent="1" vertex="1">
          <mxGeometry x="495" y="280" width="140" height="50" as="geometry" />
        </mxCell>
        <mxCell id="lngn1gzzgq_zDYMkG9Nx-1" value="YOLO11" style="text;html=1;align=center;verticalAlign=middle;whiteSpace=wrap;rounded=0;fontSize=22;fontFamily=Computer Modern;fontStyle=1" parent="1" vertex="1">
          <mxGeometry x="495" y="227.5" width="140" height="30" as="geometry" />
        </mxCell>
        <mxCell id="WqyHdUrMjp-XTAPlBZOc-2" style="edgeStyle=orthogonalEdgeStyle;rounded=0;orthogonalLoop=1;jettySize=auto;html=1;entryX=0.995;entryY=0.275;entryDx=0;entryDy=0;strokeColor=#FB5656;strokeWidth=2;align=center;verticalAlign=middle;fontFamily=Helvetica;fontSize=11;fontColor=default;labelBackgroundColor=default;endArrow=none;startArrow=classic;startFill=1;endFill=0;entryPerimeter=0;" parent="1" source="lngn1gzzgq_zDYMkG9Nx-15" target="sKd0x-B3Wk1eNcuhRph2-1" edge="1">
          <mxGeometry relative="1" as="geometry" />
        </mxCell>
        <mxCell id="lngn1gzzgq_zDYMkG9Nx-15" value="$$\mathcal{L}_{\text{Seg}}$$" style="text;align=center;verticalAlign=middle;rounded=1;strokeColor=#FB5656;whiteSpace=wrap;labelBackgroundColor=none;horizontal=1;glass=0;shadow=0;strokeWidth=2;fillColor=default;fontFamily=Computer Modern;fontSize=19;fontColor=default;" parent="1" vertex="1">
          <mxGeometry x="725" y="222" width="110" height="35" as="geometry" />
        </mxCell>
        <mxCell id="lngn1gzzgq_zDYMkG9Nx-27" value="" style="rounded=1;whiteSpace=wrap;html=1;dashed=1;labelBorderColor=none;strokeWidth=2;strokeColor=light-dark(#FB5656,#EDEDED);" parent="1" vertex="1">
          <mxGeometry x="185" y="190" width="200" height="180" as="geometry" />
        </mxCell>
        <mxCell id="lngn1gzzgq_zDYMkG9Nx-28" style="edgeStyle=orthogonalEdgeStyle;rounded=0;orthogonalLoop=1;jettySize=auto;html=1;entryX=0.5;entryY=0;entryDx=0;entryDy=0;strokeColor=#FB5656;strokeWidth=2;align=center;verticalAlign=middle;fontFamily=Helvetica;fontSize=11;fontColor=default;labelBackgroundColor=default;endArrow=classic;" parent="1" source="lngn1gzzgq_zDYMkG9Nx-24" target="lngn1gzzgq_zDYMkG9Nx-25" edge="1">
          <mxGeometry relative="1" as="geometry" />
        </mxCell>
        <mxCell id="lngn1gzzgq_zDYMkG9Nx-24" value="" style="shape=trapezoid;perimeter=trapezoidPerimeter;whiteSpace=wrap;html=1;fixedSize=1;rotation=90;strokeWidth=2;fontColor=#5C5C5C;strokeColor=#5C5C5C;" parent="1" vertex="1">
          <mxGeometry x="205" y="257.5" width="75" height="45" as="geometry" />
        </mxCell>
        <mxCell id="lngn1gzzgq_zDYMkG9Nx-25" value="" style="shape=trapezoid;perimeter=trapezoidPerimeter;whiteSpace=wrap;html=1;fixedSize=1;rotation=-90;strokeWidth=2;fontColor=#5C5C5C;strokeColor=#5C5C5C;" parent="1" vertex="1">
          <mxGeometry x="290" y="257.5" width="75" height="45" as="geometry" />
        </mxCell>
        <mxCell id="lngn1gzzgq_zDYMkG9Nx-30" value="UNet" style="text;html=1;align=center;verticalAlign=middle;whiteSpace=wrap;rounded=0;fontSize=22;fontFamily=Computer Modern;fontStyle=1" parent="1" vertex="1">
          <mxGeometry x="215" y="200" width="140" height="40" as="geometry" />
        </mxCell>
        <mxCell id="lngn1gzzgq_zDYMkG9Nx-32" value="Encoder - Decoder" style="text;html=1;align=center;verticalAlign=middle;whiteSpace=wrap;rounded=0;fontSize=20;fontFamily=Computer Modern;fontColor=light-dark(#5C5C5C,#EDEDED);" parent="1" vertex="1">
          <mxGeometry x="205" y="320" width="160" height="40" as="geometry" />
        </mxCell>
        <mxCell id="lngn1gzzgq_zDYMkG9Nx-29" style="edgeStyle=orthogonalEdgeStyle;rounded=0;orthogonalLoop=1;jettySize=auto;html=1;entryX=0;entryY=0.5;entryDx=0;entryDy=0;strokeColor=#FB5656;strokeWidth=2;align=center;verticalAlign=middle;fontFamily=Helvetica;fontSize=11;fontColor=default;labelBackgroundColor=default;endArrow=classic;exitX=1;exitY=0.5;exitDx=0;exitDy=0;" parent="1" source="lngn1gzzgq_zDYMkG9Nx-27" target="sKd0x-B3Wk1eNcuhRph2-1" edge="1">
          <mxGeometry relative="1" as="geometry">
            <mxPoint x="355" y="280" as="sourcePoint" />
          </mxGeometry>
        </mxCell>
        <mxCell id="lngn1gzzgq_zDYMkG9Nx-37" style="edgeStyle=orthogonalEdgeStyle;rounded=0;orthogonalLoop=1;jettySize=auto;html=1;entryX=0.5;entryY=1;entryDx=0;entryDy=0;strokeColor=#FB5656;strokeWidth=2;align=center;verticalAlign=middle;fontFamily=Helvetica;fontSize=11;fontColor=default;labelBackgroundColor=default;endArrow=classic;exitX=0.5;exitY=0;exitDx=0;exitDy=0;" parent="1" source="lngn1gzzgq_zDYMkG9Nx-36" target="lngn1gzzgq_zDYMkG9Nx-27" edge="1">
          <mxGeometry relative="1" as="geometry" />
        </mxCell>
        <mxCell id="lngn1gzzgq_zDYMkG9Nx-33" value="" style="rounded=1;whiteSpace=wrap;html=1;strokeColor=light-dark(#FB5656,#EDEDED);strokeWidth=2;align=center;verticalAlign=middle;fontFamily=Helvetica;fontSize=12;fontColor=default;labelBorderColor=none;fillColor=default;" parent="1" vertex="1">
          <mxGeometry x="202.5" y="475" width="165" height="160" as="geometry" />
        </mxCell>
        <mxCell id="lngn1gzzgq_zDYMkG9Nx-35" value="Dati dominio destinazione" style="text;html=1;align=center;verticalAlign=middle;whiteSpace=wrap;rounded=0;fontSize=20;fontFamily=Computer Modern;fontColor=light-dark(#000000,#EDEDED);" parent="1" vertex="1">
          <mxGeometry x="212.5" y="582" width="145" height="40" as="geometry" />
        </mxCell>
        <mxCell id="9r3Igi2WELpMm40hXruu-11" style="edgeStyle=orthogonalEdgeStyle;rounded=0;orthogonalLoop=1;jettySize=auto;html=1;entryX=0;entryY=0.5;entryDx=0;entryDy=0;strokeColor=#5C5C5C;strokeWidth=2;align=center;verticalAlign=middle;fontFamily=Helvetica;fontSize=11;fontColor=default;labelBackgroundColor=default;endArrow=classic;" parent="1" source="9r3Igi2WELpMm40hXruu-3" target="lngn1gzzgq_zDYMkG9Nx-27" edge="1">
          <mxGeometry relative="1" as="geometry" />
        </mxCell>
        <mxCell id="9r3Igi2WELpMm40hXruu-3" value="" style="rounded=1;whiteSpace=wrap;html=1;strokeWidth=2;strokeColor=#FB5656;" parent="1" vertex="1">
          <mxGeometry x="20" y="240" width="110" height="80" as="geometry" />
        </mxCell>
        <mxCell id="9r3Igi2WELpMm40hXruu-5" value="Immagini mondo reale" style="text;html=1;align=center;verticalAlign=middle;whiteSpace=wrap;rounded=0;fontSize=16;fontFamily=Computer Modern;fontStyle=2;fontColor=#5C5C5C;" parent="1" vertex="1">
          <mxGeometry x="26.25" y="280" width="97.5" height="30" as="geometry" />
        </mxCell>
        <mxCell id="9r3Igi2WELpMm40hXruu-6" value="Input" style="text;html=1;align=center;verticalAlign=middle;whiteSpace=wrap;rounded=0;fontSize=18;fontStyle=1;fontFamily=Computer Modern;" parent="1" vertex="1">
          <mxGeometry x="45" y="240" width="60" height="30" as="geometry" />
        </mxCell>
        <mxCell id="9r3Igi2WELpMm40hXruu-7" value="" style="rounded=1;whiteSpace=wrap;html=1;strokeWidth=2;strokeColor=#FB5656;" parent="1" vertex="1">
          <mxGeometry x="725" y="280" width="110" height="80" as="geometry" />
        </mxCell>
        <mxCell id="9r3Igi2WELpMm40hXruu-8" value="Immagini segmentate" style="text;html=1;align=center;verticalAlign=middle;whiteSpace=wrap;rounded=0;fontSize=16;fontFamily=Computer Modern;fontStyle=2;fontColor=#5C5C5C;" parent="1" vertex="1">
          <mxGeometry x="731.25" y="320" width="97.5" height="30" as="geometry" />
        </mxCell>
        <mxCell id="9r3Igi2WELpMm40hXruu-9" value="Output" style="text;html=1;align=center;verticalAlign=middle;whiteSpace=wrap;rounded=0;fontSize=18;fontStyle=1;fontFamily=Computer Modern;" parent="1" vertex="1">
          <mxGeometry x="750" y="280" width="60" height="30" as="geometry" />
        </mxCell>
        <mxCell id="WqyHdUrMjp-XTAPlBZOc-5" style="edgeStyle=elbowEdgeStyle;rounded=0;orthogonalLoop=1;jettySize=auto;html=1;strokeColor=#5C5C5C;strokeWidth=2;align=center;verticalAlign=middle;fontFamily=Helvetica;fontSize=11;fontColor=default;labelBackgroundColor=default;endArrow=none;startArrow=classic;startFill=1;endFill=0;" parent="1" source="9r3Igi2WELpMm40hXruu-7" edge="1">
          <mxGeometry relative="1" as="geometry">
            <mxPoint x="664" y="320" as="targetPoint" />
          </mxGeometry>
        </mxCell>
        <mxCell id="UDErIK7-JEHLu294TTM_-1" value="" style="shape=image;aspect=fixed;image=data:image/png,iVBORw0KGgoAAAANSUhEUgAAAgAAAAIACAYAAAD0eNT6AAAABHNCSVQICAgIfAhkiAAAAAlwSFlzAACOoAAAjqABbvwchgAAABl0RVh0U29mdHdhcmUAd3d3Lmlua3NjYXBlLm9yZ5vuPBoAACAASURBVHic7N15vGVnXef775r2eOaaksoMhEG0VRrboWUQ0EYworaijQYSIKFb2tvacrmtgJYBHLsv2tgqkyGhO2iCwxUBL0OCTastCCYECBAgSc2nzrTnvcbn6T/2qaISq5Ka9lp77/V5v3JeVdlVeT2/OnVyft/9rGdwBCA3r3zzbXvSJLrYl13JVNnrOVp0XGfOcf09jpymXK/p+f6KI1uX49e9wJ+XleO4XtORdeX4nut5VUlyfb/iOnId13Mdz/ckyfMDT67jnG58z686zml+2VqrLI3saYs31mZpkkmSzdLMmswYK2PSNJYkk2WRbJpZK2Ot6cuRzZK0K5sOrbFDa7INY8zAyvatSVczk/Wsddue4sOpnE0/qB555+tesnrun10AZ+O03ygAnNp1P3vzkuaDqwPPvcrx/cfJ1SWOdXd7gb/ied6i4/oLru81Xa/a8Pyg5lWCwPOrvl+pOHLcosufbNYojWObJlFqkiTJ0iQ0WTQwada3Ju2kSdo2WbYpJ1s1mTmkzD4QZ/FXB3H0lTt+41XtossHpgkBAJB07etvvari6hvdSvAkz/Wf4HjeJZ4XXOwGwZLrVRb8IGj41VrVrzY8zw/4/2YCZWli02iQJVEUmjQeZGncNWm8laXpUZOagyaLvmrS7EuZm9377n3XP1h0vUDR+EaGmXbNjW9r7Npbf1rgVb5Vrv8Nnu9d4QXBXter7PSr9fmgVmsEtYbvekHRpSJHJkuUhMMkCYfDNB52TBpvZElyyGTZQyZNv5Ap/cfOVuUzd7zlxcOiawXGhQCAqfaS//R7yxVVvt2vB9/mefWneoF/uVup7q5UGjsrzblmtTHvM+2Oc5XFkYkH3UEc9reyJFnLsvRQmkT3yegf/OXGJ37v1S88WnSNwLkiAGDiXfv6W6/yffdfBkHwNL9Se7IfVK/0K/U9lUZzvtKYD063qA0YtzQJbdLvDuNhfzONo4NZEn0ly+J7rUn//hLztU/s27fPFF0jcDp858RE+Nm3/NlSmNjvdoye5VWqT/OD2hV+rb6n2phv+pUqX6eYOmk8VNTvDZOwv54MBwfSNLwnTuL/1d9IP3LHW1++VnR9AN9Ykavr9t18pSLzvZVG418G1cY3+dXaJdW5xZX6/FLAVD3KIhn2s6jXaSVJeCQJw/tsGv6dVws+8N9+/ke+XHRtKA8CAMbi2tfc2qwuBt8fBMGz/WrzaUGtcXVtfnE5qDa8omsDJlUaDsyws9WJw/7X4mHvnqQ/+IQdtv/s3b/9c62ia8PsIQDgvN1w021PdeS9yK9WvjuoNZ9abc7vqc0vVx2Xd/TA+bLGKOxuRWG/fTQNh19I4vgTgeyf/94bfuK+omvDdCMA4Kxc9/NvfbLfWHy+35h7ZrXR/Ob64s5Lq835StF1AWWTDAdm2NlciwbdLybh4BP9rdb7b3vLv/tk0XVhehAAcFqv3PfBS71K9yc8v/q9lVrzm2qLy7urjQWm8IEJFfU72bDbWo0HvXuzOPmI69T+6A9ef82houvCZCIA4IQbbrr1Wa5Xe0lQa357Y2H58bWlHXMOXyLAVIv63XjYXj8Ydlr/EIWD9/W/ufmnd7z4xVnRdaF4fHcvqWtf81tNv3HRi2v1+g9XGwtPb+zYfVFQbfD1AMy4NI3tsLWxEfc7dyfR8C97ydzN/2PfCzpF14X88Q2/JP7Nz79t59z8/IuDZvMHas2lb59b2b3ieMzmA2VnjVHY2ewN2hufiwa9j0ZR/Ae3vvllPDYoAQLAjLr2Nb/V9PyVa6tLSy9uzq88rbljz6Lr+UWXBWDCWWM07Gz2h+2Nz8bR4E/Ucd759t94MTctziACwIzYt8+6a80/u0Ze9frG3OJ31RdWdjk0fADnyWSpBltrW4PO1iejsPue7lOqf8QagtlAAJhi177m97+xOrfw6trC0vfN79x7ZaXeZOM9gLFKo9D0t1YPRb3OXcMofMu79/3k3UXXhHNDAJgi+26/vbL6Ve86v1p/SX1x5em1+eUmF+EAKIq1VsPWejjsbNwd9Xp3HNxY+m8feusLoqLrwpmhe0y4n3jtW/fONZZ/tr64/EPzOy95fFBr8C4fwERK48gMtlYPhL3WX/bDwW/euu+l+4uuCadHAJhAN+677clO4P9cY3Hni+Z3XryH1foApo01RoOt9U5v69jH0mT45nf+0k9+uuia8HAEgAnxypve84xqY/G1c8u7nlmdX1lgah/ArBg9KtgYdDeP/l0atn71nftefmfRNYEAUKiX/sIt39mYb/5ic2XPs5sru+do+gDKIOxuhb3N1b+JB703vuOXXvLXRddTVnScnN1w0/ueGlS9X2os7np+Y2UX7/QBlFrY3QoHrfWPR+Fw39t/8Uf/vuh6yoTuk4OXvu6WSxqNxr65HXt+uLljzw4+7QDwSFa99SPtzubRP3P67V98+6++6kjRFc06OtGY7Nt3l38gfehn6su7Xr108RWP9wJuzAWAM2GyVN21w/uH3a132B1X/cbbX/X0pOiaZhEB4AJ71a//8TMrlYV9czt3P6NSn+coPgA4D9Ggk3WPHf5kEndf9/bX/eRdRdczSwgAF8BP/sx/XWjs3n3T/I6Lr53bedEKz/UB4MILOxudztqh96zvX/1Pd/zeq3tF1zPt6FTn4RVvuOVbK82F31y66IrnVJpzHNADADlIwoHprB745LC98Zp3vfG6vym6nmlFADhL+/ZZd7X6Zz9fW1z+uYVdey/mUwgABbFG7WMHVwetjf+6dY/zG3fcwSVFZ4PudYZ++NW/u2PXRctvWb7k6hfX5peqRdcDAPi6eNCJW0cP/n9ha/PVN//ay9eKrmcaEAAewytff+tTKguLv7+098pnBtU6ny8AmGBJNLCdI/s/09vaeOW7f/V6bip8FDS003jlG9/77Fpj4beXL7nym10vKLocAMBZsFmm9ur+r/U7rZ955xt+/INF1zOJCACPcP2+W350YXnPby3tvepKPj0AMN2steqtHz7UXzv682/75X/zx0XXM0nocNtese89P9Rc3vnby3sfdwWfFgCYLdZadY8dWu1uHPq5d/7yte8tup5JUPpOd8Mb3/ODjYXdb1nae+Xj+HQAwGyz1qq7fvjIoLX179/2iz/yp0XXU6TSdrwbbrrtWXM7LvrD+V2XPI6DewCgXKy16qzuP9A9cuj6d/3qdR8rup4ilK7z3fj6dz++srTjv69c+oTvcDyv6HIAAAWyxqh15MH7BuvH/vU73/TS+4quJ0+lCQDXvubW5vyu+T9cvvQJP+ZXqqX5cwMAHluahHbr0AN/5fW7P/HWfT/VKbqePJSiEb76N//8zfN7Lvu/q4159vMBAE4rGnSTzYNf+d23v+7H/2PRtYzbTAeA619/63OWLr709oXdl+4ouhYAwPTobRzd7K0e/Im3/fJLPlJ0LeMykwHgmhvf1rjs6ov/aMdlT7jG9biRFwBw9kyWamP//X8d2vVr/vD/eUW36HoutJkLAK968+3/YXnvlb9ZnVuqFF0LAGD6hd121F594DV/8Asv/t2ia7mQZiYAXPuaW3cvXrzy0ZXLrv4mtvUBAC609upDXwrXjzzzD/a99FjRtVwIM7EP7lVv/KPrdz3+6rsWdl9yMc0fADAOtbmlnUFz4eee9LRnb/zjXX/yqaLrOV9T3S2v23dzbW5u5/t3XH718+S4RZcDACgDa7Rx4Ct/EziD733Lf3zxsOhyztXUBoAb3/zH37O054r31xdXmkXXAgAon0Fro79x6Gs/9If7fvKjRddyLqbyEcANb7r9V3Zf9Q3vqjbnWegHAChEUGtU5lZ2X/vkpz2z+ek73zd12wWnagbg2fvu8r9xrvehHVc88XlTVjoAYEZZa7W5/8v/O56/+Jlvf9XTk6LrOVNT00X/7a+998rG0t6/n9958e6iawEA4JH6G0c3up0D3/m21/7k/UXXciamYuXcda9/z/OXLn7il2n+AIBJ1dxx0Y6lXU/6/Mv3/Y/nFV3LmZj4NQCv+JXbXrb3id90e6Xe5Eg/AMBE8ytVr7m086e+4enPOfDpj91xd9H1PJqJDgA3vumPX3vR1f/sd/1KdSpmKgAAcD3faSzt/MGnfMszs0/f+b7/WXQ9pzOxawB++rf+4r/tvPyJP+249H4AwPSxxmjtgft+//f/0w//dNG1nMpEzgD8uzff8Y5dj3vqq2j+AIBp5TiOGsu7vu0p//w5l//DR//4L4qu55EmLgC86o23/+aeJ/6zn3E42Q8AMOUcx9Hc8s5vffLTnr386Y/d/ldF13OyiQoAN/7an/zyRU/4ptfxzh8AMDMcR82lXd/x5G95pvvpO+/4eNHlHDcxAeBVb7r9P170+G/8NcebmJIAALggHMdRc3nXs570tGduffpj7/v7ouuRJmQR4A2/evuzdl/xlLv8SnUi6gEAYBzSJLQbX73nOX/whms/XnQthTfc63/1D3ft2vMND9UXVupF1wIAwLiF3VYYHjly5e+87kWrRdZR7MN2a52lhSs+SfMHAJRFbX6p5i4tfErWFvomvNAA8Or/8v6/WNhz2ZVF1gAAQN4Wdl9y2at/6y/+vMgaCgsAL/+l//79Oy69+geKGh8AgCLtuOKJP/jKN/7xC4oav5Dph3377vJ7e4ON5vLuhSLGBwBgEgy21rptW91RxDXChcwAHGu03kfzBwCUXWN517zXPvjeIsbOPQDceNN7v33lsie+KO9xAQCYRDsuf+KPvPxN73163uPmHgDqiztu9vwg72EBAJhInuc78/MrN+c9bq4B4JU3vecZixdd/pQ8xwQAYNItXnTFN97wpju+K88xcw0AzaU97+KcfwAAHs5xXTXmF96Z55i5deOX33T7dy5ddPnVeY0HAMA0WbzoiqfccNMffVte4+UWABpzjZvEFb8AAJyS47qqNubemNd4uXXkueU9z8hrLAAAptHczj3fk9cRwbkEgFe+8Y7rq3OL1TzGAgBgWlWbi5Ubbrrtp/IYK5cAUJ+f//d5jAMAwLSrLaz8X3mMk0sAaC6sPDmPcQAAmHb1hZVctsuPPQDc+J/fv7M6t9AY9zgAAMyC+vxi88Z9t+0c9zhjDwBuOHgJq/8BADhDjivjeT8+7mHG35kz77VjHwMAgBniJ+4vjHuMsQeAoFpfGvcYAADMEr8+/t459gDg1+vM/wMAcBb8RnX8j+jHPYBXrRAAAAA4C15lBgKAG3D1LwAAZ8Pzx987c3h3ns+RhgAAzIwcbs4d+wg2y8y4xwAAYJaYNLXjHmPsASALo7H/IQAAmCUmGn/vHHsASMIhMwAAAJyFZDDIxj3G2ANAOgwJAAAAnIU0DMc+xtgDgAkTFgECAHAWsjAd+xg57DMM/HGPAQDArLDWynPG3zvHfxKgF7jDVmvcwwAAMBOi1qZ8L5j+g4AkabB2LI9hAACYev219VzGySUAZL0oj2EAAJh6ZpDkMk4uAaBeXVI8GOQxFAAAUyvudVWrLOYyVi4BwHFddfY/lMdQAABMrc6BA3JyOAZYyikASJIz/i2NAABMNSfOb+d8bgGgWltQm1kAAABOqfXQg6pWF3IbL7cAIEnJZj/P4QAAmBrpVr49MtcAUKstqv3QA3kOCQDAxGs/+KBqtaVcx8w1AEhSsjWUtVwQCADAiFHSzn+nXO4BoFZb1MaXvpj3sAAATKT1+76kWjWfrX8nyz0ASFIlayhqbxUxNAAAEyNsb6li6oWMXUgAcD1fna8dLGJoAAAmRveBQ3K9oJCxCwkAklSvr2jz/i8XNTwAAIVa/9IXVa8tFzZ+YQFAkvykpt7q4SJLAAAgd71jR1XJGoXWUGgAcF1PyWpf8YDzAQAA5ZAO+4qPduS6XqF1FBoAJCmoNNT58oOyGVsDAQCzzWZWrS89qEqlWXQpxQcASarVlrT2uc8VXQYAAGO19vl7cz/w53QmIgBIUqO6QggAAMystXvvVaOyo+gyTpiYACBJdX9Z65//fNFlAABwQa1/4QuqBytFl/EwExUAJKnmLmr9i/cVXQYAABfExn33qebmf9LfY5m4ACDHUU3zhAAAwNTbuO8+VTVfdBmnNHkBQJLkqKYFHbv3XrE3AAAwbaxG0/5VZ0FynKLLOaUJDQAjjWBF63d/li2CAIDpYTOt3XPvRE77n2yiA4Ak1Ws7tP7Zz8nEcdGlAADwqGySav2zX1SjOlkL/k5l4gOANLo3YOsLX+UGQQDAxApbLW1+4X7VqpOxz/+xTEUAkKRqbUHDAy21Hnqw6FIAAHiY9oH9Cg9uqlpdKLqUMzY1AUCSfL8if+Br7XOfl2SKLgcAUHLWWq1//vPyeq58v1p0OWdlqgKAJMlxVPeXtHb355WEw6KrAQCUVDIYaP2ez6vmLU3sSv9H4xddwLmq11bU/8phac7V0pVXFV0OAKBE2vv3y7Rj1WvLRZdyzqZvBuAkvl+TPwx07J57ZRJ2CQAAxsuksY7de6+8gasgqBddznmZ2hmAExxHjeqK2l98SMHOOc1dfHHRFQEAZlDvyGFFa101KpO/xe9MTPUMwMmCoCHbynTs3ns5MwAAcMGYJNaxz35OtmVUrcwVXc4FM/0zACdxHEeNYEWdLx2QaVqtPO4JRZcEAJhirQcfkO2malSm91n/6czMDMDJ/KCmSlzX2t2fU9jh8CAAwNmJeh0du/uz8sOKgqBRdDljMVMzAI9Ury0rPthRT0e040lPkuN5RZcEAJhgNku1/qUvqWrn1KjtKLqcsZrpACBJruurpkW1vvCATC3TyhOeKGcK92sCAMar9eADMp1U9cp0HOV7vmY+ABwXBHUpkzbv+aIqu+Y1f8mlRZcEAJgA3SOHFa1uqVZbkiqVosvJzUyuAXg01dqCnK6jtbs/p8HmZtHlAAAKErVaWr/nc3JaZtT8S6Y0MwCPVK8tKzva17H9BzV/+aWqr8zGvk4AwKML21vqPHhQ9WBJtersre4/U6UNAJLkuK4atR1Kt4PAwuWXqLYy24s+AKCshq2WevsPqRYsqlHlTV+pA8Bxx4NAcnSgzv5Dmr9ir+rLO4suCwBwAQxbLXUfOqB6Zbk0C/zOBAHgJF+fEQh17KHPqrl3j5q79xRdFgDgHPRXj6p/ZE316jLv+E+BAHAKjuOoUdshu5lq/fAX5C/VtXjFlWwfBIAp0Dl0UNFaS/Xqkho1Gv/pEAAeQ622KIXS1r33KwtS7bj6arl+UHRZAICT2CzV5te+KmcgVapzU31Nb14IAGeoUmlKkjr37VfiDLV4xeWqzC8UXBUAlFvUbavz0AEFtqFqMCdVi65oehAAzpIf1OSrpvhQR+1wv4KlJo8HACBH1lp1DuxXvNFRrbqkus+7/XNBADhnzmiKKZRa996vzEu0cNVVqjRm89IIAChaEg7VfuhBuaE7muav83z/fBAALoCg0lQgKXxwXe24rcqORS1edqlKeNAiAFxgRu39BxVttlWvLKnmLjDNf4EQAC4g1/VUr61Ifal17wNKbKi5S/eovsKZAgBwNoYb6+odOSrPVFSpNFnNPwYEgDE5vlYgOxZp48B9MhWrxSuu5BEBAJxGFoZqHXhIpp+ozrP9sSMA5KBaHe0WGD0i6Mibr2rp8ivkBuW5dQoATsUksdoP7VfSHapeXVLVnZNqRVdVDgSAHI0eESxLidS7/6iiuCO3GWjx8qvkVwkDAMrBpIk6Bw8qbnVVqywqcOsK6vWiyyodAkBBToSBTBp89YjCuKPKYlMLl13GQUMAZo5JY7UP7FfaHqoaLMj3KvJrXL5WJALABHBdf7TAJZJ6Xz6iKO7IqXuav+RSVefmiy4PAM5JOuyre/iIsl6oij+nwKsrqPFOf1IQACbMiZkBKyUH2+pFB2W8THMX71Z9x+6iywOARzXc2lTv6FEpMqpVlxQ4dQVVmv4kIgBMNOfEAsJsLdHmwS8pdRLVluc1v/cSOR5/fQCKZbNUncOHFW215duqKtWm6s4iC/mmAB1kilSqc6pIUl/qfunw6FFB4Ki2c1lze/YWXR6Akhhubap/bFV2kKpaWZDn+WpU2Kc/bQgAU+rEowJJ2rLaOna/UhPKX2hqfu9e+VXiN4ALI4tCdQ8fVtLpy3drCoKGalqQmNmfagSAGREEDQVqSJEUfm1dUdxVplT+fF0Ley+VXyMQADgzJonVPXJEcacnJ3NVDebku1X5Vc7gnSUEgFnkfH3tgGIpfGAUCIxjFCw0NH/RxfIIBAC2mThW9+gRxZ2ulEq16qI8x1fdX6JLzDD+asvg5EAQSoOvrY0CgZupMt9Uc/duBc25YmsEkJuo19VgbVVpN5RjXFWrC9sNf5muUCL8VZeQ47qq1RZH/xJJ0YG2+smqknQg1TxVFxY0f9HFcjyv2EIBnD+bqb+xqXBrU9kglq/R5TqBU1dQ4SF+mREAIGn78qJg+7FAV+q2DihKerKeVJmrq75jp6oLi8UWCeAxRe0tDTY2lPSHo+f3lTm5rq+q5rhGFw9DAMApuV6gure9yyCSksM9hQe2lCQDGSeTP19Xc9ceVec5qRAoStTtarixrqTXl1Ip8Bryg6oC1RUEdYlTxfEoCAA4Y54XyPO2ZwFiKTnU0SBZVZKGku/Ib1ZVW1pRY2VJkltorcBsMQo3tzTc2lI6HEqpo8Crb187XpHvV/hujrPGlwzOSxBsv9OQpFgyx4bqrvaVxAOlNpJT9VVpNlXfuVOVRrPYYoEpkEZDha0tRZ2uskEs13qqVJpyXX/0zt6v850bFwRfRrjgHMfdPrVwe2fBQIr3t9RPDivNIsmxcmsVBXNN1ZdXFDQaxRYMFCAd9jXY3FLS68uEsWQd+W5VQWX0/wPP7DFuBADkJggaCoLtZm8ldaWou6V+elRJOpR1jNyKp6DZVGVhUfXFeclhJwKmmM00bHcVd9pK+n2ZOJNjXVX8ujy/KlcOjR6FIQCgcL5fle+f9B1wIGWDvrqHu0qzUGkWyTpWru/KrVdVaTbUWN4pt1IprmhgmzVGYbuluNtVMhzIxKmcdHTNdxA05bqePPnynEUaPSYKAQATy3FdBe5JswaSFEuKrQabxxQnA2UmlhwreY68akVerabqXFPVhUVuS8QFYbNUUaetqNdXOhzKxIlsauTKk+sGqgQNyXFGTV4Lo5X3rL7HFOA7JKaT46hSaUo6aWFhJqkvpf1Q6dGhkjRSlkUyyiTXkRt4cquB/FpNlWZT1ea8HJ//BcrMpqnCXk9pv6ckCmWiWCbJJCO58uR5VQV+dbvBe/I0N/quyZcNZgBfxphNjqMgqCkIHnHnQTz6SDsDpRooSyOlWSxjU1lZOZ4jx/fkVQJ51Yr8Wk1+ra7KXFNsbZwWRnGvryQMlYahTBQpixOZNJMyK0eOXMeX51VH2+ckOXJUUV1y6hJPllASBACUmudX5fmneDCbjD5ML1GsRLFtj4JClsjYTFaZrCPJdeX6jhzPk1vx5fmBvEpV/vbjCL/KUavnI42GysJQaRQriyNlaSITp7JZJpNayWRyrCNHnlzH2z6roiI5jiTJkytPdQVOnal54BEIAMCZcJzRQsVThQVJMpLC0U+tUiVKlWggySrLEhmTyphU1hpZGVlJcrb7lDvaOinPlet5kufK84NRqPBdOV4wel1SUB/NaLh+INefjG5m0kQmTSRJyTDcfi2VNalMamSzTFmaSJmRyYyUZbLGyFqNdoPY0btyR64cx5Xr+nJdX54XSHJOjONut3Np++XJ+OMDU4sAAIyVI8+rjN6Vnols+yM+/oKVVazsxC8PH/777ShgjH46ChePZM2pX3/0ql057j995HG8SUujkyGPv9M+HVeOJF/eyd9qvO0PAIUiAADTzHHk+Ty0BnD2WNUEAEAJEQAAACghAgAAACVEAAAAoIQIAAAAlBABAACAEiIAAABQQgQAAABKiAAAAEAJEQAAACghAgAAACVEAAAAoIQIAAAAlBABAACAEiIAAABQQgQAAABKiAAAAEAJEQAAACghAgAAACVEAAAAoIQIAAAAlBABAACAEiIAAABQQgQAAABKiAAAAEAJEQAAACghAgAAACWUQwBwCRkAAJyV8ffOHJqzHf8QAADMlPH3zrEHAGtJAAAAnI08eufYA4DjEAAAADgbefROns8DAFBCBAAAAEqIAAAAQAnlsQjQGfcYAADMkjx65/hnABz6PwAAZyWH3jn+GYAsGfcQAADMlDx659gDwMaxL0bjHgMAgFmyeezL4bjHGHsASJK+Zy1HAQAAcCastYqSnj/ucca/BsBabzhojX0YAABmwXCwKccab9zj5LINcDjYzGMYAACm3rCfT8/MJQBEBAAAAM5INJyhAJBmA8VRL4+hAACYWkncU5oNcxkrn5MArdRtHcxlKAAAplVr86Bk8zk/J7ejgAf9dYndAAAAnIbVcLCR22i5BQBrM3Vah/IaDgCAqdLZPCTZNLfxcr0MqN3aL43/imMAAKaLtWq39+c6ZK4BwJpE7c0DeQ4JAMDEa2/tlzX5Hp2f+3XA3fYBWWPyHhYAgIlkrVGngIXyuQcAY1JtrN2f97AAAEykjdUvy+b47P+43AOAJA17RxUO2kUMDQDAxAiHLQ0GRwsZu5AAYCVtrN3HtkAAQHlZq43VL+a27/+RCgkAkpSlkTaOfaWo4QEAKNTGsfuVZVFh4xcWACSp1zusXqeYqQ8AAIrS665q0DtSaA2FBgBH0ubal7knAABQGnHU1+balws/FafQADBidezwvTImK7oQAADGyphUa0fvlWzx2+EnIABIxsRaPXwPiwIBALPLWq0eukdZWtxz/5NNRACQpCTq6ughQgAAYAZZq9VDn1UST84j74kJAJIUR20dO/L5ossAAOCCOrb6eUVRq+gyHmaiAoAkhcMNrR/9YtFlAABwQawd/YLCfn7X/J6piQsAkjTor2r10L08DgAATC9rJOWRAQAAIABJREFUtb76JQ37a0VXckoTGQAkKQo3dfTQ3bKEAADAtLFWq4fu1aA3uWfdTGwAkKQ46ujowc/ImPwvSQAA4FwYk+nwwU8riraKLuVRTXQAkKQk7mn14GeUTsi2CQAATidLQh058A9K437RpTymiQ8AkpQkQx3d/ykNJ3ARBQAAkjQcbOrw/k8rS8OiSzkjUxEAJMnYTGtHPq+tjQeLLgUAgIdpbR3Q+pF7ZTU9j6z9ogs4K45Vt/WQ4qij3Rd9oxx3avILAGAGWWu1sXqfBhO60v/RTGUHjYZbOnLgU1wiBAAoTBz1dGT/J6ey+UtTGgAkKU1DrR76R21tPFB0KQCAkulsHdTqoc8onZLn/acyXY8AHsFao25rv8LhlnZd9FT5frXokgAAMyzLYq0d+YLiqF10KedtamcATpZEXR058A/qdSb3wAUAwHTrto/oyEOfnInmL035DMDJrEm1ufZFdVoHtOuipyqoNIouCQAwA9Ik1PqxLyoOW5Kcosu5YGYmAIw4SpOBjh74tJrze7Wy+3Gapb8sAECOrFV7a786rf2y1mjW+smMBYARK6Ne96DCcEM7dj9F1dp80SUBAKZIOOxo49h9U3Ooz7mYyQBwXJoMtXr4H1WtLGrnnifJC2pFlwQAmGBpGqu1/hUN+uuSZvsyupkOAJIkaxVFLR3a/yk15/doZdcT5DgzsfYRAHCBWGNG0/3tg5LNii4nF7MfAE4w6nePaNhf18LS5VpYvrToggAAE6DXWVVr46syJim6lFyVKACMGJOotflV9bpHtLhylZpzO4suCQBQgH7vmFobDypLh0WXUojSBYDj0mSgjdXPqbPR1NLOx6veXCm6JABADgb9DbU3H1QSdzVrK/vPRmkDwIijJB1o7ei9CoKmlnY+TvUGQQAAZlE4aKu1+TXFcVuyjsrc/KXSB4CvS5K+1o7eq2plUQvLlzMjAAAzYtBbV3vrISVJl8Z/EgLAyawURW2tHf2sXK+uxeXLNL9wseTwxQIA06bfX1dna7+SqLv9Ct/LT0YAOCVHJgu1tX6/2lsPaX5hrxaWLpPjsn0QACabVbd9VO3WQzJpVHQxE40A8BhMFqu99aC67UNqzu3WwvLl8vxK0WUBAE6SppHam/s17K3KlGQf//kiAJwhYxJ1O4fU7RxSUF3Q0vKVqjeXiy4LAEptONhSZ+uA4nBrxs/tu/AIAOcgiTpaO/pZeX5Vc/N7tbB0KY8HACAn1hp1W4fV7x5VkvTEs/1zQwA4D1kaqb31gLqt/ao1d2hh6VJVqlw8BADjEIVddVoHFA23ZEy6/SrN/1wRAC4AYzMNesc06B2T6/pqzu/V4splcl0+vQBwPozJ1GsfUb97REk6mPX7eXJFh7rAjEnVbe9Xt31AldqC5uYv1tzCnqLLAoCpMhxsqds+pGi4KWvp+uNAABgbqzhsazNsa2v9K6rXlzW/dJmqdR4RAMCpxFFf3fZhDQfrMllcdDkzjwCQA2tTDQZrGgzW5Di+GnO7tLh0mfxKvejSAKBQaRqNpvj7x0aX8vBmPzcEgJxZm6rfPaJ+74iCoKl6c5fmFi6S71eLLg0AcpGmkXqdoxp0jylNB0WXU1oEgKJYKYn7SuK+OlsPyvNrqtV3amHpYgWVRtHVAcAFlSWhet1jGg42FMddief6hSMATIgsDdXvHlS/e1COG6jR2KG5hYtVrS8UXRoAnJMk7qvbPqrhYENpMpDDvSoThQAwgaxJ1O8dVb93VL5fU6W2qPrcTjUbO7iYCMDkslb9/roGvTVFYUsmS078Es1/8hAAJlyahkp7oQa9VW3IUVCdU62+pPn5i1lECKBwaRpp0F3TcLClOG7LGs7hnxYEgKlilURdJVFX3fYB+X5N1dqKGnM7VK8vMzsAYPys1XCwqUF/Q8PBlrIs5Cy+KUUAmFZWSpNQaXJY/e5hSY48v6ZqbUnNuZ2qN1eKrhDAjIijnvq9NUXDtuK487AFfDT/6UUAmBlWWTrUoDfUoHdEruerUplXrb6sxtwu+UGt6AIBTIkkGarfW1c03FQ87MqKaf1ZRACYUSZLFQ63FA631Nr8mlzXl19pqlZbUq2xrFp9segSAUyINB5q0N9QGLaUxD1lWcSBPCVAACgJY1LFYVtx2Fan9ZAcOfKrc6pUF9VoLrOGACiROOpp2N9UFLYVRR3ZEzfroUwIACVlT1pQ2O8clOP68oO6KpU5VeuLqtdX5PlB0WUCOE9Zmmgw2FA8bCmO+0rTgawxRZeFCUAAgCTJmvTrgaB7RJKVHF+VypyC6rxq9UU1mityHLfoUgGcjrUKw66iYUtR3FUS9Ubn67NUD6dAAMBpOJLNFEdtxVFb/c5BbTiuAr8uP6hvn0ewqGp1QY5LKADyZo1RGLYVhR1FYUdpMpDJwlOcsEvzx6kRAHDmrFGS9JUkfQ0H6+psSbKOPK8qv1pXtbqgam1B1fqiXNcrulpgZhiTjd7VDzuKoq6SZCCTRUWXhSlHAMD5cawyEyobhoqGWydedh1XftCUH9QUVJqq1pdVq82z0BB4DGk81HDYUhz1lCR9pfFQxsasyscFRwDAWBhrFMfd0a1f/TVp60HJceS5ldEjhKChSm1eQXVO1UqTYIBysVZx3FMU9hTHPaXxQGkyUJbFRVeGEiEAID/WKssiZVmkKGxJ3e3XHUeO3O1gUJfn1xVU6qrVlzjACFMtSxPFcU9J1B+twN9u8jaLZLgOFwUjAKB41soqUxL3lMS9h/2S43ryvKo8ryI/qMn36/KrDVUrTfkBlyGheGk8VBT3lcR9pclQaRoqSyIZE8tattthchEAMNGsyZSa0fRoFD7iFx1HrhucCAeeX5Pv1xQENfmVhgICAi6ANB4qSUYfaRoqTYbKskhpEsnaVKdYdg9MBQIAppe1Mlksk8X/ZOZgxJHj+vLcQK4XbM8g1E786AVVBUFNbJMqK6s0DpWk4ehirTRUlkZKk1AmS2RMLGMysfoOs4oAgBlmZU2i1CRSKsVR+5/+Fkdy5clxfTluIN/z5XhV+X5Fvl+T61fk+1V52z9i8qVppCyNlaaRTBorSYfK0kQmi2RMsv2RydqM3o5SIwCg3KxklElZJmWR0uRRfq8jOY4nR65cz5fjePK8ilwvkOeNZhkcx5fn+Sde87yKPC9gl8PZslZZlijLYmVZIpMlyrJU1qbK0ljGpNuL6UbN3NhU1hqaOnAWCADAmbKStZmsMhkzSgqPlhceZnung+N6o0OSHFeu48lxPUmuPNcdnajoePLcQI7rbgeNQI4zChyS5Dq+HNeRHFeeu/2a5+d+RLM1Rmb7ApksSyRZWWtPvGayUUM2Jhk1ZmOUmUSy2fbPzejn1siabPTf2lTWmNHVszxXB8aOAADkYXung80ymTFdrW5ltwPFP+Va98yXOljJOKdevW6zTA6zGcBMIAAAM8KRI53mljcjc3ZT46f5vTR/YHZwiwsAACVEAAAAoIQIAAAAlBABAACAEiIAAABQQgQAAABKiAAAAEAJEQAAACghAgAAACVEAAAAoIQIAAAAlBABAACAEiIAAABQQgQAAABKiAAAAEAJEQAAACghAgAAACVEAAAAoIQIAAAAlBABAACAEiIAAABQQgQAAABKiAAAAEAJEQAAACghAgAAACVEAAAAoIQIAAAAlNDYA4C1hAwAAM5GHr2T5gwAQAmNPQA4juy4xwAAYJbk0TtzmAFwCAAAAJyV8ffOHAIA/R8AgLMz/t6ZxwzA+IcAAABnhUWAAABMnPG/ec7jEQBTAAAAnJXx905mAAAAKKGxB4DMGFYBAgBwFkwOvXPsAWDQ34rHPQYAALNkMGiNvXeOfwYgin22AgIAcGastUri0B/3OONfA+BmbpoyCQAAwJnIskiOzGzcBZDGUR7DAAAw9ZI4nzfNuQSAKOrnMQwAAFMvzqln5jMDkETKsiSPoQAAmFpZlihN8pk1z+0cgGjILAAAAI8mGvZyGyu/ABD2xG4AAABOw0pRNIMBwJhUUcgsAAAApxJFPZksy228XI8CHvbbspZZAAAATmat1aDfynXMXANAliWKc5zeAABgGsRhTyZLcx0z98uABswCAABwgpXRYNDOfdzcA4DJUg1znuYAAGBSDXrt3N/9SwVdBzwcdHLb5wgAwKRK00jhoFPI2IUEAMmq190Q2wIBAOVl1e+sq6heWFAAkLI01qCX/zMPAAAmwaDfUpoWd0puYQFAkoaDFvcEAABKJ44GGvaLfRNcaACQpH5nQ1mBCQgAgDxlWaJed73oMooPANYaddvHZI0puhQAAMbKWqNua20iel7hAUDaTkOdNbEoEAAws6xVt31MWRYXXYmkCQkAkhTHQ3Xba2QAAMAMsup21pXEYdGFnDAxAUAaLYqYhOciAABcOFb97obiCVv0PlEBQBpdG9zvbRRdBgAAF4BVv7upcDh59+BMXACQpHDQVa+zzuMAAMAUs+p3NhUOu0UXckp+0QWcThT2ZK3R3OJOOZOZUwAAODVr1e2uKQ4HRVdyWhPdWeNooG6LLYIAgOlhrVG7tTrRzV+a8AAgSUkcqtM6WshNSQAAnA2TpWpvHVWaTM5q/9OZ+AAgSWkaq711WEk8LLoUAABOKUlCtbeOKEsnY5//Y5mKACBJxhh12qsaDrhACAAwWcKwq25rVcZkRZdyxiZ2EeApWWnQ21KWxpqb3yk5TtEVAQBKzNrRHv8onLxtfo9lugLAtijsK00TzS/slOdXii4HAFBCaRqr31kr9Erf8zE1jwAeKUtjtbaO8EgAAJAzq+Gwo/bWkalt/tKUzgCcYK0GvS0l8VBz87vkel7RFQEAZpjJUvU6G0qS6V+UPrUzACdL4lCtrUOKp/AZDABgOkRhT63NwzPR/KVpnwE4iTVG3c66/GFPcws75HlB0SUBAGaAyVL1uhsztxV9ZgLAcWkSqr1xRPXmgurNRUnsFAAAnAMrDcOOhr2WrJ29E2lnLgBIkpXRoN9SHA3UXNgh368WXRIAYIqkaaheZ3NqDvU5FzMZAI5L01jtzSOqVJtqzi3L9Wb6jwsAOE/GpBr22grDybzB70IqRUeMo77ieKB6ffRYwHFmYu0jAOBCsaOtfcNBS9aU4y76UgQASaO/3EFbUdhTfW5JtdqcWB8AAGVnFUcD9btbMqZcl86VJwBsMyZTv7OhaNBVfW5JlUpdBAEAKBurOBpq0G/N9HP+R1O6AHBcmsbqto7J8ytqNBdVqTaLLgkAkIMkDjXobylNoqJLKVRpA8BxWRqr216T73fVaC4qqNaLLgkAMAZJEmrYbymJw6JLmQilDwDHpWmoTjtUUKmp3lhQwKMBAJgBVnE81LDfUZrQ+E9GAHiEJA6VxKE8v6J6Y0GValMO1w4DwFSx1iqJBxoO2kqTcj7jfywEgNPI0li9zrpcr6VaY0G12hzbBwFgwllrFIY9hf1O6Vb1ny0CwGMwWapBd1PDXlu1+pxqjXm5Lp82AJgkWZYqHHYVhV1ZM3vH9o4DnewMWZtpOGhrOGiP1gnUFxVUa2KdAAAUJ0lChYOu4rgvleP8nguGAHAOTqwT8AJV63Oq1ed5PAAAObHWKIr6igYdpWlSdDlTiwBwHrIs0aC3pWG/rUqtqVp9jouHAGBMkiRSHPYUhf2ZvJ0vbwSAC8Bao2jYVTTsyvMqqtabo0WDrld0aQAw1YzNFEcDRYOu0pKe2DcuBIALLMtiDXqxBr2WKrW6arU5zhQAgLMy2rsfDXuKo6F4uD8eBICxsYrDgeJwIMfxVK02VKk3FQRVEQYA4J/K0kRR2FMU9mRMVnQ5M48AkANrM4VhV2HYlev6qtQaqtbm5PuVoksDgEJlWaw4HCgM+zIZC/ryRADImTGpwkFH4aAjz6+qWmuoWm3K9firAFAOJksVRX3FYZ/n+gWi6xQoSyMNepEGvS15fkXVakNBtc5OAgAzJ0sTxfFAcTxQGpf7Fr5JQQCYEFkaa5DGUr8l1w1UqdVVqTZYMwBgamVpojjqKwr7ypjenzgEgAlkTKJwkCgcdOR6nirBaGYgqNQ4cAjAxLLWbB+UNlQcDTmLf8IRACacyTKF2WgBoRzJD6qqVBqqVBry/KDo8gCUnMlSxclQSTRUHA8ly5a9aUEAmCZWSuNIaRxpoC15XqBKta6gUlcQ1CSuLQYwZtYapUmkOBoqiYdM7U8xAsAUy7JEw0Gi4aAzmh3wqgoqtVEgqLB2AMCFYJWm8Ymp/SSJeJc/IwgAs8JKaRopTSMNB205rqsgqCkI6gqqVXkeZw4AOBNWWZoqSYZKolBJEnLu/owiAMwoa4ziaKA4Gkg9yXE9BUFV/vEPvyqHRwYAjjf8NFQShUqTkFP4SoIAUBLWZF8PBJIc15HvVxUENflBTX5AIABKwUppFilJou01RaGMpeGXEQGgpKyx28/0QkmS4zhyvUCBX5VfGc0QeL4v1hEA082YVFmSKElCJWmoLE5kxZQ+CADYZq1VlsbK0lgKu5Ikx3HlB5XRLIE/enTguJxDAEwqa6zSLFKaxqN390zn41EQAHBaXz/UIzzxmut622sIKqNZgqAi1/UKrBIoJ2vNqNGnsbJk+0fO1cdZIADgrJhHrCWQJNfz5QcV+d4oEPg+oQC4kIxJlaWJ0mTU5JMkljHsv8f5IQDgvJksVZylivX1UOA4rrwgkO9W5AaBfK8iz6/I5RECcFrWGmVZoizd/sgSpUnEND7GggCAsbDWjJ5BKpK+/gRBnufL9Y8HgmD04QasLUCpPLLRp1kskybKMs7OR34IAMhVlqXKslSJhg973XU8uZ7/9VDg+fK8CjsRMNVGU/epMnO82cfKslSGRo8JQADARDA2k0kzpekj7gl3HHnuKBC4nr89g+DLdQN5vidHzBygQNYqzVIZk8ik6YnmnmWJMpNyZC4mGgEAk81aZVmsLDv16mbX9R8WDhzXG/27O/pwXGYPcO6sNTJZOnonn2WyJhs19+1Gz7N5TDMCAKaaMaNvzjrNgmjHceV6vlxvOxg4o5+77vEPn/UHJWVtJpNlMsaMvo6yTMYefxefyWQpZ+BjphEAMNOsNdsHHJ02I0iOM1qD4PpyPfekHz05zigoOK4rx3XlOmxvnGTGZrLGyBoz+nlmZOx2QzeZTLbd7G3G9DxKjwAAWDtqEiaVHmttlrO9YNF15WwHA9f1RsHAceU4rhx3FCgc1xn9u+PJcRzuWjhD1trRhzGyymSN3W7sVrJmNC1/ormP3sFbk2039aKrB6YHAQA4G3Z7waLJ9ChzCqc0CgPO1wOB60iOI0fu9vkIzvavu6PXXUeu4574byVn9M92kHAcV87xHRLbax1cjf7bsbBW5vgZ8mbUaa3siWlya+12A/76a8aa7cY9es1aK8mOmrbM6HWz3fBtJmMN78yBnBAAgJyMGqAkFbNwzNkOG4/G6niTBjDrCABASVhrZQsKHwAmD8ufAQAoIQIAAAAlRAAAAKCECAAAAJQQAQAAgBIiAAAAUEIEAAAASogAAABACREAAAAoIQIAAAAlRAAAAKCECAAAAJQQAQAAgBIiAAAAUEIEAAAASogAAABACREAAAAoIQIAAAAlRAAAAKCECAAAAJQQAQAAgBIiAAAAUEIEAAAASogAAABACREAAAAoIQIAAAAlRAAAAKCECAAAAJQQAQAAgBIiAAAAUEIEAAAASogAAABACREAAAAoIQIAAAAlRAAAAKCECAAAAJTQ2AOAteqMewwAAGZJHr0zhxkA5w3jHwMAgNnhyH39uMcYewCo2vnbxj0GAACzpGLn3jvuMZxxDyBJz33BdW0rLeQxFgAAU82qfeeH3r007mFyWQRorL6QxzgAAEw7x7W59Mx8dgH4emsu4wAAMOWs/LfkMU4ujwAk6TkvuG4oqZbXeAAATKHwzg++u57HQPmdA+A6H81tLAAAppCV8//nNVZuASBJs9flNRYAANPIOuPf/ndcbgHgE39162clFgMCAHBq9nMf/8C7PpfXaLkeBez63k/lOR4AANMiM5WX5zlebosAj3vOC66/W7LfnPe4AABMLGs/c+eHbvnneQ6Z+2VAYRJdJ8nmPS4AAJPISta4/svyHjf3APC3H7ntbivdnve4AABMIsex/yPPZ/8nxs17wG3uc19w/ZqVXSlofAAACmel1l0ffPcOSSbvsXOfAdhmPD/64YLGBgCgcFaSjPejKqD5S8UFAH34L277n3Ls+4oaHwCAIjmyt9/1V+/6WHHjF+y5L3jZl62cq4uuAwCAvFjZB+764C2PK7KGwmYAjssGzr9wZPtF1wEAQB6so+GcV/0XRddReAD4+Mff3XI853mOU8wzEAAAcmSCxPme97//7etFF+IVXYAkfe3Ldx+86upvOSbpB4quBQCA8bDWZPZVH/vwLe8vuhJpQgKAJD1w/93/cNUTvrkvx/m+omsBAOBCs47z+o9/6JbfKbqO4yYmAEjSA1+552+vvPpbq47sMyZgfSIAABeGsW+660O33FR0GSebqAAgSQ/ef/fHrrr6Wy+S9PSiawEA4Lw5euudH7rltUWX8UgTFwAk6YH77/7AVVd/S03SdxddCwAA58yxv33nB2752aLLOJWJDACS9MD9d3/s8U/8lraR/pXD8wAAwFSxVo7zC3d+4JY3FF3J6Ux8Y33eC6/7EWN1uyY4rAAAcJwjGWvsT935V7e8t+haHs3EBwBJ+p7nv+K5rpt90EqVomsBAOBRRJ7n/KuPvP/mvy66kMcyFQFAkp7xIzdeXAnjT1npkqJrAQDgFFb9tPFtH/7w7x0oupAzMTUBYJv73B+4/i+tsd9fdCEAABxnrf73s779ymfs27cvLbqWMzVtAUCS9Nzvf+kbrOP+iqa0fgDAbLCSlZxfv+uDN/9i0bWcraltoM954Q3fJZt+ULKLRdcCACgfK6frOtmLPvaBW+8qupZzUfhlQOfqzg+842+f+S+u2Cnr/FnRtQAAysTKWv31zmZv57Q2f2mKZwBO9qwXvOJa30nfaa3DLgEAwNg4Upw55hUf/8Ct/73oWs7XTAQASbrmmht39rPko5L95qJrAQDMIGs/M5wbfO/f3XHHZtGlXAgzEwCOe87zX/ZvHFfvsHKaRdcCAJgFdihXr77zL2+5uehKLqSZCwCS9Oxn76u59Yduk2N+SHJm8s8IABg/a/XXnWOVF3z6028fFF3LhTbTzfF7r7n+WWlm3ufI2Vl0LQCA6eFYHcus+dcf/6tb/1fRtYzLTAeA4577A9e/1hr7K5JqRdcCAJhcjmNjGffXP/ahm3+56FrGrRQBQNp+LNB84B2S+xJZO7XbHwEAF56VtY51/9wMr3jJxz++Lyy6njyUJgAc98xrrr3KS73bHEffUXQtAIBJ4NyjmvuiO//0XQ8VXUmeShcAjnveNdd9h82cP7QyTynxpwEAysvag45rXzrNh/mcj9J3vmc//6Xf7bne263sU4quBQCQA2sPetIrPvKhWz5cdClFKn0AOO55L3zZC411/qukxxVdCwBgLFbleD9z5wfedUfRhUwCAsAjPO+F1/1IZu1/duRcVXQtAIAL4qvG817z8fe/68+LLmSSEABO4zkvvOG7rEn+i+PYb+cwIQCYRs49rmf/7Uff/+7/XXQlk4jG9hi+7/t++rLUG/6O4+pFlu2DADDRHEfGGH3Cb8Q3fORPbru/6HomGQHgDF1zzY07+yZ6i6zzo+JAIQCYNENHzh2DZu/nZuWynnEjAJyDZ7/wpT/lWvdXxIJBACjaquM6/+/H/vLm3yy6kGlDADgPz3j+S/9Zxfd+3RrzfZLjFV0PAJSEsVafDDLnZz/84Zv/vuhiphUB4AL4sR/7sbnN3tw+4+iljuyuousBgFnkWB0zjm7Z2ezfdMcdd/SKrmfaEQAusOf94Cu+1RrzZmvs8yQFRdcDAFPNUWaNPuW4wc/f+YF3/G3R5cwSAsD4uM97wcv+Qyb9jORcxScaAM7K16yc37nrgzf/riRTdDGziL6Ug+/8sR9bqQ8ar5d1XiJpT9H1AMBEstq0+j/t3V+MVHcdBfBzfnd22Z11l3aUAq5AscUoSaNlJfVPi5TCNliwDVpjMBAbFF9sjIkPPhgzD74aTUx8IFYNTWp0678QpKxp2HRtG4y1hjZtY2tCliooZgIsO/tn7v0eH0qa+kAtpeyd2T2fx3mZk7kz9575/e79/fRo3rukPv7rA6fLjrPQuQDMs9d2I0zfIvg5ELWy85iZlYlAU+LRSOk7Y4cfer7sPIuJC0CJttzzlU+Q+bcRsUlgX9l5zMzmyRQTn5Aq3/W8fnlcANrE8PADt+Vd8TWI2+BpAjNbYAhcQOKTkafvHXvsocfLzmMuAG1p22d3r8ubXd8keS9cBsysIwkEL0h8vKWiPv7YwRNlJ7L/5QLQ5nbs2Ds4XWTfQNJOCDcL8H4EZtaWSIZCr4j4Xd7T/X3fyNfeXAA6zJ137703dWVfVaHbQNV8CM2sTASaIZxIyh6+42OrDtTr9bzsTPbW+OrRwe6664vro7vydZLDAFbDowNmdo0RiAAmABxVhh+MHfrZS2VnsrfHBWAB2bbzgU8VEV9GYDOIQYA+vmZ29YQGMx4vVDwydvjgI/DCPAuCLxAL1NDQ/up1y4ovBYvPk7oV4EDZmcysQwjnmfAsimykmFn1k7Gx+kzZkeyd5wKwSAwN7a/2r5jZlTHbrdAGCDeAPv5m9tojeiG8kDL+ptl78cdPj4w0ys5k154vAIvU5s31Hvad3M3AfSA2ClpOTxmYLXyCQPwriX+KLH4bF9f+3P/wFyef8O11Wz+z79Yo8j1Q2kJorQBPG5h1NAHgLIB/gHpKuR49dvTgIXgO3+ACYG/i4/ffX6tODnyBjLsDsQFMKwBVys5lZpejnEinKTwb1JHpvqlfejjfLscFwK7Ill371rCJe8TYCurDAAY95QlKAAACuUlEQVQBLCk7l9liQzIknZXwEqXxyCq/8GY6diVcAOyqbdm1b02ayXeFeCeIWwCshEuB2TtpRsCZTDyBpGOpVf3V6OiPTpUdyjqbC4BdE0ND+6u197Y2Fq3YKvIOQjeBXAYXA7PLurSU7jmQp6Q4rqTx2er07z2Mb9eCC4DNqx079g7OQJ8OpU0IrBexmuBSAF1lZzObRy2B5wBNEHghinii6Os57LXzbT65AFhbeOOIAStpCIEbAQ0G0E9/T61zzUI6K/BVQCeUNN7d0ujo6MP/LjuYmU+s1vY27dyzNgU/mcANZPogAjdKWg6iHx45sHKJwLSkhsBXmfQKmZ5LxPE/HPrpOPy4nbUxFwDraNu3PzgwlU3ennJsZMKHIKwBtZzAuwFUAfqxRbsKzCFNiWok4kyIEwq8CGXHe1P1qSNHfnih7IRmb5cLgC1o9Xq98se/nLoFMffRUFqP4E0iVpGqIbgURC+A7rJz2vwjNafgNJLOS2xk4kSk+HtivIjU/efbN6x6zlvb2kLmAmAGYHh4zw3K0kciwzoUaZ2A1YJWAnwPqX6BVUg9pCreZbFdSRJzkDOEmhInAf2H4GkCE8ji5VTgZRbxV8/Bm7kAmF2xoaH91SW1ix+odne/H8DqgNZIXJmEGoilAPul6EdiLwI9TOqCWBGQys7eCQgEqFzAHMBZhKbJNAloEsL5IBqk/pnAiTxlJ+dmpk/ONt71t2eeOdAsO7tZJ3EBMJtH27c/ODA313hfqnYva+VYUcnyAaFyvVTUgKwPiOtSpAFBvQH0k6oSqSugXkoVEaBYBQBQFV66x0FvuBlSUOVNNnr8f795XfZV4vXhcAKtS++VQ8wBQFSTAkTmCZwWoiWxmYBJgtOR4gKQzgHFFJk1ilbRQMomuyo4E825s7Xa3MTIyMjFt/ZJmtnV+i9m6XiTVNsOPwAAAABJRU5ErkJggg==;" parent="1" vertex="1">
          <mxGeometry x="245" y="495" width="80" height="80" as="geometry" />
        </mxCell>
        <mxCell id="Je-a-3PVeJo5vZPKS0Rx-1" value="" style="edgeStyle=orthogonalEdgeStyle;rounded=0;orthogonalLoop=1;jettySize=auto;html=1;entryX=0.5;entryY=1;entryDx=0;entryDy=0;strokeColor=#FB5656;strokeWidth=2;align=center;verticalAlign=middle;fontFamily=Helvetica;fontSize=11;fontColor=default;labelBackgroundColor=default;endArrow=none;startFill=0;" parent="1" source="lngn1gzzgq_zDYMkG9Nx-33" target="lngn1gzzgq_zDYMkG9Nx-36" edge="1">
          <mxGeometry relative="1" as="geometry">
            <mxPoint x="485" y="475" as="sourcePoint" />
            <mxPoint x="285" y="370" as="targetPoint" />
          </mxGeometry>
        </mxCell>
        <mxCell id="84f1ak20xgsRzgUl31iH-1" style="rounded=0;orthogonalLoop=1;jettySize=auto;html=1;exitX=0.5;exitY=0;exitDx=0;exitDy=0;strokeColor=#FB5656;strokeWidth=2;align=center;verticalAlign=middle;fontFamily=Helvetica;fontSize=11;fontColor=default;labelBackgroundColor=default;endArrow=classic;entryX=0.013;entryY=0.929;entryDx=0;entryDy=0;entryPerimeter=0;" edge="1" parent="1" source="lngn1gzzgq_zDYMkG9Nx-36" target="sKd0x-B3Wk1eNcuhRph2-1">
          <mxGeometry relative="1" as="geometry">
            <mxPoint x="450" y="340" as="targetPoint" />
            <Array as="points" />
          </mxGeometry>
        </mxCell>
        <mxCell id="lngn1gzzgq_zDYMkG9Nx-36" value="Training" style="text;align=center;verticalAlign=middle;rounded=1;strokeColor=#FB5656;whiteSpace=wrap;labelBackgroundColor=default;horizontal=1;glass=0;shadow=0;strokeWidth=2;fillColor=default;fontFamily=Computer Modern;fontSize=16;fontStyle=2" parent="1" vertex="1">
          <mxGeometry x="242.5" y="410" width="85" height="30" as="geometry" />
        </mxCell>
        <mxCell id="i9F8jg8XpfibfKzwJANf-7" style="edgeStyle=orthogonalEdgeStyle;rounded=0;orthogonalLoop=1;jettySize=auto;html=1;entryX=0.5;entryY=1;entryDx=0;entryDy=0;strokeColor=#FB5656;strokeWidth=2;align=center;verticalAlign=middle;fontFamily=Helvetica;fontSize=11;fontColor=default;labelBackgroundColor=default;endArrow=classic;exitX=0.5;exitY=0;exitDx=0;exitDy=0;" parent="1" source="i9F8jg8XpfibfKzwJANf-12" target="sKd0x-B3Wk1eNcuhRph2-1" edge="1">
          <mxGeometry relative="1" as="geometry">
            <mxPoint x="575" y="370" as="targetPoint" />
          </mxGeometry>
        </mxCell>
        <mxCell id="i9F8jg8XpfibfKzwJANf-8" value="" style="rounded=1;whiteSpace=wrap;html=1;strokeColor=light-dark(#FB5656,#EDEDED);strokeWidth=2;align=center;verticalAlign=middle;fontFamily=Helvetica;fontSize=12;fontColor=default;labelBorderColor=none;fillColor=default;" parent="1" vertex="1">
          <mxGeometry x="482.5" y="475" width="165" height="160" as="geometry" />
        </mxCell>
        <mxCell id="i9F8jg8XpfibfKzwJANf-9" value="Dati dominio sorgente" style="text;html=1;align=center;verticalAlign=middle;whiteSpace=wrap;rounded=0;fontSize=20;fontFamily=Computer Modern;fontColor=light-dark(#000000,#EDEDED);" parent="1" vertex="1">
          <mxGeometry x="495" y="582" width="140" height="40" as="geometry" />
        </mxCell>
        <mxCell id="i9F8jg8XpfibfKzwJANf-10" value="" style="shape=image;aspect=fixed;image=data:image/png,iVBORw0KGgoAAAANSUhEUgAAAgAAAAIACAYAAAD0eNT6AAAABHNCSVQICAgIfAhkiAAAAAlwSFlzAACOoAAAjqABbvwchgAAABl0RVh0U29mdHdhcmUAd3d3Lmlua3NjYXBlLm9yZ5vuPBoAACAASURBVHic7N15vGVnXef775r2eOaaksoMhEG0VRrboWUQ0EYworaijQYSIKFb2tvacrmtgJYBHLsv2tgqkyGhO2iCwxUBL0OCTastCCYECBAgSc2nzrTnvcbn6T/2qaISq5Ka9lp77/V5v3JeVdlVeT2/OnVyft/9rGdwBCA3r3zzbXvSJLrYl13JVNnrOVp0XGfOcf09jpymXK/p+f6KI1uX49e9wJ+XleO4XtORdeX4nut5VUlyfb/iOnId13Mdz/ckyfMDT67jnG58z686zml+2VqrLI3saYs31mZpkkmSzdLMmswYK2PSNJYkk2WRbJpZK2Ot6cuRzZK0K5sOrbFDa7INY8zAyvatSVczk/Wsddue4sOpnE0/qB555+tesnrun10AZ+O03ygAnNp1P3vzkuaDqwPPvcrx/cfJ1SWOdXd7gb/ied6i4/oLru81Xa/a8Pyg5lWCwPOrvl+pOHLcosufbNYojWObJlFqkiTJ0iQ0WTQwada3Ju2kSdo2WbYpJ1s1mTmkzD4QZ/FXB3H0lTt+41XtossHpgkBAJB07etvvari6hvdSvAkz/Wf4HjeJZ4XXOwGwZLrVRb8IGj41VrVrzY8zw/4/2YCZWli02iQJVEUmjQeZGncNWm8laXpUZOagyaLvmrS7EuZm9377n3XP1h0vUDR+EaGmXbNjW9r7Npbf1rgVb5Vrv8Nnu9d4QXBXter7PSr9fmgVmsEtYbvekHRpSJHJkuUhMMkCYfDNB52TBpvZElyyGTZQyZNv5Ap/cfOVuUzd7zlxcOiawXGhQCAqfaS//R7yxVVvt2vB9/mefWneoF/uVup7q5UGjsrzblmtTHvM+2Oc5XFkYkH3UEc9reyJFnLsvRQmkT3yegf/OXGJ37v1S88WnSNwLkiAGDiXfv6W6/yffdfBkHwNL9Se7IfVK/0K/U9lUZzvtKYD063qA0YtzQJbdLvDuNhfzONo4NZEn0ly+J7rUn//hLztU/s27fPFF0jcDp858RE+Nm3/NlSmNjvdoye5VWqT/OD2hV+rb6n2phv+pUqX6eYOmk8VNTvDZOwv54MBwfSNLwnTuL/1d9IP3LHW1++VnR9AN9Ykavr9t18pSLzvZVG418G1cY3+dXaJdW5xZX6/FLAVD3KIhn2s6jXaSVJeCQJw/tsGv6dVws+8N9+/ke+XHRtKA8CAMbi2tfc2qwuBt8fBMGz/WrzaUGtcXVtfnE5qDa8omsDJlUaDsyws9WJw/7X4mHvnqQ/+IQdtv/s3b/9c62ia8PsIQDgvN1w021PdeS9yK9WvjuoNZ9abc7vqc0vVx2Xd/TA+bLGKOxuRWG/fTQNh19I4vgTgeyf/94bfuK+omvDdCMA4Kxc9/NvfbLfWHy+35h7ZrXR/Ob64s5Lq835StF1AWWTDAdm2NlciwbdLybh4BP9rdb7b3vLv/tk0XVhehAAcFqv3PfBS71K9yc8v/q9lVrzm2qLy7urjQWm8IEJFfU72bDbWo0HvXuzOPmI69T+6A9ef82houvCZCIA4IQbbrr1Wa5Xe0lQa357Y2H58bWlHXMOXyLAVIv63XjYXj8Ydlr/EIWD9/W/ufmnd7z4xVnRdaF4fHcvqWtf81tNv3HRi2v1+g9XGwtPb+zYfVFQbfD1AMy4NI3tsLWxEfc7dyfR8C97ydzN/2PfCzpF14X88Q2/JP7Nz79t59z8/IuDZvMHas2lb59b2b3ieMzmA2VnjVHY2ewN2hufiwa9j0ZR/Ae3vvllPDYoAQLAjLr2Nb/V9PyVa6tLSy9uzq88rbljz6Lr+UWXBWDCWWM07Gz2h+2Nz8bR4E/Ucd759t94MTctziACwIzYt8+6a80/u0Ze9frG3OJ31RdWdjk0fADnyWSpBltrW4PO1iejsPue7lOqf8QagtlAAJhi177m97+xOrfw6trC0vfN79x7ZaXeZOM9gLFKo9D0t1YPRb3OXcMofMu79/3k3UXXhHNDAJgi+26/vbL6Ve86v1p/SX1x5em1+eUmF+EAKIq1VsPWejjsbNwd9Xp3HNxY+m8feusLoqLrwpmhe0y4n3jtW/fONZZ/tr64/EPzOy95fFBr8C4fwERK48gMtlYPhL3WX/bDwW/euu+l+4uuCadHAJhAN+677clO4P9cY3Hni+Z3XryH1foApo01RoOt9U5v69jH0mT45nf+0k9+uuia8HAEgAnxypve84xqY/G1c8u7nlmdX1lgah/ArBg9KtgYdDeP/l0atn71nftefmfRNYEAUKiX/sIt39mYb/5ic2XPs5sru+do+gDKIOxuhb3N1b+JB703vuOXXvLXRddTVnScnN1w0/ueGlS9X2os7np+Y2UX7/QBlFrY3QoHrfWPR+Fw39t/8Uf/vuh6yoTuk4OXvu6WSxqNxr65HXt+uLljzw4+7QDwSFa99SPtzubRP3P67V98+6++6kjRFc06OtGY7Nt3l38gfehn6su7Xr108RWP9wJuzAWAM2GyVN21w/uH3a132B1X/cbbX/X0pOiaZhEB4AJ71a//8TMrlYV9czt3P6NSn+coPgA4D9Ggk3WPHf5kEndf9/bX/eRdRdczSwgAF8BP/sx/XWjs3n3T/I6Lr53bedEKz/UB4MILOxudztqh96zvX/1Pd/zeq3tF1zPt6FTn4RVvuOVbK82F31y66IrnVJpzHNADADlIwoHprB745LC98Zp3vfG6vym6nmlFADhL+/ZZd7X6Zz9fW1z+uYVdey/mUwgABbFG7WMHVwetjf+6dY/zG3fcwSVFZ4PudYZ++NW/u2PXRctvWb7k6hfX5peqRdcDAPi6eNCJW0cP/n9ha/PVN//ay9eKrmcaEAAewytff+tTKguLv7+098pnBtU6ny8AmGBJNLCdI/s/09vaeOW7f/V6bip8FDS003jlG9/77Fpj4beXL7nym10vKLocAMBZsFmm9ur+r/U7rZ955xt+/INF1zOJCACPcP2+W350YXnPby3tvepKPj0AMN2steqtHz7UXzv682/75X/zx0XXM0nocNtese89P9Rc3vnby3sfdwWfFgCYLdZadY8dWu1uHPq5d/7yte8tup5JUPpOd8Mb3/ODjYXdb1nae+Xj+HQAwGyz1qq7fvjIoLX179/2iz/yp0XXU6TSdrwbbrrtWXM7LvrD+V2XPI6DewCgXKy16qzuP9A9cuj6d/3qdR8rup4ilK7z3fj6dz++srTjv69c+oTvcDyv6HIAAAWyxqh15MH7BuvH/vU73/TS+4quJ0+lCQDXvubW5vyu+T9cvvQJP+ZXqqX5cwMAHluahHbr0AN/5fW7P/HWfT/VKbqePJSiEb76N//8zfN7Lvu/q4159vMBAE4rGnSTzYNf+d23v+7H/2PRtYzbTAeA619/63OWLr709oXdl+4ouhYAwPTobRzd7K0e/Im3/fJLPlJ0LeMykwHgmhvf1rjs6ov/aMdlT7jG9biRFwBw9kyWamP//X8d2vVr/vD/eUW36HoutJkLAK968+3/YXnvlb9ZnVuqFF0LAGD6hd121F594DV/8Asv/t2ia7mQZiYAXPuaW3cvXrzy0ZXLrv4mtvUBAC609upDXwrXjzzzD/a99FjRtVwIM7EP7lVv/KPrdz3+6rsWdl9yMc0fADAOtbmlnUFz4eee9LRnb/zjXX/yqaLrOV9T3S2v23dzbW5u5/t3XH718+S4RZcDACgDa7Rx4Ct/EziD733Lf3zxsOhyztXUBoAb3/zH37O054r31xdXmkXXAgAon0Fro79x6Gs/9If7fvKjRddyLqbyEcANb7r9V3Zf9Q3vqjbnWegHAChEUGtU5lZ2X/vkpz2z+ek73zd12wWnagbg2fvu8r9xrvehHVc88XlTVjoAYEZZa7W5/8v/O56/+Jlvf9XTk6LrOVNT00X/7a+998rG0t6/n9958e6iawEA4JH6G0c3up0D3/m21/7k/UXXciamYuXcda9/z/OXLn7il2n+AIBJ1dxx0Y6lXU/6/Mv3/Y/nFV3LmZj4NQCv+JXbXrb3id90e6Xe5Eg/AMBE8ytVr7m086e+4enPOfDpj91xd9H1PJqJDgA3vumPX3vR1f/sd/1KdSpmKgAAcD3faSzt/MGnfMszs0/f+b7/WXQ9pzOxawB++rf+4r/tvPyJP+249H4AwPSxxmjtgft+//f/0w//dNG1nMpEzgD8uzff8Y5dj3vqq2j+AIBp5TiOGsu7vu0p//w5l//DR//4L4qu55EmLgC86o23/+aeJ/6zn3E42Q8AMOUcx9Hc8s5vffLTnr386Y/d/ldF13OyiQoAN/7an/zyRU/4ptfxzh8AMDMcR82lXd/x5G95pvvpO+/4eNHlHDcxAeBVb7r9P170+G/8NcebmJIAALggHMdRc3nXs570tGduffpj7/v7ouuRJmQR4A2/evuzdl/xlLv8SnUi6gEAYBzSJLQbX73nOX/whms/XnQthTfc63/1D3ft2vMND9UXVupF1wIAwLiF3VYYHjly5e+87kWrRdZR7MN2a52lhSs+SfMHAJRFbX6p5i4tfErWFvomvNAA8Or/8v6/WNhz2ZVF1gAAQN4Wdl9y2at/6y/+vMgaCgsAL/+l//79Oy69+geKGh8AgCLtuOKJP/jKN/7xC4oav5Dph3377vJ7e4ON5vLuhSLGBwBgEgy21rptW91RxDXChcwAHGu03kfzBwCUXWN517zXPvjeIsbOPQDceNN7v33lsie+KO9xAQCYRDsuf+KPvPxN73163uPmHgDqiztu9vwg72EBAJhInuc78/MrN+c9bq4B4JU3vecZixdd/pQ8xwQAYNItXnTFN97wpju+K88xcw0AzaU97+KcfwAAHs5xXTXmF96Z55i5deOX33T7dy5ddPnVeY0HAMA0WbzoiqfccNMffVte4+UWABpzjZvEFb8AAJyS47qqNubemNd4uXXkueU9z8hrLAAAptHczj3fk9cRwbkEgFe+8Y7rq3OL1TzGAgBgWlWbi5Ubbrrtp/IYK5cAUJ+f//d5jAMAwLSrLaz8X3mMk0sAaC6sPDmPcQAAmHb1hZVctsuPPQDc+J/fv7M6t9AY9zgAAMyC+vxi88Z9t+0c9zhjDwBuOHgJq/8BADhDjivjeT8+7mHG35kz77VjHwMAgBniJ+4vjHuMsQeAoFpfGvcYAADMEr8+/t459gDg1+vM/wMAcBb8RnX8j+jHPYBXrRAAAAA4C15lBgKAG3D1LwAAZ8Pzx987c3h3ns+RhgAAzIwcbs4d+wg2y8y4xwAAYJaYNLXjHmPsASALo7H/IQAAmCUmGn/vHHsASMIhMwAAAJyFZDDIxj3G2ANAOgwJAAAAnIU0DMc+xtgDgAkTFgECAHAWsjAd+xg57DMM/HGPAQDArLDWynPG3zvHfxKgF7jDVmvcwwAAMBOi1qZ8L5j+g4AkabB2LI9hAACYev219VzGySUAZL0oj2EAAJh6ZpDkMk4uAaBeXVI8GOQxFAAAUyvudVWrLOYyVi4BwHFddfY/lMdQAABMrc6BA3JyOAZYyikASJIz/i2NAABMNSfOb+d8bgGgWltQm1kAAABOqfXQg6pWF3IbL7cAIEnJZj/P4QAAmBrpVr49MtcAUKstqv3QA3kOCQDAxGs/+KBqtaVcx8w1AEhSsjWUtVwQCADAiFHSzn+nXO4BoFZb1MaXvpj3sAAATKT1+76kWjWfrX8nyz0ASFIlayhqbxUxNAAAEyNsb6li6oWMXUgAcD1fna8dLGJoAAAmRveBQ3K9oJCxCwkAklSvr2jz/i8XNTwAAIVa/9IXVa8tFzZ+YQFAkvykpt7q4SJLAAAgd71jR1XJGoXWUGgAcF1PyWpf8YDzAQAA5ZAO+4qPduS6XqF1FBoAJCmoNNT58oOyGVsDAQCzzWZWrS89qEqlWXQpxQcASarVlrT2uc8VXQYAAGO19vl7cz/w53QmIgBIUqO6QggAAMystXvvVaOyo+gyTpiYACBJdX9Z65//fNFlAABwQa1/4QuqBytFl/EwExUAJKnmLmr9i/cVXQYAABfExn33qebmf9LfY5m4ACDHUU3zhAAAwNTbuO8+VTVfdBmnNHkBQJLkqKYFHbv3XrE3AAAwbaxG0/5VZ0FynKLLOaUJDQAjjWBF63d/li2CAIDpYTOt3XPvRE77n2yiA4Ak1Ws7tP7Zz8nEcdGlAADwqGySav2zX1SjOlkL/k5l4gOANLo3YOsLX+UGQQDAxApbLW1+4X7VqpOxz/+xTEUAkKRqbUHDAy21Hnqw6FIAAHiY9oH9Cg9uqlpdKLqUMzY1AUCSfL8if+Br7XOfl2SKLgcAUHLWWq1//vPyeq58v1p0OWdlqgKAJMlxVPeXtHb355WEw6KrAQCUVDIYaP2ez6vmLU3sSv9H4xddwLmq11bU/8phac7V0pVXFV0OAKBE2vv3y7Rj1WvLRZdyzqZvBuAkvl+TPwx07J57ZRJ2CQAAxsuksY7de6+8gasgqBddznmZ2hmAExxHjeqK2l98SMHOOc1dfHHRFQEAZlDvyGFFa101KpO/xe9MTPUMwMmCoCHbynTs3ns5MwAAcMGYJNaxz35OtmVUrcwVXc4FM/0zACdxHEeNYEWdLx2QaVqtPO4JRZcEAJhirQcfkO2malSm91n/6czMDMDJ/KCmSlzX2t2fU9jh8CAAwNmJeh0du/uz8sOKgqBRdDljMVMzAI9Ury0rPthRT0e040lPkuN5RZcEAJhgNku1/qUvqWrn1KjtKLqcsZrpACBJruurpkW1vvCATC3TyhOeKGcK92sCAMar9eADMp1U9cp0HOV7vmY+ABwXBHUpkzbv+aIqu+Y1f8mlRZcEAJgA3SOHFa1uqVZbkiqVosvJzUyuAXg01dqCnK6jtbs/p8HmZtHlAAAKErVaWr/nc3JaZtT8S6Y0MwCPVK8tKzva17H9BzV/+aWqr8zGvk4AwKML21vqPHhQ9WBJtersre4/U6UNAJLkuK4atR1Kt4PAwuWXqLYy24s+AKCshq2WevsPqRYsqlHlTV+pA8Bxx4NAcnSgzv5Dmr9ir+rLO4suCwBwAQxbLXUfOqB6Zbk0C/zOBAHgJF+fEQh17KHPqrl3j5q79xRdFgDgHPRXj6p/ZE316jLv+E+BAHAKjuOoUdshu5lq/fAX5C/VtXjFlWwfBIAp0Dl0UNFaS/Xqkho1Gv/pEAAeQ622KIXS1r33KwtS7bj6arl+UHRZAICT2CzV5te+KmcgVapzU31Nb14IAGeoUmlKkjr37VfiDLV4xeWqzC8UXBUAlFvUbavz0AEFtqFqMCdVi65oehAAzpIf1OSrpvhQR+1wv4KlJo8HACBH1lp1DuxXvNFRrbqkus+7/XNBADhnzmiKKZRa996vzEu0cNVVqjRm89IIAChaEg7VfuhBuaE7muav83z/fBAALoCg0lQgKXxwXe24rcqORS1edqlKeNAiAFxgRu39BxVttlWvLKnmLjDNf4EQAC4g1/VUr61Ifal17wNKbKi5S/eovsKZAgBwNoYb6+odOSrPVFSpNFnNPwYEgDE5vlYgOxZp48B9MhWrxSuu5BEBAJxGFoZqHXhIpp+ozrP9sSMA5KBaHe0WGD0i6Mibr2rp8ivkBuW5dQoATsUksdoP7VfSHapeXVLVnZNqRVdVDgSAHI0eESxLidS7/6iiuCO3GWjx8qvkVwkDAMrBpIk6Bw8qbnVVqywqcOsK6vWiyyodAkBBToSBTBp89YjCuKPKYlMLl13GQUMAZo5JY7UP7FfaHqoaLMj3KvJrXL5WJALABHBdf7TAJZJ6Xz6iKO7IqXuav+RSVefmiy4PAM5JOuyre/iIsl6oij+nwKsrqPFOf1IQACbMiZkBKyUH2+pFB2W8THMX71Z9x+6iywOARzXc2lTv6FEpMqpVlxQ4dQVVmv4kIgBMNOfEAsJsLdHmwS8pdRLVluc1v/cSOR5/fQCKZbNUncOHFW215duqKtWm6s4iC/mmAB1kilSqc6pIUl/qfunw6FFB4Ki2c1lze/YWXR6Akhhubap/bFV2kKpaWZDn+WpU2Kc/bQgAU+rEowJJ2rLaOna/UhPKX2hqfu9e+VXiN4ALI4tCdQ8fVtLpy3drCoKGalqQmNmfagSAGREEDQVqSJEUfm1dUdxVplT+fF0Ley+VXyMQADgzJonVPXJEcacnJ3NVDebku1X5Vc7gnSUEgFnkfH3tgGIpfGAUCIxjFCw0NH/RxfIIBAC2mThW9+gRxZ2ulEq16qI8x1fdX6JLzDD+asvg5EAQSoOvrY0CgZupMt9Uc/duBc25YmsEkJuo19VgbVVpN5RjXFWrC9sNf5muUCL8VZeQ47qq1RZH/xJJ0YG2+smqknQg1TxVFxY0f9HFcjyv2EIBnD+bqb+xqXBrU9kglq/R5TqBU1dQ4SF+mREAIGn78qJg+7FAV+q2DihKerKeVJmrq75jp6oLi8UWCeAxRe0tDTY2lPSHo+f3lTm5rq+q5rhGFw9DAMApuV6gure9yyCSksM9hQe2lCQDGSeTP19Xc9ceVec5qRAoStTtarixrqTXl1Ip8Bryg6oC1RUEdYlTxfEoCAA4Y54XyPO2ZwFiKTnU0SBZVZKGku/Ib1ZVW1pRY2VJkltorcBsMQo3tzTc2lI6HEqpo8Crb187XpHvV/hujrPGlwzOSxBsv9OQpFgyx4bqrvaVxAOlNpJT9VVpNlXfuVOVRrPYYoEpkEZDha0tRZ2uskEs13qqVJpyXX/0zt6v850bFwRfRrjgHMfdPrVwe2fBQIr3t9RPDivNIsmxcmsVBXNN1ZdXFDQaxRYMFCAd9jXY3FLS68uEsWQd+W5VQWX0/wPP7DFuBADkJggaCoLtZm8ldaWou6V+elRJOpR1jNyKp6DZVGVhUfXFeclhJwKmmM00bHcVd9pK+n2ZOJNjXVX8ujy/KlcOjR6FIQCgcL5fle+f9B1wIGWDvrqHu0qzUGkWyTpWru/KrVdVaTbUWN4pt1IprmhgmzVGYbuluNtVMhzIxKmcdHTNdxA05bqePPnynEUaPSYKAQATy3FdBe5JswaSFEuKrQabxxQnA2UmlhwreY68akVerabqXFPVhUVuS8QFYbNUUaetqNdXOhzKxIlsauTKk+sGqgQNyXFGTV4Lo5X3rL7HFOA7JKaT46hSaUo6aWFhJqkvpf1Q6dGhkjRSlkUyyiTXkRt4cquB/FpNlWZT1ea8HJ//BcrMpqnCXk9pv6ckCmWiWCbJJCO58uR5VQV+dbvBe/I0N/quyZcNZgBfxphNjqMgqCkIHnHnQTz6SDsDpRooSyOlWSxjU1lZOZ4jx/fkVQJ51Yr8Wk1+ra7KXFNsbZwWRnGvryQMlYahTBQpixOZNJMyK0eOXMeX51VH2+ckOXJUUV1y6hJPllASBACUmudX5fmneDCbjD5ML1GsRLFtj4JClsjYTFaZrCPJdeX6jhzPk1vx5fmBvEpV/vbjCL/KUavnI42GysJQaRQriyNlaSITp7JZJpNayWRyrCNHnlzH2z6roiI5jiTJkytPdQVOnal54BEIAMCZcJzRQsVThQVJMpLC0U+tUiVKlWggySrLEhmTyphU1hpZGVlJcrb7lDvaOinPlet5kufK84NRqPBdOV4wel1SUB/NaLh+INefjG5m0kQmTSRJyTDcfi2VNalMamSzTFmaSJmRyYyUZbLGyFqNdoPY0btyR64cx5Xr+nJdX54XSHJOjONut3Np++XJ+OMDU4sAAIyVI8+rjN6Vnols+yM+/oKVVazsxC8PH/777ShgjH46ChePZM2pX3/0ql057j995HG8SUujkyGPv9M+HVeOJF/eyd9qvO0PAIUiAADTzHHk+Ty0BnD2WNUEAEAJEQAAACghAgAAACVEAAAAoIQIAAAAlBABAACAEiIAAABQQgQAAABKiAAAAEAJEQAAACghAgAAACVEAAAAoIQIAAAAlBABAACAEiIAAABQQgQAAABKiAAAAEAJEQAAACghAgAAACVEAAAAoIQIAAAAlBABAACAEiIAAABQQgQAAABKiAAAAEAJEQAAACghAgAAACWUQwBwCRkAAJyV8ffOHJqzHf8QAADMlPH3zrEHAGtJAAAAnI08eufYA4DjEAAAADgbefROns8DAFBCBAAAAEqIAAAAQAnlsQjQGfcYAADMkjx65/hnABz6PwAAZyWH3jn+GYAsGfcQAADMlDx659gDwMaxL0bjHgMAgFmyeezL4bjHGHsASJK+Zy1HAQAAcCastYqSnj/ucca/BsBabzhojX0YAABmwXCwKccab9zj5LINcDjYzGMYAACm3rCfT8/MJQBEBAAAAM5INJyhAJBmA8VRL4+hAACYWkncU5oNcxkrn5MArdRtHcxlKAAAplVr86Bk8zk/J7ejgAf9dYndAAAAnIbVcLCR22i5BQBrM3Vah/IaDgCAqdLZPCTZNLfxcr0MqN3aL43/imMAAKaLtWq39+c6ZK4BwJpE7c0DeQ4JAMDEa2/tlzX5Hp2f+3XA3fYBWWPyHhYAgIlkrVGngIXyuQcAY1JtrN2f97AAAEykjdUvy+b47P+43AOAJA17RxUO2kUMDQDAxAiHLQ0GRwsZu5AAYCVtrN3HtkAAQHlZq43VL+a27/+RCgkAkpSlkTaOfaWo4QEAKNTGsfuVZVFh4xcWACSp1zusXqeYqQ8AAIrS665q0DtSaA2FBgBH0ubal7knAABQGnHU1+balws/FafQADBidezwvTImK7oQAADGyphUa0fvlWzx2+EnIABIxsRaPXwPiwIBALPLWq0eukdZWtxz/5NNRACQpCTq6ughQgAAYAZZq9VDn1UST84j74kJAJIUR20dO/L5ossAAOCCOrb6eUVRq+gyHmaiAoAkhcMNrR/9YtFlAABwQawd/YLCfn7X/J6piQsAkjTor2r10L08DgAATC9rJOWRAQAAIABJREFUtb76JQ37a0VXckoTGQAkKQo3dfTQ3bKEAADAtLFWq4fu1aA3uWfdTGwAkKQ46ujowc/ImPwvSQAA4FwYk+nwwU8riraKLuVRTXQAkKQk7mn14GeUTsi2CQAATidLQh058A9K437RpTymiQ8AkpQkQx3d/ykNJ3ARBQAAkjQcbOrw/k8rS8OiSzkjUxEAJMnYTGtHPq+tjQeLLgUAgIdpbR3Q+pF7ZTU9j6z9ogs4K45Vt/WQ4qij3Rd9oxx3avILAGAGWWu1sXqfBhO60v/RTGUHjYZbOnLgU1wiBAAoTBz1dGT/J6ey+UtTGgAkKU1DrR76R21tPFB0KQCAkulsHdTqoc8onZLn/acyXY8AHsFao25rv8LhlnZd9FT5frXokgAAMyzLYq0d+YLiqF10KedtamcATpZEXR058A/qdSb3wAUAwHTrto/oyEOfnInmL035DMDJrEm1ufZFdVoHtOuipyqoNIouCQAwA9Ik1PqxLyoOW5Kcosu5YGYmAIw4SpOBjh74tJrze7Wy+3Gapb8sAECOrFV7a786rf2y1mjW+smMBYARK6Ne96DCcEM7dj9F1dp80SUBAKZIOOxo49h9U3Ooz7mYyQBwXJoMtXr4H1WtLGrnnifJC2pFlwQAmGBpGqu1/hUN+uuSZvsyupkOAJIkaxVFLR3a/yk15/doZdcT5DgzsfYRAHCBWGNG0/3tg5LNii4nF7MfAE4w6nePaNhf18LS5VpYvrToggAAE6DXWVVr46syJim6lFyVKACMGJOotflV9bpHtLhylZpzO4suCQBQgH7vmFobDypLh0WXUojSBYDj0mSgjdXPqbPR1NLOx6veXCm6JABADgb9DbU3H1QSdzVrK/vPRmkDwIijJB1o7ei9CoKmlnY+TvUGQQAAZlE4aKu1+TXFcVuyjsrc/KXSB4CvS5K+1o7eq2plUQvLlzMjAAAzYtBbV3vrISVJl8Z/EgLAyawURW2tHf2sXK+uxeXLNL9wseTwxQIA06bfX1dna7+SqLv9Ct/LT0YAOCVHJgu1tX6/2lsPaX5hrxaWLpPjsn0QACabVbd9VO3WQzJpVHQxE40A8BhMFqu99aC67UNqzu3WwvLl8vxK0WUBAE6SppHam/s17K3KlGQf//kiAJwhYxJ1O4fU7RxSUF3Q0vKVqjeXiy4LAEptONhSZ+uA4nBrxs/tu/AIAOcgiTpaO/pZeX5Vc/N7tbB0KY8HACAn1hp1W4fV7x5VkvTEs/1zQwA4D1kaqb31gLqt/ao1d2hh6VJVqlw8BADjEIVddVoHFA23ZEy6/SrN/1wRAC4AYzMNesc06B2T6/pqzu/V4splcl0+vQBwPozJ1GsfUb97REk6mPX7eXJFh7rAjEnVbe9Xt31AldqC5uYv1tzCnqLLAoCpMhxsqds+pGi4KWvp+uNAABgbqzhsazNsa2v9K6rXlzW/dJmqdR4RAMCpxFFf3fZhDQfrMllcdDkzjwCQA2tTDQZrGgzW5Di+GnO7tLh0mfxKvejSAKBQaRqNpvj7x0aX8vBmPzcEgJxZm6rfPaJ+74iCoKl6c5fmFi6S71eLLg0AcpGmkXqdoxp0jylNB0WXU1oEgKJYKYn7SuK+OlsPyvNrqtV3amHpYgWVRtHVAcAFlSWhet1jGg42FMddief6hSMATIgsDdXvHlS/e1COG6jR2KG5hYtVrS8UXRoAnJMk7qvbPqrhYENpMpDDvSoThQAwgaxJ1O8dVb93VL5fU6W2qPrcTjUbO7iYCMDkslb9/roGvTVFYUsmS078Es1/8hAAJlyahkp7oQa9VW3IUVCdU62+pPn5i1lECKBwaRpp0F3TcLClOG7LGs7hnxYEgKlilURdJVFX3fYB+X5N1dqKGnM7VK8vMzsAYPys1XCwqUF/Q8PBlrIs5Cy+KUUAmFZWSpNQaXJY/e5hSY48v6ZqbUnNuZ2qN1eKrhDAjIijnvq9NUXDtuK487AFfDT/6UUAmBlWWTrUoDfUoHdEruerUplXrb6sxtwu+UGt6AIBTIkkGarfW1c03FQ87MqKaf1ZRACYUSZLFQ63FA631Nr8mlzXl19pqlZbUq2xrFp9segSAUyINB5q0N9QGLaUxD1lWcSBPCVAACgJY1LFYVtx2Fan9ZAcOfKrc6pUF9VoLrOGACiROOpp2N9UFLYVRR3ZEzfroUwIACVlT1pQ2O8clOP68oO6KpU5VeuLqtdX5PlB0WUCOE9Zmmgw2FA8bCmO+0rTgawxRZeFCUAAgCTJmvTrgaB7RJKVHF+VypyC6rxq9UU1mityHLfoUgGcjrUKw66iYUtR3FUS9Ubn67NUD6dAAMBpOJLNFEdtxVFb/c5BbTiuAr8uP6hvn0ewqGp1QY5LKADyZo1RGLYVhR1FYUdpMpDJwlOcsEvzx6kRAHDmrFGS9JUkfQ0H6+psSbKOPK8qv1pXtbqgam1B1fqiXNcrulpgZhiTjd7VDzuKoq6SZCCTRUWXhSlHAMD5cawyEyobhoqGWydedh1XftCUH9QUVJqq1pdVq82z0BB4DGk81HDYUhz1lCR9pfFQxsasyscFRwDAWBhrFMfd0a1f/TVp60HJceS5ldEjhKChSm1eQXVO1UqTYIBysVZx3FMU9hTHPaXxQGkyUJbFRVeGEiEAID/WKssiZVmkKGxJ3e3XHUeO3O1gUJfn1xVU6qrVlzjACFMtSxPFcU9J1B+twN9u8jaLZLgOFwUjAKB41soqUxL3lMS9h/2S43ryvKo8ryI/qMn36/KrDVUrTfkBlyGheGk8VBT3lcR9pclQaRoqSyIZE8tattthchEAMNGsyZSa0fRoFD7iFx1HrhucCAeeX5Pv1xQENfmVhgICAi6ANB4qSUYfaRoqTYbKskhpEsnaVKdYdg9MBQIAppe1Mlksk8X/ZOZgxJHj+vLcQK4XbM8g1E786AVVBUFNbJMqK6s0DpWk4ehirTRUlkZKk1AmS2RMLGMysfoOs4oAgBlmZU2i1CRSKsVR+5/+Fkdy5clxfTluIN/z5XhV+X5Fvl+T61fk+1V52z9i8qVppCyNlaaRTBorSYfK0kQmi2RMsv2RydqM3o5SIwCg3KxklElZJmWR0uRRfq8jOY4nR65cz5fjePK8ilwvkOeNZhkcx5fn+Sde87yKPC9gl8PZslZZlijLYmVZIpMlyrJU1qbK0ljGpNuL6UbN3NhU1hqaOnAWCADAmbKStZmsMhkzSgqPlhceZnung+N6o0OSHFeu48lxPUmuPNcdnajoePLcQI7rbgeNQI4zChyS5Dq+HNeRHFeeu/2a5+d+RLM1Rmb7ApksSyRZWWtPvGayUUM2Jhk1ZmOUmUSy2fbPzejn1siabPTf2lTWmNHVszxXB8aOAADkYXung80ymTFdrW5ltwPFP+Va98yXOljJOKdevW6zTA6zGcBMIAAAM8KRI53mljcjc3ZT46f5vTR/YHZwiwsAACVEAAAAoIQIAAAAlBABAACAEiIAAABQQgQAAABKiAAAAEAJEQAAACghAgAAACVEAAAAoIQIAAAAlBABAACAEiIAAABQQgQAAABKiAAAAEAJEQAAACghAgAAACVEAAAAoIQIAAAAlBABAACAEiIAAABQQgQAAABKiAAAAEAJEQAAACghAgAAACVEAAAAoIQIAAAAlNDYA4C1hAwAAM5GHr2T5gwAQAmNPQA4juy4xwAAYJbk0TtzmAFwCAAAAJyV8ffOHAIA/R8AgLMz/t6ZxwzA+IcAAABnhUWAAABMnPG/ec7jEQBTAAAAnJXx905mAAAAKKGxB4DMGFYBAgBwFkwOvXPsAWDQ34rHPQYAALNkMGiNvXeOfwYgin22AgIAcGastUri0B/3OONfA+BmbpoyCQAAwJnIskiOzGzcBZDGUR7DAAAw9ZI4nzfNuQSAKOrnMQwAAFMvzqln5jMDkETKsiSPoQAAmFpZlihN8pk1z+0cgGjILAAAAI8mGvZyGyu/ABD2xG4AAABOw0pRNIMBwJhUUcgsAAAApxJFPZksy228XI8CHvbbspZZAAAATmat1aDfynXMXANAliWKc5zeAABgGsRhTyZLcx0z98uABswCAABwgpXRYNDOfdzcA4DJUg1znuYAAGBSDXrt3N/9SwVdBzwcdHLb5wgAwKRK00jhoFPI2IUEAMmq190Q2wIBAOVl1e+sq6heWFAAkLI01qCX/zMPAAAmwaDfUpoWd0puYQFAkoaDFvcEAABKJ44GGvaLfRNcaACQpH5nQ1mBCQgAgDxlWaJed73oMooPANYaddvHZI0puhQAAMbKWqNua20iel7hAUDaTkOdNbEoEAAws6xVt31MWRYXXYmkCQkAkhTHQ3Xba2QAAMAMsup21pXEYdGFnDAxAUAaLYqYhOciAABcOFb97obiCVv0PlEBQBpdG9zvbRRdBgAAF4BVv7upcDh59+BMXACQpHDQVa+zzuMAAMAUs+p3NhUOu0UXckp+0QWcThT2ZK3R3OJOOZOZUwAAODVr1e2uKQ4HRVdyWhPdWeNooG6LLYIAgOlhrVG7tTrRzV+a8AAgSUkcqtM6WshNSQAAnA2TpWpvHVWaTM5q/9OZ+AAgSWkaq711WEk8LLoUAABOKUlCtbeOKEsnY5//Y5mKACBJxhh12qsaDrhACAAwWcKwq25rVcZkRZdyxiZ2EeApWWnQ21KWxpqb3yk5TtEVAQBKzNrRHv8onLxtfo9lugLAtijsK00TzS/slOdXii4HAFBCaRqr31kr9Erf8zE1jwAeKUtjtbaO8EgAAJAzq+Gwo/bWkalt/tKUzgCcYK0GvS0l8VBz87vkel7RFQEAZpjJUvU6G0qS6V+UPrUzACdL4lCtrUOKp/AZDABgOkRhT63NwzPR/KVpnwE4iTVG3c66/GFPcws75HlB0SUBAGaAyVL1uhsztxV9ZgLAcWkSqr1xRPXmgurNRUnsFAAAnAMrDcOOhr2WrJ29E2lnLgBIkpXRoN9SHA3UXNgh368WXRIAYIqkaaheZ3NqDvU5FzMZAI5L01jtzSOqVJtqzi3L9Wb6jwsAOE/GpBr22grDybzB70IqRUeMo77ieKB6ffRYwHFmYu0jAOBCsaOtfcNBS9aU4y76UgQASaO/3EFbUdhTfW5JtdqcWB8AAGVnFUcD9btbMqZcl86VJwBsMyZTv7OhaNBVfW5JlUpdBAEAKBurOBpq0G/N9HP+R1O6AHBcmsbqto7J8ytqNBdVqTaLLgkAkIMkDjXobylNoqJLKVRpA8BxWRqr216T73fVaC4qqNaLLgkAMAZJEmrYbymJw6JLmQilDwDHpWmoTjtUUKmp3lhQwKMBAJgBVnE81LDfUZrQ+E9GAHiEJA6VxKE8v6J6Y0GValMO1w4DwFSx1iqJBxoO2kqTcj7jfywEgNPI0li9zrpcr6VaY0G12hzbBwFgwllrFIY9hf1O6Vb1ny0CwGMwWapBd1PDXlu1+pxqjXm5Lp82AJgkWZYqHHYVhV1ZM3vH9o4DnewMWZtpOGhrOGiP1gnUFxVUa2KdAAAUJ0lChYOu4rgvleP8nguGAHAOTqwT8AJV63Oq1ed5PAAAObHWKIr6igYdpWlSdDlTiwBwHrIs0aC3pWG/rUqtqVp9jouHAGBMkiRSHPYUhf2ZvJ0vbwSAC8Bao2jYVTTsyvMqqtabo0WDrld0aQAw1YzNFEcDRYOu0pKe2DcuBIALLMtiDXqxBr2WKrW6arU5zhQAgLMy2rsfDXuKo6F4uD8eBICxsYrDgeJwIMfxVK02VKk3FQRVEQYA4J/K0kRR2FMU9mRMVnQ5M48AkANrM4VhV2HYlev6qtQaqtbm5PuVoksDgEJlWaw4HCgM+zIZC/ryRADImTGpwkFH4aAjz6+qWmuoWm3K9firAFAOJksVRX3FYZ/n+gWi6xQoSyMNepEGvS15fkXVakNBtc5OAgAzJ0sTxfFAcTxQGpf7Fr5JQQCYEFkaa5DGUr8l1w1UqdVVqTZYMwBgamVpojjqKwr7ypjenzgEgAlkTKJwkCgcdOR6nirBaGYgqNQ4cAjAxLLWbB+UNlQcDTmLf8IRACacyTKF2WgBoRzJD6qqVBqqVBry/KDo8gCUnMlSxclQSTRUHA8ly5a9aUEAmCZWSuNIaRxpoC15XqBKta6gUlcQ1CSuLQYwZtYapUmkOBoqiYdM7U8xAsAUy7JEw0Gi4aAzmh3wqgoqtVEgqLB2AMCFYJWm8Ymp/SSJeJc/IwgAs8JKaRopTSMNB205rqsgqCkI6gqqVXkeZw4AOBNWWZoqSYZKolBJEnLu/owiAMwoa4ziaKA4Gkg9yXE9BUFV/vEPvyqHRwYAjjf8NFQShUqTkFP4SoIAUBLWZF8PBJIc15HvVxUENflBTX5AIABKwUppFilJou01RaGMpeGXEQGgpKyx28/0QkmS4zhyvUCBX5VfGc0QeL4v1hEA082YVFmSKElCJWmoLE5kxZQ+CADYZq1VlsbK0lgKu5Ikx3HlB5XRLIE/enTguJxDAEwqa6zSLFKaxqN390zn41EQAHBaXz/UIzzxmut622sIKqNZgqAi1/UKrBIoJ2vNqNGnsbJk+0fO1cdZIADgrJhHrCWQJNfz5QcV+d4oEPg+oQC4kIxJlaWJ0mTU5JMkljHsv8f5IQDgvJksVZylivX1UOA4rrwgkO9W5AaBfK8iz6/I5RECcFrWGmVZoizd/sgSpUnEND7GggCAsbDWjJ5BKpK+/gRBnufL9Y8HgmD04QasLUCpPLLRp1kskybKMs7OR34IAMhVlqXKslSJhg973XU8uZ7/9VDg+fK8CjsRMNVGU/epMnO82cfKslSGRo8JQADARDA2k0kzpekj7gl3HHnuKBC4nr89g+DLdQN5vidHzBygQNYqzVIZk8ik6YnmnmWJMpNyZC4mGgEAk81aZVmsLDv16mbX9R8WDhzXG/27O/pwXGYPcO6sNTJZOnonn2WyJhs19+1Gz7N5TDMCAKaaMaNvzjrNgmjHceV6vlxvOxg4o5+77vEPn/UHJWVtJpNlMsaMvo6yTMYefxefyWQpZ+BjphEAMNOsNdsHHJ02I0iOM1qD4PpyPfekHz05zigoOK4rx3XlOmxvnGTGZrLGyBoz+nlmZOx2QzeZTLbd7G3G9DxKjwAAWDtqEiaVHmttlrO9YNF15WwHA9f1RsHAceU4rhx3FCgc1xn9u+PJcRzuWjhD1trRhzGyymSN3W7sVrJmNC1/ormP3sFbk2039aKrB6YHAQA4G3Z7waLJ9ChzCqc0CgPO1wOB60iOI0fu9vkIzvavu6PXXUeu4574byVn9M92kHAcV87xHRLbax1cjf7bsbBW5vgZ8mbUaa3siWlya+12A/76a8aa7cY9es1aK8mOmrbM6HWz3fBtJmMN78yBnBAAgJyMGqAkFbNwzNkOG4/G6niTBjDrCABASVhrZQsKHwAmD8ufAQAoIQIAAAAlRAAAAKCECAAAAJQQAQAAgBIiAAAAUEIEAAAASogAAABACREAAAAoIQIAAAAlRAAAAKCECAAAAJQQAQAAgBIiAAAAUEIEAAAASogAAABACREAAAAoIQIAAAAlRAAAAKCECAAAAJQQAQAAgBIiAAAAUEIEAAAASogAAABACREAAAAoIQIAAAAlRAAAAKCECAAAAJQQAQAAgBIiAAAAUEIEAAAASogAAABACREAAAAoIQIAAAAlRAAAAKCECAAAAJTQ2AOAteqMewwAAGZJHr0zhxkA5w3jHwMAgNnhyH39uMcYewCo2vnbxj0GAACzpGLn3jvuMZxxDyBJz33BdW0rLeQxFgAAU82qfeeH3r007mFyWQRorL6QxzgAAEw7x7W59Mx8dgH4emsu4wAAMOWs/LfkMU4ujwAk6TkvuG4oqZbXeAAATKHwzg++u57HQPmdA+A6H81tLAAAppCV8//nNVZuASBJs9flNRYAANPIOuPf/ndcbgHgE39162clFgMCAHBq9nMf/8C7PpfXaLkeBez63k/lOR4AANMiM5WX5zlebosAj3vOC66/W7LfnPe4AABMLGs/c+eHbvnneQ6Z+2VAYRJdJ8nmPS4AAJPISta4/svyHjf3APC3H7ntbivdnve4AABMIsex/yPPZ/8nxs17wG3uc19w/ZqVXSlofAAACmel1l0ffPcOSSbvsXOfAdhmPD/64YLGBgCgcFaSjPejKqD5S8UFAH34L277n3Ls+4oaHwCAIjmyt9/1V+/6WHHjF+y5L3jZl62cq4uuAwCAvFjZB+764C2PK7KGwmYAjssGzr9wZPtF1wEAQB6so+GcV/0XRddReAD4+Mff3XI853mOU8wzEAAAcmSCxPme97//7etFF+IVXYAkfe3Ldx+86upvOSbpB4quBQCA8bDWZPZVH/vwLe8vuhJpQgKAJD1w/93/cNUTvrkvx/m+omsBAOBCs47z+o9/6JbfKbqO4yYmAEjSA1+552+vvPpbq47sMyZgfSIAABeGsW+660O33FR0GSebqAAgSQ/ef/fHrrr6Wy+S9PSiawEA4Lw5euudH7rltUWX8UgTFwAk6YH77/7AVVd/S03SdxddCwAA58yxv33nB2752aLLOJWJDACS9MD9d3/s8U/8lraR/pXD8wAAwFSxVo7zC3d+4JY3FF3J6Ux8Y33eC6/7EWN1uyY4rAAAcJwjGWvsT935V7e8t+haHs3EBwBJ+p7nv+K5rpt90EqVomsBAOBRRJ7n/KuPvP/mvy66kMcyFQFAkp7xIzdeXAnjT1npkqJrAQDgFFb9tPFtH/7w7x0oupAzMTUBYJv73B+4/i+tsd9fdCEAABxnrf73s779ymfs27cvLbqWMzVtAUCS9Nzvf+kbrOP+iqa0fgDAbLCSlZxfv+uDN/9i0bWcraltoM954Q3fJZt+ULKLRdcCACgfK6frOtmLPvaBW+8qupZzUfhlQOfqzg+842+f+S+u2Cnr/FnRtQAAysTKWv31zmZv57Q2f2mKZwBO9qwXvOJa30nfaa3DLgEAwNg4Upw55hUf/8Ct/73oWs7XTAQASbrmmht39rPko5L95qJrAQDMIGs/M5wbfO/f3XHHZtGlXAgzEwCOe87zX/ZvHFfvsHKaRdcCAJgFdihXr77zL2+5uehKLqSZCwCS9Oxn76u59Yduk2N+SHJm8s8IABg/a/XXnWOVF3z6028fFF3LhTbTzfF7r7n+WWlm3ufI2Vl0LQCA6eFYHcus+dcf/6tb/1fRtYzLTAeA4577A9e/1hr7K5JqRdcCAJhcjmNjGffXP/ahm3+56FrGrRQBQNp+LNB84B2S+xJZO7XbHwEAF56VtY51/9wMr3jJxz++Lyy6njyUJgAc98xrrr3KS73bHEffUXQtAIBJ4NyjmvuiO//0XQ8VXUmeShcAjnveNdd9h82cP7QyTynxpwEAysvag45rXzrNh/mcj9J3vmc//6Xf7bne263sU4quBQCQA2sPetIrPvKhWz5cdClFKn0AOO55L3zZC411/qukxxVdCwBgLFbleD9z5wfedUfRhUwCAsAjPO+F1/1IZu1/duRcVXQtAIAL4qvG817z8fe/68+LLmSSEABO4zkvvOG7rEn+i+PYb+cwIQCYRs49rmf/7Uff/+7/XXQlk4jG9hi+7/t++rLUG/6O4+pFlu2DADDRHEfGGH3Cb8Q3fORPbru/6HomGQHgDF1zzY07+yZ6i6zzo+JAIQCYNENHzh2DZu/nZuWynnEjAJyDZ7/wpT/lWvdXxIJBACjaquM6/+/H/vLm3yy6kGlDADgPz3j+S/9Zxfd+3RrzfZLjFV0PAJSEsVafDDLnZz/84Zv/vuhiphUB4AL4sR/7sbnN3tw+4+iljuyuousBgFnkWB0zjm7Z2ezfdMcdd/SKrmfaEQAusOf94Cu+1RrzZmvs8yQFRdcDAFPNUWaNPuW4wc/f+YF3/G3R5cwSAsD4uM97wcv+Qyb9jORcxScaAM7K16yc37nrgzf/riRTdDGziL6Ug+/8sR9bqQ8ar5d1XiJpT9H1AMBEstq0+j/t3V+MVHcdBfBzfnd22Z11l3aUAq5AscUoSaNlJfVPi5TCNliwDVpjMBAbFF9sjIkPPhgzD74aTUx8IFYNTWp0678QpKxp2HRtG4y1hjZtY2tCliooZgIsO/tn7v0eH0qa+kAtpeyd2T2fx3mZk7kz9575/e79/fRo3rukPv7rA6fLjrPQuQDMs9d2I0zfIvg5ELWy85iZlYlAU+LRSOk7Y4cfer7sPIuJC0CJttzzlU+Q+bcRsUlgX9l5zMzmyRQTn5Aq3/W8fnlcANrE8PADt+Vd8TWI2+BpAjNbYAhcQOKTkafvHXvsocfLzmMuAG1p22d3r8ubXd8keS9cBsysIwkEL0h8vKWiPv7YwRNlJ7L/5QLQ5nbs2Ds4XWTfQNJOCDcL8H4EZtaWSIZCr4j4Xd7T/X3fyNfeXAA6zJ137703dWVfVaHbQNV8CM2sTASaIZxIyh6+42OrDtTr9bzsTPbW+OrRwe6664vro7vydZLDAFbDowNmdo0RiAAmABxVhh+MHfrZS2VnsrfHBWAB2bbzgU8VEV9GYDOIQYA+vmZ29YQGMx4vVDwydvjgI/DCPAuCLxAL1NDQ/up1y4ovBYvPk7oV4EDZmcysQwjnmfAsimykmFn1k7Gx+kzZkeyd5wKwSAwN7a/2r5jZlTHbrdAGCDeAPv5m9tojeiG8kDL+ptl78cdPj4w0ys5k154vAIvU5s31Hvad3M3AfSA2ClpOTxmYLXyCQPwriX+KLH4bF9f+3P/wFyef8O11Wz+z79Yo8j1Q2kJorQBPG5h1NAHgLIB/gHpKuR49dvTgIXgO3+ACYG/i4/ffX6tODnyBjLsDsQFMKwBVys5lZpejnEinKTwb1JHpvqlfejjfLscFwK7Ill371rCJe8TYCurDAAY95QlKAAACuUlEQVQBLCk7l9liQzIknZXwEqXxyCq/8GY6diVcAOyqbdm1b02ayXeFeCeIWwCshEuB2TtpRsCZTDyBpGOpVf3V6OiPTpUdyjqbC4BdE0ND+6u197Y2Fq3YKvIOQjeBXAYXA7PLurSU7jmQp6Q4rqTx2er07z2Mb9eCC4DNqx079g7OQJ8OpU0IrBexmuBSAF1lZzObRy2B5wBNEHghinii6Os57LXzbT65AFhbeOOIAStpCIEbAQ0G0E9/T61zzUI6K/BVQCeUNN7d0ujo6MP/LjuYmU+s1vY27dyzNgU/mcANZPogAjdKWg6iHx45sHKJwLSkhsBXmfQKmZ5LxPE/HPrpOPy4nbUxFwDraNu3PzgwlU3ennJsZMKHIKwBtZzAuwFUAfqxRbsKzCFNiWok4kyIEwq8CGXHe1P1qSNHfnih7IRmb5cLgC1o9Xq98se/nLoFMffRUFqP4E0iVpGqIbgURC+A7rJz2vwjNafgNJLOS2xk4kSk+HtivIjU/efbN6x6zlvb2kLmAmAGYHh4zw3K0kciwzoUaZ2A1YJWAnwPqX6BVUg9pCreZbFdSRJzkDOEmhInAf2H4GkCE8ji5VTgZRbxV8/Bm7kAmF2xoaH91SW1ix+odne/H8DqgNZIXJmEGoilAPul6EdiLwI9TOqCWBGQys7eCQgEqFzAHMBZhKbJNAloEsL5IBqk/pnAiTxlJ+dmpk/ONt71t2eeOdAsO7tZJ3EBMJtH27c/ODA313hfqnYva+VYUcnyAaFyvVTUgKwPiOtSpAFBvQH0k6oSqSugXkoVEaBYBQBQFV66x0FvuBlSUOVNNnr8f795XfZV4vXhcAKtS++VQ8wBQFSTAkTmCZwWoiWxmYBJgtOR4gKQzgHFFJk1ilbRQMomuyo4E825s7Xa3MTIyMjFt/ZJmtnV+i9m6XiTVNsOPwAAAABJRU5ErkJggg==;" parent="1" vertex="1">
          <mxGeometry x="525" y="495" width="80" height="80" as="geometry" />
        </mxCell>
        <mxCell id="i9F8jg8XpfibfKzwJANf-11" value="" style="edgeStyle=orthogonalEdgeStyle;rounded=0;orthogonalLoop=1;jettySize=auto;html=1;entryX=0.5;entryY=1;entryDx=0;entryDy=0;strokeColor=#FB5656;strokeWidth=2;align=center;verticalAlign=middle;fontFamily=Helvetica;fontSize=11;fontColor=default;labelBackgroundColor=default;endArrow=none;startFill=0;" parent="1" source="i9F8jg8XpfibfKzwJANf-8" target="i9F8jg8XpfibfKzwJANf-12" edge="1">
          <mxGeometry relative="1" as="geometry">
            <mxPoint x="765" y="475" as="sourcePoint" />
            <mxPoint x="565" y="370" as="targetPoint" />
          </mxGeometry>
        </mxCell>
        <mxCell id="i9F8jg8XpfibfKzwJANf-12" value="Training" style="text;align=center;verticalAlign=middle;rounded=1;strokeColor=#FB5656;whiteSpace=wrap;labelBackgroundColor=default;horizontal=1;glass=0;shadow=0;strokeWidth=2;fillColor=default;fontFamily=Computer Modern;fontSize=16;fontStyle=2" parent="1" vertex="1">
          <mxGeometry x="522.5" y="410" width="85" height="30" as="geometry" />
        </mxCell>
      </root>
    </mxGraphModel>
  </diagram>
  <diagram id="eDEO0Bas6Xm_eI3L04ee" name="Page-2">
    <mxGraphModel dx="1406" dy="889" grid="1" gridSize="10" guides="1" tooltips="1" connect="1" arrows="1" fold="1" page="1" pageScale="1" pageWidth="850" pageHeight="1100" math="0" shadow="0">
      <root>
        <mxCell id="0" />
        <mxCell id="1" parent="0" />
        <mxCell id="5jVfxsf8ShCBXA_Zx5xe-5" style="edgeStyle=orthogonalEdgeStyle;rounded=0;orthogonalLoop=1;jettySize=auto;html=1;entryX=0;entryY=0.25;entryDx=0;entryDy=0;exitX=1;exitY=0.25;exitDx=0;exitDy=0;strokeColor=#FB5656;strokeWidth=2;align=center;verticalAlign=middle;fontFamily=Helvetica;fontSize=11;fontColor=default;labelBackgroundColor=default;startArrow=none;startFill=0;endArrow=classic;endFill=1;" parent="1" source="h0p0u_5ma6-ZVKv07VF6-1" target="Y_KD3HWZfFkjH02bFHmC-17" edge="1">
          <mxGeometry relative="1" as="geometry" />
        </mxCell>
        <mxCell id="5jVfxsf8ShCBXA_Zx5xe-6" value="" style="edgeStyle=orthogonalEdgeStyle;rounded=0;orthogonalLoop=1;jettySize=auto;html=1;entryX=0;entryY=0.75;entryDx=0;entryDy=0;exitX=1;exitY=0.75;exitDx=0;exitDy=0;strokeColor=#FB5656;strokeWidth=2;align=center;verticalAlign=middle;fontFamily=Helvetica;fontSize=11;fontColor=default;labelBackgroundColor=default;startArrow=none;startFill=0;endArrow=classic;endFill=1;" parent="1" source="h0p0u_5ma6-ZVKv07VF6-1" target="Y_KD3HWZfFkjH02bFHmC-17" edge="1">
          <mxGeometry relative="1" as="geometry">
            <mxPoint x="270" y="590" as="sourcePoint" />
          </mxGeometry>
        </mxCell>
        <mxCell id="h0p0u_5ma6-ZVKv07VF6-1" value="" style="rounded=1;whiteSpace=wrap;html=1;dashed=1;labelBorderColor=none;strokeWidth=2;strokeColor=light-dark(#FB5656,#EDEDED);" parent="1" vertex="1">
          <mxGeometry x="98.5" y="365" width="140" height="370" as="geometry" />
        </mxCell>
        <mxCell id="Y_KD3HWZfFkjH02bFHmC-1" value="Dispositivi edge" style="text;align=center;verticalAlign=middle;rounded=1;strokeColor=#FB5656;whiteSpace=wrap;labelBackgroundColor=default;horizontal=1;glass=0;shadow=0;strokeWidth=2;fillColor=default;fontFamily=Computer Modern;fontSize=22;fontStyle=2" parent="1" vertex="1">
          <mxGeometry x="80" y="720" width="177" height="40" as="geometry" />
        </mxCell>
        <mxCell id="Y_KD3HWZfFkjH02bFHmC-4" value="" style="shape=image;aspect=fixed;image=data:image/png,iVBORw0KGgoAAAANSUhEUgAAAgAAAAIACAYAAAD0eNT6AAAABHNCSVQICAgIfAhkiAAAAAlwSFlzAAAOxAAADsQBlSsOGwAAABl0RVh0U29mdHdhcmUAd3d3Lmlua3NjYXBlLm9yZ5vuPBoAACAASURBVHic7d15vF1VYfbxZ+3hnHPnm4EkhBASIIgEGetMkCBhCIrVFlRQKGJba6v0o/JKbav4sa1ibYvT+yJibSkEhVorowwSAgiRIgQxJBBClAw3CRnufO6Z9nr/CLRYSXLv2efedfdZv+9/Ss7eT2CdtZ+zh7UlAAAAAAAAAAAAAAAAAAAAAAAAAAAAAAAAAAAAAAAAAAAAAAAAAAAAAAAAAAAAAAAAAAAAAAAAAAAAAAAAAAAAAAAAAAAAAAAAAAAAAAAAAAAAAAAAAAAAAAAAAAAAAAAAAAAAAAAAAAAAAAAAAAAAAAAAAAAAAAAAAAAAAAAAAAAAAAAAAAAAAAAAAAAAAAAAAAAAAAAAAAAAAAAAAAAAAAAAAAAAAAAAAAAAAAAAAAAAAAAAAAAAAAAAAAAAAGgMM9o/aFdqpnLxZbJ6l6RDJMXjF2sCGG2T9IBq+op5feXR/f3xs954Vmc1NmcHNjg1CZJjjTXzJHW/9I97rbG/MtasktF9hSS8/Zaf3jKwv22Wr5v5RmPDT1pr3yZpRpq/jnumIiW/loIfxUHty+bCbdtdJ2om+xh/rr+HFdU5/jF6zL/Mv/tW3/w7qgJgH4vfKKNbJR2QKuPklEj2L8yJ1S+/2j98+0lLjwhlPi3pfZJaR7nNYUk32sBcec8Dt617tT9Q+ZfZ/8fKflFSUFfqyW27guSc3IXbfuY6SNbVOf5c2+/4x+gx/zL/jtGo59/9FgC7UjMVx0+pOQffK5jPmxPLV7z8v9785nNb2sPhLxjpUklRnRutyJqryvHgZ++///6Rl//P0ndnX2GM/VzKwJPd9jhIXseZgPo0aPy59qrjH6PH/Mv8W6dRzb/7bz+5+DI1/eCTJPs5+/PcFZK05OR3LOgIhx810ieVbvKNZexluWr78jMWnXGg5M3gk6QZ5SS8zHWILGrg+HPtt8Y/xoj5l/m3PqOaf/dfAPZcc/KE/dyv75xytUnsTyUd3cDtvsna6NH1Vx36/zwZfJIkI3uO6wxZc9rJZx3f+PHn2p7xf+aic45xnSRzmH8bsV3m370YzfWPgxuQJTPmzhj84w+etb7hjfv8E3rmHNxd/EijtzvJHeI6QJYsOfkdC4IkuEvN+YtvTmJrty89Zeks10Eyhvm3AZh/X91oCkBfA4JkygfOXK8PnrW+Yds7/4QenX9CT8O2lxVW2u06Q1accsopBZPYm9WcB/+XzalWzW1vfvO5La6DZAjzb0rMv3s3mgJwf/oo2dOoQejr4JMkY+0K1xmyIq62/Y2kY13nmAAntgfDl7sOkSH3uw7gAvNveqOZf/dfABL9g6SkEYGyJu0g9HnwSUoUmq+4DpEFbz9p6REv3e3sBWP0CS4FjBLzb92fZ/7d//y73wKwZ5EG+xeNyZQ99Q5CzwefjLWX5y7secx1jix46TnnLN/tP1bt1ar5rOsQWcD8y/xbj9HOv6NfCfDx6NOy5kvpYmXXTffO13duXTCqP+v94DP2iviirZ93nSMLznrjWZ21OOhRdhb5aZShgg0PZMXA0WH+Zf4drbHMv6NeBcmcUL1Sxnp77e680zboknfuf1EzBh8H/7GoxuZs+Xfwl6S2ESVLXYfICuZf5t/RGOv8O6ZlEBmE+x6EDD4O/mMV2OBU1xmcMdbfv3sdmH+Zf/elnvl3zOsgMwhffRAy+Dj41yMJEh/u/N8Lw8JAY8T8y/z7auqdf+t6EQKD8DcHIYOPg3+9Amvmu87g0KGuA2QR8y/z7yulmX/rvvPYnFC90j4eydcbU847bYMkqbi5ncHHwb9uVup0ncEd2+U6QVYx/zL/Sunn31E/BbA3vt+dWnlquusIzkzmg/+KpzYfHATBaQqDN4ahjo5McEgUmO4wNJGMCcPARIGRMSbdV8DKKkmkai1RkkiJTVSuJipVahqpJCqVqxqp1lSr2Qb9zdBgZUlDknbLaEhWQ5LZaGWfDaxdm4TBM7lhPXveksMm5Yp8zL/Mv6m20YggPg9CXwfgZDv4r3x+28yRkeSiQi58dy4KjinkotaGDO4GKVVqGihWNFCsqH+4rFpCIciY5yXdK9l7pdy9Fyw6ZNIsc838659Gzb8NmyN9HYQ+DsDJcvC/68mt89tbzBcKufCdLXHUmfLH/ISxVhoqVbVrYES7B0uUgeypGelhK11froY3Xbx4fq/rQMy//mjk/NvQKdPHQejbAHR98F9ubRQ+u/2vW6LwQ62FcE6QlaP+XiTWqm+orJ2DJQ0MlUUVyJwRydwaWP3rM4sOvfMKY5wt28v82/waPf82fPb0bRD6NABdHvyXWxvFa7d9uaM1+mgujvIuMoy3kXJVW3uL2jVY3nOaAFnztKQrZ1c3Llu8eHHVRQDm3+Y1HvPvuPx88mkQ+jIAXR38l2/YUMiVW7/d3hK/NxcF8UTv34VSpaatvUXtHChRBLJpvbH2SwfWNv2LiyLA/Nt8xmv+Hbfzp/bn0WWS+ZLqXGsgKzwYgImx9vL44q1/P9E7fvDpno92tOb+IZ8LCxO978mgWK5p44uDGhypuI6C+vzCWn30Aycf/tOJ3jHzb9MY1/l3XC+g2ifi1yvRpyRzsmSb8vWfzToArbTVWLtCofnKRL/V7ydPbTusraAfdLblj832Ff7G2DUwos07h1WpeflW2Kyzkq6vBfrUhW89fPuE7pj5N7Mmav71fn49/aSznZ5jvfuh273/b/BKD6zt+fLU9vynwiDg38srVJNEL2wfVO9Q2XUU1MNqp2QvueDkBT9yHWUyYf51q6lPDyE7bt2ypXXlc9sfOaCz5TIO/r8tCgIdOqtTcw9ol6G3Z4/RNBnznzc8+Ny3blq9Ouc6DiBRADAJPLCu521zKvntXa25N7nOMtlN7yzoiIO6lI9D11FQnz+q7Mo9eN2KtT6/AwKTBAUATq1Y03PRlJbCfYU4bHOdJSvaCpGOnNOttrwXD0U0IfOGMAgfW/bTdW92nQR+owDAmRVrtn1qekfLd6PAMA7HKAyMFszuVGcrZ5OzyUy1SXDPsgefO9N1EviLiRdOPPTMtm8c0Jn7+yDggna9gsDosAM7NKW9KddF8oBts9KPlj24/v2uk8BPFABMuIfWbvu/Uzvyf5r2TXyQjIzmzaQEZFjOyl5PCYALFABMqBVrtn1qSkfuTzj0N46RNG9GO5cDsiuwsv/K5QBMtKabh9ds3fU6JebDUvB2yc6TlPWby4Yk8ysr3augdu1Rs6b+0nWgej24uufiqd0t3wl4jm1cJFZat7lPQyVWDsyoYRPY085/64JHXAepF/NvtjTNRLxunc1X2vr+yUh/rOY9s1GTtVcnvd2fWLjQZGpFmAfW9bxtakvhvpAb/sZVtZZo7eZelSusGphRLwbV8A3vXzz/V66DjAXzbzY1RQFYt87mq219d0pa7DrLhLC6L+ntOisrg/DWLVtaDxrJbWspRO2us/hgqFTVs5v6ZHm5cDZZ/Vc8rXTSeQsXZuL7zfybXU3R1CptfVfJl8EnSUanBlN7/8F1jNE6oBg9zMF/4rTlIx00rdV1DNTL6PWVXYUvuo4xWsy/2ZX5MwB7rjkFq9QkZWYMaompHbvwwGmrXQfZlwef3vKF6d2tf+U6h4+e39rPuwOyy1rp9z6w6PAfug6yL8y/k3v+3Z/s/0dLzIfVDH+PsQsDG13iOsS+PLCu56gpnYW/dJ3DV3NntCsKffxqNAVjrL69bPkzk/t1d8y/mdYM/+FOcx3AHbvEdYJ9KSi8hRf7uBMFAZcCssxomo2iL7mOsR/MvxnWBAXAzHWdwKFDXAfYmwef7vloR1vuMNc5fDeto8A7AzLNfmhyvzOA+TfLItcBGmBS3VxWLNW0c2BE/cWyytVESTKud2J3jOfG67V8w4ZCe5D7iusc2GPuAe1as7l3z1VlZI2x1nxr+fLlJyxevLjqOsyrYP7NsGYoAJOCtVabdg5pR9+I9w9f5cqt3y50hC2uc2CPlnyo6e057RgouY6Celi9bnM090JJ/+w6ymTF/FufJrgE4J61Vs/19OtFBp9Wr7a59pb4va5z4DfNnNIq8e6FzDKyn1m+fDk/2F4F82/9KAANsGnHkAaKLL8qSbvC7V/LRQEXnSeZfBxqShvvCsiww3qiuee6DjEZMf/WjwKQUrFU047+EdcxJgVrbdDZEl3kOgde3YFTWrK/8IfHrOxfXWEtc/YrMP+mw2BKaecAp51e9uCz2z+Xi8OC6xx4dYVcpA7eGJhlRy346fO8MfAVmH/ToQCk1M+pp//WEoUfcp0B+zatM+86AtJI7IWuI0wmzL/pUABSKldrriNMCnc9uXV+ayGc4zoH9q2rNaeQtZmyy+hd312+odt1jMmC+Tcd7ipNaZyfM92vc8//+KQ4A3btlX/nOkJdrJWMEoVBoI6ONh1+5AKdcsZp6uzqdB1tXATGqLstr50Dfl03LQ70a83PHtaLmzaqODz80psSgyw+GFGQtPvc8z/uOsek4Hr+zToKALy25wAQqGal3v4hPfboKj32syfU3dWud577u1rw2te4jthw0zr8KQBbNzynVfffp5Fi8X8egzRGhtshAQoA8FuMUW//kK679gYdOHOaLv7YH6qlpXnW1G8vRAoDo1oT/3oqFYt66D++p4H+fkmGNRCAV8E9AMBeGCNt3b5TX/7cldqycZPrOI1jjNpamnephq2/el53/vO3NNA/oCZ44zkwbigAwH7UEqurr7paTz3+pOsoDdNRaM4C8Os1v9Qjd9wiBUxtwP7wLQFGwwS6+YabtemFja6TNERnE54B2Pqr5/X48ntlDNMaMBp8U4DRMoG+8/Vva3io6DpJaoV81FSPA1ZKRa2841YO/sAY8G0BxqBmpeuv+a7rGKkZ7Xk/QLN44N+/x41+wBhRAIAx2rippyluCiw0SQHYuuG5l+72BzAWFABgjIwxuvm677mOkVqzFIBV998n7vYHxo4CANRhx64+9fdl+1dnPp/9AlAc6N+zyA+AMaMAAHUwxmjFXT9xHSOVXJj9r/+anz3MtX+gTtmfAQBHnntmnesIqQRN8Kz8i5ua47FMwIXszwCAI/0DQ64jpNIMTwEWh4ddRwAyiwIA1KlWTVxHSKUZ1gGwtnnfZwCMNwoAUK+Mf3uaoQCYJvg7AK7wNsCM63thvesI3oqibC+na5rg5rmBLb9WUq25jgFkUsZ/wwDutLQ1zyuCsyqXK7iOAGQWBQCo07SZM1xH8F7btGmuIwCZRQEA6nTQIXNdR/De1FkHuY4AZBYFAKjTgqMXuo7gvQMPP8J1BCCzKABAHXL5vI46/jjXMbw358ijFcU51zGATKIAAHU48aS3KF/Iu47hvTiX0/zjTnAdA8gkCgAwRmEU6bTfPcd1DLzk6LedpiDM/ouNgIlGAQDGaPE7lmo6TwBMGp3TDtBRbznFdQwgcygAwBjMO2KBzjrvPa5j4H857vSzdMDcea5jAJlCAQBGqWtKty7+xKWZXwGwGYVRrMUfvERtXd2uowCZQQEARqF72lR95C8vV/fUKa6jYC9a2jv19j/4Y7V2UgKA0aAAAPsx74gF+tQXv6DZcw92HQX7MWXWbL3z45dp5rzDXEcBJj0KALAXYRRpybvP0ceu+Et1dPOrMisKbe1a8uGP6thTz2SNAGAfeBsg8L/k8nn9zqK36u3veid3+2dUGEY6bslZes2b36on771L6x9/VNVK2XUsYFKhAMBrYRSpta1NU2ccoDnzD9GCo47SUScczyI/TaKlvVNv+t1zdeLSd2nzmtXaumGddm3ZpIHdu1QeGeZVwvAaBSDj7n7odqcvdV+zpde63D8wGnEup3nHHq95xx7vOkpDXbDocKfff0l8/zOMewAAAPAQBQAAAA9RAAAA8BAFAAAAD1EAAADwEAUAAAAPUQAAAPBQMxSAAdcBXAkDwzO4AFxi/s2wJigAdqPrBK7EYVBynQGAz5h/syzzBcAquMd1BlfyuXC16wwA/MX8m22ZLwAKatdK8m9BbyPFufDzrmMA8Bjzb6ZlvgAcNWvqL2Xt1a5zTLSu1tyTZxx90K2ucwDwF/NvtmW+AEhS0tv9CWP0E9c5JkprPtplZ0VvcZ0DAJh/s6spCsDChaZc29W1VMZ+Q818OspIXW25J6M5uYPfOXv2sOs4AMD8m11N8zrghQtNWdLHVvfsvDqw0SWSXSJpnqR2t8nSCYPAxqEp5XPh6jgXfr4ZTjsBaC7Mv9nk+l3SyLinN++2xjCMsshaqyee3+k6BupXumDR4QXXIZBdTXEJAO4kVonrDKhPNcn8Oia+63MdANlGAUAq5Wqt6DoD6lOuNO/lWk887zoAso0CgFSqNX9XAsu6YpkCkGVWetJ1BmQbBQCpjJRr3q4ElnUDxYrrCEjByHrz6B3GBwUAqeTy5m8TriVnTpJY9Q2XXcdA3cxQXC3f6ToFso0CgFTedOjMbYMjlWdd58DY7BosieKWXUZ22XmLFw66zoFsowAgtWKx8mfWcjDJCiurbb3cu5lhZavkS65DIPsoAEjtlNcddE/fcPVR1zkwOtt7R1TiCYDMsrL/eMGiI3gCAKlRANAQI4PRGcWRKqckJ7mhUkVbdjXFKqZ+snpk6oCucB0DzYECgIZYfPyU3l1DtbdWagk/LSepSi3Rhp4Bcbkms7ZUo9q5S5cuKLkOguZAAUDDnPa6mb/o7S+9r1yzlIBJplJN9FxPn8o1Fm7MqI02MWde9JbXbHYdBM2DRdzRcA8/s+PIfM6sbM2HXa6zYM9p//VbB1StcvDPJKtH4lr4nvMWz9/qOgqaC2cA0HBvec30tZVtmrt7sPQAj5q5Y2W1tXdYz27u5+CfTWVjzRenDNrFHPwxHjgDgHF171PbjmkvaFlHS25hEDDcJkKSWO0aLGlbb5G7/TPJDEn2Bim5krv9MZ6YkTEhVj6/bWalbP8iF4VLcpGZG4VBaxiYgFcJp2NlVa1ZVSo1DZVrGixW1DdcZpGf7ChL6rUyG4y1T5jALo8q5TtY5AcTgdkXcOj0k872+kh990O3MwcBjnAPAAAAHqIAAADgIQoAAAAeogAAAOAhCgAAAB6iAAAA4CEKAAAAHqIAAADgIQoAAAAeogAAAOAhCgAAAB6iAAAA4CEKAAAAHqIAAADgIQoAAAAe4l3cmBAPP7PxoCSJL49z4ZI4NHPiKGwJzZ4CWkusStVExVJVA8WK+ofLqiXWdWRgIlQk9crqV8ZolbW6bySo3n7JSUcOuA6G5kcBwLhasWbb6YVc8PX2fHREEIxuuCVW2j04oq27iypVauOcEJh0hiVzoxJdecHbDlvnOgyaFwUA4+Lh1RunBrnCXV2t0e/I1DfMrLXa3juint3DSixnBOCdijW6qlIJP3vx4vkjrsOg+VAA0HD3P7V5yZTOwi25OCw0YntDIxU9v21AlWrSiM0BWbMysdF7PnjyvB7XQdBcKABoqPt/ufn907pbr48C09AbTMvVROt7+lQsc0kAXtpkbHD2+Scf+gvXQdA8KABomPuf2rxk2pTWHzf64P+ycjXR2s29qnImAH7aFFfD15+3eP5W10HQHCgAaIjlT+zu7p6abCnEYct47me4VNWzm3vFQwLw1M/jML/ovLccXHQdBNnHOgBoiJb26j3jffCXpNZ8pFndreO9G2CyOrGcjFzuOgSaAwUAqa1Ys+30rtbodyZqfzO6WxRFDF34yVjziZuWb5jlOgeyj1kUqRVywdfrfdSvHkFgdCBnAeCv9kpc/azrEMg+CgBSefiZjQe156MjJnq/0zryCke5sBDQdGxw4XceWtvhOgayjQKAVJIkvny0K/w1UhAYdbbkJny/wORg2/KKlrpOgWyjACCVOBcucbXvjtbY1a4B54zVqa4zINsoAEglDs0cV/tuyYWudg1MBse4DoBsowAglVw0/o/+7XXfMQUAXjvUdQBkGwUAqQTG3RiKuAkQfutyHQDZFrkOgGwzE/j433js+4JFh6fayLnnfzzTaxL2vbDedYRU7n7o9lT//dZs6XX63+/x9TvSfDzfqBzwE2cAAADwEAUAAAAPUQAAAPAQBQAAAA9RAAAA8BAFAAAAD1EAAADwEAUAAAAPUQAAAPAQBQAAAA9RAAAA8BAFAAAAD1EAAADwEAUAAAAPUQAAAPBQ5DoAgOYRHTRP+UWnK/fa4xRMnyFJSnZsV/npVSo9dJeqm3/tOCGAl1EAAKQXxWp/7x+qcPJZUmB+4x+Fs+eqZfZctZz6DhVX3KGhm66VqlVHQQG8jEsAANKJYnVd+nkVTln6Wwf/3xAEaln8DnVd+nkp4rcH4BoFAEAq7e/9I8VHHjPqPx8feazaz/3wOCYCMBoUAAB1iw6ap8LJZ475c4VTliqcPXccEgEYLQoAgLrlF52+79P+exMEKiw6vfGBAIwaBQBA3XJHHVf3Z+PXHt/AJADGigIAoG7B1Bl1fzacVv9nAaRHAQDSKbsOkIqp4/T9K1nr5rOSpJTZAc9RAIB0Bl0HSMOYdFNAsvvFuj9b21X/ZyUpCIIk1QYAz1EAgHR2uw6QhgnSTQHl1avq/mzl6SdS7dsGppZqA4DnKABAOutdB0gjiNMtyFN66C4pqeOHeJJo5MG7U+07COLeVBsAPEcBAFKwMmtdZ0gjjHKpPl/d/GsVV9wx5s8Vl9+mWs8LqfZtQrMp1QYAz1EAgBQCm6x0nSGNIF9IvY2hm65Vee2To/7zlTWrNHzzP6febxhEK1JvBPAYBQBIIVRwn6S0t7M7E+Vb0m+kWlX/Vz+nkftu2/flgCRR8Se3qP+rV8jW0r8MKLHRd1JvBPAYb+QAUrjxxq9uO/f8jz8m6fWus9QjCEOF+bxqpVK6DVWrGrzxahVX3KHCotMVv/Z4hdNnSpJqO7ap8vQTGnnw7tSn/V8WxPnB2+/+t182ZGOApygAQErW6t+MyWYBkKRcW4eKaQvAS2pbXtDQ969tyLb2Jcjlbh/3nQBNjksAQEq1uLZM0pDrHPWKWzpSrwcwoUygIAn+2nUMIOsy9K0HJqcfXvfNncaab7vOUS8TBoo7OlzHGLWoUHjstnuWrXOdA8g6CgDQADYOvqIMnwXIt3dn4yyAMTYKo0tcxwCaQQa+8cDkd/N1/7TZyH7BdY56BVGkfNcU1zH2K9fWdtstP77xF65zAM2AAgA0SHd76R8lpVvf1qFcR5fCOO86xl4FcTxs4uH3uc4BNAsKANAg11xzTUVBeJ6kftdZ6mGMUev0manfDzAejDE219Lye7feeuuw6yxAs5h833Qgw26+/p+ek9EfSMrki2qCOFbL1BmuY/yWqLXr726548Yfu84BNBMKANBgN9/wtR9K+qjrHPWKW9vUMvUA1zH+W9TWft3td93wV65zAM2GAgCMg5uXfe0ayV4sKf2atw7k2jvVMm2GJOM0R9zafsMdd33/IqchgCZFAQDGyc3Lvv4vxgbnShpwnaUeubYOtR4wU3JxT0AQ2Lit+29vv/v7H5j4nQN+oAAA4+imG6/6z0Q6URl9OiBuaVPHrDkT+nRAEMfDudapSzjtD4wvCgAwzn6w7GvrXtwy9Q2S/lwZPBsQRLHaDzxIhSnTx/dsgDGKWtpWdNjZM2/78b/+ZPx2BEDiZUDAhLj//iuqkr76ng/8+U1BklxmpD+S1OY61+gZ5Tu6lGttU6m/T+XBflm7j1f/jmnTgeJC4edhGH2IRX6AiUMBACbQf1x/VY+kT7z7wj/926gavV/GfkBWb5Dru+1GyYSRClOmKd85RZXhAZWHBlUrj9S1rSDOD4a53B1xYD/zn3d+f32DowLYDwoA4MAPr/vmTknfkPSNd3/wIzOiJL/YJHqTDeyRspov6QBJ7ZJyToPuhQkD5Tq6lOvokq3VVB0pqloZUVKuKKlVZWu1/z5DYIyxJgwrxgT9Jgw3BkH8QC2oXHPnnTc/7fivAXgtE786moFdqU7lcmdL9lRZHStpnqRuSbHbZOmsPfBFp/t/fP2OVJ8/v/W1DUrS5BKjpD8nOxjLliLZciDVAsm6DoZMM5KCJDGxLSqubTRhck9YK33R/N5wj+toPuAMwDizq/JHqJZ8WtL7ZG2r6zzAWNhSqGRHi5LevJTwewENZiXVgsDW1KaR8EgrHZkE+Y9VftDyrAr2z+Kzd93jOmIzowCME/uwWlSIv6Bacqn494yssUa1ra1KdrS4TgLfJEZ2IHeEBnV35YfTHo1UO8O8u7fXdaxmxGOA48A+kV+gfPyorD4pDv7IGFsKVV3XzcEfblnJ9uXeUC3lNtrb245zHacZUQAazP5XfLyS5KeSjnadBRgrOxKp+nyXbCl0HQWQJNmRsL26u+2x6q1Tf991lmZDAWgg+0R+gQLdpT13cAOZYkuhqhs6pSrTAiYXWw1D2xd9z/6o7RjXWZoJ3/QGsctVUJLcLA7+yCJrVNvYwcEfk5athmG12PaI/XHnVNdZmgXf9kbpiv9G0rGuYwD1qG1tlS1yuwomNzsStlaHox+6ztEsKAANYFflj5DVpa5zAPV4+VE/IAvsYG4RlwIagwLQCHue8+fnEzKJgz8yJTGmWi0scx2jGVAAUrIr1Snpfa5zAHVJzJ5FfoAMsYPxQvuD1gNd58g6CkBaudzZkljhD5mU9OdY4Q/ZY42qucKnXcfIOgpAavZU1wmAetnBTL+KAj4rm9NdR8g6CkBaljv/kV22xK0ryKhKeLDrCFlHAUhvvusAQL1siSkA2WQrhkuvKfHtT6/TdQCgblz/R1YlhuNXSvwLTC/nOgBQN0sBQEYxdlOjAAAA4CEKAAAAHqIAAADgIQoAAAAeogAAAOAhCgAAAB6iAAAA4CEKAAAAHqIAAADgIQoAAAAeogAAAOAhCgAAAB6iAAAA4CEKAAAAHqIAAADgIQoAAAAeogAAAOAhCgAAAB6iAAAA4CEKAAAAHqIAAADgIQoA2/mEyAAAB8BJREFUAAAeogAAAOAhCgAAAB6iAAAA4CEKAAAAHqIAAADgIQoAAAAeogAAAOAhCgAAAB6iAAAA4CEKAAAAHqIAAADgIQoAAAAeogAAAOAhCgAAAB6iAAAA4CEKAAAAHqIAAADgIQoAAAAeogAAAOAhCgAAAB6iAAAA4CEKAAAAHqIAAADgIQoAAAAeogAAAOAhCgAAAB6iAAAA4CEKAAAAHqIAAADgIQoAAAAeogAAAOAhCgAAAB6iAAAA4CEKAAAAHqIAAADgIQoAAAAeogAAAOAhCgAAAB6iAAAA4CEKAAAAHqIAAADgIQoAUrGy7vZt0+07MOUGJQGA7KEAIJVaLXG272qSrgDkNNCgJACQPRQApFKrDjnbd7lSS/X5drOpQUkAIHsoAEglqLg7iBbL6QpAd7C2QUkAIHsoAEilrbTC2b4HipVUn58VPtKgJACQPRQApDKn/DUlKa/F1yNJrPqG67+JLzJFzQ4ebGAiAMgWCgBSyWmHasPPTPh+dw2WUhWPeeFtisxwAxMBQLZQAJDanKHPpH4kbyysrLb1Fuv+fKCKjoqvaWAiAMgeCgBSm5I8qNrAf03Y/rb3jqiU4gmAI6Pv8gQAAO9RANAQRw6fr/JI37jvZ6hU0ZZd9Z+6nx6s0jHxNxuYCACyiQKAhohsnw7rO0fVaro78/elUku0oWeg7ssNLeZFnZS/lBUAAUAUADRQW/K0Zu38sCq1asO3Xakmeq6nT+U6Vx5sNVu1OP9htZrtDU4GANlEAUBDTU/u0OEvLlJpZHfDtjlUqmjN5l4VS/Vd958erNKZhfPUHTzbsEwAkHUUADRci31OR+86UbW+Fake1bOy2to7rGc396taHfsv/0AVLYyu0Wn5i1QwL9adAwCaUeQ6AJpTaAa0cPj3NTRylNa3fkNR29EKAjOqzyaJ1a7Bkrb1Fuu62z8yRc0Lb9VR8be52x8A9oICgHHVljytYwZPVXlwujbl/kyDuVOk+GAFcavCMJQkVWtWlUpNQ+WaBosV9Q2XR33mIFBFOdOvNrNZU4OnNTP8mWYHD7DIDwDsBwUAEyKnHTq0fIU0mhvwC+OdBgDAPQAAAHiIAgAAgIcoAAAAeIgCAACAhygAAAB4iAIAAICHKAAAAHiIAgAAgIcoAAAAeIgCAACAhygAAAB4iAIAAICHKAAAAHiIAgAAgIcoAAAAeIgCAACAhygAAAB4iAIAAICHKAAAAHiIAgAAgIcoAAAAeIgCAACAhygAAAB4iAIAAICHKAAAAHiIAgAAgIcoAAAAeIgCAACAhygAAAB4iAIAAICHKAAAAHiIAgAAgIcoAAAAeIgCAACAhygAAAB4iAIAAICHKAAAAHiIAgAAgIcoAAAAeIgCAACAhygAAAB4iAIAAICHKAAAAHiIAgAAgIcoAAAAeIgCAACAhygAAAB4iAIAAICHKAAAAHiIAgAAgIcoAAAAeIgCAACAhygAAAB4iAIAAICHKAAAAHiIAgAAgIcoAAAAeIgCAACAhygAAAB4iAIAAICHKAAAAHiIAgAAgIcoAAAAeIgCAACAhygAAAB4iAIAAICHKAAAAHiIAgAAgIcoAAAAeIgCAACAhygAAAB4iAIAAICHKAAAAHiIAgAAgIcoAAAAeIgCAACAhygAAAB4iAIAAICHKAAAAHiIApBe2XUAoG7Guk4A1IexmxoFIL1+1wGAugVMosiowCauI2QdBSC9Da4DAPUyeeZQZJOJ7bDrDFlHAUhvlesAQL1Moeo6AlCfqPaC6whZRwFIy5j7XEcA6mXaKq4jAPWJane5jpB1FIC08uXbJA25jgHUI+gscx8AssdYRbMqV7qOkXUUgJTMQg3K6nuucwB1CayC7pLrFMCYmPbKWvOmoW2uc2QdBaARwuBKSZxLRSYF04uScZ0CGCVjpbj2EdcxmgEFoAHM8aV1krnKdQ6gHiZf21MCgAwwHeWV8Tm9K1znaAYUgEbpL39W0krXMYB6hDOHZVp5IgCTm2mpDkQFneE6R7OgADSIWawR1SrvlrTRdRZgzIxVdEi/TMy6AJicTFyr2W672CzdxeJrDUIBaCDzBm2VzDtk7SbXWYAxixKF8ygBmHxMXKuZrvJ5uTN2/Nx1lmbCrT/jwD6uA2Tjf5d0susswJhVA1Vf6JAdil0nAV467T98knnX0C9cZ2k2FIBxYtcpr4HcZ2TtJyW1uc4DjEliVHuxRcmOFilhmoADxsp0lB+JCjqT0/7jg2/2OLOPapai+LOyulAUAWRNNVBtW6uS3jxFABPDWJn2yhrFtT/hbv/xxTd6gtjVatdI7mzJLpZ0nKT5krol5dwmA0YhMUoGcrKDsWwxkq0EUs1IlikEKRgrBTYxsR1WVHtBudrd0YzKl1jkBwAAAAAAAAAAAAAAAAAAAAAAAAAAAAAAAAAAAAAAAAAAAAAAAAAAAAAAAAAAAAAAAAAAAAAAAAAAAAAAAAAAAAAAAAAAAAAAAAAAAAAAAAAAAAAAAAAAAAAAAAAAAAAAAAAAAAAAAAAAAAAAAAAAAAAAAAAAAAAAAAAAAAAAAAAAAAAAAAAAAAAAAAAAAAAAAAAAAAAAAAAAAAAAAAAAAAAAAAAAAAAAAAAAAAAAAAAAAAAAAAAAAAAAAAAAAACy5f8D18YqP2Y+tPUAAAAASUVORK5CYII=;" parent="1" vertex="1">
          <mxGeometry x="125.5" y="490" width="86" height="86" as="geometry" />
        </mxCell>
        <mxCell id="Y_KD3HWZfFkjH02bFHmC-5" value="" style="shape=image;aspect=fixed;image=data:image/png,iVBORw0KGgoAAAANSUhEUgAAAgAAAAIACAYAAAD0eNT6AAAABHNCSVQICAgIfAhkiAAAAAlwSFlzAAAOxAAADsQBlSsOGwAAABl0RVh0U29mdHdhcmUAd3d3Lmlua3NjYXBlLm9yZ5vuPBoAACAASURBVHic7N13lBzVgTXw+6q7Ok0OyjkiJEBII4EACRBBJhrWgKxANsGJ5BzWtmzYNfZiMGDjNTYYBzBGpAUbMMJIBAVQQAJlCWXNjEaTp2c6VFe97w8JfxhLM9PdVf2qu+7vHM6eszP16o4sTd1+VfUeQERERERERERERERERERERERERERERERERERERERERERERERERERERERERERERERERERERERERERERERERERERJ8kVAcgImfJbQgiGhwKaQ6FFEMg5GBIUQWJSghRCchKAFUAdEAGARE5fGgIgASQODxSFyASAJIAmgHRDCmbIdAEIZshxT5A7gF8e1Ca2CvGfHQcEbkRCwBRgZDr0Bcp/3EQYgIkjoPABEgxEpADVMQBRD0gPwSwAcB6QG6ESH0gJuOggjxE9AksAER5SL6NEoT9UwGcAuBkCHESJPqpztU7oh6w3gXwDiSWI55aJaajQ3UqIq9hASDKA3IDihH3nQlo5wA4G8CxAHxqU9nGxKFZgtdhWYsQMN8QE9GpOhRRoWMBIHIp+Z5+Ikx5MYQ4B4c+6euqM+VIEsByCPkaIF4Uk411qgMRFSIWACIXkWsDE2DiCkDOAXCM6jwusQsCL8CSC1GTWioEpOpARIWABYBIMbkqcDyEvA6QswExSHUeV5NyHzTxF5jiMTE1uV51HKJ8xgJApIB8D+Ww9NkQuBoSp6nOk6c2Qsg/AKlH+WYBUfpYAIhySK7STwZwGwQ+AyCoOk+BSEDgGZi4X0w13lUdhihfsAAQOUxuQACxwCXQ5G38tO+41RB4AJbxZzEFhuowRG7GAkDkEPk2ShDyfwlCu1XRYjweJmsB3I9Q6iExAVHVaYjciAWAyGZyA4oR0z8HDd/On8V5ClYTIH4BLflzMQmtqsMQuQkLAJFN5CqUAf7bIMTtACpU56GPEWgG5H1Iph4Q09CuOg6RG7AAEGVJLoYfpfr1EPgRP/G7XhMk7kSH8UsxEynVYYhUYgEgyoJc4z8HUtwH4DjVWSgtWyDF98SU5ELVQYhUYQEgyoBcFTgemnwAEmeqzkJZeR0+cas4MblBdRCiXGMBIEqDXIYwQoHvQ8qvIr/W5o8B2AWIPYDcAyn3Qoh6CNEMy2qGJpph+joQiEchDr8+13R4h74qlAAAuhCAL1QEn1kCS1ZC0yohZRWk7AchhgBiKCCHAhgOIKzih8xQEhD/g0Tyv8SpiKkOQ5QrLABEvSRX+z8FiIcAjFSdpRsGgPcBvA8pN0JgPaS+UUyJ7cllCLkmNAwwxkOK4wAxHsAJh//z5zJHmrbDkl8UU1OLVAchygUWAKIeyGWoREh/EBLzVGc5ggYIvAHIFTDxDozUGrd+ipWrEAH8kwFMg8A0QJwOoI/qXEfwJ+jGreIEtKgOQuQkFgCibshV/lkQ+B0gBqrOclgMAm9DykXQxCKcaKzL193xpISG1fqJ0OS5kOIcANMBhFTnAnB40yFcJyanXlMdhcgpLABERyAXI4SSwAII+XUAmuI4XYB4HUIuRJfxnJh++N58gZHLEEYweA5gXQHgEgClqiMB+A38xlfERHQqzkJkOxYAok+Qq/TJEHgcwDiFMeIAnoe0/oQy8zUxBgmFWXJOLkYIpcFzAetKHCoDKjdO2ggN88UkY63CDES2YwEg+hi5Rr8aEr8CEFEU4dAWt1bqETEFjYoyuIpLtk6OA7hV1Bi/UXR+ItuxABDho+ln/RcArldw+jiAP0PDA/yU2T25Up8EDbcCmAsVswICv0WbcYuYiXjOz01kMxYA8jy5MjQSmvk0gEk5PnMtgIcgUg+LyTiY23PnN7kOfWH4b4bQvgjI/jk+/Wr4fVeIifGdOT4vka1YAMjT5Er/mfCJZyBRmcPT7oHET1BmPOK1e/t2O/SsgH4DpPwmhBicw1M3QcjPiMmpN3N4TiJbsQCQZ8nVgc8C8jHk7tWzPZC4Fx3GrzmFbC+5AQEk9DmQ+D6AUTk6bRICN4jJxh9zdD4iW7EAkOdICYE1gR8A8vvIzb+BFgj5E5Skfs5P/M6Sq6BD6NcBuAu5WWRIQoqfoib57Xxdj4G8iwWAPEVuQxDt+iMA5ufgdElI/AIB4y6uKpdb8h1Uwa9/D8AXAARycMo/ImTcICYgmYNzEdmCBYA8Q65CBCLwDCDPc/5s4mVIcYuYkvjQ+XPR0cj3gmNgyV8AcpbjJxPiJcSTl7t1KWaiT2IBIE+Q61CElP5/AM529kyiHkJ+U0w2/uDseSgdcnXwYkjzoRw8KPgmDONiMQ3tDp+HKGssAFTw5PuoQEp/BRInOXkaSPwaPuPbYhJaHTwPZUi+jwoY+t0AboSzv/vegW6cz9s+5HYsAFTQ5Br0gdQXAZjo3Em4cUw+ObzB06OAGOTgadZBGOdyfQdyM9WbnBA5Rq6CDqkvhJMXf4GFSKYm8uKfP8SU1KuQqQkA/uTgaSZC6s/LbUr3MCDqFgsAFTD/VwGc4dDg7RBirphszBanotmhc5BDxBS0iRrjKkBcBSDq0GlORZv/DofGJsoabwFQQZLbEESHXuvQCn/rYWmXi6mJLQ6MTTkmVweOBeQzAI61fXCBZpQYA7n+A7kRZwCoMLX5z3Dk4i/wBPzGNF78C4eoSW5CyDgJwF9sH1yiEq3+020fl8gGLABUqI63ebwUJG4Tk435YiI6bR6bFBMTEBU1xhwAdwAwbR3cZ/vfRSJbsABQgdLKbRysA8L6tJhiPGDjmORCosb4OWBdCjufC7C0CtvGIrIRCwAVJiGbbBlHyn0QmCEmmy/bMh65nqgx/woLpwNyvz0jykZ7xiGyFwsAFSYpV2U/BtZCC5wsJhvrbEhEeURMNd6DX58G4P2sB7Pj7yKRA1gAqDDtSC2HlPuyGGE5fMZMMbmr1rZMlFfExNg+6MaZAFZkMcxe7ExlczyRY1gAqCCJ2TAhxI8yPHwxQsYsLulL4gS0IGScC4ElGQ0g8SMx2+aHColswgJAhWuy8VsAT6V1jBAvIWFcKCY4tjgM5RkxAVGUGOcB8vn0jpTPocZ4xJlURNljAaCCJQQkpHEdev9+969hJS/ldq70SWIMEpCp2QB+3ctDnoRMXSkEpJO5iLLBlQCp4EkJgfcCcyDl93Dk1d7eA6zvixrzr7nORvlHrg5eDFg/BDDpCF/eBCF+hEnJv/DiT27HAkCeIlcFxkHDiZCyFFK0QGqrxdT4DtW5KP/IlaGREFYNhKwARBsssZYrRBIRERGRq3EGgMhD5GL4URYYCwsTIKzhgBh26D/ZB0AlBKogUQT82za2CQh0QqIJQDMgDgJyNyB3Q2q7ILAe7cltYiZSOf+hiCgjLABEBUyuDY5FyjoFAqdA4mQIjAcQcOh0SQAbALwLieXwacvEpMQ2h85FRFliASAqIHIdimAGzgfkpyAxC8BQxZF2A3gVQvwdvuQr3EiJyD1YAIjynFyMEMoCl0JaVwDifABh1ZmOoguQLwPaU2hPviBmIq46EJGXsQAQ5Sm5Rp8IiRsAzAeQbzvOtQB4HAK/5V4LRGqwABDlESmh4T3/WZDabYC8EIXwb1hgKSxxP3Ykn+WyuUS5k/+/PIg8QD4FH0YF5gDyewCOUZ3HIZshxZ2oST4pBCzVYYgKHQsAkcvJNYHLIOVdAMapzpIjGwHxn6Im+ZzqIESFjAWAyKXkar0GwM8AnKE6iyIrANwhagxup0vkABYAIpeR61AEI/A9CPk1AD7VeRSTAH4Dw/i6mIZ21WGICgkLAJGLyNXBiyHNhyDEYNVZXGYvpPUFMcX8m+ogRIWCBYDIBeQyhBHS74bELeC/y+78ESHji2ICoqqDEOU7/qIhUkyu0idD4C8ARqvOkhcktkJijphqvKc6ClE+01QHIPIyuUa/CgJvgRf/3hMYCw3L5Cr9BtVRiPIZZwCIFJCL4UeJ/iAEPq86S557CO3GbdyFkCh9LABEOSY3oBjxwJOHV/KjbAksgmVcIaagTXUUonzCAkCUQ3JNZCCk8QqA4xVHaYDARkhsg5Rb4dO2wZR7IX2tCMSj8KProwft5AYUowNF8IWKIMxy+MQQWNZYQIyBwBhITADQR/HPsw7SOF9MQZ3iHER5gwWAKEfkqvBQiNQ/oOJ+v8ABAG/CwlIIvI3JxhohIO0aXq4MjYTPnA6J0wCcBxXbEEvshPSdI6bGd+T83ER5iAWAKAfkytBIaOZi5PLCKHAAEk9Cw+NikrEyZ+cFIFfqJ8GH+ZCYA6BvDk+9B1I7S0xJfJjDcxLlJRYAIofJVSiD0JcDODYHpzMBPAPI36E99Zrqh+PkYvhR7JsFn3YtJD6D3KxsuAnSOIXPBBB1jwWAyGFytX4fgNsdPk0SwF9gaf8lpia2OHyujMh1oREwzdshcSOAsMOn+7moMe5w+BxEeY0FgMhB8n1UwNBrAYQcOkUSEr8AjHvy5QG4ww9Cfh3AlwDoDp0mjoQxSJyKZofGJ8p7XAiIyEmpwHlw6uIvsAiWdoKYYnw1Xy7+ACAmd9Ue+nQuJgL4h0OnCSEU+JRDYxMVBBYAIicdekXO7kFrIXCNmGzMcut0f2+ImuQmUWOcA2ifBrDH9hM48mdPVDhYAIicJGWpzSP+BUbqWDHZ+IPN4yojahIvQhonQGChvSPLMnvHIyosLABEjpIHbRooBuBmUWPMEdPQbtOYriGmoE1MNmZD4AsA4rYMKmWDLeMQFSgWACJnvWPDGJshxcmixnjYhrFcTUw2/hcQJ0Nia/aD4V0bIhEVLL4FQOQguQ1BtAd2AbJ/hkMsg25cJE5Ai5253E4uQyWC+l8BnJLRAAIHUGIME2OQsDcZUeHgDACRgw5dgORdGR79V0jjXK9d/AFAnIpmSOMcQPwtowEk7uTFn6h7LABETptsPATgqTSP+iNk8jNiCrqciJQPxBR04cPkJRD4bVoHSvl/mGz8yqFYRAWDBYDIYUJAotS4GhK9eXJfQoqfYLJxrZgCw/FwLidmw8Qk4yYI+S0AVi8OeRJIzROiV99L5Gl8BoAoR6SEwJrAfwDyuwAmf+LLJiBeg5Q/EFMMOx4cLDhytT4NED8E5Nn49z0FVgPiv0RN8jkV2YjyEQsAkQLy3fAQiOTx8PlKYVpNMFKruWxt78hlqITur4FPq4JptkMGPhAnxfaqzkVEREREREREREREREREREREREREREREREREREREZBOuA0CUQ7OmX1gD4EYA5wAYfPj/vU8KuUgK+fBrb778nrp0zvP6z0/kJiwARDlw5plnhvRU5CEBcS2O/u9OCikeSejRW5YsWRLPYTzHef3nJ3IjFgAih5155pmhYKpokQSm9/KQt3wl1rkvv/xyQexm5/Wfn8ituBkQkcOCRvGDaVz8AGCG2aHd71igHPP6z0/kVpwBIHLQuadecKLQxGqkX7YtTfgmvfLWC+87kStXvP7zE7kZZwCInOQTn0Nm/840KVPX2x0n57z+8xO5GAsAkYOExNmZHmtBnGtnFhW8/vMTuRkLAJGzhmR6oACG2hlEEa///ESuxQJA5KxiRce6hdd/fiLXYgEgIiLyIBYAIiIiD2IBICIi8iAWACIiIg9iASAiIvIgFgAiIiIPYgEgIiLyIBYAIiIiD2IBICIi8iAWACIiIg9iASAiIvIgFgAiIiIPYgEgIiLyIBYAIiIiD2IBICIi8iAWACIiIg9iASAiIvIgFgAiIiIPYgEgIiLyIBYAIiIiD2IBICIi8iAWACIiIg9iASAiIvIgv+oARHR0m2pbJQBYloQlJZJGCslkEolYHG2tbWg62IjG2nrs3rIZOzdvQsowVEe21azpF0oA8Ok6fH6/DIYjhj8YTOiBUFcgHD4QDIZ2+4KhLaGQvqQ40PmPBQsWxFVnJsoXQnUAokL20QUsU/c/9Xivv9eSEtHOGA7UHcDOTVuwfuU72L1lazanzys+v47iyqqu4orKneHSkreCxcVP3nfnV95QnYvIrVgAiGz04pba6rIUvhIM6peEg76xX5t7VVazbOkUgCOJJwzs27Mf61etwvJFixCPRrMaL99ESstTFQMGbC2qqHouWFz5858tuLlRdSYit2ABIMrS4vdayn3h+HdCun9OUdA/RNP+/z+r22bPz2rsbAvAx1mWRG3tAaxeuhxL//o3JBIx28bOB349gOohw/aUVPf7c5/Sov9esODWdtWZiFRiASDK0OINDeeFg/hBUUg/ya+JIz5Q66YC8HGmZWHXjr149elnsHnNakfO4WaBYEj2HT5yc0Xfgd//2Y/veFp1HiIVWACI0vTWxrovhkP+7xeF9H49fa9bC8DHtbR1YPFfX8FbL74Ay7IcP5/bVA4c3N5nyLAHqkqSP1iwYIH3/gDIs1gAiHphsZR+/5YD95SEAp8PBrRgb4/LhwLwkWhnHG+88ipeW7jQk0WgrKpvvN/I0b+qLjO+xiJAXuBTHYDI7d7cUPvf5V3GC6WRwHS/T6T1UN8rC5/N6tznX3FZVsenIxDwY+z4Y3Da+RfAgsCuLVtydm43SMQ6/U21e09p70h94+wLZ4feXf6PxaozETmJMwBER7F0Y92FgZD/seKQXp3pGPk0A/BJjc1tWPjwI558RgAAqgcPbRkwYuxNfEaAChULANEnvLlx14BAIPJKaThwgsjyX0g+FwAAgJTYvOlD/P6ee9AV7VCbRQFN0zBo3Pj3KgZWn3fPgq83qM5DZCcuBUz0MW9sqvtBeUnZnrJI9hf/giAExo0fjR/86kFMv+BC1WlyzrIs7N24ftL2d9fuv+Xrd39HdR4iO/FXHBGAZRv2VmqBwOtlRcGJdo6b9zMAn7B793787w/v9ORsAAAMGH3Mjj7DB5zC2QAqBJwBIM97Y1P9vEhxpM7ui38hGjZsEP7zl/fj2JopqqMoUbd9y8idazbsue1bP7tCdRaibLEAkKe9vbnuV9UlwceDui+gOku+KAoHcdM3bsenr7tedRQlOpoPBreueOupL91256OqsxBlgwWAPGnxzp2hd7Y1fFBVGv78x5fupd7RhMDZ55+NL975I/h83ttU1EwZ2LZ6xXXX3/jNtQsWPMXySHmJBYA8Z8WKptJiq2RbaVHgONVZ8t0xx4zC13/+M4SLIqqjKLFv0/qJ27e/tfuOBb+tVJ2FKF0sAOQpf1tTOyzQD3uKw/7BqrMUigH9qvGNe+9FWYU3r4ENu3b0P7Bx5Ydf+e7PhqjOQpQOFgDyjNc+OHDCwKrgpnDQV6Y6S6GprCjBN++7BwOGDVUdRYnG2n3lezd+sPXW791fozoLUW+xAJAnvL25bmafMn11SPeFVWcpVEWRIG6/60cYPm6c6ihKtB08GNq75t0V3/jOz2aqzkLUGywAVPDe2LB/Ukkk+GrAr3nvabUcCwV1fOG730LfId6cCehsa/VvW7fm1du/c9+JqrMQ9YQFgArasi17B5UWh5by4p87oaCO2370A5RVZbyFQl7rbGv179/w/vKv/eeDI1RnIeoOCwAVrGUb9lYGA5ENnPbPveKiEG7/77sQCnvz7YC2poZQ7db1a25fcF+56ixER8MCQAVpwwYZ0IOhDyJ84E+ZyooS3PHTu+HXddVRlGis3VfetH3HpgULFoRUZyE6EhYAKkgdgYOriiP6QNU5vK5/vyrc+N3vqo6hzIFdO/rv259YqjoH0ZGwAFDBeXtz3a/KigLHq85Bh4wbPwZnXXa56hjK7N38weQvfeXHd6vOQfRJLABUUJas3z+3oiT0edU56F9ddPklGDJ6tOoYSkgpsXvdqm/c8e17Z6jOQvRxLABUMF7cUltdXhJ6TBNc299tfD4NN37rG9CDQdVRlEgm4mL/tg0vL1jwy2LVWYg+wgJABaOvT3+Du/q5V1lpET73rW+rjqFMa3190b79e5eozkH0ERYAKghvbaz9z9KIPl51DuresRPGYNqsT6mOoczezetrbvvGj7+qOgcRwAJABeDv67b3LS0OfV91DuqdS66cg2DQm0szSCmxb/Om/16w4IFS1VmIWAAo75VESv8e8GvefNk8D0VCAVzxpS+ojqFMR3NToO7gwadU5yBiAaC8tmRT/cUVEZ3rrueZmpMmY8ioMapjKLNn4wef+up375muOgd5Gx+Xpry2amdjY1HQX6Xq/Ht378HqZe+gfn89WlvbEIsnICUASEAc7teWBQkJK2XCMpOwkimYqQTMRBxWKtXjOYLhEALBEIpLi9F3wED0Hdgf/QcPxugJ41FeWeHoz+ekurqDuPu221XHUKb/8FG1f/jTA4NU5yDvYgGgvPXmlgM/7FMSzOm9f8uy8M6by/Du0hVobm6FFNlNopkpA2a8C0ZnFKlEPO3j+w4YgLEnHIea6adgxNixEHn2CuRTjz2OpS+9pDqGMuOmnf6dB+755o9V5yBvyq/fFkSHSSm1tXuao7na6KelsQnPPrEQu/fsg1N3zqyUgWS0A8loG6RlpX18df9+OPnM0zHjU+ciXFTkQEL7tbVF8f0bb1YdQ5mK/oOif3n64RLVOcibfKoDEGXinHmf/5/ScOB0p8/TUFeP3//qEbz2yj/Q1h6Fk51ZaD74Q2EEissgNA1mMonD9xN6pSvaiW3rN+LtRa8h3hXDoGFDEXD5wjuhUADNLe3Yv2OH6ihKxKMdgYvn3NC2YulrK1RnIe9hAaC8I6XUmjoTz+s+ze/UOSzTwnNPPI0XnnkR0a44kMOpdSEE/MEwAsWlgJQwk4m0jk8ZKezYvAXLX1sMfyCIoaNGuvrWwMDhI/Dm37x7G8CS8qT161f9VHUO8h4WAMo7Z8/5wrfLIgHHVpPZ9P4G/OreX6KuviGnF/5PEkLAH45ADxUhlYylfVsgZRjYvHYdNq1dh1HjxqG41J0zzZFICA0HmlC3e7fqKErE2tvCF829qf6dpYtWq85C3sLXACnvREL+rzg19vNPPIU///5JmL2feXecLxhEcf8hCBRltnbMnu07cM83v4Plry+2OZl9PnXFZaojKNW0b/cPVWcg7+EMAOWVxRsazqss1m+0e9xUKoUHf3wvduzcq/RT/9EIIaBHiqBpPqQSXWkfb5oW1q9ag86OKI6dONF1twSKiyPYsn4zWhsPqo6iRFd7W/GlV960bPlbr3rzYQhSgjMAlFfCAXGn3WMmEwn87Ec/QVNLu91D2y5QUoZIdf+ML+BvvfIqHvnZfTCMpM3JsnfO5Z9RHUEZKSXampt/pDoHeQsLAOWNxRsaiovC/sl2jhmPx/HTH9yNzq70HrRTSQ8XIdKnPzJ9I+GDlavxm5/ci1TKsDdYlo4ZNxZ60LubOR7c9eFJNy1YEFGdg7yDBYDyhg+p7/i1LFfe+RjLtPDAf92DZMq0a8ic8YciiPTpl/HxW97/AI/d9yCsDNYbcIqu+3DKp85THeOfzFAJ4pVD0NVvDDoHjEO0/zHoqh6OZHEVoNl/9zQWjWqB9uDXbR+Y6Cgce42KyG6hkH+uneM9ePe9iMbcNxXeW3q4CKGKasRbGjM6/oOVq/H87x/HZ667yuZkmZsyfQbefOEFJedOhUrQOWAcYtXDEascDMvfzRoKlolQewNCzXtQVL8VoZb9tmToaD54FQA+EEg54a4ngYiOYvF7LeV9+4hmTbPn7+yLTz2Hle++Z8dQysUaG5Ds6sj4+Ctv+QKmznDHvjQp08J3rr0JiUQsZ+eM9RmB1pEnI1Y1DDLDZyv0zhaU7VqNkr3roJmZ31rRgyE5dcYZ5QsW3Or+B1Io7/EWAOUFLRS/za6L/7ZNW/DuO2vsGMoVQlV9oOmZ74a88DeP4sD+WhsTZc7v0zDl7Jk5OVeirD/2nXoVak/6LLqqh2d88QcAo6gCjRPOwZ6Zn0f7kBMyfpPESMRFczT2pYyDEKWBBYDyQlD32fKIuGVaeOLRx133Glw2hBCIVPbNeD4vEU/giV89DGm5Y/GDE046ydkTaD40HTsT+0+7BokKezfjM4NFOHjCBaidNg+pUGYLL3W1tV5uayiio2ABoLwQDviPtWOcp37/uKsW+bGLLxjKeKEgANi1dRveWfKGjYkyN2TEUMfGTgWLsG/aPLSOPDmrT/w9iVUOwd4Z16Orz4i0j205UDfBgUhE/4YFgFxv8cb6aQG/lvkc92EHDzRg44YtdkRypWB5JUQWT6e/+PiT6IpGbUyUmaJwEAOG2V8CUpFy1J5ype2f+o/GCoRRP+VyRAem1107mg8Gb/3e/TUOxSL6JxYAcj2fwDw7xnnmj38B7HuL0HU0zYdgaVnGx0c7OrDkpb/bmChzx508zdbxzFAxaqfNhVFUYeu4PZGaDw0nfhqd/Y9J6zizK2rrGy9ER1K4vw2pYAR07Yxsx2hvaUVt7QE74rhaoOTQVsKZevOlVxDrSn+pYbuNHm/fLLj06ag96bMwwmmWIyEQKg6jtKoUlYOqUdavApHSCHx6erMsUggcmHQxEuUDe31MvKP9rPTCEqWP6wCQ6wU0bWS2Yzz7xFNAFhfGfCGEhkBRKRIdrRkdH+vqwrLXXsfZn77I5mTp6T+4v21jHTxuFpIlfXr9/RX9K1E5qBrl/Svh14/wK1JKtDW2oaWuCY17GmD2YiEpqflRX/MfGPLWo9CSPb/iGG1uGd3rwEQZKvzfiJTXFkvpDwb9RdmOs2vnXjvi5AW9JLttf99d/KZNSTJXUlwEzYbC1tVvDDoGH9+7c1aXYcIZEzF22nhUD+l75Is/AAiBsj7lGH7CKEw8dwr6jRzQq7dKUqESNB57dq+ydDQ3Fi9YsIC/n8lR/AtGribW187URHbv/698exksD6155fMH4At0s4pdD+r378feHTttTJQ+nyYwaMSorMaQPj8aJ5zTq+8dOGYwjj3teBRXpFee9KCO4SeMwrHTj4ce7Pk51Y5BExCrHNLj96WSCdFhFJ+aVhiiNLEAkKv5fOL0bMdY/uYKO6LkFb0ou1mA1W8vtSlJUbwzMwAAIABJREFU5kZMyO7Nz/ahJ/Z4318IgdFTx2HIhOFZ7QJdUlWKCadPRLAo1P03CoHmY3r3VzoRM3o3XUCUIRYAcjWfT8v6abCmphY7ouQVPRTO6vgt76+3KUnm+gzs/UNz/0bzoXXkyT1+29DjhqNqUHXm5/mYYFEI46aNh+9otw4Oi1cOQbxycI/jmUbClrUviI6GBYBcTdN8w7I5/kBtnaMLvriVpgeg+TJfE6Bu7z50tLbZmCh9VX36ZnxsV58RPa7EVz24D/qPsndNgFBJBCMn9fz8XvuQiT1+j5FIZP3wK1F3WADI1TQNme95C2Dl0nfsipJ3fIHMZwGklNixRe2iSWWV5Rkf2zGw+4kjzadhyIThGY/fncqB1Sjr0332zv7HQPq6nylIxroG2JmL6JNYAMjVfJpWnM3xdfvcscmNCtlsEAQA9Xv32ZQkM+FwZgVGCoGu6uHdfk//kQMRCGf+oGRPBo/v/vyWP4B4efezD4aRzPrtF6LusACQq/k12cNTVd1rafbe/f+P+LIsAAdq621KkplgMJDRccmSPrB6mP2oHpbVxFKPiiuKESmNdPs9sarulztOxeLZPchB1AMWAHI1TYisrmJdsbhdUfKOpmd2Af3Iwbo6m5JkRg9k9j99sqT7ZwdCJRGEi52/tlYMqOr268nS7nMayXjW+18QdYcFgFxNaFpWT/BZLtniVoVsNgYCgM6ODpuSZMaf4f/0Pa33X1ad+X4J6Sjt4TzJospuv24YBn8/k6P4F4xcTWS5CJCH1v/5NyLLjY/isZ6XrHVSb1bXOxIr0P3UeyCc3cxIb/X0jIHZQ07LTHn4by/lAgsAuVq21/+sVnfJcyK7yRPEFd8+ybgA+Lu/wOsZPluQrkCo+/PIHnJavdhjgCgbLADkah6+fmcv2+6kePpECEDzp38bwy03faTMLokdeyEQdYd/w6iwZflLOJ9ZlpXV8aFwVi9g2EIPpJ/Bl0p2+/VkvPuv28Xo4TxaKtHt1/Wgc68pEgEsAFTgVH+KVSrLByCDLigA/gwugr5kZ7dfT8a6v/DaJdFDAfAlurr9eiY/O1E6WACooGX5EkFek1Z295CLS0ttSpK5cFH660D5O7tf+6GtoTXTOGlp7+E8gc6mbr8eynJDJ6KesABQQYu44FOsKpaR3VR3Vpvx2KSkOv39AILtDd1+PdEVR1d797MEdmip6/4Cr7cf7PbrpVnshUDUGywAVNAqslhPPt+ZhpHV8f0G9rcpSebK+vRJ+5hAtBG+RPcX+IO7D2QaqVfam9oRi3b/GmWkaXe3Xy9jASCHsQBQQRs0tOdtVwtVtjMAA4YMsSlJ5ir6ZrAfjpSINO7s9lsO7KxDotO51xz3btjV7de1VALB1u73qSjvx72AyFksAFTQpk4/xT3vheWSBMxE5hc4oQmMGDfWxkCZ6TdiDJDBcxwl+zd0+3VpSexe331JyFTj3gZEm9u7/Z7i2k0Q3T2joQn0Hc7dgMlZLABU0Kr79oEmvNcATCMBK4uHAAcNG4biEvUPoQWLIhnNAoQad8Hf1f1DeC11Tdi/ZU+m0Y6oqy2KXWu39/h9JXvXdfv1yv6DEIpwM0ByFgsAFbw+fbvflKUQpeLZLeN7zAnH25QkewPHjkv7GCElKna80+P37du0Bw277Nn1MNbRhS0rNsI0u19/IXxwJ0Kt3W+0NHBM+j8zUbpYAKjgnXbmDNURci7Zmd1GPlNmnGZTkuyNnFiT0XEle99HINr9k/gAsHPtduxcuz2rRaNaD7Rgw5vvIxnr/rkLISWqtr7Z43gjT8zsZyZKBwsAFbwTT6qB5qEHAcxkMqsHAAcNG4qBQ9U/APiRyoGDUdEv/VcShWWiasOiXn1vw656vP/6e2je35jWOZKxBHau3Y6tKzbCNFI9fn/pnrUI9vDpv2LAIFT0V/8KJhU+FgDyhFGjR6iOkDNGZ/cPoPXkpJln2hPERqOnnpzRcZHGXSjbtbpX3xvr6MK2lZux6a33cWBH3VFXDLRME821Tfhw9VasXbQaDbvqe7Xuv97ZgsrNS3r8vtE1mf2sROnyqw5AlAufmT8bdy+4O+stct1OmhaS0cwLQFFJMU4560zb8thl7Emn4oPXX0W8K/0FfKo2vY54+QAkynv3qbq9qR3tTe3Y9f6H0IMB6CEdejAAM2XCiCWQTCQh01xmWUsl0W/1sz2u/x8simDM1FPSGpsoU4X925DosKKSYgwbUvjTqoloS1a70M286EIEQ+5bg96vBzDutNMzOlZYJgauXAi9F88DfJKRSKKrrRNtDS2INrcjEUukffGHZaL/mucQ7Oh+5T8AmHDa2dADudmumIgFgDzj8qvnQMrsdshzM2mmkOzI/NN/aUUFZnzqXBsT2evY085AOMNXE7VkDIPe+TMCvbgI20kzDfRf/RzCB3tecyBcUoZxp0zPQSqiQ1gAyNWy3VP948orKzFp0kTbxnObeEsTZBZbAF969TyEImEbE2Xnk//bB4Jh1Jx3Scbj+eJRDFr2p15djO3gi3dg4DtPoqih53UBAGDKhZdAD/3L3hW52baQPIsFgFzNsrMBALh03mXQfYW3Q2AqEUOyK5rx8WOPm4Ca0061MVH2zCNMtY+cNAX9R4zKeEwtlcCAlU+hassb3a/El6XIge0Y8tbvEGzZ36vvHzBy7JFed8zuXU6iHrAAkKtZErb+ltY0DdfcfB2QxSdlt5GWhVhj5lPb4aIizP3CjTYmsseRCoAQAtNnX4VgUSTjcYWUKN++HEPefASRhg+zifhv/F2t6L/6WQxY9TR8ya5eHRMIR3DqFXOOlJQFgBzFAkCuZlrS9mnQoSOHY8ZMd33azUasqQGWmdnOf0IIzP/izajMYNc9p6XMI0/+FJVXYPrl8yFEdjM5emczBqxciEFLf4/i+i1ZzQgE2+rRd91fMWzJwyiq39rr44QQOO3yeSguP9JqlVZuH1ggz+FrgORqRso8GNJ9ti+Kfu7FF2D7lu2oq09v4Re3SbS1wIhlvrf9rM9ciuOnunPVuUQ3C+sMHnccjjvjHHywpHcL/XQn1FqH0OrnYAbC6Oo3FrGqoYhVDkEqXHrUY7RUAqHWOoSbdiNSvw2BaGZ/j46fOQtDxx9t2WWxJaNBiXqJBYBczbCwE8BwJ8a++Stfxs/v+h+0tmd+AVXJ6OxAvK054+OnnD4D58++zMZE9oob3d+mmTTrQsQ7O7Bt5QpbzudLxlCyd90/N+qRPh3JSDmsQBjSpwOWCS2VgD/WDn8i+78zIydNxYnnnH/UrwuABYAcxVsA5Gqmaa5yamxN03Drt76CcFB36hSOMbo60dWU+QzxCSdNwfwv3Jj1NLqTYsnul9YVQmDapZ/t5hN0doRpINhxEOGmPYg0fIhI4y6EWutsufgPnXACTrt8Xvd//hLd72lMlCUWAHK1uJX6jZOr+PsDOr7+w2+jvDR/tl5NRjsQazoAZLi/wUlnzsC1t98CzeezN5iNJIDOeM9r62uahjOvvD6vVs8bVXMSzph7LTSt21+/Fkzz7VxlIm9yb/0nOmzN7sZYWPeHev7OzFmWhd/c9xD21zU4eZqsxdtakMhw2l8IgVmXXYrzr7jM1Z/8AaArkcLmfa29/n4pJdYuegkfLFlk69oRdhJC4ISzZmHi2ef35s9/zfwZo935cAYVDM4AkOslEvIDp8+haRpu/uqXMf30aYALVwuUpoXOhrqML/5FJcW46ZtfxQWzL3f9xR8AOmLpvdUghMCkWRdi5lU3Ihhx32xOsCiCs665ESeec0Ev//xl9k83EvXA/b8JyPPe2FQ/r29Z6PFcnW/Pjl34w68fQ9J0RxFIxWOHX/XreUr8SMYefxzmf/FmlFdV2pzMOZv2tiCWzOy1vM7WFix9+gnUfdj71/GcNGD0MTjt8nkoKivv9TFCahPnnT7yfQdjEbEAUH5Yu6spFgz4HL0N8EmvvvAS3n5jGaBoB0FpphBrbYbRmdl6MKUVFfj0vDmYekZ+rS/flTSxeW9L1uPs3bQB7/zfU+hs6/2tBDuFS8pQc97FGDV5alrHCch182aMOdGhWET/xAJAeWHplvrnK0tCmS8En6H2tnY8+6cnsePDvYCWm38ulmki2dGKZEdbRvezS8rLMPOiCzB91rmu3NmvJ/sao2hoi9syViqRwOYVb2HD20sQj+ZmYb1wSQnGT5+JY6bNyHBnP3H7/Bmj7rc9GNEnsABQXvj7uu19B1VV1fk0NR/Hu6KdeP7Jp7F183ZYDv2zMZMJGJ0dSEbbM7rwDxk5AiefeTpOPmsmAoH8e7URAFKWhfW7W2Clu+VuD8xkEttWv4Ntq1aguXafrWN/pGrQEIyuORmjp0yDX8/wz1+iSTcTw2fPnJD5xg5EvcQCQHlj6baG1yuLAjNV59j0/gd4c9EbqK9vwFFWq+01MxlHKnZoIx/LSKZ1rKZpGDJqJMadcDxqTpuGfoMHZxfGBWqbulDf2rs19DPV1lCPHWtXo3bbFjTt35vxFtFCaKgePAQDxozDyImTUda3f9bZpJDfuXL6mB9nPRBRL7AAUN5444P9Q6rKw7t8vu5foM6l1uZmrFr6Dvbt3Yemg83o6upCKmVCSgBCQEJCmhYgLViWBctIwkoZMJNJmMl4j9v3hiMRBENBBEJhlJQWo8/Ageg7cAAGDB6EkePGuWr73mwZKQsb97YccRMgpyQTMTTs2oHWA/VoO9iAjsYGxDo7kUrGkYofKmT+UAD+QAjhoiKU9umL0uq+KO/XH/2Gjfrk9r3ZqpO6HHfltDHtdg5KdDQsAJRXlm6p/3VlSegm1TnIfjsPdKAlavveT3lDQMybN2PUn1XnIO9gAaC8IqXU3tvV3BQO+nr/ThW5XkeXgW11bapjqCPw+vzpo89WHYO8xTVTqUS9IYSw2mLG+alczhOTo0xLYndjbp7Qd6kWzfB9TnUI8h4WAMo7M8f3X9HSZdypOgfZY1dDB5I97PxXwKSQuH7uzBG7VAch7+EtAMpby7ceWF5eHJymOgdlrq6lC3XNzj7173J3zZ8x+nuqQ5A3sQBQ3pJSau9+eHBTaSQwVnUWSl9zRxy7Gjz9uvsf500fdY0QgrezSAneAqC8JYSwunydE6Nxo051FkpPa2cSuw52qo6hjACeG5jaez0v/qQSZwAo723YIAOdocZ1JWF9nOos1LOmjgT2HIy6dttepwmJ33dEWm+8ecqU9LY8JLIZCwAVBCmltnx7w5sVRcHTVGeho6tv6UKtd+/5S0jcNW/GqB/wkz+5AQsAFZS3NtbeWVEa+q5Py9HOPdQrKcvCroYo2jvTW+64YEg0aRDXzD191N9URyH6CH9JUsFZvLF+WllE/1s44KtUnYWAjpiBXQ0dMFKefdXvNc3C9XPPGL1XdRCij2MBoIL11sbaO8tKQt/WfZpPdRYvMlIW9jd3ornDs8v71gH41vwZo/+gOgjRkbAAUEF7c+OuAX498khJyP8pv4s2ESpkKdPCgdYYDrbHbd/WN08ckBL3BszEQ9zWl9yMBYA84cUttdUVmvbLooB+UUj3RVTnKURdiRSaOhJoao/Bm9d9rJaQvwv4Qo/OPnVITHUYop6wAJDnLNlUf3HAL74Z0n0nhnR/keC/goxICcQSBtpiBlqiScSTKdWRcs2UEKsE5CIp5Z+vPH3MRtWBiNLBX33kaW98sH+I5vd/TtPEVL9fjPZrWn+fhpCmaT5NQPNp3q4HpilhQsKyJFKmRMJIIZ40ETNMdMYMFPyeTAJtQiIqgSiAg4DYIqXc6oPYYAast66cNqZddUQiIiIiIiIiIiIiIiIiIiIiIiIiIiIiIiIiIiIiIiIiIiIiIiIiIiIiIiIiIiIiIiIiIiIiIiIiIiIiIiIiIiIiso9QHYC864qr7xgEy6qBaR0jhBgrJY6BwEAIFEGiCEDJ4W/tgEAnpIwColYAW6WUW+HTtvhS5qonn/xFbaYZlqzfM9XvD16naThR17RhAV2r1DQR0IQmNM0d/z5MS0JaEoYlkUiaiKdSiCdMRGMGkqalOp4XdEigUwMapZBbhKVtlRo2pLTUkmtOPWa/6nBEmXLFLzjyhvnzbyk1LHGeJTBTAGcBGGvT0FsA8boEFidDwVdeePSnHUf7Riml9vam+s8HdN8XggHfMUHdp9uUQYmEYaKjK4nmaBLRuKE6jhdtlRCvQcon5s8YtUwIIVUHIuotFgBy1IIFC7QNW1pOhZBXAZgHoNjhU8YF8CKk/GNDXdXLS5YsSAHA39fVjygJi4cjQf2MoK7l9UX/aBKGiaaOBA62xWBavA4p8KEAfiehPzR/xrAW1WGIesICQI646qqvFSVM4yYJ+RUAgxXF2FfZt88f59983TlVJcVT3DKl7zTTkmhsj+NAawwp3iJQoV1CPhSQuHf26WMOqg5DdDSe+IVIufPp679REozFb4XA7QCqVecBgKLiIpwy4xRMmz4NgWBAdZycMS2JuuZOHGyPQ3JCQIVWQCzQ60b+YvZsYaoOQ/RJLABkm9lzb7lYCvELAENVZzmSktISnHvBLJw4ZaLqKDnVmUhh94EOxA1eg5SQWCn8vqvnnTpis+ooRB/HAkBZu+LKO0bDMh8CcK7qLL0x+pjRuOg/LkJldaXqKDljSWBvYxRN7XHVUbwqJqS8dd7pY36rOgjRR1gAKCuz5952mRR4BJBlqrOkIxgM4NOXfxrHTzpBdZScOtgew76DneAdAUUkfrFtxqjbFgjBhzNIORYAysi1114biibLfiIgb1WdJRsTa07Epy+/GLpekC8GHFFbZxI7D3TA4oMBqjyfTPnmXjdzBKdjSCkWAErbf1z1+b5+M/ASgBrVWewweOhgzL9+PoqKi1RHyZmOmIHtde2QLAGKyEUVHbj4ggvGJFQnIe9iAaC0zJlz+3BTs/4O+xbxcYXKqgpcfdM1qKzyznMBbZ1J7DjQzjcE1Hlerxt1Od8QIFU01QEof1w2944JpmYtQ4Fd/AGguakFj/zyETTUe+e17bKiAAZVeWfWw4UuNQZ8eK/qEORdLADUK3PmfGWIJlIvAxigOotTOto78PuHH0Nrc6vqKDnTtyyMypKQ6hhedusTb267UnUI8iYWAOrR3LlfrTa11CJADFGdxWkd7R147NePobMjqjpKzgytLkJI96mO4VlSiF89sWznONU5yHtYAKhbV1xxRzh16JP/Maqz5EpzUzMe/90TSKW8sbmOpgkM61fMB4LUKZYp89EFUvL3MeUU/8JRt6Q/dT8gp6jOkWv79uzDKy/8XXWMnCkK6rwVoJLAKWOWbr9OdQzyFpZ+OqrZc2+dLQX+kunxfr8fkXAYoXAYfl2HTzvUN03TRCqVQiweR6yrC6lUyrbMdrts3mWYONkbSwenTAsb9rRwJ0F1GnVf8JjZpw5pVh2EvIE3/uiIPvvZW0ZJTbwEIJjusT6/DxXlFaiqqjx08ff7oWkahBAQQkDTNPj9foRDIZSUFEPXA0gmk7As9y2OtmPbDhw38XiEI2HVURynaQKQQEfcG7c+XChiIpV49tEHl6gOQt7AWwB0RJZPPACgJN3jIpEIBgwYiOLiYvRugkkcPmYAiorc90paIp7AX599UXWMnOlTFoZP48SgKgLitt8t3lmuOgd5AwsA/Zsr5t9yOYAL0j2upLQU1dVV0ET6FxAhBKqqKlFaknbncNz2Lduxeb03NnLz+QSqy/gsgDISZUGfeaPqGOQNLAD0L6644ovFkOK+dI+LRCKoKC9Ddo+VCJRXlCMSiWQxhjP+9vzfYBjemBqvKk77rg/ZyBLgw4CUEywA9K/8+pcBDE7rEJ8PlVVVsOeZUoGqqir4fe56PKWttQ3vLlupOkZOhAJ+RIJ+1TE8SwDHPv7W9oLYZ4PcjQWA/unaa68NQaS/u19ZeXlG0/5HI4RAaZn7boMufWMpDMO9byzYqZKzAIqJeaoTUOFjAaB/6kqW3IQ0l/r1+/2OPLxXXBxx3SxAtL0D7727RnWMnCiJBFRH8Dh5juoEVPhYAAgAsGDBAk1CfCXd4yJhp16PEwi78FmApW8s9cQWuuGAD34ffz0odPwTK3b0Ux2CChv/hRMAYOPWprMADEv3uKBjBQAIh9z3NHpLcwt27ditOkZOFIf5HIBCAkk5XXUIKmwsAPSRqzI5SPc7d5HwOzh2NtatWqs6Qk6EAu788/eQCaoDUGFjASBcddXXiiTEZzI59qPlfZ3gc9kzAB/Z8MEGT7wSyB0C1ZLC8swGXKQGCwAhbiVnASjO5Fhp49P//za2YyNnJxFPYMe2HapjOI4FQDUxVnUCKmwsAARIeVamh1oObuRjmaZjY2drx/bCLwBcElg1UaU6ARU2FgACgJmZHujkTn6Gi3cJ3Lltp+oIjvP5WACUkrJUdQQqbCwAHjd37m39ADE+0+Nj8Zidcf517FjcsbGzdaD+ADqjnapjOIozAIqJ9DfjIkoHH/P1uBTkJGSxhm9XVwzl5YD9jwJIxGJddg9qGykl6mvrMWrsKNVRHCNsWdrZXk3792LbyuWo3b4FXa2tME1nZ4l8Pj8i5eUYMOYYjD3pVFQNSGuV7GxxNSZyFAuA1wlk9aSxaZro7OxAcbG9H1ai0ShMFz8DAACNBxsLugC4iZkysOL5hfhwzbs5XYjJNFPoaGpER1Mjtr2zDGNqpuGkSy6Dz6/nLAORU3gLwPNE1q8atbW1w7IsO8IAACzLQmtbu23jOaWxoVF1BE8wUwYWPfIQtq9+R+kqjFJKbF21HK8++ivHZx6IcoEFwPNk1q8amaaJxsZG2PXiXlNTk6vfAPhI40EWgFx49/+ewYFd7nnromHnh1j54rOqYxBljQXA82R/O0aJx+Nobm5BdiVAorm5BbGYcw8W2qmzI6o6QsFrrt2PrWtWqI7xb7asXIaW+lrVMYiywgLgeSKjBYCOJBqNouFgY0a3AyzLQkPDQUSjHXbFcVwikVQdoeBtW70csFy4JJQlsX2V+4oJUTpYAMjWp/fisRjqamvR3t7ey/u1EtFoFLV1dYjH3fva35Ek4gnVEQpe/batqiMc1f5tW1RHIMoK3wIg22YAPmJaFlpbW9He0YFIOIxQKARd98On+Q5/3YRhpBCPxxHrisG03H+//0gSCRYAp3W2taiOcFRdrc2qIxBlhQWAHGOZJqLRKKLRwrxXLhzcB4EOMZLuvc3i5mxEvcFbAJQ/N91dJhDkOi1ElL9YAKgwP57nQCgUVB2BiChjLABeJzkDkKlAgAWAiPIXC4DXCdSpjpCvikttf36SiChnWAA8TgLufc/K5ar79FEdgYgoYywAXifBl5kzVN2nSnUEIqKMsQB4nSZZADJU3a9adQQiooyxAHic6bNWA7BvKz+PEEKg/wBbtlEgIlKCBcDjnvvDL5sg8YHqHPlmwKABiBRFVMcgIsoYCwBBCryuOkO+GTlmpOoIRERZYQEgQAgWgDQNHzVcdQQioqywABCK9bbXALSqzpEvQuEwRo7mDAAR5TcWAMJjjz0WF8DTqnPki+NPPA5+P/fRIqL8xgJAh4k/qk6QLybWTFQdgYgoaywABAB46on73wLkdtU53K6qTzWGDBuiOgYRUdZYAOgjEhD/ozqE282YOR1CCNUxiIiyxgJA/1RRHP8dgD2qc7hVaXkpp/+JqGCwANA/Pfzww4YU8j7VOdxqxswZ8Pl8qmMQEdmCBYD+RbHe8b8APlSdw22qqqtQc3KN6hhERLZhAaB/ceiVQPEl1Tnc5oJLzuerf0RUUFgA6N889cT9fwfEs6pzuMVxEydgzLFjVccgIrIVCwAdkSms2wA0q86hWiQSwXmXXKA6BhGR7VgA6IieffzBfbDk1QCk6iyqCCFwyWcvRWlpieooRES2YwGgo1r45IN/A+DZtwJOO+M0HDthnOoYRESOYAGgblUUx78F4E3VOXJtxOgROOf8s1XHICJyDAsAdevhhx82AkJeDOA91Vlypd+Afph77VxofOefiAoYCwD16PHHH2w3Ne1CADtVZ3FaRWUFrr7xaoRCIdVRiIgcxQJAvfLsn35eB803CwVcAioqK3DNTdeghA/9EZEHsABQry38033bYaROBbBWdRa79e3fF5/78g2orK5UHYWIKCdYACgtCxc+VG8EtJkA3lCdxS4jRo/ADV+6ga/7EZGnsABQ2p5/7OetB2srzxHADwFYqvNkSgiBadNPwTU3Xo1QmPf8ichbuLg5ZWTJkgUpAAsun3/bKiHlYwCqFEdKSyQSwWVzP8MlfonIszgDQFl5+vH7/wq/byIknladpbeOm3gcvvS1L/HiT0SexhkAytrCP9y3H8AVs+fdOlMK/BISx6rOdCSVVZW48D8uxJhxY1RHISJSjjMAZJunnnhgcbRZThICXwawW3Wej5RXluOiz1yEW75xCy/+RESHcQaAbPXyyw8mAPzypptueri5I3SlTBmParquJIuZSuLy+Z/FxMkncFU/IqJPYAEgRzz88MMGgN/Nmn7ho75AEHpRCQKRYgiHL8TSsmB0RWF0diCViGPS1EmOno+IKF+xAJDjzGQCZjKBeGsT/MEw/KEQ/KEIfIGgDaNLmMkEUrE4UokupBJxQHp2B2Miol5jAaDckRKpeBdS8S4AzRCaBp8egKYHoPn1Q//X54MQAhAahO/QIyrStABpQUoJK5WClTIO/WcYMI0EpJW3SxEQESnDAkDKSMs69Ik9EVcdhfKYr09/FM25CYHxkwB/ls+bpAwkN61D59OPwqzdY09AIpdiASCivKVV9UP59+6HCBfZM6BfR+D4KdBHH4uWH94Cq6nBnnGJXIivARJR3iqec6N9F/+PEeEiFM++wfZxidyEBYCI8pZ+7InOjT2eb5BQYWMBIKK8JYLObeIkQmHHxiZyAxYAIiIiD2IBICIi8iAWACIiIg9iASAiIvIgFgAiIiIPYgHA6PpTAAAZjElEQVQgIiLyIBYAIiIiD2IBIKK8JWOdjo1tOTg2kRuwABBR3jI2rXVu7A9WOTY2kRuwABBR3up85jFY0Xbbx7XaW9G58BHbxyVyExYAIspbZkMdWhd8GYkVi2G1t2Y9ntXeisSK1w/tBNjabENCIvfidsBElNestmZ0PPIz1TGI8g5nAIiIiDyIBYCIiMiDWACIiIg8iAWAiIjIg1gAiIiIPIgFgIiIyINYAIiIiDyI6wAQUV7z9emPojk3ITB+EuDXsxssZSC5aR06n34UZu0eewISuRQLABHlLa2qH8q/dz9EuMieAf06AsdPgT762EOrATY12DMukQvxFgAR5a3iOTfad/H/GBEuQvHsG2wfl8hNWACIKG/px57o3NjjJzk2NpEbsAAQUd4SwZBzY4fCjo1N5AYsAERERB7EAkBERORBLABEREQexNcAiXqw+8MdWLX8XezZuQed0U4kUyYAAQhhy/hSSkjLgjSSMFMGzGQcqXgMViply/jBUBChcBh9Bg5Av4EDMXzMGIw5bjwqqqtsGZ+cM2v6hRJAFEC7BLYKYAsklltCW/za2y9yoQLKCgsA0RHU79uPv7/wMnbs2A2JT1zohb0TZ0IICJ8P8IXhQxhAKQDAMpJIdHbAiHZAWmbG4yfiCSTiCbS1tGL7hk1YuugfAICBQ4fgpDNOx5QZp6KkvNyOH4WcUQygWAADAZwJgZs1WJg1/YL3BcQffH75+EtLXqpXHZLyDwsA0cfs2r4Dzz/5DJpb2wGIw/+poekBhMurECqrhNHZgXh7C6RNswIAULtnL57/4+P425MLcfLM03HOJRejok+1beOT08QJErgnlRJ3zZp+4e/8lvzJS8te2q06FeUPFgAiAEYygcd/83t8uGPf4Zl9dRf+TxJCIFBcCr2oBMn2FiTaWyGltG18w0ji7Vdfw7tL3sBZl3wa51x6EXQ9YNv45LgQgC+kNHHtrOkX/TTpj969ZMmSuOpQ5H58CJA8b+Pa9bjr23dhx859dt3Wd4QQAsGyShT3HwzNgQt0MmnglYXP4J5v/ScO7Ntn+/hOkLFOx8a2HBzbIWFA/iCQKlp1/ozzx6sOQ+7HAkCe9sKTT+PJP/4F0s1X/k/Q9ACK+w+CXlTsyPj1e/fjnm9/H+8tW+HI+HYyNq11buwPVjk2tsMmmFJ7d9ZpF31WdRByNxYA8qwnfvt7rFr5vm1P8+eSEBoiVf0QKHXm4b1kIoHf3/8LbHxrsSPj26Xzmcf+X3v3Hh1leecB/Pu8c8sNCJcICCoCAUStglcggcWiCLS2qy1bBaXd1u62ds92d+2eY7fu2mO37Z5Tu8e2x7Pb1mPVglVaewGChFuEBBBFQSvlbuViQgIhmZlkMpf3+e0fFNQVQjLvvO/zzsz38w8nOZnn+TKTzPub530u0PFoztvV0Q50LX8y5+16qBxKnptbs+BfTAch/2IBQEXpuZ8/gz17DvrpVn9WSiuHIjxwkCttiwherfsd/tTY4Er7uWC3NqPjka8huW0jdLTDcXs62oHktg2nTwLsaM9BQqOUAD+YO2PB100HIX/iJEByWwqAsRll/7hw0Ue+FyqrQNnQ4Xl/8T+jdNAwSMZGujvuSvvbV/8OpYMqMeZq9w7eOZ9gJIJMMtnrz+jOdsSefMyjRO8LR/LjrABReOzWmgXH1jauWm46C/kLRwDIbe5clbIUCIZQNqSqYC7+AAAFlA6tQiDoUp2lBU3Ll6Kj7bg77feiYvAQz/vsq/LKwaYj9JWlgKfmzFxwhekg5C8sAMhVAsRMZ3ifQumwEYBVeL/2SlkorRru2nyGTDqFTUt/AZ3JfkOibIwaP9HT/vpj1IS8up6WWxrPf/bKz3J9J51VeO+E5CsKaDOd4YySQZUIhAv3/S8QCiPi0nwAADh1/D287fGkwPE3TofK8c6LuWBZFqpvuMl0jP66urMywUmBdJb//rKowKh9phMAgBUMIjwwb4Zss1YyYAisoHtTe3Y1rEF3Z6dr7f9/lVXDMWnGTM/666tJM2ZhYNVw0zH6T8m3bpn2iVGmY5A/sAAgVykle01nAIDwgEqoPFzu12+WQniAe/v626kU3t683rX2z+X62+/w1XD76EmTcd3td5iOka2yUEB/w3QI8gcWAOQqLeot0xmUFUC4YqDpGJ6JlA+EsgKutb/31a3o6fJubqcVCOCWJV/G5NrZsALu/b/6kuOq2o9j9r33w8rjeSQCdf+82nlVpnOQeeb+mqgoXD7iyjYrYD8Ig/PuIxWDECotM9W995SC2BnYqd6Xz2VLbBvlgypRdckYV9o/F6UURlVPwpiPTUEwHEEmnYJojUw65Wq/JeUVGHTRcIy/7iZMv+tzuPyaqZ6OJO1a/5IbzYYEOHrw8P5X3Gic8kcRjImSabfVLNgJ4BpT/VeMHI1AKJKTttTIS2BNmQbr8onAmV34oh3Q7+yFfn0LpMUfe+jbqSTiLmYZNvpSLHiA88ncZNsZ/PJbrj3Hr9U3rrrBrcYpP3AjIHKfqHooMVIAqEAwNxf/YAiBeZ+Fdc2NH11qN2QYrCHDYE2dDr1zG+yXfgNk0s77dCAQjkBZAYh2Z9neyWNHkIhHUVpEt1a8dqENkBy6bv5fzR9R11DX4mYn5G/5eyOL8oaIXmaq71AudmsLhhBc9FVY197U+zp7pWBNmYbA4q8ALs7E76tQiXs71YkImg/ud619AjIpV29vqHQGs93sgPyPBQC5bu2Wup2AvGmi70DE+af/wO13QV06ts8/b10yDoHb7nTcr1NWpMTV9k8cftfV9otdMtHtavsK1s2udkC+xwKAvGLkaDUrFHL0eDV8FKxr+/8+aU2dDjX8Ykd9OxVw+H+/kOiJVlfbL3bxjlMu9yATXO6AfI4FAHkikgj8HAZ2BbQc7o9vTZmW3fa6SsG6xuwHLCvocgFw0jebPBakeKfz0w0voNrtDsjfWACQJ1bsWNEN4HGv+1UO12tbY7L/kKTGmd3HXil3V/mmetwdoi52sXaXRwAU3NsxivICCwDyTCCtfwyg2dNOna7ZHpT9e6QyvPWwstxd5Zt2d5Z6cRPByZb3XO4DA9ztgPzO/FRlKhqrX1kdnVsz/0GBWupVn04vgeKkDa0d9955+FDWjw4GQ3j8heye6u5kBnuOuj4ETefR3nwMbft3J+sbV7k7k5OKGkcAyFNrGuuWQdQGr/oTcXgR7mzPvu+osyFc7bCAiJRmvwIiljC7j0Gxe2//HkDBu/2WqSixACDvBQKfV8AJL7oShxdRObgn+8ce+JOjvp2OIJRXZD/C2x7rcdQ3OXNo5w4owUnTOaiwsQAgz9Vv+v0RLWoJTo+wu8p2uCOfvXNrdhdiraF3bnPWd9pZ9mEjszuutjtlI5FyZwdBurBTzcdwquU9iMIB01mosLEAICPWNq2sE8GjbvejHV5E0XYc9mub+v0we/vLkJPO1snrjLOd4KpGjsjqce3RhKN+yZkDO86e0bPPZA4qfCwAyJi1Tav+QxR+4mYfdtL5ULZe+4d+DefLgd3Q6//guF+n2cdO7P8yxIzWOBHj7H5Tkl3d2P/q1r98pZqMhqGCxwKAjKocUfZ1AL92q/1MMgefZrWNzPM/hb1tI9Db4Traht6yHpnnf5aDFQCA3ZN9AaAshXGT+l8AtJ7qgdau35mh83i7aT3Sp88A0HbK2mw6DxU2d3cKIbqA3bt3y9Sbrn0xGU8PB3B9zjsQQai0DFbA4YpXEcihPdC734BKp4BQGEpZQDoFOXkc8uarsFf+Cnr3G4A4v4DaqR4kY51ZP37spImYOW9uvx6Tzmi82xbLRXzKQiLWicblS6EzGQBoXLd1paujY0TcB4CMW758uQ3g72+r+UQLIP8O58v3PyTdFUcgnKPl1CdbYa9fAaxfkZv2ziPVFXP0+KnT+r8N8dGTXbD56d+Y11b9Hum/jPooUS8YjkNFgLcAyDfqG1c+ooDbABzPZbuprhgknz7Wao10V/ZLwCOlJbh+Zk2/HhPrTuNUnPf+TWk+tA+Hdu0482XMLu151mQeKg4sAMhX1jSuWhcI6uuhpD5XbYrWSDsYTvdaMh51tH/B9Dm3oLSsrM8/b2vBuyecjThQ9lKJbmxZ/quzXwvw03Xr1uXPLyzlLRYA5DurG1Yfrd9cNxdQdwA4nIs2e2KdOZmY5zbRGslY9lvwlpaVYc6n7+jXY/7cGkMq7f/nphCJCJp+vQzxjrN7/nSkg9b3TWai4sECgHyrvnHlilSw7EoIvgGgxUlbYmeQcLg1rxeSne0QO/tNeOZ+5k5UDOj7DoDNp7rR2eVsvwHK3lsb63F491tnvxaoRxsaVniySyYRCwDytYaG5fH6plU/iNllY6HwVQCvZdtWKtoJO+Xf+9x2KolkLJr148dMqMas+X2f+d8e60FzO4/0NeXQG69i57rV739DYWvlyFLPj8ym4uXueaFELpgzc8EVllb3AHIrTi8d7PNyVisYQsXI0aeX8PmIaI14y5EzS8D6rbS8HA9+71EMG9G37X87ulI4dDyWkyWL1H+H334TLy976oMHPp0KaH3D6i2rD5rMRcWFBQDltXk3zRtYUlk++4Y5t/2sJ9pR1dbcjFg0jlRPAsmeJBLdH/2EGywtR3nVcPjn11/Q3daCdCK7T+PKUvjyvz6IyVOv7dPPn4wlcbgtnl8rIwrIwR3bseW3v4J+/1aPFlGfXNu0ss5kLio+fnkHJHJERKytB1o3DS6PzPjg9//5niWwz/GpOlw+AKVDL/IsX28S7a1IxfNvFn4gEMTi7zxmOkbeEBG8uaEeu9av9kvxlaxvXJWjDTIoH/lrHJQoS0opPb16eM2Jju7v2B/YyzZScu73t1RXDN0nW42/ESdOtuXlxR8AQpGI6Qh5I9nVjQ1P/ww719UZ/507QwH5+YtHOcMCgApK7eSLH26LpqYnUnY7AJRVlJ/3Z9NdMSROtDhac58t0Rpdbc1IdWU/6c+0cGnf9xooZs0H9mLFj/8LR/e+bTrKhwjg/2Ux5CpuBUwFZ/bkEdsADN28+71Hh1ZV/duJluPnvdWVTnTDbjmCsmEjEAh784nWTvWgu60V2nZ4VLFhA6uqTEfwtUSsEzteWoGDr79qOsq5Kew3HYHMYgFABat28sUPf2ruwhEAvtTbz+lMBvHjRxEuH4iSwUNdWyEgopHsaHd0yI+fDPTJHAq/ScRi2N24EXu3bT5zsp8/aew1HYHMYgFABS3R3bUeFygAAAACpOJRpLu7EBlQifCAgVBWbgoB0RrJeCfS0U7o3o4TzjMXjRlrOoKvnDx2BAd2vIIDr21DJp0HozuW2mI6ApnFAoAKm53eACsk6OOKF9E2ejpPIhk9hVB5BcJlAxA4z0TCC8kkE0jH40h3xyFSWFvtKqUwfOx40zGMEtE4cfQImvfvwaFdr6Oz1dFmlV6TVEA1mA5BZrEAoIJWv6W+9baaBdsB3NSfx4lopOJRpOJRKMtCMFKKQKQEViiEQDAEKAsqcHqEQGwNiIadSUOn08gke2AnE0YmF3ql6pIxKCk7/wTLQpFKJpDpSSGT6kGiqwvRtlZET7Si43gLjr978OzxvXloK7ccJhYAVPAE8qyC6lcB8KHHa410ogvpRFcuY+W13QMnYGtjs+v9HHyoVt1aM/8BBfUT1zsrIkoUjxsmLgOkwheGWgYgbjpHodDBMOIXX+FZf3z9ci4WVPK86RBkHgsAKnirGledEuB/TecoFJ2XTYUd8m4DOb5+uSXAE6saV3EPAGIBQMXBUpnHwJ3PHNPBCDovv8Hzfvn65UxU6fQPTYcgf2ABQEVhzeY1zQr4tukc+a59Yi3siPeT//j65Yo8XL+lvtV0CvIHFgBUNJLBrscBvGY6R77qqRyJzsumGuufr59j21PB7idMhyD/YAFARaOhoSGjgb8BUBhb8XlIByM4PvXTgEu7JPYFXz9HOmBZn2toaPjo0ZhUtFgAUFFZ17jqECCLAfCNsK+UheNT7kCmdJDpJHz9spMRUYvqN614x3QQ8hcWAFR06hvrVoqS+wH441xWP1MKrR+bh+6LxplOchZfv34RCL60tmllnekg5D8sAKgord1c9wsFWQIgDzZtN0OUQuvVtyM2+mrTUT6Cr1+f2KLky/VNq542HYT8iQUAFa01jXXPiqhPA+gwncVv7FAJWq7/DGKXXGM6ynnx9evVKYj+5NrNdT83HYT8iwUAFbW1TSvrYFlTAWw3ncUvkpUX41jtF3w17H8+fP3O6RUraE+tb1q92nQQ8jcWAFT06jeteGd64w3TAPwdiniGuQ5GcGLyHBybfi/SPpjw11d8/c7qFKivDxpZNuOlhpf+bDoM+V+fjkglKhbzaudV2VD/BFEPABhoOo8XdDCC6JipOHX5jdDhUtNxPuTgQ7X9eo8qxtcPQFQJfpIMWf/NE/6oP1gAEJ3DnDlzBgWSJQtF5F4A0wEETGfKJVEKycGjER19FbpGToIORkxHOqf+FgBnFPrrB8CGoEkseVYiqeXr1q0r5pEPyhILAKILWFCzYHBaWbOU2NMEmCBQExQwCEAFTv/rWzoYgQRDYgcjSJcPkXTFUOkZPFISQy/TOujdgT7ZOvhQrePKJJ9fP5y+pREXoFNB9gnUXkvJ1mQg/HJDw+84+ZEcYQFA5KGlmw9cJ8D9CpgDYDQAf370zh9JAEchWGuJ/PTuWdVvmA5ElC9YABB54KmN75SEg5knAPV58O/OLQKFJ1PpwD98YfblPabDEPkd34iIXHb64m+vBVBjOksxUMDmypjcOn9+ddJ0FiI/4zJAIpeFQ/aPwYu/ZwSobR+gHjedg8jvOAJA5KKlTfuuhbZ2gMW217QSa8o9M8e+aToIkV/xTYnITbb1RfDvzARLlP5b0yGI/IxvTEQuEoWPm85QxG41HYDIz1gAELlIAZeYzlDELjUdgMjPWAAQuStsOkARC5kOQORnLACIXCVx0wmKWMx0ACI/YwFA5CrFi5AxfO6JesMCgMhFip9CDRI+90S9YAFA5CIRFgAG8bkn6gULACI3KXXUdIQidsR0ACI/YwFA5CrZazpB8eJzT9QbFgBELlLCi5ApChafe6JesAAgcpEO8CJkii2azz1RL1gAELkoKek9ALTpHEVIR+zUPtMhiPyMBQCRi75YMykGKJ5I5703Fs6+kpswEfWCBQCR2xQ2mo5QbERhg+kMRH7HAoDIZUo0CwCPWcICgOhCWAAQuSyh7AYAGdM5ikgmoTJNpkMQ+R0LACKXnZ4HAF6QvPPyX55zIuoFCwAiDyiRX5rOUCxE4VnTGYjyAQsAIg/oMF4A0G06RxHoTiLzoukQRPmABQCRBxbfXB2FYIXpHAVP5Lcc/ifqGxYARB5RCr8wnaHQSQDPmM5AlC+U6QBExUJE1LLGgzsBfMx0lkKkILvurhk/RSklprMQ5QOOABB5RCklEHzPdI5CJcB/8uJP1HcsAIg8FGoZtxwA96jPOdmzv2b8b0ynIMonLACIPLRwobIV1PdN5yhA331EKR66RNQPLACIPLavZuzTgGw3naOA7Ag1j19mOgRRvmEBQOSxR5TSYllfA48JzgVtQT+wcKGyTQchyjcsAIgMWDxj3KsKeNJ0jnwnUP9zd+2EV0znIMpHLACIDEmH0w8BaDOdI4+1KgS/ZToEUb5iAUBkyJKbrjgpCksAcOla/4mCfGlR7WWnTAchylcsAIgMWlwzfrUo/MB0jryj8L17aqu5tTKRAywAiAwblT7yTfC44P7YFi/peMR0CKJ8x62AiXzgmcaDl1oiryhghOksPtcsGblx8ezqo6aDEOU7jgAQ+cB9NeMOQ6vbAHSYzuJjUVh6Pi/+RLnBAoDIJxbPGveWhvw1gB7TWXwoBai7Fs2YsNN0EKJCwQKAyEfura1uEJF7AXBjm/fZUOruRbXj1pkOQlRIWAAQ+czimdW/hshdABKms/hAEpC7F9WMe9F0EKJCw0mARD61bNP+WWKp30MwyHQWQzqg9acWzZqwyXQQokLEAoDIx55pOnBVUOMlAUaZzuIlAVqUpefxnj+Re3gLgMjH7psx/o86IzcDaDSdxTNKbbID9vW8+BO5iwUAkc8tnl199OLMkdmAfBuFfYKgAPhRvOTUnCXTJx4zHYao0PEWAFEe+WXjgXlK8BSA4aaz5JIALbBkyeIZ1fWmsxAVC44AEOWRxTXjV6cygUkAfoTCWCqoATxrh9NX8eJP5C2OABDlqede3j9FW+oJADebzpKl1yHWVxbNHLvddBCiYsQCgCiPPSJiVTcduhsi3wQw2XSevlDAHwH13X01Y59/RKlCntNA5GssAIgKgIio5xoPfEJEPQyFG0znORcF2SVQPww1j1u6cKEqhNsXRHmNBQBRARERtXTzoVuUkvsA3AmgwnCkOIAXlcbT98wav8FwFiL6ABYARAXqmTW7ygNlZXdCrMVQMgtAxKOukwJstESWZhLdv71v7jVdHvVLRP3AAoCoCLyw5UhpRqeuE8EMQOYAmAkgnKPmbQA7AVmngKaEshu+WDMplqO2icglLACIilBd3f5IR0VgooY9QQEToNQkABcDqAQwQAHlok7fPlCCuJweyo8D6ABwDCJ7BdgHsfYO6dL75s+vTpr73xARERERERERERERERERERERERERERERERERERERERERERERERERERERERERERERERERERERERERERERERERERER5cb/AUwNFMI+R7eCAAAAAElFTkSuQmCC;" parent="1" vertex="1">
          <mxGeometry x="125.5" y="600" width="86" height="86" as="geometry" />
        </mxCell>
        <mxCell id="Y_KD3HWZfFkjH02bFHmC-7" value="" style="shape=image;aspect=fixed;image=data:image/png,iVBORw0KGgoAAAANSUhEUgAAAgAAAAIACAYAAAD0eNT6AAAABHNCSVQICAgIfAhkiAAAAAlwSFlzAAAOxAAADsQBlSsOGwAAABl0RVh0U29mdHdhcmUAd3d3Lmlua3NjYXBlLm9yZ5vuPBoAACAASURBVHic7d15nB1Vnf//96m7dac7OwlZWEwgSSdhU/ZNQFlFIMIEIYCCKG6j6NdZvjPfWaIz/kb9/tRRGHRgRhkgC0YU2SJhSYAsgGxBsm9ASNLZujvp9W51vn8kKIR00t236p6qe1/Px4PHQ6HvOZ+kPn3rcz5VdUoCAAAAAAAAAAAAAAAAAAAAAAAAAAAAAAAAAAAAAAAAAAAAAAAAAAAAAAAAAAAAAAAAAAAAAAAAAAAAAAAAAAAAAAAAAAAAAAAAAAAAAAAAAAAAAAAAAAAAAAAAAAAAAAAAAAAAAAAAAAAAAAAAAAAAAAAAAAAAAAAAAAAAAAAAAAAAAAAAAAAAAAAAAAAAAAAAAAAAAAAAAAAAAAAAAAAAAAAAAAAAAAAAAAAAAAAAAAAAAAAAAAAAAAAAAAAAAAAAAAAAAAAAAAAAgD8zrgMA4u6SNTYzOK8jjNUR1tPhMjrMSkON1RBJQ4w0xEpDJaWslDFSv70frZFkJWW15390mD3/O2ekJis1ac8/O2XUJKt3rNHbiaLe3pnWxrnjTNbFnxdAZaAAAHrohrV2eKGgY2Q12UjHSJosaaykkQ7CsZIaZbXOGC2z0hvWaHkhoT/OGWe2O4gHQMxQAAD78bmVtn+ndLKk043VqZJOkXSo47B6xEiNvvSikV6Q0ZIa6aVfNJhW13EBiBYKAEDS1GW2Pu3pXGt1vjX6uJEmSkq4jisgRUnLrNHTxtcTibyeufd40+46KABuUQCgak1bZk+Q0WUyOl/S6ZJSrmMqk5ykJTJ60jN6+L4JZqnrgACUHwUAqsq1y+xk42mqpGskTXAdT0S8Kekh62nOrPFaJGOs64AAhI8CABXvuhX2WCvdZKWrjTTadTwR946V7k9a3X3vJPOG62AAhIcCABXpxlftoFyNrpb0GUlnuo4nppbL6p58Sr/gyQKg8lAAoKJcs8yemvB0q5WulJRxHU+FyEp6QJ5+MnOCedF1MACCQQGA2Ju6zKZTCV0hq1vFaj9sL8vqp/UdmnXnSSbvOhgAfUcBgNj63Erbv9Pqq0b6utxsxlPNNhurn+Ss7pgz2bS5DgZA71EAIHamLrP1qYRultXfKSab81SwnZJuT3fp3+/+sGlxHQyAnqMAQGxMXWcHJnO61UjfkDTYdTx4nyYZ/dgk9NMZ48xu18EAODgKAETeufNtctQIfU7Sd8SKP+p2yuhfNm/Rfyw4zxRcBwOgexQAiLRpy+351ujHe1++g/hYJaN/nNlg5rgOBMD+UQAgkq5bYY/1pZ8a6VzXsaAkT1tfX5812SxzHQiA96MAQKRM3Whr0236Jyt9S/Ham7/TWL1pjd620tvGaqMxavSlJmPU5Bk1+UatCU9txQ7lJWnzTrVK0qih6i9J1ihtMqrzrPr7VkOs1RAjDZXVodbocCMdYayOsEYfklTr7o/aazlj9X9z/fXdOYebTtfBANiDAgCRMW2FvUjSHZLGuo7lAPKSXt/7z3Jr9EaqqOX3TDZvlzOIacvtkdbTREnHGqtJko7b+0+ynHH00lpr9ZVZk8wTrgMBQAGACJi6zA5JebpN0jTXsezHNknPWOl5z+iFXJ1eieoqdupGW5vs0Imer1PtnrcbflTSMNdx7ctY3WcL+vrM40yz61iAakYBAKeuW2EvtNIvJY1yHctenZKek/SE5+mJ+8br9bi+HW+6td7K5To+YXSB3fPK47Ml1biOa693ZHXTzEnmSdeBANWKAgBO3LjB1uSymi6rv5bkOQ6nQ9LTsppT4+m3v2gwrY7jCcXUjbY22abzjdFUWV0uaaDjkKykuxI5/a97jzftjmMBqg4FAMru+uX2I77RDEkNDsPoMtJvrdV9zSk9NXecyTqMpewuWWMzQwq6wBpdL6sr5LYzsFy+rps52bzmMAag6lAAoKymLbefkdHPJPVzFMLLMrrXGs2YNcHscBRDpExdZwemcvq03L46uctIX58x0dzlaH6g6lAAoCxu3GBrsl36qZG+4GD6rIx+5Rn98L4JZqmD+WPj+lX2eN/XVyRdLxdFmtG99W360p0nmY6yzw1UGQoAhG7aajtWRf1a0ofLPPVmSf+RT+quOePM9jLPHWtT19hhqaK+KKuvqPxvWnw5YTT13gazoczzAlWFAgChun6FPdeXHpA0pIzTvi2j7zUn9Itqu7YftEvW2MyQvD5vPf2trA4v49Q7ZXXlzEnm2TLOCVQVCgCE5rrl9tPW6G6V7wazt2T043RG/3n3GNNVpjmrwtRlNp0yukZG/yjp6DJNm5PV52dOMveWaT6gqlAAIHjWmmkr9c+S/knlybEmWf2gOaV/Z8Ufrltesqm2Ot0k6V9Vnk2GrIx+MHOC/i6u+zEAUUUBgEBdssZmBhf035KuK8N0WSvdbvL6LrvKldfUZXZIMqF/NHvuEUiHPqHRvfmiPj9nssmFPhdQJSgAEJhbXrL92uv0gJUuDn0yo8fk6Wszx5v1oc+Fbl2/zB7te7pd0kWhT2b0WL5OfxHVrZiBuKEAQCBuWGrrihn9TlYfD3MeIzVaq7+dOcncE+Y86J1rV9jLzJ4XOR0W8lTPmqQumzHO7A55HqDiud6CFRVg2ut2cDGlp0M++VtjdEcurQZO/tEza6J5ON2lY430n9qzxW9YPqqC5k173Q4OcQ6gKtABQEmmrrHDkgU9YaTjQ5vEaKMp6qYZk81Toc2BwFy73F4go18aaXRYc1hpaSGpC9jfAeg7OgDos1tesqlUQXNCPflLc/JFncDJPz5mTTJPFNKabKzuC2sOIx2fLujBS9bYTFhzAJWOAgB91lqnb0k6J6Thdxura2ZONFfPmWyaQpoDIZlzlNk1Y5K5QUbXSwrl7YpWOmNQQd8MY2ygGnAJAH2y93G/zQphhz8rveFLV90/0awOemyU37WrbIPx9YCkSSEM39Sc1Cj2fwB6jw4A+mRIQeconO19ZyRzOo2Tf+WYNcGszPs6VdLsEIYfMiivj4YwLlDxkq4DQGwdG/B4BUnfnDnR3B7wuIiAOZNNm6Rrp620z8vqh5ISgQ1udKykJwIbD6gSdADQJ9ZqUIDDtVqjyzj5V76ZDeYnvtUVktqCGtNY8Ugg0AcUAOgTI+0MaKCN1uisWQ3m94GMh8ibPck8Kl9nW2lTIAN62hHIOECVoQBAn/gJvRTAMK/60mmzGszrAYyFGJk52byW8nSqlZaWOpZRILkIVB0KAPRJYbyWyGhjXz9vpMXpLn1sdoPZHGRciI97JphNJq/zJD3f50GMNuYmlPB5oIpRAKBP5hhTtL6+08ePP53zddHdHzYtgQaF2Jl5nGnO+7pA0vy+fN76+s4cY4oBhwVUBfYBQN9Za6at0ixZfbrHn+GNbtiPS9bYzOCiZstqSk8/Y6XfzmrQVTImzHcPABWLDgD6zhibr9NN6unz3VY/r2/TFE7+2NfccSZb36ar975MqCdmF+p1HSd/oO/oAKB01pprV+oaz+ofrdHE/fzEq0b6pxkTzSNljw2xs/fVwt+W9OF9/5uxWmGl78ycqPs5+QOloQBAoK5dZRtMUSfIaICMmuXp5ZnjzXrXcSF+pq22Y+XrRFkNNla7jKfX7mswq1zHBQAAAMQWHQAgQOfOt8nRwzXeJjTZSh8yVkdKOtJIw+yedycMlVQnad/X2GYltUvaaaQmK22X9JY1estIb5qilm3aptULzjOF8v6JAFQqCgCgBJ9eYccnpdMlnW6NTpXVJEnpkKbLSVpmpBclLbFWi2dOMmtCmgtAhaMAAHrhhqW2zs/oEitdJKsLJR3hOKS3rDRP0uPJnH5/7/Gm3XE8AGKCAgA4iBs32Jpcp6bIaKqkSyTVuo6pGx2S5lqjX2UyeujuMabLdUAAoosCAOjG9avs8b6vz0u6TordG+eaJc3wPP3XfRNMyfvtA6g8FADAe0y31lu9Qh+T0a2SLlVl/I4sktFP8hP0G7bNBfCuSvhyA0o21dpEapWukdU/SprgOp6QrDTSv4xr0OzpxviugwHgFgUAqt61K+xVRvpXSQ2uYymT5cbqH2ZMMr91HQgAdygAULWmrbAnSvqhpHNcx+LI88bqmzMmGV6nC1QhCgBUnRuW2rpiRv8oq7+SlHAdj2NW0l0mqb+eMc7sdh0MgPKhAEBV2fuimTskHeY6lkgx2uj7+vLsSeZR16EAKA8KAFSFqRttbapN35P0NZH33TO6N1/UV+ZMNm2uQwEQLr4IUfGuX24/4hvdL+lo17HExGrf1zWzJ5tXXQcCIDye6wCAME1bbm/wjZ4TJ//eGO95Wnztcvt514EACA8dAFSkc+fb5KhDdZuMvuQ6ljgzRnds2qJbeQshUHkoAFBxpi6z9WlPs+2enfxQuifyaU2dc5TZ5ToQAMGhAEBFuWalHeVZ/V7SsY5D2Wal5ZLWGGm1jNZ4vjb6SbUkPLV1ZdXx7o12U5fZ+qSvOpNRnVfQIN/T4VYaL6txksYZabKkYS7/MFZamrC65L5JZovLOAAEhwIAFeMzy+wRBU9Pyc31/q2SnpXRIlktnNmgV2SMDWrwaavtWBV0lozOlHSx3LyGeIMSOn/meLPewdwAAkYBgIowbbUdq6Lmq7wnxq2ymm0SmjFjgvlDGefVtFX2FPm6TtI1koaXceq3i0l97P5xZl0Z5wQQAgoAxN7UdXZgOqsl1mhiGaYrGqsHfE+/3LJFT7q+OW7vzY4XyuhGSVeqDDsbGqsVuYxO554AIN4oABB71660PzZW3wh5mpyM7vek797XYFaFPFef3LDSjinu+Xv4gqTaMOeyRv8+q8F8M8w5AISLAgCxNu11O1gpbZZUE9IUOUm3e1b/f1xugLtmpR1lpL82Vl+VlAppmq68r9FzJpumkMYHEDI2AkKs2ZQuVngn/yc8o+NmTjTfisvJX5JmN5jNsxrMN4sJHS+jp0Kapibp6aKQxgZQBknXAQCl8Kwm2+D7WJtl9XczJ5l7Ah+5jO4fb1ZIOn/vC5BuV8A3SHpWk4McD0B50QFAvBkNCHi8+01SE+N+8n+vWRPNw/m0jpM0J8hxrdHAIMcDUF50ABBr1mp7QHeydEr6xswGc2cgo0XM3jv2r75upf2StfqxgrhsYrWt5DEAOEMHALFmjF4IYJiVRjp15sTKPPm/14wG83NrdKqk1SUPZvRi6REBcIUCALHWlNQzRmrs6+eNtFh5nTFjovljkHFF2awG83re1+mSlpQwzNbmpBYEFBIABygAEGtzx5msrP61jx9/pK5dF8w8zjQHGlQMzJlsmurbdb6RHu3L543Vv8wdZ7JBxwWgfCgAEHszJuoOY/WrXn3I6N76dl1550mmI6SwIu/Ok0xHrkFXyOi/evVBq9+Nm6ifhRQWgDKhAED8GWObUvqMpJ7cuW9l9P3xE3TjnSeZfNihRd0cY4ozJ+gWWf1vSX4PPjK7vkPTphvTk58FEGHsBIjKYa2ZtlKfkvR/JH1kn/9alPSk7+ufZ082Qdw4WHGuW25Ps0bflvRxffCdAi8bq+/OmGR+6yA0ACGgAEBFuuaP9nAvoWMlDbDSzoLVy2xb2zNTl9khSaMTjTRU0m6/qD/OPtZsdB0XAAAAAAAAAAAAAAAAAAAAAAAAAAAAUCXYBwAI0ZXXfe0wz+ocz5rJ1pgJsna8PB0iqzpJ/ff+WKuM2uVrh4xWGavVvrHLTDK5YM49P97kMn4AlYsCAAiWmXrtrWcaz15rrS6QNK7E8VYboyclf+avZty+WJINIEYAoAAAgjBt2pcH523qKzK6SdJRIU2zTla/TJn8HTNn/qzq3mAIIFgUAEAJpk792jCTNH9ljb6sP7f0w7ZbRncoZ380Z85t28s0J4AKQwEA9MH06dO9N1Y3X29kf6Q9e+a70CJpuvJbbp8zZ07RUQwAYooCAOilT3/6GxP9hL1Hsie5jmWvP/jW/8wDs25f6ToQAPGx7ys/ARzA1Glfv8F69kFJH3Idy3uMNsbcPOmYU7cuf+OFV1wHAyAe6AAAPTB16tSEUqNuk+yXXcdyYPb2yeOH3jp9+nTfdSQAoo0CADiIqVOnp2266V5jdXWpY6XTadXX16mmplaJxJ4GXLFYVFdXl9ra2pTL5UqOV7IP1qVbr7377ru7AhgMQIWiAAAO4JJLvpapH2wekXR+KeMYYzR48BDV1/dT9792Vm1t7Wpubpa1JT/u/0Rbs71s7tzbsqUOBKAycQ8A0I3p06d7uzu6Zkq6rJRxjDEaPny4+vWr1YFrbqN0Oq1MTY06OjpKmVKSjkrX6pjJDUf+evny5WweBOADPNcBAFG1fE3TbVaaWuo4gwcPViaT6fHP12QyGjx4UKnTSjJTbGrUjwIYCEAFogMA7MfU6279tKy+X+o46XRKQ4b0fpuAdDqjzs4OFYul3ctnpFOPOea0dcveeOH1kgYCUHHoAAD7uGra18fJ2juDGKuuru+bA9bV1QcRgqyxP7vq2r9sCGQwABWDAgB4j+nTp3uedJ+kAUGMV1vT89b/vmpqaoIIQZLqPWN+MX36dH7fAfwJXwjAeyxf03SLpFOCGu/dR/36IlnCZz/InL5sdfNNAQ4IIOYoAIC9rr32W4dYq+8GOaY1fX/SNvhb9+33pk795pDAhwUQSxQAwF55k/umpEBPkMVCoe+fLfb9s904RGn/1qAHBRBPFACApOuu+9oAI/OVoMft6uzs82c7O0PYyM/q1ik3fiOIZwwBxBwFACApb/VlSYGfGFvb29WXZr61UntbW9DhSLIDU9niF0IYGEDMUAAAkqzMjWGMW8jntbu19yfy1rZW5Uu4fHBAnuFmQAAUAMCnr/vaaZJCe06+pbmlV5cCujo7taulOaxwJKuJU6d9/cTwJgAQBxQAqHpF610b7gxW23ds1+7WVh34coDV7t27tX3HdpX+LqCDmhb6DAAiLek6AMA1I1vSm/56wlqppblZbW1tqq/b8zrgZGJP/V3Y+zrg9ra28Nr+HxT6nxlAtPE6YFS1T93wpeHJYrpR1fe7YJPWjJw16ydbXQcCwA0uAaCqJYqZc1R9J39JMkXpLNdBAHCHAgBVzZOd7DoGV6z8qv2zA6AAQJWzstX7ljxjJrgOAYA7FACoduNcB+COGe86AgDuUACgyplDXEfgjh3qOgIA7lAAoNrVuw7AoQGuAwDgDgUAql01FwD9XQcAwB0KAFS7tOsAHKrmPztQ9SgAAACoQhQAAABUIQoAAACqEAUAAABViAIAAIAqRAEAAEAVogAAAKAKUQAAAFCFKAAAAKhCFAAAAFQhCgAAAKoQBQAAAFWIAgAAgCpEAQAAQBVKug4A0XbJJZdkSvn83Llzs0HFAgAIjnEdAPb41KduGG4LiU8r4V3oeYkTTMIbLOOljecljZdwdpx2vb2upM8PPOKogCLpPesXZYu+rPXlF/Iq5rIq5LrkZ3Oy1ncWF9ADVlKzjJpk1WSkt6zVi0Z6wdblX5k3b1676wARfxQADn3iypuPTBf8b3vp9BWJdGaQ63j2J84FQPesCtms8u2tyre3UQwgbgqSXSRr7vVrs79+8sknd7kOCPFEAeDAFVfcOM1LpL+XyGQONybah6AyC4A/s9aq0Nmu7K4WFfNcrUDsdFnpIev533vy2bmvug4G8RLts0+F+dRlnzlLyfSdyZp+E+PyN1/pBcB75TvalG1pUrGQdx0K0FvWSL8uyP7DUwsfW+06GMRDTE5D8TZlypRBMkPnp2r7nRC3v/JqKgD2sMrt3q2uXTtlrXUdDNBbBRndnku0/92CBQu6XAeDaOMxwJBd8ckbLkukRm5O1dbF7uRfnYzSAwaqfsRhSqTTroMBeispq2+kCnUvX3TWJ493HQyijQIgRFdcfuN9qf6DHvJSqVrXsaB3vFRadYcepnT9ANehAL1mpElWdslFZ3/yC65jQXQlXAdQqT415XOPper6Xxn1m/wOJruruaTP1wwcElAk5WeMUaq2TsZ4KnR1ug4H6K2UpMvGHjG+dv3ba550HQyihwIgBFOm3Pxsql/9x13HEYRqLgDelczUUAQgtox0FkUA9ocCIGBTPvX5F1L96s5wHUdQKAD2oAhAnFEEYH+4ByBAV1xx4+2p2n6nuI4D4cgMGKR0fX/XYQB9YqS/vfDMSz/rOg5EBwVAQD51+Q1T07X9v+o6DoSrZvAwJdIlvR4BcMfoZxeedemJrsNANFAABODKK28Z6dX2nykv3jf84eCMMep3yAjF/eZOVK1aSXPOPXdqvetA4B4FQAB86z/oJZK8WbFKeMmkMgMHuw4D6Ksx6ULn/3EdBNyjACjRlE9+9uOp2lqu+1eZTP9B8lJsFIS4sv/r4jMvnuA6CrhFAVAiL5OZxQ5/VcgY1Q4e6joKoK/Svknc5joIuEUBUIIpl3/2bxKZmmGu44AbyZp+StawySNi64ILzv5kRexXgr6hACiBl675e9cxwK2aQZWxzwGqk7H2O65jgDsUAH005fLP/k0inRnoOg64lUjX0AVAnJ1BF6B6UQD0Eat/vIsuAOKMLkD1ogDoA1b/eC+6AIg5ugBVigKgD1j9Y190ARBndAGqEwVAL7H6x/7QBUDM0QWoQhQAvcTqH92hC4A4owtQfSgAeoHVPw6ELgBiji5AlaEA6AVW/zgYugCIM7oA1YUCoIdY/aMn6AIg5ugCVBEKgB5i9Y+eoguAOKMLUD0oAHqA1T96gy4AYo4uQJWgAOgBVv/oLboAiDO6ANWBAuAgWP2jL+gCIOboAlQBCoCDYPWPvqILgDijC1D5KAAOgNU/SkEXADFHF6DCUQAcAKt/lIouAOKMLkBlowDoBqt/BIEuAGKOLkAFowDoBqt/BIUuAOKMLkDlogDYD1b/CBJdAMQcXYAKRQGwH6z+ETS6AIgzugCViQJgH6z+EQa6AIg5ugAViAJgH6z+ERa6AIgzugCVhwLgPVj9I0x0ARBzdAEqDAXAe7D6R9joAiDO6AJUFgqAvVj9oxzoAiDm6AJUEAqAvVj9o1zoAiDO6AJUDgoAsfpHedEFQMzRBagQFABi9Y/yowuAOKMLUBmqvgBg9Q8X6AIg5ugCVICqLwBY/cMVugCIM7oA8VfVBQCrf7hEFwAxRxcg5qq6AGD1D9foAiDO6ALEW9UWAKz+EQV0ARBzdAFirGoLAFb/iAq6AIgzugDxVZUFAKt/RAldAMQcXYCYqsoCgNU/ooYuAOKMLkA8VV0BwOofUUQXADFHFyCGqq4AYPWPqKILgDijCxA/VVUAsPpHlNEFQMzRBYiZqioAWP0j6ugCIM7oAsRL1RQArP4RB3QBEHN0AWKkagoAVv+IC7oAiDO6APFRFQUAq3/ECV0AxBxdgJioigKA1T/ihi4A4owuQDxUfAHA6h9xRBcAMUcXIAYqvgBg9Y+4oguAOKMLEH0VXQCw+kec0QVAzNEFiLiKLgBY/SPu6AIgzugCRFvFFgCs/lEJ6AIg5ugCRFjFFgCs/lEp6AIgzugCRFdFFgCs/lFJ6AIg5ugCRFRFFgCs/lFp6AIgzugCRFPFFQCs/lGJ6AIg5ugCRFDFFQCs/lGp6AIgzugCRE9FFQCs/lHJ6AIg5ugCRExFFQCs/lHp6AIgzugCREvFFACs/lEN6AIg5ugCREjFFACs/lEt6AIgzugCREdFFACs/lFN6AIg5ugCRERFFACs/lFt6AIgzugCREPsCwBW/6hGdAEQc3QBIiD2BQCr/5AZU9o/CA1dAMQZXQD3Iv8NveCNt09OJjM3eZ5OSHnekemUN8TzTNoznvG86McPVLqib2V9q6K1KvpWuaKvbLaorkJR2VxBXXlfhaLvOkygO61WajdSu6QWY7XJ97TK8+3qopdYlcjnV0w7b8IO10GGIXInUGutt3BF45fSqcSXM+nEhEwqkXIdE4DSdOWLau3Iq60rr9bOPAUBYsaulNF86+tpr+gvqJSCIDIFwONLG8f0rzV39sukzsmkPE76QIWykjq78trZmlNze5ZiAHHjW5k/GGPvM/ni7DgXA84LgMWrdjR4SXt3/0zqFFr6QHWxstrVnldTa5d2deRkreuIgF7JyWiutfqf9JajHrr6alN0HVBvODvhzrc2mV699T8G9Et/IZnwOPEDVS6bL2r7rk5t352VpRJA7JgNkn4yuNX/+Sc+MS7rOpqecHLiXbR8y6X96tL316QSdS7mBxBduYKvxpZO7dzdRSGAOHrLyP6gtXbXXV886aS862AOpOwFwHMrt/58SP/MLZ6h3Q+ge9l8UW9vb1NrZ6S/Q4HurDbG+8tpZ419wnUg3SnbSXjZMptuTW97ZWBdZnK55gQQf02tXXqnqUOFAjcLInasNWZGOu/99dXnjWl0Hcy+ylIAPP/8zgHeMH95/9rU6HLMB6CyFH2rt7e3qbktFpdWgX21SPaW684eN8d1IO8VegHw/PM7ByQPtRvqMkm2LQNQkh27OvXOzg753BuAGLIyd+QL3rduOm9Ml+tYpJALgGXLbLq9Zsd6Vv4AgtKZLWh9Y6uyhVg9cQXsYfSq7+nqG844eq3rUEJ9F0BbevvLnPwBBKk2k1TD4YNUl2G/MMSQ1Ye9on1h5qI1p7sOJbQC4LmVjf8+oC59TFjjA6heCc9o3OiBGlCXdh0K0AdmiPXNk7OeXXep0yjCGHTBHzddMGxwv8c9j9fBAQiPtdLbO9q0c3ckLqkCvVU01n5p2kfH/ZeLyQM/Qc+3NjnwrZ0ttekkm/wAKIs3t7WpqZUiALFkJfvZ684ed2+5Jw78EkB69dZ7OPkDKKcjh9VrIJcDEE9GMr+c+ezaKQ4mDs5zK7aPH9w/sTLhsbc/gPLyrbRm8y61d7FzIGKpwxr78evPGvd8uSYMtAOQSPq/5OQPwAXPSEeN7K9MKuE6FKAv+hnfPDJ70ZqjyjVhYAXA4lUbRw+sTTt/rAFA9Up6nsaMGCDuP0YsGQ31fT3wy/kb0FgyxgAAIABJREFUasoxXXAdAC9zF3f9A3CtXzqh0Yf0cx0G0CdW5vh0ovh/yzFXYAVAv3Ti40GNBQClGDagVoPquSkQMWX0lzOfXXdV2NMEUgA8s7Lxc5lUgt82AJFx5LD+SiVC3ewUCI019q57Fq0dHuYcgfx2ZBLm60GMAwBBSXhGo4byRDJia3CyqB+EOUEgBUBtOtEQxDgAEKSh/TPqX8s7AxBP1ugz9z635tywxi+5AHh2zZZJ6VQyE0QwABC0ww+pl+H+ZMST8WRu/8+XXgqlii25APAK5vNBBAIAYahJJzS0P2sUxNbkuo5BN4YxcOkFQEIfCSIQAAjLoYNqJboAiClj9L/nz5+fDHrckguAVDIxJohAACAsmVRCQ+rpAiC2xm5JHHZN0IOWXAAkE94hQQQCAGEaMagmnPefA2XgG/P3060N9LnWkgdLeIbn/wFEXk06qQG8MRAxZaSJRy9c/4kgxyz9HgAj3rwBIBa4DIA4M9JnghwvgAKAO2sAxMPAurQSvLAUsWUv++X8DYOCGq3kuwovu+cN1aY8jaxP68ghtTphRL1OPaK/6tM0BgBEi2eMBtdntGN3l7MYfCu9vTunDS05bWrPaUdHQW15X7milSSlE0b1aU/DalIa1T+lMQPTOmJAWuWoW3Zu2qg1f1iizWtXqaOlRcViIfxJDyCRSKrfoEEaOW6Cxp9yhoaOPCz0OaN8fCTVpBLFqZLuCmKwkkM+6t+es/v+u5Tn6awPDdTUY4fpiEG03ABER1tXQas3tZR93uauop7f0q7Xt3WqPe/36rP1aU/HHlKr00fVaVBN8IurYiGv5x+co3WvvChrP/CVHgnGGI078TSdcsVVSiSD3xcnysfnvYz03LSzj/5oQGOVZn8FwLsSxujShqH67EdGKJOk7QbAPWul19/cqaJfnhNda76oJ95s1evbOlXqlJ6RThjeT+cf2V/16WBuCC8W8nriv+/Q1jfXBzJe2IaPOUoX3vwVJRLBPBYf9eOzH8VcIXHITeeNKbmKLblUGXL+56Z399+spFU7OvTSO7t14ugBquOyAADHjJHauwrK5ouhz/XK1g7NXNaid1rzCqLcsJK2tOf18tZO9U8lNKK+9JXwC7+do7eX/7H04MqkvaVZ2fZ2HdYwueSx4nB89sNLev7iB3552+qSBwoimoNZ39ylv5q7Tut2dpZjOgA4oLBfEFSwVg+sbtGDa3apq9i7dnJPdBV8/WZNi367epdKGb5p8yatfuX54AIrk1V/WKzmxs19/nxcjk93rPHOC2Kcsr0su6kjr+lPvaUdHflyTQkA+1XfL7z9AHJFq/uWNWvptvAXPK9u69CM5U1/ukGtt9a8vEQl971d8K3WvtS3wiVOx6c7xvofC2KcshUAktTcmdd3nnpL2UIMEw5AxeiXToTyOGDRl2avaNb6lmzgY3dnbUtWM5c3q9CHm/ca15TcRXZm05pVvf5M3I5Pd6zMcfc9v2ZAqeOUtQCQpPVNnbr/9W3lnhYA3ieTCv6epN+ta9HaMp5c3rV+V1aPrN3d68+172oOIZry6Ghp6vVn4nZ8DsAkCt74UgcpewEgSb9bvl072rkUAMCdmoALgNe2duq1re7uc3pla4eWbu/d/DbG+7gZ07vjF8fjcyC+NKHUMZwUANmi1Wy6AAAcqgnwqaS2nK+5GwJd4fXJY+t29+oZ9vrBQ0KMJlx1gwb3+GfjenwOyLfxLAAkaf66ZrXnwn8MBwD2J8hLAE++vVudhRBu9+6lzoKvp95q7fHPjz665HOIM6PHT+zxz8b1+ByINTHtAEh7ugAvbQrmLwIAeiudDObrb1e2WJY7ynvqla0daunq2eLq6FPOkDHOTgN95nmexp18ao9+Ns7H5yBK3hfZ6ZF/vbHd5fQAqpgX0Inv+S3toTzr3Ve+lV5s7OjRzw4adqgazgxkV9myajjzHA0YdmiPfjbOx+dAjFH/UsdwWgC82eTuhRwAqlsQjwH6snp9W/S+x5Zu65Dfw73tTrr48l610107rGGSTrz48h79bCUcnwOIdwHQ2JZzOT2AKuYFcAvAO7vzao3gvUytOV+bW3v2Jj8vkdDHPnuLJp19nrxEdLdr9xIJHXP2x3XeDV+Q5/Xs1FUJx6dbfukFQDBvU+ijjlyE+jIAqkoQHYANu6K7iFm/K6vD+vdsy2PP83TyJ6Zo/ClnaO1LL2jzmpXq2NWirva2kKM8sJq6etUNGqxR4xp09EmnasDQYb36fKUcn/0K4BKA0wIgrgqFgpp2NGvH9u3auX2ndmzfoZamZmWzOXV1dimfzyuXzSqb3ZN8mUxa6UxGqVRKNbU1ymTSGjxksIYOO0RDhw3VsOGHaMghQ5WIcPWN4JA/0WBKfxmqNrdFdz+TLX1YYQ48ZLhOvPgynXjxZSFEVH6Vdnz2UfJ+1k4LgLpMPO4+7Wjv0Jvr3tT6deu1Ye0G7dy+U77f8+5FNpv705f5uzase/N9/9/zPA0ddojGHD1GY48aow8d/SH169cviPDhGPlTuXZ0lPwlHprtndE9+ZULx+fAnBYAI+rDeyFHqTZt3KQ3Xvuj1q1er62NW2UD3Md5f3zf1/at27R96za9uOgFGWN06MhDddT4o3TM8cdo9OGjQ50fwSJ/qkNbUJu6hKC1DK87jjqOz4E5LQCOGlLrcvoP2L27VcuWLtOrf3hFjZsbncZirVXj5kY1bm7UogWLNGz4MB1zwjE64aQTNHhIz3fAQvmQP9UnG6Xny/YR9Bvo4ojjc2BOC4DjRtS5nF7Sni/KNStWa/GzS7Rh3YbQV2p9tX3bds2fN18LnligMUeN0ZnnnKGjG8bJxHgv70pA/lQ3Y6TSn+YKh7EcW47PgTkrADJJTyeOLvkmxj6z1mr1itVa8MQCbdq4yVkcvWWt1fq167V+7XqNGHmozjjnLB33kWN7/FgMgkH+QJIynqeOXtzPUU7phPsTjGscnwNzVgCcf9Rg1aTK/6VjrdXSl1/Xs089ox3bd5R9/iA1btmq38x+QM/Nf1Yf/dhHddxHjmNFFzLyB+9Vn/bUEYE95vdnQIanQjg+B+akAEh5nq46pnfPcwahcXOjHn7gYW18a2PZ5w7T9q3b9cCsB7TkuSW67KrLuOErJOQP9jWsNqVtEb3TfGit+xOMaxyfA3NSAFx17CEaXl/CBgi91NXZpacfn68XF7/Qq8ev4mbzO5t150/v1ImnnqgLL71QNbU1rkOqCOQPujOyf1LLdrqOYv9G92GTmZ2bNmrNH5Zo89pV6mhpUbHo9uSZSCTVb9AgjRw3QeNPOUNDR/bu/TeVdnyCVvYCYNLwOl1z3PCyzbf89eV65MFH1ba7Ot48aK3VS8+/pFXLV+mTV35SE4+Jzx7fUUT+kD8HMnZQdB9lHjsw0+OfLRbyev7BOVr3youRupG1WCyodecOte7coTUvLNa4E0/TKVdcpUSyZyfPSjk+YSnrRfjh9Sn9/XlHKBnAFpwHUygU9NiDczX7ntlV8+X9Xq27WzXr7ll6YNZvlM9HswUWZeQP+dMTo+vSGhiBa7n7GlST0Mi6np0ki4W8nvjvO7T25RcidfLfl7VWq19aonm/+FmPOxOVcHzCVLYC4ND6tL798Q9pUE34TYeWphb94me/0PMLl4Q+V9Qtffk1/dftd6lpZ5PrUGKD/Pkz8ufAjJFOGB6t/Uwk6fhhterp/Zwv/u4BbX1zfbgBBWjbhnX6w8O/6dHPVsLxCVNZCoBJw+v0w08cpcMHhX9N8Y3X3tB//PB2vfPWO6HPFRdbNm3Rz378My17fZnrUCKP/Pkg8ufAThnVryxdzZ5KekanjOzZHitNmzdp9SvPhxxR8Fb9YbGaGzf36GfjfHzCFmoBkE54mnbCofq3i8ZoUG34K/8lzz2vOTPmfGDfdEjZrqx+de+vtHDBQtehRBb50z3yp3v9UwmdOCI6q8yTR/RT/3TPvtrXvLxE8qPb9u+Wb7X2pZ4VLnE+PmEL5axcl07ovLGD9BfHDNMhZbjOYa3VE489qYXznwt9rjiz1mreI/O0u6VVl1xxMc9870X+9Az5072PHdFfb2zvUrvjvefr057OO6K+xz/fuGZ1iNGEa9OaVTq5hz8b1+MTtpILgLp0QrVJTyMGpDV2cK2OH1mvD4+qUzpRngrH9309/MDDevmFl8syXyV4fuESdXZ26lNXXyGvyl8hS/70HvnzQbVJT5cdNVCzVzY7i8FIuuyogapJ9vy7t32Xu3hL1dHS8/tS4np8wlZyAXD/tZOCiKNP/KKv+++ZrRXLVjqLIa6WvvyastkuXXPDNfLKVKxFDfnTd+TPB006pEanjazT81vancx/2qg6TRzau/usbIy7OMb0rviM4/EJW2x/c621eujXD/HlXYKVb6zUb3/120g/+hMW8qd01Zw/3bn4qP6aPLT815snDM3oojEDev25+sFDQoimPOoG9f6tlnE7PmGLbQEw79F5euUPr7gOI/aWvrxUT8590nUYZUf+BKNa86c7noyumjCwrCu9SYfU6NMTBqsvN7qPPnpC8AGVyejxvd+kKm7HJ2yxLACeX/i8Fi1Y5DqMivHc089p8TOLXYdRNuRPsKotfw4m6Rl9euIgnT6qTmF+5xtJZ4yu09UNg/r8mNvRp5whY+J3GvA8T+NOPrVPn43T8Qlb7I78G0uXae7v5roOo+I8/sjjWv7H5a7DCB35E45qyZ+e8mR0ydgBumbiYPVPBX+jZP90QtdOGqyLxwyQV8JpbNCwQ9Vw5kcDjKw8Gs48RwOGHdrnz8fl+ITN2euA+6JpR5Me+vXvuOYYAmutHrz/QY0YNVJDhvb+2lockD/hqYb86YuJQ2s0ZlBa899q00uNHcqX+Mx9KmF08oh+OveIetUEdPPlSRdfrt3btmrT6hWBjBe2wxom6cSLLw9krDgcnzCVXJqs2NxSlm/TQqGgu267S1s2bSnHdFVr9OGjdfNXb1YyGava8KDIn/KIW/68sm5H2eZqy/n6Q2OHlm7rUFNXsVefHVKb0PHDanXKyDrVpYI/sfi+r5d//5BWLn5WfrF3sZWLl0ho0hnn6sMXf1KeF/zfQZSPT3euO/voks7hsSkAHvnto3px0QvlmKrqnX72abrkik+4DiNQ5E/5xCl/ylkAvMtK2tqe14aWnDa15bWjs6DWfFHvvnMplZQGpBIaWpvU6PqUxgxK69C6VFkaybt2bNPal17Q5jUr1bGrRV3tbWWYtXs1dfWqGzRYo8Y16OiTTtWAocNCnzPKx2dfVVEArHhjhWbdPSvsabCXMUbX3jRNDZPie4fwe5E/5RWn/HFRAABBKbUAiPxFimw2p0d/84jrMKqKtVYP//ohZbuyrkMpGflTfpWUP0Ali3wB8PTvn9TuKnwfu2utu1u14MkFrsMoGfnjRqXkD1DJIl0AbN2yVS8sftF1GFVryXNL1Lil0XUYfUb+uBX3/AEqXWQLgHe3avWLbt/eVM38oq9Hf/NILB+bI3/ci3P+ANUgsgXA66++ro1vbXQdRtV7a8PbWrZ0mesweo38iYa45g9QDSJZAFhr9dzTvJs9KhY8OT9WqzjyJ1rilj9AtYhkAbDijRXa1rjNdRjYa1vjdq1esdp1GD1G/kRL3PIHqBaRLABYvUXPM08+4zqEHiN/oidO+QNUi8gVAGtWrtGmjZtch4F9vPP2O1q/Zp3rMA6K/ImmuOQPUE0iVwAseW6J6xDQjcXPRP/YkD/RFYf8AapJpAqA1t2tWr9mvesw0I21a9aqLcKb6pA/0Rb1/AGqTaQKgKUvL5Xv89x2VPlFX6+/+kfXYXSL/Im2qOcPUG0iVQC8/spS1yHgIF57+TXXIXSL/Im+KOcPUG0iUwBs2bRFjVu2ug4DB9G4uTGSx4n8iYeo5g9QjSJTALyx9A3XIaCH3ngtem1c8ic+opg/QDVKljqAtVbGlPRKYkmK/c1bNbW1mnhMg8YePUaHjhqhwUOGKJNJS9rzStrmpiZt3dyodWvWa+WyVerq7HQccd+tX7vBdQgfQP7ER1Tyh90JEXMlv2+75AKgaOUnTWmdhK7OLm3ZtKXUUJwYPmK4zv7Y2Zp83GQlk/v/68xk0hoxcoRGjByh4088QYVCQcuWLtNz85/VtsbtZY64dJvf2aRsV1aZmozrUCSRP3ETlfwp+hQAiLWWUgcouQDIF4qdyXSyrpQxNqx/M3Z3b6czaV3wiQt08ukny/N6V/8kk0kdf+LxOvbDx+rFxS/oiUefVD6fDynS4PlFX2+uf1MTJk1wHYok8of86Ztsoeh0fqAkViW3PUu+ByBfsG+XOsaba+PVvh126HB98dYv6tQzT+31l/d7eZ6n0846XTd/9WYNHDggwAjDt2FdNNq4EvlD/vRNRxcFAGLMsyU/UlN6AeAXHy91jA1r3yx1iLIZffhoff6rN2vY8GGBjTnqsFG65dYvauTokYGNGbYNEbmOK5E/5E/ftHXFp2sC7Mv6errUMUouANo72/7Nt+rzxTS/6Gv7tnhcxxx26DDd8IUbVNuvNvCx+w/or+tvvl4DBvQPfOwwbN+6PRJtd/JnD/Knd3zfaldHztn8QGlMe7qY+32po5RcAFx0/NHb2jrzK/v6+ebmZhWL0W/FpdIpXfOZa9SvX7/Q5ug/oL+uu/l6pVKp0OYISqFQUEvzLtdhkD/vQf703M7WrHxuAkRcGf+eq8+b3FbqMIHsA5AvFL7a10dqdmzbEUQIoTv/kgs07NDg2rbdGTl6pM45/5zQ5wnCju3uV97kz/uRPwdnrdXWlg4ncwMByMokvh/EQIEUAGc1jJzf0p7r06u+dmzfGUQIoRp26DCdesYpZZvv9I+erv4xaOXujMCxI38+iPw5sK0tncoV3F++AvrE6gfXnTn2rSCGCmwnwJ31xfM7s8VeP5e4IwbXb88+72x5ifJtmphKpXTeheeVbb6+isLqm/z5IPKne21deW1piu8mSqh6i1JDs/8a1GCBfStdNmpUx47OjlNyBb9Xt9buisB15APJ1GQ0+fhjyj7v8SeeoJramrLP2xstzSXvQ1Ey8mf/yJ8PyhV8bWhsVQn3LAMuvVX0dOXVkycHdvdqoMuSCycdvqa5PXdVruAXevqZrmzJuxmGqmFSg1KpkvdL6rVUKqlxDePLPm9vZLvc30VN/uwf+fN+ubyvtVt2K1+k9Y8YMnrTWvuJz5x59LYghw28L3nuxBEPb21rn9SRLTb35Odz2a6gQwjUmHFjnM099mh3c/dENgLHjvzpHvmzR1tXXis3tagr1+N1CRAli0zSO+36j45bHvTAoVyYvHDS4Wt2dxSPaGrLPlH0D/x4QC4b7c04Rowc4WzuQ0ce6mzunshGYPVN/nSv2vPHt1Zbmjq0ZvNuFVj5I366JPvtttqW86adNjaUd2iH1ps8b/LwNkkXPrdi+/h00s6uq02dkPA++NrAKJxEDmTQkEHO5h48ZLCzuXsiF4FLAORP96o1f4pFq6b2LjU2dyrP3f6IG6Nd8nWvZ/WDa88ZtzHMqUK/OHn2xGGrJX1k8bKNQ4pe4q9T6eQlaS9xZCLp9U8YeblsrvR3CYeoJuPujWWu35Z2MFE4+eay7ouQAyF/uhdE/hSLVkVrlcsX1ZErqK0jr92deR2k8QhEg9EuWbVKWidpqW/sU4V8ct5N540py/Wxst2ddMbkw5sk/d3ef/5k6rVfs/pgYyAy+BrpXrFY0K1XX+cyhOzAw8dmyJ94In8O7p+//89KJBJO5i4UCvrO//6Ok7l7xmrX205fBJadt/DRaD9qcxDlezi5Gzbi+3F2dbq7ySzrcO6ecP0uACO1kj/dI38OjPw5MPLnwIzU6jSAALgvAKwivZF7c1OPHmYIRZPDuXvE8XenlVrJn+6RPwdG/hwY+XNglgIgCD3fM8CFxs2NzubesmmLs7l7xLq+wcq2kj/dI38OGgD5cwDkz0EDoAAolbW92zmw3NavdXeNKQrvTD8Q1y04ybSSP90jfw6G/DkQ8udgDAVAqay17m8lP4BVy1c5udM8n8trzao1ZZ+3V9z/Au4mf/aP/OkJ8qc75E9PmN2OAyiZ+wKgWAx0a8Og5XN5vf7q62Wf99WXXo38I27FgtvFk5HWkz/7R/4cHPnTPfLn4Izk9BGEILgvAKxd7TqGg1m4YKGKxfLdK1QoFLRw/sKyzddXft7tL6A1dhX580HkT8+QP/tH/vSMNXaV0wAC4L4A8AuvuI7hYJp2NGnRM4vKNt+i+Qsj8aa9g/GLblcItuitIn8+iPzpGfJn/8ifnrFFjwKgVNYmnnUdQ088/fh8vbnuzdDnefvNt7TgyWdCnycIRccVeErFVeTP+5E/PUf+fBD503MpFSkASnVi65GLbAy27fSLRc3+n9lq2hnes7EtzS2afff9ZW339ZW1Vrbo9AmqzlMWn7KR/Pkz8qdXyJ99kD+90nnK4lNC3ae/HJwXANMXTC/4hXyH6zh6oqOjQzN+MUMtTcG3x1qaWnTvf92ntra2wMcOg5/LOd3n1hr7xnRN98mfPcif3iF/3o/86Z1388ddBMFwXgBIkp/PBf6e47Bs37pNP//3nwf6jOzbb76l/7ztTm3fGukbkt+nkO10G4A1T7/7P8kf8qfXyJ8/IX/64D35E2eRKADk+4+6DqE3Ojo6dM9d9+jJuU+WtFd3oZDX/Hnz9Yuf3a321nhU3u8qdrn9BbRG8//0f8gf8qeXyB/ypxTvy58Yi8RrsK688paRXiaz2UT4rVzd6VfXT+ecf44+fNKHVVPbsxdDdXV2aekrS/Xc/Oe0uyWGe0lYq93vvCnrbivOnPrlh8ybN69dIn9ih/wJDPnjxPvyJ84ik/FXTv3i7kQq0991HH2VSiV11ISjNfbosRoxcoQGHzJEmXRakpTN5dS8o0mNW7Zo/er1Wrt6vQqON7EoRbGrS23bNrkM4bl5Cx/96Hv/BfkTH+RP8MifsvpA/sRV0nUA77L5wlKlMme5jqOv8vmCVr6xUivfWOk6lNAVsq7vmfrg9TfyJz7In+CRP+VUGdf/pajcAyDJL+R+4DoG9Eyuw/H1wqKZve+/In/ig/xBKaKYP3EVmQLgd4/c+3Axn3Nd2uEgirms6y04X5y35OEPLHPIn3ggf1CKqOZPXEWmAJCkYi73uOsYcGC5drdvwDTW3NvdfyN/oo/8QSminD9xFKkCIKfWf4jDrlzVylqrQrvT9ls+m+q+/Ub+RBv5g1JEPX/iKFIFwNzfzVlezGe3uo4D+1fs6pDvO9wm1OqxBQse3tHdfyZ/oo38QSminj9xFKkCQJIK2dz3XMeA/etqdfuGMCP98GA/Q/5EF/mDUsQhf+ImMvsAvNdVU7+4y0tlBriOA39WyHaqfetmdwFYPTtv0aPn9ORHyZ/oIX9QijjlT5xErgMgSfnO7I9cx4D3y+4O7y1kPWGt992e/iz5Ez3kD0oRp/yJk0h2ACTpyqlfak+k0v1cx4E9j960Nb7jMoRX5i189CT14v1f5E90kD8oRRzzJy4i2QGQpGK24z9cx4A9sruaHEdgpquXv3zkT3SQPyhFHPMnLiLbAZCkq/7ilp1eumaI6ziqWaGzU+3bHV57M3bevOceu6gvHyV/3CN/UIo4508cRLYDIEn5XMc1FVp4xYRVZ4vTp16ynu9/va8fJn9cI39QinjnTxxEugB46KH7nsh3tC92HUe1yu5ukZ/POZvfWn3/94t+v6qvnyd/3CJ/UIq4508cRLoAkKTOTnOZXygUXMdRbWyhoC6Hd95a6a2aLu/7pY5D/rhB/qAUlZI/UZdwHcDBrFv3aue4oyYVkqmaj0f7joUKYqWOnY0uX7rhe9LVj73wSMnVN/njAPmDUlRQ/kRd5DsAkvTQQ//zb7mu9uddx1EtsrubVejqdBiB+f8eX/jok0GNRv6UF/mDUlRa/kRZLAoASdrVXDzPz2d3u46j0hWynera5XDTDatnc8m2bwc9LPlTHuQPSlGp+RNVsSkAFiy4uyvX1Xa+9Yu+61gqlfWL6ty5TQ7vfN5e8M20BQsWBH7NlfwJH/mDUlRy/kRV5O8BeK/Vq/+4+eixE20yXXOe61gqj1XHjkYVc87uui1Y3/uLp5Y88lpYE5A/YSJ/UIrKz58oilUBIEmrVi199ugxk0cl0+kTXcdSSTqbdijf0e5qeiurLz6x+JFfhz0R+RMO8gelqJb8iZrYFQCStGrVq4+MHzv5rEQ6PdZ1LJWgq6VJudZdDiOwfz9v0WO3lWs28idY5A9KUW35EyWxfrBlypSbX0n1q/uw6zjiLNe2S51NTnfbumPewke/6mJi8qd05A/5U4pqzp8oiM1NgPtzQsvhp+SzHRtcxxFX+fZWdTa7++WzMveesfDkr7man/wpDflD/pSi2vMnCmLdAdjLmzLlcy+k+tWf5DqQOMm17drzy+fqhlur285YdPI3pmu667uqyZ8+IH/+hPzpA/InGiqhAJAkfWrK5x5L9qu/xHUccZDd1eTyWVsrme/MW/jIdFcB7A/503PkzweRPz1H/kRHLG8C3J+VK1+dMW7spMMS6fRHKqiuCVxn03Zl3d1wUzTGfGnewkd+5CqA7pA/PUP+7B/50zPkT7RUTAEgSatWvfbwuA9Nynvp1HnGGH4L38MWi+rY0ejwURuzzUhXPr7w0cg+akP+dI/8OTjyp3vkTzRVZJJeeukNx2Rq+z2TSGeGuI4lCgrZLnXuaJRfLDqKwD5jbXLaE4se2uwogF4hf96P/Okd8uf9yJ/oivVTAN159NF730iYppH5jrZn3O0qGQ3Z1l1q37rZ1S+flcxPc8mO8+P0y0f+/Bn503vkz5+RP9FWkR2A95py+Wf/JlFb969eIplyHUs5+fm8Opu2q5B19FYto7Uy/hfnPTv3aTcBBIP8IX9KQf6QP1FW8QWAJE2ZMmWQNOS5xWYHAAADIElEQVTBZG3dORV/ac5aZVt3KburSdY6WX7krPTjfLJ9+oIFC7pcBBA08qesyJ84I39ipcKz8f2uvPQz56kmc38iUzvMdSxhKHR1qrN5u/x83sn8RnrKFr2/nLfk4ZVOAggZ+RMu8ifeyJ/4qaoC4F1TLr9xeiJT8y0vla53HUsQitkude1uVqGzw00ARkvk+/8yb9HcuW4CKC/yJ2DkT6yRP/FVlQXAuy677MavpDLpf0qkaw51HUtfFLJdyu1uVt7VL560SDLfn7fwkYddBeAS+VMy8of8KUVV508QqroAeNfll9/wpUSq9h+Smczo6P+VWOU725XdtUvFnJNLXFlZ84gS9kfznn10sYsAoob86RXyZx/kT6+QPwGKeraV1SeuvPnIZMH+fTKd+ouoPcNbzGWVb29Vrr1N1nfySM3LVubepCnOnPvc3O0uAog68ueAyJ+DIH8OiPwJAQVANy6//PoLPJP+Gy+ZPCmRyQwq91+VtVbFbJcKXZ3Kd7a5uLGmS9ISSU+ZYuL+x5c8tLbcAcQZ+UP+lIL8IX/KgQKgBy666OYh6Rr/cwljPuWlUsd6iVS98bxg/+58X8VCToWuThU6O1XMdZX7MZpWSX+UNF+e/3Rrvn7JkiVzHD3EW1nIH5SC/EFYKAD66NJLP3tiIuGf6yl5ojyvwUskRsqYtIypMcYkjTEJGc+TkbFFX7K+rLWyvi9rfdl8QcViTn4uL7+Yl18ohBXqLkltkmmTbJukZsm2yZg3jW9W2URxdSGfWPX0kkc2hRUAPoj8QSnIHwAAAAAAAAAAAAAAAAAAAAAAAAAAAAAAAAAAAAAAAAAAAAAAAAAAAAAAAAAAAAAAAAAAAAAAAAAAAAAAAAAAAAAAAAAAAAAAAAAAAAAAAAAAAAAAAAAAAAAAAAAAAAAAAAAAAAAAAAAAAAAAAAAAAAAAAAAAAAAAAAAAAAAAAAAAAAAAAAAAAAAAAAAAAAAAAAAAAAAAAAAAAAAAAAAAAAAAAAAAAAAAAAAAAAAAAAAAAAAAAAAAAAAAAAAAAAAAAAAAAAAAAAAAAABA0P4f0HEWYlehpgAAAAAASUVORK5CYII=;" parent="1" vertex="1">
          <mxGeometry x="125.5" y="380" width="86" height="86" as="geometry" />
        </mxCell>
        <mxCell id="5jVfxsf8ShCBXA_Zx5xe-7" style="edgeStyle=orthogonalEdgeStyle;rounded=0;orthogonalLoop=1;jettySize=auto;html=1;entryX=0;entryY=0.5;entryDx=0;entryDy=0;strokeColor=#FB5656;strokeWidth=2;align=center;verticalAlign=middle;fontFamily=Helvetica;fontSize=11;fontColor=default;labelBackgroundColor=default;startArrow=none;startFill=0;endArrow=classic;endFill=1;exitX=1;exitY=0.5;exitDx=0;exitDy=0;" parent="1" source="Y_KD3HWZfFkjH02bFHmC-17" target="x0laBFkF1cOgZIqmITGU-3" edge="1">
          <mxGeometry relative="1" as="geometry" />
        </mxCell>
        <mxCell id="Y_KD3HWZfFkjH02bFHmC-17" value="" style="rounded=1;whiteSpace=wrap;html=1;dashed=1;labelBorderColor=none;strokeWidth=2;strokeColor=light-dark(#FB5656,#EDEDED);" parent="1" vertex="1">
          <mxGeometry x="310" y="365" width="160" height="370" as="geometry" />
        </mxCell>
        <mxCell id="Y_KD3HWZfFkjH02bFHmC-18" value="Rete fog" style="text;align=center;verticalAlign=middle;rounded=1;strokeColor=#FB5656;whiteSpace=wrap;labelBackgroundColor=default;horizontal=1;glass=0;shadow=0;strokeWidth=2;fillColor=default;fontFamily=Computer Modern;fontSize=22;fontStyle=2" parent="1" vertex="1">
          <mxGeometry x="325.75" y="720" width="128.5" height="40" as="geometry" />
        </mxCell>
        <mxCell id="6Gnw1xQwY8mwCE0ZvN5c-9" value="" style="rounded=1;whiteSpace=wrap;html=1;labelBorderColor=none;strokeWidth=2;strokeColor=light-dark(#FB5656,#EDEDED);" parent="1" vertex="1">
          <mxGeometry x="324.43" y="390" width="130" height="140" as="geometry" />
        </mxCell>
        <mxCell id="6Gnw1xQwY8mwCE0ZvN5c-10" value="" style="shape=image;aspect=fixed;image=data:image/png,iVBORw0KGgoAAAANSUhEUgAAAgAAAAIACAYAAAD0eNT6AAAABHNCSVQICAgIfAhkiAAAAAlwSFlzAAAOxAAADsQBlSsOGwAAABl0RVh0U29mdHdhcmUAd3d3Lmlua3NjYXBlLm9yZ5vuPBoAACAASURBVHic7d15kGXXQd/x37lv69d7T/f07EtrVo1Gs2kkS/IijWxZwoEAxig4YIzlAoeq5A+KCpWikpSpEELKCZWNUCS2MQ6rY4wBQ4ytxTagXaPRSCPNvvVs3dP79vpt9+SPlsAMY81M9733vHfP91OlP1w1fd7P86bv+d1z7z1XAgAAAAAAAAAAAAAAAAAAAAAAAAAAAAAAjcK4DoAFzwwOFiuVzp021FZJ3ZJtd50JAKJhZiRNmEDH8/mp1+9ft67kOhEoAE49fWa829TMR630mKT7JBVcZwKAmJUlPSurP1TO/sGBgZ4J14F8RQFw4JunxrpyNvhFa/Wzkjpc5wEAR6Yl/XpJ9f/woS29U67D+IYCkLBvnRz/YWvN/5S00nUWAGgIxl62Vv/soS09f+o6ik8C1wF8Ya01Tx+f+Iy15o/E5A8Af8eaVUbmq0+fmPhVay0npgnhLzoBn7Y2eN/JiS8YmY+5zgIADc2YL3x7U+cnP21M6DpK2rECkIAHTk78VyZ/ALgJ1v7U+05O/SfXMXzACkDMnj45+WOy9vdd5wCA5mI+dmBL1++4TpFmFIAYfePo1dX5TO5NK3W6zgIATWZS2ez2AwPtV1wHSSsuAcQom8n+KpM/ACxKl63VfsV1iDRjBSAmT56Y2BRIxyRlXGcBgCZVC+ra+sD27jOug6QRKwAxMUafEpM/ACxFNszoZ1yHSCsKQAystcZYfdR1DgBodkb6p64zpBUFIAZPnpy5XdJa1zkAoNlZaf1TR6e2uc6RRhSAGGRt7V2uMwBAWphs/V7XGdKIAhADawxtFQAiYi3H1DhQAGJgpOWuMwBAWhip33WGNKIAxMBKba4zAECKtLsOkEYUgHjw9woA0eGYGgP+UgEA8BAFAAAAD1EAAADwEAUAAAAPUQAAAPAQBQAAAA9RAAAA8BAFAAAAD1EAAADwEAUAAAAPUQAAAPAQBQAAAA9RAAAA8BAFAAAAD1EAAADwEAUAAAAPUQAAAPAQBQAAAA9RAAAA8BAFAAAAD1EAAADwEAUAAAAPUQAAAPAQBQAAAA9lXQdA4yhVqjo3PK5LY5ManZ5VqVJVuVZzHQvAIhWyWRXzOfV2tGlNb5c2LF+mljyHfSzgX4LnrKRTl67qpVODOnV5VHUbuo4EICYZE2jT6l7t37Rem1f1uY4DxygAHrswMq7/98pRXR6bch0FQALqNtTxi1d1/OJVre7t0qN7t2ttb7frWHCEAuChug315KvH9fyxc7KuwwBw4tLopD7/5Au6f9tGPbRriwJjXEdCwigAnqlUa/qDv35FZ4fHXEcB4Jq1euboGV0en9Jj79mrQjbjOhESxFMAHqnU6vrit15i8gfw95wZGtXvfuslVet111GQIAqAJ6y1+vIzh3RpbNJ1FAAN6MLohP7omcOylguDvqAAeOJv3jyjk5dHXMcA0MCOXxrWs8fOuo6BhFAAPDA2M6fvvHHadQwATeDp105qbHrWdQwkgALggSdfPa4a1/YA3IR6GOqp1066joEEUABSbnR6Vm9eHHYdA0ATefPCkEan51zHQMwoACl36MxFiZt6ANwCa60On73oOgZiRgFIuTcHh1xHANCE3uDYkXoUgBSbnJvX2AzLeABu3ej0rKZLZdcxECMKQIoNTUy7jgCgiQ2N856QNKMApNg4Z/8AlmBslmNImlEAUmy+UnMdAUAT4xiSbhSAFOPZfwBLUa1xDEkzCgAAAB6iAAAA4CEKAAAAHqIAAADgIQoAAAAeogAAAOAhCgAAAB7Kug4Av2WyUr5DyrXc+M9WZqXyrGQdPZqcLUot7VJwg98aW1/IWZlNJlccrCSFdVlXf9lpZwIFJiMZ4zoJPEYBQPKMtGqHtGaPUfdaydzCOlS9Ko2etjr/kjR+Pr6Ib8sWpY13SytuN2pddms/Oz8lDR+Tzr1gNd8kW6qH9aqq81Oqledkbeg6TsoZZXIF5QrtyhTaRBVA0igASFRLl7T7h406Vy3u5zM5qX+bUf82aeio1ZE/l+qVaDO+rX+b0R0fkrI3sTpxPS2d0vq7pTV7jU48KQ0etNEGjJCVVJ2bUGV+8q3Tf8TPql6dV706r2B+Si0dyxXcaHkJiBD3ACAxrT3Suz6++Mn/Wiu2G93940aZfDTjfbc1e6RdH1785P/dMllp+yPS5vctfaxYWKk8M6JKicnflbBWUWnyisKQvfeRHAoAEhFkpd0fMcq3RTtux0ppx4eiXTztWmu0/RET+ZLsxncbrdge8aARqMxPqlZu4hsWUsKGdc1PDctaWhiSQQFAItbvN2rvi2fslbdLyzZEM5aRtO0hKYjhN8NI2vYBoyAX/diLZcO6qqVJ1zHwlrBeVa087ToGPEEBQCLW7ot5/LuiOV/vXCN1rYlkqOsqdEj9mxvndq/q/AxnnA2mWprmUgwSQQFA7Dr6pWJXvJ/RN3BrTxN8L8s3LX2MG+nbEv9n3Kx6reQ6Aq4RhjWFYUx3tgLfhQKA2BV74j/jzeSlQvvSxyne4qN+i9HaHf9n3KywVnUdAdcR1tl/AfGjACB2mYSueWcLEYyRT6CsRJAzOqw1NyT2YEACKACIXXUumUlmfmbpYyRxM3wj7RBogozrCLieOO5CBa7BvzLEbnpYsZ9ozk9KUVzOnr4Sf1mZvhL7R9w0E8cmClgSIymT5XtB/CgAiF15Rpq4EO/EOnwsmnGunoh/9XXoWOMsu2fzRdcRcI0g1yJjWJlB/CgASMSp78R3bb1ek869GM2kOj8lXTocyVDXNXrGavJifOPfqlyhTSapmzRwU/JxPzIDvIUCgESMnbe6GNPEevwJRfqynZPftipNRDfe22ol6ehfRj/u0hi1tPUq+n0PsRi5QrsyN/NqTCACFAAk5s2vWw0fj248K+n030gXXol2Sb0yJ73yf6N9g1+tJL3yR9LceHRjRiWTK6jQ0StRApzK5luVb0/gOVTgLRQAJMbWpVe/YnXiaaleXtpY81PS4a9Ip74Tz/X02RHp+S9YDR1d+v2LY2el53/bamKwca79Xyubb1Oxa4UCbgpMnDGB8q09amlfzkoMEsW7J5EsK519zuriqwtv8+u9TWrpkHI3cS9aZVaam5BGTlgNn5DifnFaZVY6/MdWHf1S/3aj7jULmw3d6I2tYV0qz1hNXzEaOtZY1/zfSSZbUGvXKtVr86qV5xSGFdmwLlYG4mAUZLLK5IvK5oo8jgknKABwolpaWLq/8IrrJDc2PSxNDy/m7L1xz/i/JyNlci1chwY8wCUAAAA8RAEAAMBDFAAAADxEAQAAwEMUAAAAPEQBAADAQxQAAAA8RAFIMWPYwAXA4nEMSTcKQIrlsny9ABYvn2WHwjRjhkixtkLBdQQATay1hXdDpBkFIMV6O9tcRwDQxPo4hqQaBSDFVvV0KmP4igHcuiAItKqn03UMxIjZIcXy2YzW9HW5jgGgCa3v61Yuwz0AaUYBSLk7N6xyHQFAE9rJsSP1KAApd+f6VSrmc65jAGgixXxOd6ynAKQdBSDl8rms3rV1g+sYAJrIfds2qsAjgKlHAfDAfdsH1NNWdB0DQBNY1t6qe7dx0uADCoAHcplAP3zfLp4IAPCOAmP0g+/aqSw3/3mBGcETa3u79fDera5jAGhgj+7brnV9Pa5jICEUAI/cs2WDHrhjs+sYABrQgzs3a//m9a5jIEFZ1wGQrAd2blJrIadvvHJMdRu6jgPAsSAI9H37tuuuTetcR0HCKAAeunvLeq1a1qmvPv+6xqZnXccB4EhfR5t+6N47tXoZG4b5iALgqbW93frZR+/X8yfO69mjZzU7X3YdCUBC2osF3b9tQPdsWacg4EqwrygAHssEge7ftlF3b16voxeu6Mj5Kzo7PKZKre46GoCIFbIZbVixTDvXr9L2Nf3c6Q8KABYeE7xzw2rduWG1Qms1MjmjkelZlSpVzVdrruMBWKSWXFbFfF59Ha3q62pXYIzrSGggFAD8PYEx6u/uUH93h+soAIAYcfEHAAAPUQAAAPAQBQAAAA9RAAAA8BAFAAAAD1EAAADwEAUAAAAPUQAAAPAQBQAAAA9RAAAA8BAFAAAAD1EAAADwEAUAAAAPUQAAAPAQBQAAAA9RAAAA8BAFAAAAD1EAAADwEAUAAAAPUQAAAPAQBQAAAA9RAAAA8BAFAAAAD1EAAADwEAUAAAAPUQAAAPAQBQAAAA9RAAAA8BAFAAAAD1EAAADwEAUAAAAPUQAAAPBQ1nUANJ7J2XmNTs+oVKmpXK25jgNgkQq5rIqFnHrb29TV1uI6DhoMBQAKrdXJy1d15PyQzgyPaqZUdh0JQMTaiwXd1t+rOzas1KaVfQqMcR0JjlEAPGat1cHTF/TMm2c0PltyHQdAjGZKZR0+d0mHz11Sd1tR79lxm/YOrJGhCHiLAuCpoYlp/ekLr+vy+JTrKAASNjFb0tdePKKXTw3qB++5U/1d7a4jwQFuAvTQ4bOX9LknnmfyBzx3eWxKn33iWb127pLrKHCAFQDPPHfsnL556Kis6yAAGkKtFuqrz72muXJN79q63nUcJIgVAI+8cvoikz+Af8BK+sYrb+rVM6wE+IQC4IlLY5P685ffYPIHcF1W0tdeOqIrXBr0BgXAA/Uw1B8/95rCMHQdBUADq4ehvsKxwhsUAA88d/ycRqdnXccA0ARGpmb0/InzrmMgARSAlKvVQj139KzrGACayN8cPaNajVWAtKMApNxr5y9rtlxxHQNAE5mbr+jI4BXXMRAzCkDKvXaeu3oB3Dr2Bkg/CkCK1WqhBq9OuI4BoAmduzquap3LAGlGAUixS+NTqnM3L4BFqIehhsYnXcdAjCgAKTYyPeM6AoAmNjI95zoCYkQBSLHZeV7rC2DxZjiGpBoFIMWqPMYDYAkq1brrCIgRBSDFrGXjXwCLxzEk3SgAAAB4iAIAAICHKAAAAHiIAgAAgIcoAAAAeIgCAACAhygAAAB4KOs6APyUyUvLNxn1bpJaOqVs/sY/Uy1ZzY0bjZy0Gj0r2YT2OSp2S/1bjbrWSoU2Kci885+3oVSes5q6bHT1uNXM1WRyRiWslVWtlGTrFdkw5FnwGJggUBBklckVlcm3yBjOxZA8CgASt3avtOl9RvnWW/1Jo15J6+4ymhmRjj9hNXomhoBvybVImx+S1uwyMuZWf9qof8vC/8/hYwtZ56fiSBmdsF5ReXZc9eq86yjpV5fqkqrlGRmTUb6tW7lCu+tU8Ay1E4kxgbTzB4xuf3Qxk//f194n7fsnRhveFU22axW7pXs+brR292Im/79jJK3YtjBW56olDBSzerWk0uQQk78D1tZVnhnV/MyIxGILEkQBQGK2vt9o1c4IBzTS1oeMVt0R4ZiSsi3S3seMWpdFN2ahXdr7owuXOxpNvVZRafqqbFLXVHBdtfKsKnPjrmPAIxQAJKJ7ndH6/fGMffujRvm26Mbb/D6jtt7oxntbvk26/ZEGWwWwUnlmROI6f0OozE+pXmMVBsmgACARm94b39iZvLT+nmgm1kK7tGZvJENdV99mqXNVfOPfqlp1VmG96joGvktlbtJ1BHiCAoDY5YpSz/p4P2PltmjGWb5FCmL+rVixrXFWAWrlOdcRcI16bZ7LMUgEBQCx61ypJd1IdzOKPVK2uPRxOlfHPzl3rm6c5fawXnEdAdeyUr1Wdp0CHqAAIHb5tmTOeFsieIoq3xr/5FxI6O/jZoT1uusIuJ6QFQDEjwKA2CV1iTmKk6Z6Nf7JuVZunBUAE/f1DiyKiXvJDBAFAAkoTcQ/4dVrUmVm6eMkkbU02TgH9+BG2xrCCRPkXEeABygAiN3MkGLfBW/0jI1k1XT01NLHuJGRk/F/xs3K5CO4cQKRMkFGQYYCgPhRABA7K+nCoXg/48LL0YwzfkGaHopmrOspz0jDxxvnEkA2366F/QrRKHItHXwlSAQFAIk4/4JVaSKesa+ejPCdAFY6/qSNbV+cE08nd0/EzQgyWeWLDbg9oaeCTG6hAAAJoAAgEfWqdOjLVlFvcjY7Kr3+Z9GOOXZOOvFU9A1g8CWry683ztn/2/LFbmVyXApwzZhALR19vBkQieFfGhIzc1V64YtWMyPRjDdyWnrh/0RfKiTp3AvSka9ZhRGcrYehdOJbVse+ufSxYmGkYkc/S88OBZmcil0rFWRu4r3YQER4HTASNTsqPf85qzV7jNbsljpW3trP21AaH7QafNFo+ES8Z9OXXpNGz1oN3Cv1bze61be11krS8AmrM89Kc2PxZIyMkQpty5QttKtamlS9WpLl/QDxMlIQ5JUrtiuXp3wheRQAJC4MpcGDVoMHpXyr1NIl5Qo3/rnyrFSakuplKan3ppanpaPflI4+YVXsklo6pBs9OReGCzf7lSYWCkszyWTzynQsX5j8w5rCMBTvqI2eCQKZIMtyP5yiAMCpytzCfw3PLkzocd3I2GiMMVImpwzbBACpRf0EAMBDFAAAADxEAQAAwEMUAAAAPEQBAADAQxQAAAA8RAEAAMBDFIAUy/IQN4AlyGaZItKMbzfFCjn2eQKweC053k2QZhSAFOtp5w1vABavp73FdQTEiAKQYit6eK84gMVb2d3pOgJiRAFIse7WorpbWQUAcOt62lvV2coKQJpRAFJu+7p+1xEANKHb165wHQExowCk3J6BtbxmHMAtMZL2DKx2HQMxowCkXH9Xu7asXu46BoAmsm1tv/o6213HQMwoAB74wO6tyhi+agA3FgSBDty5xXUMJIBZwQN9ne26//YB1zEANIH37hjQcs7+vUAB8MQDOzdpw/Ie1zEANLCBFb16345NrmMgIRQATwTG6LH37NWKbpo9gH+ov7tDj717j4zhtmFfUAA8Uszn9PED92htHysBAP7Omt5u/eSD+9k+3DMUAM+05HP62IP7tW/TWtdRADSA/ZvX6eMH9qu1wL7/vqHueSiXCfT9++/QjrUr9PWDRzUyPes6EoCELe9s16P7tmtgRa/rKHCEAuCx21b26We/7906MnhFL50c1ODVcVnXoQDExxht6OvW/s3rtWPdCq73e44C4DljjHauX6Wd61dpulTWmaFRXRid1Nj0rEqVqkqVquuIABapmM+pmM+pt7NNa5Z16bYVvWovFlzHQoOgAOBvdRQL2rVxtXZtZAtQAEg7bgIEAMBDFAAAADxEAQAAwEMUAAAAPEQBAADAQxQAAAA8RAEAAMBDFAAAADxEAQAAwEMUAAAAPEQBAADAQxQAAAA8RAEAAMBDFAAAADxEAQAAwEMUAAAAPEQBAADAQxQAAAA8RAEAAMBDFAAAADxEAQAAwEMUAAAAPEQBAADAQxQAAAA8RAEAAMBDFAAAADxEAQAAwEMUAAAAPEQBAADAQxQAAAA8RAEAAMBDFAAAADxEAQAAwENZ1wHQGKy1Oj8yoTNXRnVhbFJjU7Oaq1ZVqdZcRwOwSPlcVq25nHo727Smt0u3rejVur5uGWNcR0MDoAB4rlSp6sWT53Xw1KCm5squ4wCIUKVaU6Va08RcSaeujOg7R06pq7VF+zat092b16slzxTgM759T1lr9dLJQT39+gnNVzjLB3wxOTevp187oeeOndWBO7fork1rWRHwFAXAQzOlsr7y/GGdHRpzHQWAI6VKVX/x8hs6emFIH753l1pb8q4jIWHcBOiZidmSvvDUC0z+ACRJp4dG9dlvPqex6VnXUZAwCoBHJufm9dtPvaCxmTnXUQA0kIm5kr7w9IuamCu5joIEUQA8UanV9XvfflmTc/OuowBoQDOlsv7gOwdVq4WuoyAhFABPfP3gm7o6NeM6BoAGNjw5o68fetN1DCSEAuCB81fH9eqZi65jAGgCr5y6oAsj465jIAEUAA889dpxWdchADQFK+mJwydcx0ACKAApd2FkXOevTriOAaCJnL86rgujHDfSjgKQcofOXnIdAUATevUMx460owCkmJV0/NJV1zEANKHjF4ddR0DMKAApNjo9q5kS+/sDuHXT82U2B0o5CkCKDU/w2B+AxRuepACkGQUgxSZn2dULwOKNz7JraJpRAFKsXOUtfwAWj2NIulEAUqwesqUngMWr1zmGpBkFAAAAD1EAAADwEAUAAAAPUQAAAPAQBQAAAA9RAAAA8BAFAAAAD2VdB4C/TCB1rpJaOqRcy43/fGXWaG5Smhm28Ye7Rq5F6lgpFdqNMtl3/vywLpVnjaaHrCpNupOqDWsK61WF9boWXiuFKBmTUZDJKMjmJRnXceApCgASl2+VBu6XVu80yhZv/efnJ43OvyQNHrQKY96orHO1tPm90rKNRuZv18tu8oBtjSYuWJ36a2nsbEwBo2SlamVW1dKUwnrFdRovmCCjXL5NudYuGcOCLJJFAUCietZLuz9slFvExP+2li5p6/ulNbuNDn3Zam48unxvM5I2vU/a+G6z+PMzI3WvM7rro9LFw9KbX7ey9QhDRsjaUPMzI6pXeH9EkmxYV2V+StXyjFo6+pXJFVxHgkeonEhMz3pp30eXNvl/t7Y+6e6PGbV0RjPed9v6sNHAUib/a6zZJe36IdOQq73WhipNDTH5O2RtqPmpIdWrvL4byaEAIBH51oUz/yDif3H5Nmn3D0c7sa68XVq/P7rx3ta/VdpwT/TjLlV5blxhjSV/16ys5qeHZcMGXSZC6lAAkIiB+xXZmf+1OlcvTNpRMBlp84H4TtM3vTu6FZAohLWqauUZ1zHwFmtDVeanXMeAJygAiJ0x0qqd8a59r9kTzTi9G6RiVzRjXU+mIK3Y3jjXAaqVGW7ybzC18qz4UpAECgBi17k6vrP/t3WvMwoiuKV12UD8k3PvQOMc3OtVrvs3GhvWVeeSDBJAAUDsijHcpHetIJAK7UsfpyXGs/+//YzOxlkBsHWuNzci7gNAEigAiF1SjzdnIlgBiPomxet+Bg/f4kZs46wSIb0oAIhdUveYlaaXPkZ5Jv4DbyPdc2eCjOsIuA5DS0QCKACI3eRlxb5j3/SQVI/gEeqJwaWPccPPON84Z3dBlo1nGo0xRplsznUMeIACgNjVK9LIqXgnvStvRjP+yKmFvHGxVrpyLL7xb1Wu0Oo6Aq6RybUmd90MXuNfGRJx6q/iu6xZnpEGX45mrOq8dO75aMa6nsuvWc2Nxjf+rcrkispkb+JNTEiIUb41gTtRAVEAkJCZq9KJp6NvADaUXv9TG+lZ+5lnrMbORZ91blQ69mTkwy5ZS3sv9wI0iHxbj4IMy/9IBgUAiTn3vHTqr2xkW5zUq9JrX7UaOxfRgG8JQ+nwH0vj56Mbc3pYOviHVrX56MaMislkVezspwS4ZKR8sVv5lg7XSeARbjVFok7/tTR5wWrLQ0YdKxY/zsgp6fhTVrMj0WX7btWSdPD3rdbfYzRwn7TYVfJ6TRp8UTr9TLSrFFELMnm1dq1SuTSxsDVw49ynmHpBNq9Ca48yOS7FIFkUACRu9Kw09nmrjlVGfQNWLV1G2ZYbzziVWaO5cWnkZDyvAL5WGEpnn7M6/7LUt9Goc63U0i4F2XfOGtalyqw0dclo5LRVrUle8GaCjFraemWL3apXSwprFYW2ThmIgTGBTCarbK6oIJNvyLdEIv0oAHDCSpq6bDV1+e3/dbM/lbywKg2fsBo+cas/2ZwzpwkyyhbaJZ4QBFKNewAAAPAQBQAAAA9RAAAA8BAFAAAAD1EAAADwEAUAAAAPUQAAAPAQBSDFTMDuIgAWL+AYkmoUgBTLZ9nbHcDi5XPsFZdmFIAU6yyytziAxesssh1kmlEAUqyvs811BABNrK+j3XUExIgCkGIrejqUy3AZAMCtK2Qz6u+hAKQZBSDFMibQwMplrmMAaEIDK3uVMUwRaca3m3K7NqxxHQFAE9q1YbXrCIgZBSDltq1drp62ousYAJpId1tRW9f0u46BmFEAUi5jAr33jk2uYwBoIg/u3KzAsAdA2lEAPLB742qt7etxHQNAE1jf16M7N7L87wMKgAeMMfqRe3epJZ9zHQVAA2vJZ/WD994pzv39QAHwRFdbi37kvl3c1QvguoIg0I/ev4d7hjzCbOCRTSv79OH7dykT8LUD+DvZTEYfuW+3Blb0uo6CBDETeOb2tSv0Ew/uV1sLW3wCkDpaCvqJB/Zr+1ru+vcNBcBDG5b36FMfvE/b165wHQWAQzvWrdSnHrlf65d3u44CB3jVk6faiwU99u49Ojs0pu+8cUpnh8dcRwKQkI0rlumBOzZrw3KeDvIZBcBzG1cs08YVyzQyPasj5y/r9JUxXRqbVD0MXUcDEJFMEGhNb6duW9GnO9avVG8HLwoDBQBv6eto0wN3bNYDd0jWWk3OzWtuvqL5Ws11NACL1JLNqrUlr67WFhk29sE1KAD4B4wx6m4rqpvHgQAgtbgJEAAAD1EAAADwEAUAAAAPUQAAAPAQBQAAAA9RAAAA8BAFAAAAD1EAAADwEAUAAAAPUQAAAPAQBQAAAA9RAAAA8BAFAAAAD1EAAADwEAUAAAAPUQAAAPAQBQAAAA9RAAAA8BAFAAAAD1EAAADwEAUAAAAPUQAAAPAQBQAAAA9RAAAA8BAFAAAAD1EAAADwEAUAAAAPUQAAAPAQBQAAAA9RAAAA8BAFAAAAD1EAAADwUNZ1ADSWybl5XRqb1Oj0rErlqsq1mutIABapkM2qWMipt6NNa5Z1q7O14DoSGggFAJqcm9ehMxf0+rkrGp2edR0HQEz6Otq0c8Mq7RlYSxkABcBns/NlPf36SR06c0lhGLqOAyBmI9Oz+tbrJ/WdN05r78AaPXjnZrUV8q5jwREKgKdeP39Zf/HyG5qvsMQP+CYMQ718alBHBq/o+/fv0I51K11HggPcBOgZa62+fvCovvLsYSZ/wHPzlaq+/Myr+saho7LWuo6DhFEAPGKt1Z88/7peOHHOdRQADeS5Y+f0Jy+8LiqAXygAHvnG9GMm3AAADiFJREFUoWM6fO6S6xgAGtDhs5f05KFjrmMgQRQAT7wxeEXPH+fMH8D39uyxszp6Ych1DCSEAuCB+UpVf/Hym65jAGhwVtKfvXhEpUrVdRQkgALggW8dOaW5csV1DABNoFSp6jtHTrmOgQRQAFJudr6sV04Nuo4BoIm8fHpQc/OcNKQdBSDlXj13WdU6m/wAuHm1WqjD5y67joGYUQBS7sh5fokB3LrXBzl2pB0FIMXmK1VdHp92HQNAE7o8NsXNgClHAUixS+NTErt7AVgEa62GOIFINQpAio3xZj8ASzA6wzEkzSgAKTZXZvkOwOJxDEk3CkCKVet11xEANLFKjReGpRkFIM24/A9gKTiGpBoFAAAAD1EAAADwEAUAAAAPUQAAAPAQBQAAAA9RAAAA8BAFAAAAD2VdB4Cf2pdLq+80WjYgFTulbMuNf6YyK5UmpJGTVhcPS+WZ+HMaScu3SituN+paLRXapeAGvzW2LpVnpakr0vAxq6E3pLBJ3shsrVWtPKN6paSwVlGoOs+Cx8CYQCaTUTbXqmyhVUEm7zoSPEQBQKKCnLTtYWntLrMwu96CfNvCf11rjDbeL53+G6tzz8Y3P7Uvl3Z+v1HHylv7OZORWjoX/uvfanTbu6UjfyFNDDb2TFqrzKk8MyZr2UEybtaGsrVQldqkKvOTyuXbVWhbJplb/KUAloBLAEhMtkW6+8eltbtvffK/ViYnbXnQaOcPLn2s6+lZL93zsVuf/K+ndZm0/6PSytuXPlZcqqUpzc9cZfJ3wUrV8ozmpq7I2iZZKkIqUACQDCPt+iGjzlXRztYrd0ib3xvpkCp2S3s+bJQpRDemyUh3fL9R5+roxoxKrTKncmmcpX7HwlpF5ekRvgckhgKARKy8XeodiGfsjfcbtfVFN97W9xtli9GN97YgK+14NJ4Vi8Wy1qo8M8ak0yBq1ZJqlTnXMeAJCgASsfHe+GY9Y6T190QzVmuv1L81mrGup2OF1LsxvvFvVa08w7J/g6mUJlxHgCcoAIhdsXth4otT/+Zozqz7t8R/et6/tXGWAOqVkusIuEZYryoMeQ0v4kcBQOza++Kf8PJtUr516eO0L1/6GDf+jMZZb6/XK64j4DrCetV1BHiAAoDY5YrJTHhRFIBcDNf+r5UtNs4KQNNsUOCbkMsyiB8FALFLapW5GsHnRDFGI3zGTQs4BDQiYzKuI8AD/PYjdnOj8X9GtbSw+95SzY7Gv1qRxN/HzQoyOdcRcB0mwx5tiB8FALGbG5dmR+L9jJFTNpJH2a6eWPoYjfAZNysTxXUTRCrI5ChmSAQFAIk4+3yMZ9ZWOvdCNEPNXJVGTkcz1vVMD79VVhpEvtDGcnODyRU7XUeAJygASMTl1+LbC//8i9L0UHTjnXjSqhbDzfFhKB37ppVtnPlfMoEKbd2uU+AtmVxB2UK76xjwBAUAibBWevUr0kzElwJGTkrHn452Rp0ZkV77qlU9wkexrZWOfV0aPx/dmFHJFtqVL3a5juG9IJNTS0d/I20UiZSjACAxlTnpxS9aXXlz6ZfrbV0684x06MtWcbw/ZeSU9NLvWs1GcMPe/JR06EtWF15tpFP/vy/f2q1Ce69kOCQkzkjZQquKXatk+PtHgrjVFImqlRfOrs+/KK3ZZdQ7IBU6b+4tqLYuzY5Lo6ekwYNWce+YOnVJevazVqvukFbcbtS9Wjf9joBaRZq+Ig0dtbr0qiJdTYhLrtCubL5V1flp1SslhfUqb6eLi5ECk1Um16JsS4cy2bzrRPAQBQBOTF6UJi8unBEbI2Vv4s171fmYQ12HDaVLr0mXXlvImskuvNTnnYR1qVk3cjMmWLgc8PYlAQpATIKGeikU/EQBgHPWupncF6Nea46z+ciwJA2kFr/dAAB4iAIAAICHKAAAAHiIAgAAgIcoAAAAeIgCAACAhygAAIDrY6+CVKMApFg2y9cLYPHyWd4UmWbMECnWmmd7UQCLV8znXEdAjCgAKbaso9V1BABNbFlHm+sIiBEFIMVW9nRyCQ/A4hijVT2drlMgRhSAFGsr5NXf3eE6BoAmtKq7g0sAKUcBSLkd61a6jgCgCe1Yz7Ej7SgAKbdnYI2CgK8ZwM3LBIF2b1jtOgZixsyQch3FgvYM8IsM4ObtvW2N2osF1zEQMwqABw7s3KyWfNZ1DABNoJjP6cE7NruOgQRQADzQ1lLQI3tudx0DQBN4dN92tbawh4gPKACe2D2wWvs2rXUdA0AD2795ve7k2r83KAAe+dBdO7R9bb/rGAAa0Pa1K/R9+7a7joEEUQA8Ehijj9y/R3sG1riOAqCB7Nu0Vh+5f7eMYeswn3BnmGcCY/SP79mpNb1d+sYrx1St111HAuBIPpvRI3tv197bOCnwEQXAU3dtWqctq5brm68e05HBIcla15EAJMUY7Vy3Uh/YvU2drTzu5ysKgMc6W1v0I/ft1gM7Z3Xw1KCOnLui6fmy61gAYtJeLGjn+pXav2kdL/oBBQBSX0ebPrhnux7es10jkzO6ODapkalZzVeqmq/WXMcDsEgtuayK+Zx6O9u0ZlmXlne1u46EBkIBwN8ykpZ3tXOQAAAP8BQAAAAeogAAAOAhCgAAAB6iAAAA4CEKAAAAHqIAAADgIQoAAAAeogAAAOAhCgAAAB6iAAAA4CEKAAAAHqIAAADgIQoAAAAeogAAAOAhCgAAAB6iAAAA4CEKAAAAHqIAAADgIQoAAAAeogAAAOAhCgAAAB6iAAAA4CEKAAAAHqIAAADgIQpAHKzqriMAQGpwTI0FBSAORrOuIwBAWlijadcZ0ogCEAdjL7uOAABpYWQvuc6QRhSAONjgqOsIAJAWxgbHXGdIIwpADGpB/a9cZwCAtKhnw2dcZ0gjCkAMHt607LyMaKwAsERG9o3339ZzznWONKIAxCU0v+M6AgA0u1Dmd11nSCsKQEzq2cz/llRynQMAmpWR5qom81nXOdKKAhCTD9zWPmRkfsN1DgBoWkb/45HNHcOuY6QVBSBGc6r9Eo8EAsCiXMjWqr/sOkSaUQBi9KEtvVNG+nGJXawA4GZZKZTVJ96zfTkbAMWIAhCzBzf3PG1lf8F1DgBoGtb83IGt3U+4jpF2FIAEPLSl59ck+0uucwBAozPW/NuHtnb9N9c5fGBcB/DJUycnfsZY/TdJBddZAKDBzEv65we2dH/OdRBfUAAS9uSJiX2B9DlJe1xnAYBGYKSD1tpPHtjac8h1Fp9QABz4krWZ5ScnPyHpX0na5DoPADhyysr+ysjm7t9+zBhulk4YBcChL1mb6T8x+ZA1ekzS+yUNuM4EAHEy0ulQetJYfenbW7qe+rQxoetMvqIANJC/OjfRU6uYbTLqHhsb/flarfoB15mS0tXV+S9a8sUh1zmAuM1XSismJ6f+u+scSclmc08sW9b7n22o8VzBHn/vhu5x15mwgALQoD7/zVd+U7I/4zpHYkx90+MfuPu06xhA3D7/xIu3yWZOuc6RHPO/Hn9476dcp8A/xGOAAAB4iAIAAICHKAAAAHiIAgAAgIcoAAAAeIgCAACAhygAAAB4iAIAAICHKAAAAHiIAgAAgIcoAAAAeIgCAACAhygAAAB4iAIAAICHKAAAAHiIAtCgjGzoOkOSQpOpu84AJMFUs179bvt2LGsmFIAGZY1mXWdIVLUw7ToCkIRKS33GdYYkWWumXGfA9VEAGpS1Zsh1hgSVO6eOTLoOASThsqYnJFVc50iKlR12nQHXRwFoVNYecx0hMVYnH3vsMS4BwAufPnCgJumU6xxJMYFHx7ImQwFoUDmbeU6SdZ0jCdbYZ1xnAJJlnnOdICFWFfO86xC4PgpAg/rJR3YPy+iw6xwJecJ1ACBJxthvuM6QkFce/9C+q65D4PooAA3N/p7rBAmYqs3br7kOASSpUgr/VLKpv/HVWvlwDGtaFIBGVjG/JaX8aQBjf+tTP7B/znUMIEmf+oH9c7Lmt1zniNlMLRf+tusQ+N4oAA1sYenM/obrHDGay5jMZ1yHAFyo5zKfkVRynSM2Rr/+qQP7R1zHwPdGAWhw+Wr130m65DpHLIz55Y+/f89F1zEAF376wO4Lkn7FdY6YXLQtc//edQi8MwpAg/uJD907pdB+TFLKHpMzz7eP5f+z6xSAS+ezk78qq7Q9BRNaGzz+yfe8J/X3ODQ7CkATePyRu56SMf/GdY7IWF2oZ4OPPPbYHd5shgJcz6cPHKjJ1n5MUmpWwozVL37yg3t8ecqhqVEAmsTjH9j7HyT7n1znWCojXQ6ywaNvLX8C3nv8kXsGg0zwiKQrrrMslZH9zCc+uO8/us6Bm0MBaCKPP3zXv7Qyv6BmvRxgdaQWZt79Uw/tOeI6CtBIfuqhPUeCIHyPpDddZ1mkmjH6+U88fNcvuA6Cm0cBaDKffHjvZ2T1fsmcdp3lFoSy+s1qObznpx/ZfcZ1GKAR/dT795/Khpm7ZfRZNdcuoCeNsQ994gP7fs11ENwa4zoAFudLzzxTnJ0p/pw19uck9bnO8w6eUBj+68cf2c92oMBN+twTB+8z0i/L6iHXWd7BVSv9WpCd/C+fOHBg3nUY3DoKQJP74l++2lYN6j9irH5MRu+T1OY6k6QTkvmasfriJz6495DrMECz+vyTL+2TNT8pa/6RpM2u82hhY7JvG6s/qJTDP2ITr+ZGAUiRL33pSH62u7IjNOFWWbMskLqS+FxrbMUaM2WkczbUG5/84L507lsAOPS5bxxcbQLtsNIGY22nsSafxOeG0qSMHQtscLyyrH7kU/v3V5P4XAAAAAAAAAAAAAAAAAAAAAAAAAAAAAAAAJ/8f+m0ubAi4FwqAAAAAElFTkSuQmCC;" parent="1" vertex="1">
          <mxGeometry x="345.18" y="400" width="88.5" height="88.5" as="geometry" />
        </mxCell>
        <mxCell id="6Gnw1xQwY8mwCE0ZvN5c-11" value="Server fog" style="text;html=1;align=center;verticalAlign=middle;whiteSpace=wrap;rounded=0;fontSize=20;fontFamily=Computer Modern;fontColor=light-dark(#5C5C5C,#EDEDED);" parent="1" vertex="1">
          <mxGeometry x="336.93" y="490" width="105" height="30" as="geometry" />
        </mxCell>
        <mxCell id="x0laBFkF1cOgZIqmITGU-3" value="" style="rounded=1;whiteSpace=wrap;html=1;dashed=1;labelBorderColor=none;strokeWidth=2;strokeColor=light-dark(#FB5656,#EDEDED);" parent="1" vertex="1">
          <mxGeometry x="530" y="472.76" width="150" height="155" as="geometry" />
        </mxCell>
        <mxCell id="x0laBFkF1cOgZIqmITGU-4" value="Cloud" style="text;align=center;verticalAlign=middle;rounded=1;strokeColor=#FB5656;whiteSpace=wrap;labelBackgroundColor=default;horizontal=1;glass=0;shadow=0;strokeWidth=2;fillColor=default;fontFamily=Computer Modern;fontSize=22;fontStyle=2;" parent="1" vertex="1">
          <mxGeometry x="560" y="608" width="90" height="40" as="geometry" />
        </mxCell>
        <mxCell id="x0laBFkF1cOgZIqmITGU-5" value="" style="shape=image;aspect=fixed;image=data:image/png,iVBORw0KGgoAAAANSUhEUgAAAgAAAAIACAYAAAD0eNT6AAAABHNCSVQICAgIfAhkiAAAAAlwSFlzAAAOxAAADsQBlSsOGwAAABl0RVh0U29mdHdhcmUAd3d3Lmlua3NjYXBlLm9yZ5vuPBoAACAASURBVHic7N13fFzVnTbw53fvFHXJkmy5F9wkGzAtIUDCUgIEAnELTjaVJG9MAjYQ3izpu9qUN5tNobgkkN1UNkUEFyDOJiQh1BBwwGBcJPcuW8Wy+pR7f+8fgtBsa0aaO+femef7+fDZZdHc8+zInvPMufeeCxARERERERERERERERERERERERERERERERERERERERGRX4jpAER+UN+wKdIatasdoNp2UK1AqQARgVSohbBCS9/4GlH0A9onKj0KxGFpp6h1NOlKa6hQWpddNb3TxP8vRESpYAGgvLB03bYyxNxaF5gp0MkQnQCViQAmAhgHoMyDYRMADkOwB9B9cGW/iO5xVRuhaFqxoG4vRNSDcYmIBsUCQDnl2ga1RxVsroUTOsuCnqXQUwGpBTDedLbj6AXQBOAlVXnetvV5y40+f8f8KR2mgxFR7mMBoED79EMvjgglw29XVy5UwfkCzAFQbDrXMO0Q4CmIPimuPln5Yt3m+npxTYciotzCAkCBsvjB9UVhp/QiQK8QxcUAZgOwDMfy2lGo/kVFHrZg/2HZ/Ok7TAciouBjASDfu2Htpmm2a81VWFdA9B1QFJjOZNhOAP+r6q5JtPT+5Z7rz0mYDkREwcMCQL50w6qmOlvchQosBHCG6Tw+1qGC34rq6nCiZN3tiyb0mQ5ERMHAAkC+8akHG8eFkvpBAB8GcKrpPAHUqZBVlsj/NMenP3LfInFMByIi/2IBIKM+07CvMBHuWYiBSf9SALbhSLniEER/Khr6L14zQETHwwJARtywdtM0cUOfEujHAFSazpPDFNA/KeSHIxPOmvpFs+OmAxGRP7AAUPaoyo1rm64U1ZsAXIbcv3rfbw4qdHkk4d59+6LZ7abDEJFZLADkucV3rw9Ha0r/WVX/BTy37we9AvzUsZzvrZw7e7vpMERkBgsAeeYzDfsK4+Ge6wW4FcAE03noTRwAv3TV+n8rF8zYYjoMEWUXCwBl3NJ126KIJT+pkC8CGGM6Dw3KBXCfpe7X71ow6yXTYYgoO1gAKGPqH3kk1Nox+uOAfBn8xh9ErkJ+Fgol/+3Oa2bvNR2GiLzFAkAZceOaxqtE3W8DMst0FhomQT9cLA8nnW/yYkGi3MUCQMOydFXjHBX3O4C803QWyrh2Bb58JDHzHm4qRJR7WABoSBY37CgPRxJfFcWN4OY9uW6DiNy0bN7Mx00HIaLMYQGgtN24qvH9Ivo98AK/fKJQ/Xk8bP3fe66Z2Wo6DBENHwsApezG+zdPEsu6B8DlprOQMS0QvWX5vLpfmA5CRMPDAkCDU5Wla7cudlW+LUCp6TjkA6K/dRH+9Mp50/aZjkJEQ8MCQCc18K1f/osX+dFxdED0Rq4GEAUTCwCd0JLVWxYC8kMAI0xnIR8T3KeufnrFgro201GIKHUsAPQmn/39C8V9vdG7BPi46SwUGPvVsj64Yu6Mx0wHIaLUsADQ6yxd1ThHLf0VFLWms1DgJKHyleXzZ3wLImo6DBGdHAsA/cOSNVs+AJV7ABSbzkIBJvpbdfFRnhIg8jcWAMLiu9eHI6NKvwfoEtNZKGfsEZW5yxbMfMF0kGyor1er+eymMVYCUyzRyQJMBjBWgXIoSiAoAVAOSDmgFoBeALFXj6BHAWmGaotADsGSw67rHAqLbLtjXu0erqiQF1gA8tzNazfWOBq+H4oLTGehnNMD6EeXz6+733SQTLpt7dbSHlhnwnXPsoCzVOUsiE4HEPFoyB4AWwTYoiqbYbnPF4k89Z9za7s8Go/yBAtAHrvxgU2z4dgPvfxthcgLCsi/L58346tB/RZ729qtpb3AxaJ6uUIuhWIGAMtwLAfA8wI84Yo8lrDxOHdopHSxAOSpJWu2XAGVXwMoN52F8oDoryQSum7ZVdNjg/+weUvXbJsFdRbowK6X5wEImc40CBfAkxBZHVJ39R3z63abDkT+xwKQh5auavykiq6E/z/UKIeo4pFEMjz/nkVTj5nOcjw3rNk+wXaT71fBBwCcYTrP8OjzgKwOQX/OMkAnwgKQZ5as2volCL5uOgflrY3i2lctWzh9v+kgAFDfsCnSEg69T6CfBHABzC/tZ5orgj+oyt3VFQcfqr/44qTpQOQfLAD5QlWWrGm8HcDNpqNQ3tunqu9csaCuyVSAm9durEk6kevF0k9DMdpUjiw7qMCPnJD84AfXzDxgOgyZxwKQB65tULsm3PgTAB8ynYUIACBoVst554r3zN6UzWFvWNVUZ4l+DtD3A4hmc2wfiQnwI9d1v7Vi4aw9psOQOSwAOY6TP/nYUYG8a9n8mc94PdDND26a6CRDXwL04+C1L69ICPArV/XrJldjyBwWgBxW/8gjodaOMfcCeJ/pLEQn0OG6cvnKhTOf9eLgS9ZuHQsXXwLwf+DdffpBlxTFTxIIfekHC6YdMR2GsocFIEfVP/JIqPXYmF9Aca3pLESDaBeVSzK5a2B9w6ZIW9i+TYEvACjK1HFzXAdEvho/3LX8nuvPSZgOQ97LtSteCQBUpbVjzA84+VNAVKrow0vXbJuViYPduLbpwtaw9bwCXwMn/3RUQPV7kVElLy29v+ndpsOQ97gCkIOWrG68C9ClpnMQpemgazn/tHLu7O1DefHShm0jNZT8DkQ+DH62ZcIvnHB8yfevPv2o6SDkDf4lyTFLVm/9KoCvmM5BNEQ7bCtxwZ1zTzuczouWrN36HnHx3wpUexUsLykOwNJPLJ9X93vTUSjzWAByyJI1jTdAdYXpHETDtN5NOBevXDS7e7AfvO7HuwpKR/R/R1VuAD/PvKIQ3F1QGPvsd66Y02M6DGUO/8LkiKX3N71bLXctANt0FqIM+F38SPfck12MduMDm2aLY/8SwGlZzJXPmtR2FmR77wbyDi8CzAFL1247Uy33V+DkT7njyujIkpUn+o9L1zR+RBz7WXDyz6YZ4thPL1m9ZaHpIJQZXAEIuE892DgulNRnAIw1nYXIA7csn1975z/+TVWWrGn6BqBfMJgp3ykg/3E4MeMr9y0Sx3QYGjoWgABbum5bVOPuX6D6NtNZiDySVHWvWrFg1sOLH1xfFE6U/FQE7zUdigAR/C8i9vuWXTW903QWGhoWgABbsnrrfwH4hOkcRB5rV8uaL677XQDnmA5Dr/NcUkNXcgfBYGIBCChe8U9EPrFTYF++bP70HaaDUHpYAALohvsb32JZ+gS4tzkR+cN+EfuKZfOmbzYdhFLHAhAwixt2lEfCib8DmGo6CxHRa7SJyqWZfKYDeYu3AQZMJJxYCU7+ROQ/VSr68JLfNNaaDkKpYQEIkKWrGj8J4AOmcxARncBI2Pq/N6zZPsF0EBocTwEExKfvbzrFstwNApSazkJENIhtbsK5cOWi2c2mg9CJcQUgAK5tUNu23Z9x8ieigJhuhe3fLn5wPR/H7GMsAAEwKtL4WSguMJ2DiCgNZ0WSpT+HKleafYq/GJ97+YEnfwcQNZ2FiChdCv3iivl13zSdg96MKwA+Vl+vlrj23eDkT0QBJZCv37hqy9Wmc9CbsQD4WNsZWz/JpX8iCjhLRO69cdWWGaaD0OvxFIBP3dCwabQVtjcDGGE6CxFRBjwXP9L9tnuuPydhOggN4AqAT1nh0PfAyZ+IcsdZkVElXzEdgl7FFQAfumnNlvNdlSfA3w8R5RZXLeviFXNnPGY6CHEFwHfq69VSlTvAyZ+Ico8lrvuTpeu2lZkOQiwAvtM6p/FjCrzFdA4iIo9M0Zj7ddMhiN8yfeWzv3+huL8vuh2K0aazEBF5KCkq5/DJgWZxBcBH+nuit3DyJ6I8EFJLV3CXQLP45vvELat3VSQR2wle+U9EeUIhH1kxf+bPTefIV1wB8AlHY58HJ38iyiMi+p+8INAcFgAfuHntxhoVLDWdg4goqxSj3X73FtMx8hULgA84bvhWAHxsJhHlHRG99dMPvcjVTwNYAAxb3LCjHMD1pnMQERlSHkqGuQpgAAuAYZFw8hYA5aZzEBGZoiq3Lm3YNtJ0jnzDAmDQ4gfXFwHKc/9ElO9KNOLcbDpEvmEBMCiSKPkIgCrTOYiIjFN86rof7yowHSOfsACYJLjBdAQiIp+oKi7vf5/pEPmEBcCQG1dtvgzAaaZzEBH5hYjcZDpDPmEBMERgLTGdgYjIZ85aurrxraZD5AsWAAM+9WDjOAjebToHEZHfKHhqNFtYAAwIJfQ6ALbpHEREfqPQBZ9p2FdoOkc+YAHINlWByHWmYxAR+ZEApclQ95Wmc+QDFoAsW7K68WJAp5nOQUTkVyqyyHSGfMACkGUq8mHTGYiIfO6az/7+hWLTIXIdC0AWLV23LSrQeaZzEBH5XFFfb5QXSnuMBSCL3H7nXQAqTOcgIvI/4XUAHmMByCIR4S5XREQpEOilpjPkOjEdIF8sXbct6sacFgFKTWchIgoCy3Fn3PXeWdtM58hVXAHIEo25l3DyJyJKnYbkEtMZchkLQJYI9BrTGYiIgkRVLjadIZexAGSDqihwtekYREQB8w7TAXIZC0AW3LBm2xwAE0znICIKmLGfWrV9lOkQuYoFIAtsdS8znYGIKIhsxOeYzpCrWACywQIvZCEiGgKxhAXAIywAHlt89/qwKt5uOgcRUSApC4BXWAA8FhpZei6AEtM5iIiCSBSnm86Qq1gAPGZb7oWmMxARBZUKJpvOkKtYADymap1nOgMRUYCVLV23rcx0iFzEAuAlVQH0XNMxiIgCLY7xpiPkIhYAD93wwOapAEaazkFEFGiaZAHwAAuAh2zH5rd/IqJhUpFxpjPkIhYAD7kWePsKEdFwuVJjOkIuYgHwkCgLABHRcInlFprOkItYALx1mukARERB50JYADzAAuCRG1dtqQIwxnQOIqKgs6BFpjPkIhYAj1iWNct0BiKiXOAqVwC8wALgEYVOM52BiCgXCE8BeIIFwDtTTQcgIsoN6phOkItYALyi4AoAEVEGqKLHdIZcxALgHa4AEBFlgCXKAuABFgDvTDQdgIgoJwi6TUfIRSwAHqh/5JEQgGrTOYiIcoGqcAXAAywAHmjuHlsDvrdERBnBAuANTlIeiCTd0aYzEBHlDEGn6Qi5iAXAA+raLABERJliyR7TEXIRC4AH1HJHmM5ARJQrrKTsNJ0hF7EAeECgFaYzEBHliFjVxmkHTYfIRSwAHlCVctMZiIhyxJ76enFNh8hFLAAeUAssAEREGSACLv97hAXAA6IoNp2BiCgXKLDbdIZcxQLgAVFETGcgIsoFqnjRdIZcxQLgAVckZDoDEVEusCz7adMZchULgBdEw6YjEBHlgJ6qsv0bTYfIVSwAHhAFVwCIiIbv2fqLL06aDpGrWAC8IHxfiYiGTZTL/x7iREVERL6krrAAeIgFgIiI/Mh1EPqr6RC5jOeqiYjIfwR//cH8aUdMx8hlXAEgIiLfERdrTWfIdSwARETkOy6UBcBjLABEROQ3L61YUNdkOkSuYwEgIiJfUWCN6Qz5gBcBEhGRr4hI+5I1W04LOdpaUXm4hZsBeUNMB8hFS9ZsbYDiWtM5iIhygxwG3N2A7FBgJ1S3Q3XjSEdfql80O246XVBxBYCIiHxOawCpAXCuAIAIIIJWC4mlq7ZuUegGQP6qIefxFdfM2gwRNRw4ELgC4AGuABARGdMGxZOw5PchddfdMb9ut+lAfsUCMExL122LOon4hJBao1yRanFQDeBmFZxuOhsREelmqKxTy/rNinkz/mY6jZ+wAKTo5rUba5KOfbpYMgeuzIJgGoApAMaB7yMRURDsAuRXEPeXy+fV5f1jhjlxHcfiu9eHo6NKz1TBBVC8HaLnQzHadC4iIsqYZwDc4yacX69cNLvbdBgTWABedsvqLZMdwRWq8i4FLhWg1HQmIiLyXCeAe13LuX3l3NnbTYfJprwuADf9ZvN017IWCbCI5+yJiPKaC2C1ivXtfLlWIO8KwGcaNlUmQ/aHVPQ6QM40nYeIiPxFgD+5ql9ZsaAupx9HnDcFYMnqLRcB1mJAFwCIms5DRES+t05d9ysrFs56znQQL+R0Abi2Qe3Rka1XqeJLgJxrOg8REQWOQvAb23Y+e+c1s/eaDpNJOVkArvvxroKSiv5PAnIbgPGm8xARUeB1i+g3u44WfO8nH5vSbzpMJuRUAVi6blsUseQnVeXzEIwznYeIiHJOk6guXrag7lHTQYYrZwrA0jVbrlGVOwCcYjoLERHlNBXg3lDCueX2RbPbTYcZqsAXgBvXNJ0r6t4O4DzTWYiIKK/sh+KjyxfU/tl0kKEIbAFY3LCjPBxJfFUUSwBYpvMQEVFeUhUssyL2bcuumh4zHSYdgSwAN67eukgEd3J7XiIi8onnBPaiZfOn7zAdJFWBKgC3rN5VkURsGYAPmc5CRET0Bp0qct2KeTNXmw6SisAUgKWrt1yukB8DGGs6CxER0QmoiH6takPtv9fXi2s6zMn4vgBc26B2TXjrVwD5Cniun4iIgkB1dTzc86F7rjmn13SUE/F1AfjUqu2jQpL4H0DeaToLERFRmp6xrcR77px72mHTQY7HtwXgpjVbznfVWgVojeksREREQ7TLtnDlnXNrG00HeSNfLqkvWdP4Plflj5z8iYgo4KY4Lh67YXXTGaaDvJG/CoCq3Lh669eg+ksAhabjEBERZcAoC+6fl96/+W2mg7yWb04BDFzs13g3gE+YzkJEROSBbrh41/KFtU+aDgL4pADUN2yKtEbse6G41nSWIIrFYujr7UEsHkM8HkMymYTrunAcx3Q0Igo427ZhWRbsUAjRSBSRaAGKi4oQiURNRwuqTteVd65cOPNZ00GMF4DPNOwrTIS7H+CV/unp7e1GR0cHuro7kUwkTMchojwTCodRWlKKiopKFBUVm44TNO2OhYu/P7f2RZMhjBaA6368q6CkIrYWwOUmcwSFqqKj4yhaWw8jHo+bjkNEBACIRiKoqh6FiopKiBj/XhkQcthx5fzvL5yx01gCUwPXN2yKtIZD9wN6takMQXLsWAeaDx/kt30i8q1wOIKamjEoL68wHSUodkjCPm/ZouktJgY3UgDq69VqPaPxVzznP7hEIoEDB/aip6fbdBQiopQUF5dg3LgJCIcjpqMEgP4tHuq5xMSOgUZuA2yb07ick//guro6sWNHIyd/IgqUnp5u7NjRhK7uTtNRAkDODTsl9xgZOdsD3riq8V9F9N+zPW7QtLe14lDzQQBqOgoR0ZCNrhmLquqRpmP4n8ity+fNvD2rQ2ZzsCWrtywE5L5sjxs0R44cQkvLEdMxiIgyYuTIGowaNdp0DL9zIPru5fPqfp+tAbM2Ed+0esvZLuRxcIe/k2ptPYLDhw+ZjkFElFE1o8eiuoorAYNogYUzls+tPZiNwbJyDcDNazfWuJA14OR/Uh3HjnLyJ6KcdLj5II4d6zAdw+9Giouf1ddrVuZmzwepr1fLcSM/BzDe67GCLB6PofngftMxiIg8c/DgPsTiMdMxfE2BS1tPb7otG2N5XgBaTm/6MqCXeT1OkCkUe/ftgeO6pqMQEXnGdV0c2L8XymubT070qzfc3/gWr4fxtAAsWb3lIhH9Vy/HyAVtba2I9feZjkFE5Lm+vl60t7eajuF3YcvSH9U3bPJ0IwXPCsDSddvKAPkJANurMXJBMplEy5Fm0zGIiLLmSEszkk7SdAy/O7UtYn3JywG8WwHod74LYJJnx88RbW0tcLn0T0R5xHUctLcZ2f02UFTlC59eu/V0r47vSQFYsrrxShV8wotj5xLHcXCUS2FElIfa2trgunxk+SDCtmIlVD25ZT/jBWDxg+uLAF0BbvYzqM5jHbzwj4jykus6vC0wFYoLlqxp/KAXh854AYgmSv4VwJRMHzcXHe1oNx2BiMiYDhaAFMl3Bq6ry6yMFoAbH9g0WwW3ZvKYuSqZTKKvL+sPfyIi8o3enm44SV4MODit0Zj7+UwfNaMFQBzrDgDhTB4zV/EJf0REQE8vPwtTozffcv/mMZk8YsYKwJLVjVcC8s5MHS/XsQAQEQE9PT2mIwRFUdKyvpzJA2akANTXqyWq/5GJY+WLWKzfdAQiIuO4CVpaPvnp+5tOydTBMlIAWuY0fVAFnt2rmIu4HzYR0cBzUChlYdt2MnYtwLALwLUNagPq6W5FuUZVeeELERGARDLJZwOkQ+UjS9ZuHZuJQw27AIwONb5fgJmZCJMvuPMfEdGruCFQWqKquCUTBxpWAaivV0sF/PafJhYAIqJX8TMxTYpPLW7YUT7cwwyrALScvvUqAHXDDZF/uN5FRPQqfiamQ4DSSDj+keEeZ1gFQMS6abgBiIiIKF3y6eE+I2DIBeCGVU11gPK+fyIiouyrW7Jm6z8N5wBDLgCW6A3gA3+IiIgMsRYP69VDeVF9w6aIQN8/nIGJiIhoOHTubWu3lg711UMqAC1he54C1UMdlIiIiIatqMeVeUN98ZAKgCX42FAHJCIioswQ6AeH+tq0C8DiBxurVcGL/4iIiMy79MZVW6qG8sJQui8IO5g3lNdRfhALKBsDlI8DiiuBcJEgFAWcOJDsV/S0A52HgI4DgJswnTY7iquAEeMFRdVAQZkiFBWoCyRjQN9RRdcRwdF9ijgfikZE6QuJyJUA7k37hem+wIIu5JYN9EYlowQTzlKMrhOECk70U6/eNOImgZbtigPPA227s5EwuyLFwIQzBWNOAworXvtf3njjzMC/KwQd+4CDLwKHNimUO6MSUYoEuAZDKABp3ca3uGFHeSScOAIgku5A9KpEIo6mpi2mY2REYQUw41LByBlDvyf02AFF458Exw4Ev1raEWDq2wXjzwbsIa6T9XcCOx5THNrI/dEoP8yYUYdwmNPKMHRWJ5yR9Ytmx9N5UVofUeFI8hIoJ38aMP6sgcl/qBPdK8rHCd76YWDPs4LtjyiCui14xXjgtLmCgrLhHaegDJh9tWDMaYqXHgBi3ZnJR0Q5q6wtZJ0H4NF0XpTWRYACvTytSJSTxAJmvxuou2L4k/+rBwUmvRU4+wNA+ISnEPxr7OnAOR8c/uT/WpWTBOd+TFBak7ljElFuUrEuSvc16d0FoGAByHMiA99yx57uzSaQFRMEZ3/gZNcR+M+Es4FZ7xbIsB+u/WbRkoFiUTYm88cmotyhqmlvC5zyR9Ytq7dMBnBKugNQbpl5maCm1tsxSmuAMxYKLA8m1EwbNVNQe5l4uid2KAqcea2gYNgP/ySiXCUWzrvux7vS+uqU8kdsUnB++pEol4yuG/i2mw0jJgJTh/WYC+8VVgycCsnGEzEixcDpcxGIUkREBigKykb0n5XOS1I/g6vWebwmOX+FCoGZl2f32U+TzxUcblR0HszqsCmru2Lg23m2lI8TTDhHseeZ7I3pOVW46gAa0Cs/A08gVggifK5bLlBXzgHwVKo/n8YlXPq2IeShHDH1fEGkKMuDCjD9IuDvv8jyuCmongpUnZL9D82pbxcc2KhI9mV96IxRAE6sB4lYN5xEDPxiYZYAsEIRhKIlCBWUwNsTWuQlhaa1RpvSguLiu9eHAZw+pEQUeOFCYNyZZsaunCSoGG9m7JOZfJ6ZD0k7CkzM0mkYL7huEn0dh9Df3Qon0Q9O/uYpACcZR6ynHX1HD8JNpnUrOfmKlfkCEB5TOAPc/CdvjZ4tsMPmxh83x9zYx1NSDYyYYG78cXMkK9cdZJrrJNDX0QzX4QTjV66bRF9nM5xkzHQUGgrR2vqGTSnP1aldUpQMnTbkQBR4Xl/1P5hRM725xW6oamrNzr4FZUD5WKMRhkDR19UC5R7Hvqeq6O/k7yqg7COh8NRUfzilj1Wx9NSh56Egs8NAheHJJhQFysb45yvviEmmEwBVPsiQjkRfF9TJk6c/5QBVB/HeY6Zj0BAI3Bmp/mxqBUAxfehxKMhKRgnENp0CKB3ln3PFZT7Yma9ktH8KUSrisS7TEShNyVg3784IIAvIbAFQaMC+b1CmFFUM/jPZUFTpjwkvUjxwIZ5pxSP8U4gG4zpxqJM0HYPSpKpIJvtNx6A0qZX6hn0pnlm1Jg8xCwVcqNB0ggHhAn9MeBGfvB+hAn8UolS4nPwDi8UtgFykfNJ20AIwsLWgjhpeIgoqv+w8Zxm8C+G1/HA6BACsTD2EKRvUH+WN0qcuf3dBI4KUnxwy6Md7RUX/aATypiPKBCfhjw+AZMwffwT9cgebX3KkQvzSIilt/N0Fj2oGVwASrlYOLw4FWbzHdIIBfsrhh0oU7/ZDitRYoQi/QQSUlc29rikzBCmv2A9e7wRVwwpDgdbbbjrBgJ5Wf0x4yTgQ98EF7T0++b2kQsSGFeZEEjRi2bBt7v8WQOHPNOxL6WqlQQuAWDZXAPJYdxsQ7zWdAjh2wHSCV3X4IMux/cH6Th0pHGE6AqUpWljBk78B1ReKlabyc4MXAFeLhx+HAkuB9j1mv333tgN9PtqTpH2n2fEVQOtuf6yIpMoORxEuKDEdg1JkhwsQivL3FVSibkq/vEELgPIZAHnv0EuGx9/kr8mueavC5N1Rx/Yp+n1UiFIVKa6EnfVHSlK67FAUhaUj+e0/wEKimVkBgIAn7/Jc2w5z1wK4SeDAC2bGPpFkzGwp2bve2NDDIhAUlI5EtGgEnz/vS4JwYRkKymrgq4dvUPrs1G7fGPxuYtEwlH9Z85kqsOspxeyrs//nYP/zgB93kd39FDD2VMDK8r4A3UcUhxuzO2YmCYBwYRlC0WIkE31w4n0vbxTkr1WevCGAZYVghQsQjhRBArXBBJ2Im0yk9GE96G9blNt4EHBoIzD+DEX5+OyVgHgPsOMJf/7p6+sAdj8NnHJB9sZUAFv+IDmxsY5YNsLREoR5npnImFSWCfhgaIIC2PjQwPJ3tsbbtE7h563Idz2hWb07Yc/Tio59wZ/8ichbEkrtFEAq1wDwGZ4EAOg7Crz0QHYeELbjL0Drdu/HGQ7XFWij5QAAIABJREFUBV5cq1k5RdG2C9jxqPfjEFHwqTh9qfzc4AVAuQJAr2rZrtj0kLclYPfTil1/DcY33f5jwHO/VsS6vRvj6F7ghVUKl09mJaJUJCSlT6TBbwNU8ckmrOQXhzYpNvwm88vzrgs0/lGx7ZHMHtdr3S3Asz9XdLdk/tjNmwcKRpD2/iciwyRTBUAkQJuOUra07gCe/rFmbJOgnjZg/b2Kvc9m5HBZ19cB/O2nin3PaUYuaE/2A5t/p9i4VuHyiaxElIaRSTelE5OD3gVgKVp5FyAdT18H8NwvgJo6xZQLgJKR6f9BiXUBu/8G7HtOoY4HIbPITQBbfw8cfFEx9R2Cqqnp76XiJIGDGxQ7n/LPA5CIKFB66hfNTmnNcPCbPtVqgwT8k5k8owCatwDNW4HKCUDNqYrqyYKC8hO/Jt47cF67eTPQul3h5tgfr85DwPMNiuIqYMypguqpQOkonLANOEng2AHFkcaB9ySR0uU7RETHdTDVHxy0AHR1hlpLKhwFN4akk1Ggfa+ife/Av0RLgKJKIFIkCBcokjFBol/RexTo78iPbV962oDtjyq2PwqEokBRFVBYBtgRgboKJybo7VD0tCPwqx9E5BvNqf7goAXgJx+b0r9k9dYWIPVnDBPFuvHylfGvTPX5MOWfWDIGdB4c+IfvCRF5KOUVgBQ3fNZdQ01CRERE2SHQlLcnS6kACGTP0OMQERFRNqjKtlR/NrUVAAVXAIiIiHxOJcMFwIVuGXocIiIiygYVuynVn03tgQF26MWhxyEiIqIs6F45d+r+VH84tVMAYWwGwP3IiIiIfEqADRBJ+failArAsqumxwBNeVmBiIiIsssVPJfOz6d4GyAAxfq009BxCfdUIiL6B34mZoal+nxaP5/qD4qFp9KPQ8djWan3LiKiXGfZtukIOUFU0/qinnoBcPXJ9OPQ8Vi2Be6sTEQEiPBLUYa0V75YtzmdF6T8rt81v24TAD4aOCMEkUjEdAgiIuPC4ajpCDlC/lJfL246r0i9dokoFE+knYmOKxLlH3oioig/CzPE/Uu6r0hr3UUF/5vuAHR8hQWFpiMQERlXwM/CjLBUH0n7Nen8sNgsAJlSXFxsOgIRkXHFJaWmI+SCvXctmPVSui9KqwAsf0/tLgUa0x2E3qywqBhi8UJAIspflmWhqLDIdIwcIA8M5VVpX3opigeHMhC9niUWykrLTccgIjKmrKwCIvwiNGziPjSUl6VdAFyVhqEMRG9WUVFpOgIRkTHl5RWmI+SCTomE/jKUF6ZdAFYunPksgB1DGYxer6SkBNECXgFLRPknGi1ASUmJ6RiBp5BVA9v1p29Iuy+I4jdDeR29kaC6qsZ0CCKirBs5sgbcEG34LJH/GfJrh/IitXTIA9LrlZePQEG0wHQMIqKsKSgoRHk5r4HKgEPN8elp3/73iiEVgOXz6jZC5OmhDkqvEgHGjB1vOgYRUdaMGT0W/PafAYr/uW+ROEN9+dA3YFb9ryG/ll6nqKgYlZVVpmMQEXmusrIaRcU8958BqtAfDucAQy4ABUWxXwHoHM7g9KrRo8eikPfDElEOixYUomb0GNMxcoT8ccWCuqbhHGHIBeA7V8zpAeSnwxmcXiViYfz4SbBDIdNRiIgyLhQKYdLEybCET/7LBFH3B8M9xrB+E44rdwAY8vkHer1IJIJJE6fA5qMxiSiH2JaFSZNOQTjMp6BmggK7q0Y0D2n3v9ca1kzz/YUzdkKwargh6FWFhUWYOPkU2LZtOgoR0bDZto1Jk6fyoT+ZpPKd+osvTg73MMP+qqmwvjvcY9DrFRUWY8rkaQiHw6ajEBENWSQSwZQp03h9U2YdSYS7fpyJAw27AKyYN+NvAP6QgSz0GtGCAkybNpP3yhJRIJWWleGUU2Ygyn1OMkpE77znmnN6M3GszJxstvAlAJqRY9E/WJaN8eMnY+zY8TwlQESBELJDGDtuAiZOmMLPrQwToBWR0PIMHi8zlqzZ8hBU3p2p49HrOY6DIy3N6Ghvh6uu6ThERK8jlmDEiGqMGlnDid8rIrcunzfz9kwdLmP3nImEvqLqXIlMrSrQ69i2jTGjx2FkdQ3a21vQ0XEUiUTCdCwiynPhcAQV5RWoqhrJ25i9ta/7aOT7mTxgRvdiXLJq648g+Fgmj0knoujp6UFXVyd6e3vQ19cHnoUhIu8JCgoKUFJcgpLSMhQXF4Pb+maB4OPL59Vm5OK/V2S0rtl24guOG14IoCyTx6XjERQXl6D45S01XcdBd/cx9PR0IRGPw1UXvd2diMf6DOckoqCKRAtRVFIGSyyEIxEUF5ehuLQMtsUl/iz7e/WGmRnfeC/jtW3JqsbPQ/SbmT4uvVlv9zEcbTuMzmOt6O48CtflnkxE5C3LslFSNgJlFdUYUVmDohLeqeQxV8U6/+U77jIq4wVg6bptUY05zwOoy/SxCXCcJI4c2oPW5r3o7e0yHYeI8lxRcRlGjp6IkaMnwrZ5DUCmKfCjFfNrP+HFsT05cbP0/s1vU8t6ErwgMGMcx0Hzge1o3r8TySQv/iMifwmFIxg99hSMGT8VFu8CyJQWSdizly2a3uLFwT27cmPJ6q0rANzg1fHzydG2ZuzZvhExns8nIp+LFhRh0tTTMKKqxnSUHKDvXT6/7n6vju5ZAVi6bluZxpyNACZ6NUauU3Wwd8dmNB/cZToKEVFaqmsmYMq007kaMGSyavn8mQu9HMGzJfplV03vFNWPAOCuNUMQ6+/DS39/jJM/EQVS6+F9eOmFx3kn0tAcsa245yvonp6jX7ag7lFAvuXlGLmov7cLm194ghf5EVGg9XV3YtPzj6Ovu9N0lCBRVf3EnXNPO+z1QJ5fpBc/0vVvAjzr9Ti5or+vB5tffIqtmYhyQjzej80bn0Jfb7fpKIEg0NtXLKh7KBtjeV4A7rn+nITaeB+Adq/HCrp4vB9bN/4ViXjMdBQiooxJJuJofOlpxPnZdlICPFuVcL+QrfGycpve8vfU7hKx3geAO9WcgKpi++a/I9afkac8EhH5Sqy/F9u3rocqtyw/gSOOhBbWL5odz9aAWbtPf9m8GX8UoD5b4wXN/t1b0dXZZjoGEZFnujracGBPo+kYfpQE9H0r503bl81Bs7pRz7J5M78hQEM2xwyCvu5OHNq/3XQMIiLPHdi3Db3dx0zH8Bm9dfn8ur9ke9Ts7tQnol0d0Y8q8FRWx/UxhWLn9he4LEZE+UEVu7dv5MNLXyH4wfL5dctMDJ31rXp/8rEp/VB9D4CmbI/tR+0th9DdedR0DCKirOnqbMfR9mbTMXxAHjocn7nE1OhG9upfsaCuzXLcqyHI+z8BXPononx0YE9jfq8CCJ4MJ4oW3bdIjF0cb+xhPXe9d9Y2y3UvA5C3V751HmtDT1eH6RhERFnX030MXV15+/G/wQnFr7l90QSjG74YfVrfXQtmveTCeieAvFwDbzuc1Qs+iYh8pfXwftMRTNioqu/8/tWnG5/3jD+ud+X8GRtU9d0A8uqrsKsu2loPmo5BRGRMe8vBPLsAWje7CefyFQvqfLH0YbwAAMCKBXV/Fcu+BIAnzzz2o55jR+Ekk6ZjEBEZk0wm0N1l/ItwtjwnidBFKxfN9s21b74oAACwbO705+HIhVAcMJ0lGzqPtZqOQERkXOfRvPgsfDyeCF+ybNF0X33J9U0BAIDl7525FSG8A8AW01m81s2L/4iI0NOd25+FAqyNh7rfdc+iqb7b/chXBQAYeG5ACNHzVfGI6Sxe6u/jk7GIiPpz+CmBKrir6oWZC+655hxfPuTFdwUAAO6YP6VjZNJ5FyA/NZ3FCwrlQ3+IiDDwkKAc3A8gKdClK+bV3lxfL67pMCfiywIAAPWLZseXz595HaDXA8ja05GywU06eXblKxHR8bnqwnFz50GxArSqulctm1+33HSWwfi2ALxi+fy6e+DiEgCHTGfJFMfl1f9ERK9wnJz5TPy767rnrFgw62HTQVLh+wIAAMsX1j4Zct2zAQnEmzoYzaG2S0Q0XBr8L0UK4M7qhHP+ioWz9pgOk6qQ6QCpumPhrENQvWLJmsabAHwLQNR0JiIiyntHxLU+vmzhjN+aDpKuQKwA/IOILp9fe6eonAtgo+k4RESU19ZIwj41iJM/ELQC8LJlC2a+UF1x6CwVfB6CftN5iIgon8hhEfno8vm18/22uU86AlkAAKD+4ouTK+bVfgtJORPA46bzEBFRznNF8V9OOFa3bN7Mn5kOM1yBuQbgRJa/d+ZWABcuXbPlGlflLgEmm85EREQ5Z70levNd8+ueMh0kUwK7AvBGy+bVPZgIdc8GpB4Ad9khIqJM2A/gw8vnzXzrXfNyZ/IHcqgAAMA915zTu3z+zH+Ph2SSKL4FoM90JiIiCh4BWlXw+XCieMby+bX3QiTndm8T0wG8tPT+beNhOV9U4OPw0W2Dsf4ebHjmT6ZjeMoOAwUVQKhQYEcBNw4kY0B/hyKZh5dtigVEy4BoqcCOAKqAEwP6jyniubsVOlFKznjrpYgWFJuO8YojULm9oLh/2XeumNNjOoyXcroAvOJTq7aPCkniBkCWAKgynSdXC0DxSKC6zkb5BKCoSk74pyvWCRzb66KtSdG5X5GruyJHSoCqWgsjJgtKRgss+/g/l+wHOg8o2re7OLpD4SSym5PINJ8UgJ0A7oqHun/o14f3ZFpeFIBXfPb3LxT39RRcJ6KfAnCqqRy5VgAqJgvGv9VCyZj0/zj1H1UcWK9o2eoCvn1kRnoKKwfej6rpkvZJtmQMOPyCi0PPuUjGvMlH5DcGC4AL4I+ienfVi7Vr/PzgHi/kVQF4raX3b36bWtb/AfA+ACXZHDtXCkCkGJhyiY0Rpwz/j1HPEWDHww56W4O7HGBZwLjzLIw9y4IM8+qaRK9i96MDqyREuc5AATioKj9xVf77+wtn7MzmwH6StwXgFZ9p2FeYjHS/EyrXKrAAgOd/CnOhAJSNE8x4t41QYeaOqQ6w888uWjYHr4RHSoAZV9soqcnsX6nDLyl2P+JAg/eWEKUsSwXgqAAPQfS+qvLm39VffHHgH0AwXHlfAF5r6bptZRpPXq2Qq0RxOYCRXowT9AJQeYpg+lU25ATntIdr31MuDjwbnBmvoByoW2AjWubNX6ejuxVNDzlQPkOKcpR3BUC2q+g6ga6rjruP1C+anVOPlh8uFoATqK9Xq21O0zkKvQKQdyj0bQKUZuLYQS4AZRMEtXPtE17Qlim7H3XRvMH/JSBSDMxeFEK0zNtx2ncomtY5OXOdBNFrZawACJoBPC6qj7mKP6xYUNc0/IPmrsDvBOiVly8Geeblf3Btg9ojw9tOE9ULLOgZEMxRYDaAIqNBsyhSKph+pfeTPwBMutBCX5vi2D7/ngMXC5h+pe355A8AlVMF499iYf/f2ACIXtYBYIMAG1zVDSFbnr5zbm2j6VBBwgKQovsWiQNgw8v/ABhYJWg/dctUldAMV3QyBFMEOhki46BaBaAawAhTmTNKgGmXWQhn8Jz/SYcTYOplFl74uePb2+LGnm2hdFz2FtHGnWvh2B5FV7N/SxFRBrUDOAzVFlg4CGC3wtoh6m53Jbxj5bxp+0wHDDqeAvDYtQ1qVxdtLIsmwuUx17Zs1cjhQ9tm7N65ea3pbOmoniGYdmUWvvq/waH1LvY86b9vvdFSwZwPW7DC2f0r1HNYsfHXDhD4DqBIxvvhJONwXQc58P9QMKlAbBt2KIxQuAAy3NtXhmjilLr3jBo3c5NGNCYS660pbuviRXreYwEw4C2f+eYpgL3DdI6UCTDngzYKq7L/x8VNKJ77sYOkzzZ1nnyRhdFzzHxYNj7o4OjO4E6YiXgv4n3dUN7a4CsignC0GJGCrN4V/TJn6rO3fyFvb8czJaeeBUDeKJ9oGZn8AcAKC2pm++uPqR0GRs0y153HnOGv9yMd/b0diPV2cvL3IVVFvL8bfT3t4IpMfgjuJwllzchaswtF1XX++mNaOU2yvvT/WqXjBRETX9KGKdbXhWQ8Dx8EETBOIo7+ng7TMSgL/PXJSv4jQPlEsxEKKwfOuftF+WSzf21EgPIJ/nk/UuEk40jEcvq5KjklmYixrOUBFgA6qYJyIFxkfrIpHWM6wav8kKV0rPnfSTri/XzkYdDE+7vAUwG5jQWATqqw0h8TTYFPcthhIFpiPotf3o9UqLpwkz69l5NOyHUduA4vxM9lLAB0UuFif0w0YZ9stxQuPvFjjrMpYvzJqalznCSU3yQDyfHrJhyUESwAdFJ22HSCAXbEdIIBlk+2zvLL+5EKdfkQg6BSl3dr5DIWADopv9ytpa4PvnbDR+9HgFZmTW0uQxkg/vh7R97g30w6KSdmOsGApE9yODF/LGX75f1IhWXxYyaorGw8+IOM4d9MOqm+Dn9MeP1H/ZEj3gs4cfNZ+o+ZTpA6yw5xFSCQBHYoQOeaKG38W0kn1deqvlj27m0xP+kCABTobTUdwkfvR0oE4ahPruKklIUi5p4NQNnB3y6dlJMYeACN6QzdhjO8Vud+81k6ffyY5OOJRIu5nBwgIpahZwJQNrEA0KDatpldAji6wx+rEK9oazIbJt4DdAbtkcAiKCgeAfAbZQAICorLWdjyAP820qBatirU4J1cRzb5aPYH0NtmdkWiZbMC/npLUmLZIRSVVMLyy72U9CaWZaOwpBJ2KGo6CmUBCwANKtkHHH7JzIzTfUh9seT+RgefNfN+OAmg+fkAzv4vs+wQisqqEC0sg+WXTSYIlh1CtKAURaXVsEP8veQLVnFKyf6/uRhZa8HO4hcDVWD34/6c7Np3DhSTsvHZvU/64LMuEn3+K0TpGbgoMBwtGtgm2HEQyCWNHCBiQSwLIlzuz0csAJSSZB+w+1EHUy/P3gfF4RdcdB/y6WSnwK4/Ozj1n0NZ2y2xp0Vx6LncmihFLNghLkQSmcC/eZSyli2Kli3ZmZC7Dyv2PuHvya7vKLDrz25WHpjmxIBt61xwV10iyhQWAErLzj866Njj7YzX3wE0rg3GZNe61cXep7wtKm5CsfVBB/0+2ZSJiHIDCwClRV2g6UHHs1sDe44Am+5zAnWe++B6F3sedaAeRE72A1tWu+g6EJz3g4iCgdcAUNpcB9j2Oxc9R4AJ51kZu7X7yEsudj/qwg3Qg25ecWiDoveoi+lXWAgVZuaYXc2K7b9zEevk5E9EmccCQEOjA998O3a5mPxPNsomDP1q+L72gQsMj+0N9kR3bI+LDT9zMeECG6NmyZCLUbJPsf8ZRfOLLi+OJyLPsADQsPS2AZtXOSgdJ6g53ULlKYKU9nlxgWP7FYc3ugM7/QV77v+HZD+w608ODj4LjD7DQvVMQbgotXLU26po2aw4skl98cAhIsptLACUEV0HFF0HHNhhoHSsoGSMoGCEIFwIhKICJ65Ixgae6tdzBOjc7yLRZzq1d2KdwJ7HXOx5AigZKSgdJyiqFERKASsCwAWScSDWoehtG3i+AC/yI6JsYgGgjHISQMce9fxOgcBwB25p9NPDjIiIAN4FQERElJdYAIiIiPIQCwAREVEeYgEgIiLKQywAREREeYgFgIiIKA+xABAREeUhFgADklY4AM+5IyLKDn4mmsECYEC4P95tOgMRkV8UuFaX6Qz5iAXAgHarhAWAiOhl8Z5iFgADWAAM2L7sphiAVtM5iIh84PDf77k+YTpEPmIBMKfRdAAiIuNE+VloCAuAOZtMByAiMk1VNpvOkK9YAEwRedx0BCIi4xSPmY6Qr1gADEmG3D+bzkBEZJhKGI+YDpGvWAAMef4/P3dQgL+ZzkFEZI789dlv39ZsOkW+YgEwyFX83HQGIiJTBC4/Aw1iATAoLKFfCoR7AhBRPuqKRN1fmw6Rz1gADPrr7be2K/Ru0zmIiAxY8cR/fOGo6RD5jAXAMFfD3+UqABHlma6wLbebDpHvbNMB8t2hp3/fPe5tlzkQXGY6CxFRNojIF5/+7r/80XSOfMcVAB9westvB7DRdA4iIu/JC0VlPXeZTkGAmA5AA95663dnqDrrAZSazkJE5JEeW/UtT9/xuS2mgxBXAHzjme/93yZVvRGAms5CROQBFchiTv7+wWsAfOTg0398cdx5lzkALjGdhYgoo0S/9Oztt33fdAx6FQuAzxx8+uHHxp1/WQmA801nISLKBIF8+9nbb/s30zno9VgAfOjgXx9+eNx5l3UAuAK8ToOIgktF9KvP3H7bl0wHoTfj5OJj59z6nwtF8d8Ayk1nISJK01FR/fgzd3xujekgdHy8CNDH1n/vtvsB5yxRecJ0FiKilIk+ZqtzFid/f+MKQCCovOXWb38Uiv8AUGM6DRHRCTSL4HPPfO9ffg4I72jyORaAADl7cX2RVVz0SQCfBTDedB4iopftg8h3Qmr/8K+339pnOgylhgUggK69tsHeNW7v5SLuhwBcCWCE6UxElHeOQrAOinsn75/88H33LXJMB6L0sAAE3LXXNth7xu86UyEXKFALYKYAowRSoiKjAURNZySiwIqJarNCuwEcVqBJRLZYIk9O3DtxAyf9YAuZDkDD03yGPaoYU2YAOh2KaVBMhaAGnPiJaPiiACYB6IeiFAJXoUkL0tJSigO4D82mA9LQcQUggC79xi9qVK1/VsiHAZxlOg8R5StZr4p7I07ol3+oX3DEdBpKDwtAgFz0zV9OFsf6DIDFAApM5yEielkc0F9bFr7+py++v8l0GEoNC0AAXFP/YFGP3XubCr4AIGI6DxHRCSQBrIyHC7785OfmdpkOQyfHAuBzl3yt4RK19KdQ3vZHRIGxD5Z8+JEvLnrUdBA6Me4E6FeqctE3fv1vKvoHTv5EFDAT4OqfLvn6r78MVX7R9Cn+YnzoovpHQhI6cjeAj5vOQkQ0HKK499iojo///frrE6az0OuxAPjM2XffHS5vGbFKoVebzkJElBGCBzqrO97LEuAvPAXgJ6pS1lLxQ07+RJRTFO8pO1L+k/r6es45PmKbDkCvuig862sC3GQ6BxFRxomcttseqbv//BteGOgTPAXgE5d+49cXu4qHwVJGRLnLtUTe9acvLXrYdBBiAfCFi+pXV0govgXAaNNZiIg8JThYkEjU/a7+Q52mo+Q7no/xg1Dsa+DkT0T5QDG2PxyuNx2DuAJg3KX/r2GW6+qL4NI/EeWPpGXpbG4bbBZXAAxzXffz4ORPRPkl5LryedMh8h1XAAx65380THSSugN8LDMR5Z+EJkOn/KV+4X7TQfIVVwAMSjr4MDj5E1F+Clsh50OmQ+QzFgCDRPXDpjMQEZmicFkADGIBMOTCr/1mOoCZpnMQEZkjsy/8WsMU0ynyFQuAIbblXmw6AxGRaRZwiekM+YoFwBRXLzAdgYjINEvct5vOkK9YAAxRC3WmMxARmaaQWtMZ8hULgCGimGE6AxGRD/BaKENYAAw473sNhQDKTecgIvKBEdfWN0RMh8hHLAAGhPpRYjoDEZFftEdCpaYz5CMWAANscYpNZyAi8gtHYiwABrAAGBBChO87EdHL+JloBt90IiKiPMQCQERElIdYAIiIiPIQCwAREVEeYgEgIiLKQywAREREeYgFgIiIKA+FTAeg3FJUBVRNBsrHCYorFeFCQagAcOJAsl/R0y7obFa07wG6DgJqOrDHIkVA1RRBxQSguAooKAPsCKAu4MSAvmOKziOCjj0D74nrmE5MRPmCBYCGzbKA0bOBCWcDZWPkNf/l1f89XACgTFAyCqipHfi/9x0FDmxQ7H1+YDLMJZUTBRPfClRNHXh/jqsEKKoSVJ0C4G2CRD/QvAnY84yiryObaYkoH7EA0LCMnCaYeRlQWJH+awtHANMuFkx+G7DtMcX+5xH4JYHiKqD2CqByUvqvDRcMlKjxZwr2PQfseEyRzLFiRET+wQJAQ2KFgdrLBOPmDP9YoUKg7gpBTS3w0gOKWPfwj2nChLMEMy4FrGH+rRILmHgOMGqG4MU1imMHMpOPiOi1eBEgpS1cAJzzfmRk8n+tyknAudcJSkbJ4D/sIwJg5qWC2iuGP/m/VkEZ8JYPCkbXBev9IKJgYAGgtISiwNkfEJSP92ZSipYCZ/8zUFTpyeEzTgDUXjlwvt+T49vAaXOB0XXeHJ+I8hcLAKVOgDkLBKU13g4TKQLOep8MXDjoc5PPE4w/w+NBBDj1GkH5OI/HIaK8wgJAKTvlPKBycnbGKqwA6q7y99J3xXhg6oXZGUts4PR5glA0O+MRUe7jRYCUkqIRwJQLsjsh18wEqqcBrduzOmxKxALqrhj4n9lSUAZMvVDQ+HDAb5X4B4WbjMN1HKhyAwQTRCyIbcMORfHa23YpP7AAUEqm/lNmL3BL1YxLBK071He3B447bWBPg2ybcDawbz3QezT7Y2eKqotEbwcSsR6ouqbjEAaKQChShHBROSwTf9HJCJ4CoEEVVry6eU+2FVcBo6YbGfqEBMCkcw2NLcDEtwT3m5qT6Edvx0HE+7s4+fuIqotErBu9HQeRjPWajkNZwgJAgxpz2sDEY8rY0/014VVMGNjy2JTRswHLNjf+UDmJfvR1HYZyv2P/UkV/TwsSQd2Mg9LCAkCDqplhdvyqUwY2HvKLkTPMFpJwATBiotEIaVPXQX93q+9O5dBxKBDrboc6CdNJyGMsAHRS4UKg2PDGPJYNVIz1zypApQ8m38pJ/nk/UpHoO8Zv/oGi6O/lAylyHQsAnVTJSH9cG2zigrvjEqC42nQIH70fqVAgEed55aBx470sbTmOBYBOqrDcdIIBRRX+WDsuKDVzN8Sbcvjk95IK14lxIgkgBZBM9JuOQR5iAaCTCvlkNz7f5PDJRjxhn+RIhesmTUegIVL+7nIaCwCdlMmr/19LLL8E8UeObG5ANGz+WLyhIeEvL5cF6WOEDEjGTScYkIyZTjDAifvjA9Evv5dUSBDvWSQA4KZMLI38AAAJQElEQVRAOY4FgE6qv9Mf33j7O/0x8ca6APVBlP5O0wlSZ4Ui8MelpJQuyy/nvMgTLAB0Uj1tPpjtAPS0mk4wwHWAPh9sw+uX30sqBraZLTQdg9Jk2WFYto824KCMYwGgk+o/NvCPSQqgY7/ZDK/Vsd/85Nux13SC9EQKK7gIEDCRokrTEchjLAA0qNadZsfvPKDw023kpp9OqA7QuttshnRZoTAihSNMx6AUhQtKEYr45NYb8gwLAA3q4Eaz33gPbTI6/Ju0bAeSfQbH32F2/KGKFJYhUlTOlQCfCxeUIlrMspYPWABoUMcOmFuCT/QBhzaaGftEXAfY+5y58fc8Y27s4YoUVqCwtAaWHTEdhd7AssMoKK1GtLgSbGn5gfd4UEp2PKY4+wPZ/1DY9ZQ/b3nb86xi/JmCSFF2x23dCXTsM38NwnDY4QIUlY+B68ThJPrgOkk+GtgQEQtihWCHo7BDBZz38wwLAKWkfQ/QvBkYPSt7Y3YdAfat9+dkl+wDtj2imP3u7H1iOkmg8WF/vh9pk4HbAwduESQiE3gKgFK25feKviw9IMxNApseUrg+/mJ48MWBUpQtTX8AetuzNx4R5TYWAEpZsh94/j71/AI0VWDjA0DXYW/HyYRN6xTHsnBb4L7nFPtfyJFv/0TkCywAlJaeVuDvDd7dlqcO8NIDiiONwZjs3ASw4X6g86B3Y+x/Dtj6B++OT0T5iQWA0tZ5EHj2XkV3S2aPG+8Bnvu1ZnVZPRPivcD6XyoOb81saXFdoOlPA6de+EwWIso0FgAakt424G8/Vex5BsjEBdyHtyqe/pGifc/wj2WCEwdeXA1s+q0ikYFTJF2HgfX3Anue4cxPRN7gXQA0ZG4CaPqT4sAGYMr5gtF1gKTx4DcF0L5LsfNJQcc+z2Jm1cEXgSPbFJPOEUw8GwiluQV+dyuw52nFoZf88dAhIspdLAA0bD1twEsPKhr/CNTUAlVTgPKxgmjpm3822Qcca1Yc3Q00b8XLdxXk1kyX7AN2PK7Y9RRQPU1QPRUYMQEoHAHIG+4adJJAzxGgfa/iSNPApktERNnAAkAZk+gD9j8/8A+gsKNApBAIFwLJ2MBdBH7a099rrgMcaVQcaRz4d7GBglIgFB34b04ciHXmWv0hoqBgASDPODGgL4as7R3gd+rwvSAi/+BFgERERHmIBYCIiCgPsQAQERHlIRYAIiKiPMQCQERElIdYAIiIiPIQC4AB8aTz/9u71xCp6jCO47/nzK6aYRFmEEUYRFAh2JtItHS7UkRR0mb3jCDqhS8ySt3dGDKjglToBlG61YuoqOgCkpdxsQsWXTYsR7shaVmZdLFSd2bO04uCootR7exzZv7fz+t58WWYOefH4cwcfvoNAL/imBiDARDAs9Ke6AYAKIrOrJ7QX4QVBwMgQKnW2BXdAABFMbY2jmNiAPvnl2DYuVvXoid/kjQmOgUAgu1e23vR2OiIFHEFIIKZS/5xdAYAxLMPowtSxQCIYtnm6AQAiGbmH0Q3pIoBEMTlb0Q3AEA41+vRCaliAATJ3NZGNwBAOPNKdEKqGABBxh+ttyTtiO4AgEBfnlzbNBgdkSoGQJCnursbLn8iugMAorj0eLlczqM7UsUACOWPRBcAQJTM/LHohpQxAAIN9F78pqR10R0AEKBS6Zn1dnREyhgAwcx9UXQDAIw0c+PYF4wBEKzSN2uly1ZEdwDACHqp0tfN3f/BGABFUNIcSTwgCEAK9maZz4mOAAOgEAbmd3/kpt7oDgBoNne7ec2CWfz7XwHwMKCicLeuRU89K/l50SkA0Awme7HSc+G5vzwPBdG4AlAUZj6mPnSFyd6JTgGA4WbShrzeeTkn/+LgCkDBnLTo6UM7vP6qpCOjWwBgePgnXs+mDpS7v4guwW+4AlAwL/fM3F63jqmS3o1uAYD/z9/3eud0Tv7FwwAooJd7Zm6vlepdkq2JbgGA/85Wen30tIHyzG3RJfgzBkBBvTL/0m8OPlpnuqksqRHdAwD/QsOkvun1jWcNlM//NjoGf417AFrAybc+fnxm2X1mmhLdAgD7ZHrL3K6v9Ha/EZ2CfeMKQAtYd8vF78xoVKfJ/ErJN0X3AMAfmVR1+WXTa9UTOPm3Bq4AtJhyuZyt6zj2PDe/Sq6zJHVGNwFI1pBkK9y9f0aj+jyP9m0tDIAWdurtz4z3vHaGS12Spko6StKo4CwA7WtI8g8le83NKyUbtWrNggt2Rkfhv2EAtJEZ5bUdGr1jYtZoHOKWjftx57brarXd/LPgr7KsY8OBEyYujO5AcX23Y0tfntcnRXcURWfnfs/tP/7wB8zzXXmp9JX2TtgyUO6qR3dheDAA2tgxV99wh1w3R3cUh62uLr/79OgKFNcxs+eukvy06I7CMN1ZXbZ4XnQGmoObAAEASBADAACABDEAAABIEAMAAIAEMQAAAEgQAwAAgAQxAAAASBADAACABDEAAABIEAMAAIAEMQAAAEgQAwAAgAQxAAAASBADAACABDEAAABIEAMAAIAEMQAAAEgQAwAAgAQxAAAASBADAACABDEAAABIEAMAAIAEMQAAAEgQAwAAgAQxANqY5fZ9dEORuPJvoxtQdDnfmd9xGd+ZNsYAaGMubY1uKBLj/cA/4zPyOxnvR1tjALSxPCutkeTRHUVhlq2KbkCxuWx1dEOB5N7RqERHoHkYAG1s87K7PpeLk94vtg7tP8TBDPu0xw9YLemz6I4icNPK6oNLt0d3oHkYAO3O8vmS6tEZ4dx6Prrnnr3RGSi2Lf3lPSbvi+4ogFpJmhcdgeYqRQegub4eXL/94ONP/MZkZ0e3hHE9XO1ffFt0BlrDjsH1g4dMnjJRpsnRLWHc52xcvuTF6Aw0F1cAErBp+ZJ73exaSUPRLSPN5A+OHfXDddEdaC0bf9x6jUx3RncEqJvbnGr/kvujQ9B8Fh2AkXPc7LnH5vLbJJ0jqTO6p4lc0qu56ZbNyxavjY5B6zpu9o2n5MoXSpqi9j5e1iR/oVTy3vceWlqNjsHIaOcPNP7GpEvmHVQbPTTV3I+QbFx0z/CxPZ75trzu6z94dAk3cmHYHHXNTYePbjROzF2HST4mumf4+C43+3SM568M9i/lN/8AAAAAAAAAAAAAAAAAAAAAAAAAAAAAAABBfga46xWWGNt6jgAAAABJRU5ErkJggg==;" parent="1" vertex="1">
          <mxGeometry x="554.74" y="490" width="100.51" height="100.51" as="geometry" />
        </mxCell>
        <mxCell id="5jVfxsf8ShCBXA_Zx5xe-1" value="" style="rounded=1;whiteSpace=wrap;html=1;labelBorderColor=none;strokeWidth=2;strokeColor=light-dark(#FB5656,#EDEDED);" parent="1" vertex="1">
          <mxGeometry x="325.56" y="560" width="130" height="140" as="geometry" />
        </mxCell>
        <mxCell id="5jVfxsf8ShCBXA_Zx5xe-2" value="" style="shape=image;aspect=fixed;image=data:image/png,iVBORw0KGgoAAAANSUhEUgAAAgAAAAIACAYAAAD0eNT6AAAABHNCSVQICAgIfAhkiAAAAAlwSFlzAAAOxAAADsQBlSsOGwAAABl0RVh0U29mdHdhcmUAd3d3Lmlua3NjYXBlLm9yZ5vuPBoAACAASURBVHic7d15kGXXQd/x37lv69d7T/f07EtrVo1Gs2kkS/IijWxZwoEAxig4YIzlAoeq5A+KCpWikpSpEELKCZWNUCS2MQ6rY4wBQ4ytxTagXaPRSCPNvvVs3dP79vpt9+SPlsAMY81M9733vHfP91OlP1w1fd7P86bv+d1z7z1XAgAAAAAAAAAAAAAAAAAAAAAAAAAAAAAAjcK4DoAFzwwOFiuVzp021FZJ3ZJtd50JAKJhZiRNmEDH8/mp1+9ft67kOhEoAE49fWa829TMR630mKT7JBVcZwKAmJUlPSurP1TO/sGBgZ4J14F8RQFw4JunxrpyNvhFa/Wzkjpc5wEAR6Yl/XpJ9f/woS29U67D+IYCkLBvnRz/YWvN/5S00nUWAGgIxl62Vv/soS09f+o6ik8C1wF8Ya01Tx+f+Iy15o/E5A8Af8eaVUbmq0+fmPhVay0npgnhLzoBn7Y2eN/JiS8YmY+5zgIADc2YL3x7U+cnP21M6DpK2rECkIAHTk78VyZ/ALgJ1v7U+05O/SfXMXzACkDMnj45+WOy9vdd5wCA5mI+dmBL1++4TpFmFIAYfePo1dX5TO5NK3W6zgIATWZS2ez2AwPtV1wHSSsuAcQom8n+KpM/ACxKl63VfsV1iDRjBSAmT56Y2BRIxyRlXGcBgCZVC+ra+sD27jOug6QRKwAxMUafEpM/ACxFNszoZ1yHSCsKQAystcZYfdR1DgBodkb6p64zpBUFIAZPnpy5XdJa1zkAoNlZaf1TR6e2uc6RRhSAGGRt7V2uMwBAWphs/V7XGdKIAhADawxtFQAiYi3H1DhQAGJgpOWuMwBAWhip33WGNKIAxMBKba4zAECKtLsOkEYUgHjw9woA0eGYGgP+UgEA8BAFAAAAD1EAAADwEAUAAAAPUQAAAPAQBQAAAA9RAAAA8BAFAAAAD1EAAADwEAUAAAAPUQAAAPAQBQAAAA9RAAAA8BAFAAAAD1EAAADwEAUAAAAPUQAAAPAQBQAAAA9RAAAA8BAFAAAAD1EAAADwEAUAAAAPUQAAAPAQBQAAAA9lXQdA4yhVqjo3PK5LY5ManZ5VqVJVuVZzHQvAIhWyWRXzOfV2tGlNb5c2LF+mljyHfSzgX4LnrKRTl67qpVODOnV5VHUbuo4EICYZE2jT6l7t37Rem1f1uY4DxygAHrswMq7/98pRXR6bch0FQALqNtTxi1d1/OJVre7t0qN7t2ttb7frWHCEAuChug315KvH9fyxc7KuwwBw4tLopD7/5Au6f9tGPbRriwJjXEdCwigAnqlUa/qDv35FZ4fHXEcB4Jq1euboGV0en9Jj79mrQjbjOhESxFMAHqnU6vrit15i8gfw95wZGtXvfuslVet111GQIAqAJ6y1+vIzh3RpbNJ1FAAN6MLohP7omcOylguDvqAAeOJv3jyjk5dHXMcA0MCOXxrWs8fOuo6BhFAAPDA2M6fvvHHadQwATeDp105qbHrWdQwkgALggSdfPa4a1/YA3IR6GOqp1066joEEUABSbnR6Vm9eHHYdA0ATefPCkEan51zHQMwoACl36MxFiZt6ANwCa60On73oOgZiRgFIuTcHh1xHANCE3uDYkXoUgBSbnJvX2AzLeABu3ej0rKZLZdcxECMKQIoNTUy7jgCgiQ2N856QNKMApNg4Z/8AlmBslmNImlEAUmy+UnMdAUAT4xiSbhSAFOPZfwBLUa1xDEkzCgAAAB6iAAAA4CEKAAAAHqIAAADgIQoAAAAeogAAAOAhCgAAAB7Kug4Av2WyUr5DyrXc+M9WZqXyrGQdPZqcLUot7VJwg98aW1/IWZlNJlccrCSFdVlXf9lpZwIFJiMZ4zoJPEYBQPKMtGqHtGaPUfdaydzCOlS9Ko2etjr/kjR+Pr6Ib8sWpY13SytuN2pddms/Oz8lDR+Tzr1gNd8kW6qH9aqq81Oqledkbeg6TsoZZXIF5QrtyhTaRBVA0igASFRLl7T7h406Vy3u5zM5qX+bUf82aeio1ZE/l+qVaDO+rX+b0R0fkrI3sTpxPS2d0vq7pTV7jU48KQ0etNEGjJCVVJ2bUGV+8q3Tf8TPql6dV706r2B+Si0dyxXcaHkJiBD3ACAxrT3Suz6++Mn/Wiu2G93940aZfDTjfbc1e6RdH1785P/dMllp+yPS5vctfaxYWKk8M6JKicnflbBWUWnyisKQvfeRHAoAEhFkpd0fMcq3RTtux0ppx4eiXTztWmu0/RET+ZLsxncbrdge8aARqMxPqlZu4hsWUsKGdc1PDctaWhiSQQFAItbvN2rvi2fslbdLyzZEM5aRtO0hKYjhN8NI2vYBoyAX/diLZcO6qqVJ1zHwlrBeVa087ToGPEEBQCLW7ot5/LuiOV/vXCN1rYlkqOsqdEj9mxvndq/q/AxnnA2mWprmUgwSQQFA7Dr6pWJXvJ/RN3BrTxN8L8s3LX2MG+nbEv9n3Kx6reQ6Aq4RhjWFYUx3tgLfhQKA2BV74j/jzeSlQvvSxyne4qN+i9HaHf9n3KywVnUdAdcR1tl/AfGjACB2mYSueWcLEYyRT6CsRJAzOqw1NyT2YEACKACIXXUumUlmfmbpYyRxM3wj7RBogozrCLieOO5CBa7BvzLEbnpYsZ9ozk9KUVzOnr4Sf1mZvhL7R9w0E8cmClgSIymT5XtB/CgAiF15Rpq4EO/EOnwsmnGunoh/9XXoWOMsu2fzRdcRcI0g1yJjWJlB/CgASMSp78R3bb1ek869GM2kOj8lXTocyVDXNXrGavJifOPfqlyhTSapmzRwU/JxPzIDvIUCgESMnbe6GNPEevwJRfqynZPftipNRDfe22ol6ehfRj/u0hi1tPUq+n0PsRi5QrsyN/NqTCACFAAk5s2vWw0fj248K+n030gXXol2Sb0yJ73yf6N9g1+tJL3yR9LceHRjRiWTK6jQ0StRApzK5luVb0/gOVTgLRQAJMbWpVe/YnXiaaleXtpY81PS4a9Ip74Tz/X02RHp+S9YDR1d+v2LY2el53/bamKwca79Xyubb1Oxa4UCbgpMnDGB8q09amlfzkoMEsW7J5EsK519zuriqwtv8+u9TWrpkHI3cS9aZVaam5BGTlgNn5DifnFaZVY6/MdWHf1S/3aj7jULmw3d6I2tYV0qz1hNXzEaOtZY1/zfSSZbUGvXKtVr86qV5xSGFdmwLlYG4mAUZLLK5IvK5oo8jgknKABwolpaWLq/8IrrJDc2PSxNDy/m7L1xz/i/JyNlci1chwY8wCUAAAA8RAEAAMBDFAAAADxEAQAAwEMUAAAAPEQBAADAQxQAAAA8RAFIMWPYwAXA4nEMSTcKQIrlsny9ABYvn2WHwjRjhkixtkLBdQQATay1hXdDpBkFIMV6O9tcRwDQxPo4hqQaBSDFVvV0KmP4igHcuiAItKqn03UMxIjZIcXy2YzW9HW5jgGgCa3v61Yuwz0AaUYBSLk7N6xyHQFAE9rJsSP1KAApd+f6VSrmc65jAGgixXxOd6ynAKQdBSDl8rms3rV1g+sYAJrIfds2qsAjgKlHAfDAfdsH1NNWdB0DQBNY1t6qe7dx0uADCoAHcplAP3zfLp4IAPCOAmP0g+/aqSw3/3mBGcETa3u79fDera5jAGhgj+7brnV9Pa5jICEUAI/cs2WDHrhjs+sYABrQgzs3a//m9a5jIEFZ1wGQrAd2blJrIadvvHJMdRu6jgPAsSAI9H37tuuuTetcR0HCKAAeunvLeq1a1qmvPv+6xqZnXccB4EhfR5t+6N47tXoZG4b5iALgqbW93frZR+/X8yfO69mjZzU7X3YdCUBC2osF3b9tQPdsWacg4EqwrygAHssEge7ftlF3b16voxeu6Mj5Kzo7PKZKre46GoCIFbIZbVixTDvXr9L2Nf3c6Q8KABYeE7xzw2rduWG1Qms1MjmjkelZlSpVzVdrruMBWKSWXFbFfF59Ha3q62pXYIzrSGggFAD8PYEx6u/uUH93h+soAIAYcfEHAAAPUQAAAPAQBQAAAA9RAAAA8BAFAAAAD1EAAADwEAUAAAAPUQAAAPAQBQAAAA9RAAAA8BAFAAAAD1EAAADwEAUAAAAPUQAAAPAQBQAAAA9RAAAA8BAFAAAAD1EAAADwEAUAAAAPUQAAAPAQBQAAAA9RAAAA8BAFAAAAD1EAAADwEAUAAAAPUQAAAPAQBQAAAA9RAAAA8BAFAAAAD1EAAADwEAUAAAAPUQAAAPBQ1nUANJ7J2XmNTs+oVKmpXK25jgNgkQq5rIqFnHrb29TV1uI6DhoMBQAKrdXJy1d15PyQzgyPaqZUdh0JQMTaiwXd1t+rOzas1KaVfQqMcR0JjlEAPGat1cHTF/TMm2c0PltyHQdAjGZKZR0+d0mHz11Sd1tR79lxm/YOrJGhCHiLAuCpoYlp/ekLr+vy+JTrKAASNjFb0tdePKKXTw3qB++5U/1d7a4jwQFuAvTQ4bOX9LknnmfyBzx3eWxKn33iWb127pLrKHCAFQDPPHfsnL556Kis6yAAGkKtFuqrz72muXJN79q63nUcJIgVAI+8cvoikz+Af8BK+sYrb+rVM6wE+IQC4IlLY5P685ffYPIHcF1W0tdeOqIrXBr0BgXAA/Uw1B8/95rCMHQdBUADq4ehvsKxwhsUAA88d/ycRqdnXccA0ARGpmb0/InzrmMgARSAlKvVQj139KzrGACayN8cPaNajVWAtKMApNxr5y9rtlxxHQNAE5mbr+jI4BXXMRAzCkDKvXaeu3oB3Dr2Bkg/CkCK1WqhBq9OuI4BoAmduzquap3LAGlGAUixS+NTqnM3L4BFqIehhsYnXcdAjCgAKTYyPeM6AoAmNjI95zoCYkQBSLHZeV7rC2DxZjiGpBoFIMWqPMYDYAkq1brrCIgRBSDFrGXjXwCLxzEk3SgAAAB4iAIAAICHKAAAAHiIAgAAgIcoAAAAeIgCAACAhygAAAB4KOs6APyUyUvLNxn1bpJaOqVs/sY/Uy1ZzY0bjZy0Gj0r2YT2OSp2S/1bjbrWSoU2Kci885+3oVSes5q6bHT1uNXM1WRyRiWslVWtlGTrFdkw5FnwGJggUBBklckVlcm3yBjOxZA8CgASt3avtOl9RvnWW/1Jo15J6+4ymhmRjj9hNXomhoBvybVImx+S1uwyMuZWf9qof8vC/8/hYwtZ56fiSBmdsF5ReXZc9eq86yjpV5fqkqrlGRmTUb6tW7lCu+tU8Ay1E4kxgbTzB4xuf3Qxk//f194n7fsnRhveFU22axW7pXs+brR292Im/79jJK3YtjBW56olDBSzerWk0uQQk78D1tZVnhnV/MyIxGILEkQBQGK2vt9o1c4IBzTS1oeMVt0R4ZiSsi3S3seMWpdFN2ahXdr7owuXOxpNvVZRafqqbFLXVHBdtfKsKnPjrmPAIxQAJKJ7ndH6/fGMffujRvm26Mbb/D6jtt7oxntbvk26/ZEGWwWwUnlmROI6f0OozE+pXmMVBsmgACARm94b39iZvLT+nmgm1kK7tGZvJENdV99mqXNVfOPfqlp1VmG96joGvktlbtJ1BHiCAoDY5YpSz/p4P2PltmjGWb5FCmL+rVixrXFWAWrlOdcRcI16bZ7LMUgEBQCx61ypJd1IdzOKPVK2uPRxOlfHPzl3rm6c5fawXnEdAdeyUr1Wdp0CHqAAIHb5tmTOeFsieIoq3xr/5FxI6O/jZoT1uusIuJ6QFQDEjwKA2CV1iTmKk6Z6Nf7JuVZunBUAE/f1DiyKiXvJDBAFAAkoTcQ/4dVrUmVm6eMkkbU02TgH9+BG2xrCCRPkXEeABygAiN3MkGLfBW/0jI1k1XT01NLHuJGRk/F/xs3K5CO4cQKRMkFGQYYCgPhRABA7K+nCoXg/48LL0YwzfkGaHopmrOspz0jDxxvnEkA2366F/QrRKHItHXwlSAQFAIk4/4JVaSKesa+ejPCdAFY6/qSNbV+cE08nd0/EzQgyWeWLDbg9oaeCTG6hAAAJoAAgEfWqdOjLVlFvcjY7Kr3+Z9GOOXZOOvFU9A1g8CWry683ztn/2/LFbmVyXApwzZhALR19vBkQieFfGhIzc1V64YtWMyPRjDdyWnrh/0RfKiTp3AvSka9ZhRGcrYehdOJbVse+ufSxYmGkYkc/S88OBZmcil0rFWRu4r3YQER4HTASNTsqPf85qzV7jNbsljpW3trP21AaH7QafNFo+ES8Z9OXXpNGz1oN3Cv1bze61be11krS8AmrM89Kc2PxZIyMkQpty5QttKtamlS9WpLl/QDxMlIQ5JUrtiuXp3wheRQAJC4MpcGDVoMHpXyr1NIl5Qo3/rnyrFSakuplKan3ppanpaPflI4+YVXsklo6pBs9OReGCzf7lSYWCkszyWTzynQsX5j8w5rCMBTvqI2eCQKZIMtyP5yiAMCpytzCfw3PLkzocd3I2GiMMVImpwzbBACpRf0EAMBDFAAAADxEAQAAwEMUAAAAPEQBAADAQxQAAAA8RAEAAMBDFIAUy/IQN4AlyGaZItKMbzfFCjn2eQKweC053k2QZhSAFOtp5w1vABavp73FdQTEiAKQYit6eK84gMVb2d3pOgJiRAFIse7WorpbWQUAcOt62lvV2coKQJpRAFJu+7p+1xEANKHb165wHQExowCk3J6BtbxmHMAtMZL2DKx2HQMxowCkXH9Xu7asXu46BoAmsm1tv/o6213HQMwoAB74wO6tyhi+agA3FgSBDty5xXUMJIBZwQN9ne26//YB1zEANIH37hjQcs7+vUAB8MQDOzdpw/Ie1zEANLCBFb16345NrmMgIRQATwTG6LH37NWKbpo9gH+ov7tDj717j4zhtmFfUAA8Uszn9PED92htHysBAP7Omt5u/eSD+9k+3DMUAM+05HP62IP7tW/TWtdRADSA/ZvX6eMH9qu1wL7/vqHueSiXCfT9++/QjrUr9PWDRzUyPes6EoCELe9s16P7tmtgRa/rKHCEAuCx21b26We/7906MnhFL50c1ODVcVnXoQDExxht6OvW/s3rtWPdCq73e44C4DljjHauX6Wd61dpulTWmaFRXRid1Nj0rEqVqkqVquuIABapmM+pmM+pt7NNa5Z16bYVvWovFlzHQoOgAOBvdRQL2rVxtXZtZAtQAEg7bgIEAMBDFAAAADxEAQAAwEMUAAAAPEQBAADAQxQAAAA8RAEAAMBDFAAAADxEAQAAwEMUAAAAPEQBAADAQxQAAAA8RAEAAMBDFAAAADxEAQAAwEMUAAAAPEQBAADAQxQAAAA8RAEAAMBDFAAAADxEAQAAwEMUAAAAPEQBAADAQxQAAAA8RAEAAMBDFAAAADxEAQAAwEMUAAAAPEQBAADAQxQAAAA8RAEAAMBDFAAAADxEAQAAwENZ1wHQGKy1Oj8yoTNXRnVhbFJjU7Oaq1ZVqdZcRwOwSPlcVq25nHo727Smt0u3rejVur5uGWNcR0MDoAB4rlSp6sWT53Xw1KCm5squ4wCIUKVaU6Va08RcSaeujOg7R06pq7VF+zat092b16slzxTgM759T1lr9dLJQT39+gnNVzjLB3wxOTevp187oeeOndWBO7fork1rWRHwFAXAQzOlsr7y/GGdHRpzHQWAI6VKVX/x8hs6emFIH753l1pb8q4jIWHcBOiZidmSvvDUC0z+ACRJp4dG9dlvPqex6VnXUZAwCoBHJufm9dtPvaCxmTnXUQA0kIm5kr7w9IuamCu5joIEUQA8UanV9XvfflmTc/OuowBoQDOlsv7gOwdVq4WuoyAhFABPfP3gm7o6NeM6BoAGNjw5o68fetN1DCSEAuCB81fH9eqZi65jAGgCr5y6oAsj465jIAEUAA889dpxWdchADQFK+mJwydcx0ACKAApd2FkXOevTriOAaCJnL86rgujHDfSjgKQcofOXnIdAUATevUMx460owCkmJV0/NJV1zEANKHjF4ddR0DMKAApNjo9q5kS+/sDuHXT82U2B0o5CkCKDU/w2B+AxRuepACkGQUgxSZn2dULwOKNz7JraJpRAFKsXOUtfwAWj2NIulEAUqwesqUngMWr1zmGpBkFAAAAD1EAAADwEAUAAAAPUQAAAPAQBQAAAA9RAAAA8BAFAAAAD2VdB4C/TCB1rpJaOqRcy43/fGXWaG5Smhm28Ye7Rq5F6lgpFdqNMtl3/vywLpVnjaaHrCpNupOqDWsK61WF9boWXiuFKBmTUZDJKMjmJRnXceApCgASl2+VBu6XVu80yhZv/efnJ43OvyQNHrQKY96orHO1tPm90rKNRuZv18tu8oBtjSYuWJ36a2nsbEwBo2SlamVW1dKUwnrFdRovmCCjXL5NudYuGcOCLJJFAUCietZLuz9slFvExP+2li5p6/ulNbuNDn3Zam48unxvM5I2vU/a+G6z+PMzI3WvM7rro9LFw9KbX7ey9QhDRsjaUPMzI6pXeH9EkmxYV2V+StXyjFo6+pXJFVxHgkeonEhMz3pp30eXNvl/t7Y+6e6PGbV0RjPed9v6sNHAUib/a6zZJe36IdOQq73WhipNDTH5O2RtqPmpIdWrvL4byaEAIBH51oUz/yDif3H5Nmn3D0c7sa68XVq/P7rx3ta/VdpwT/TjLlV5blxhjSV/16ys5qeHZcMGXSZC6lAAkIiB+xXZmf+1OlcvTNpRMBlp84H4TtM3vTu6FZAohLWqauUZ1zHwFmtDVeanXMeAJygAiJ0x0qqd8a59r9kTzTi9G6RiVzRjXU+mIK3Y3jjXAaqVGW7ybzC18qz4UpAECgBi17k6vrP/t3WvMwoiuKV12UD8k3PvQOMc3OtVrvs3GhvWVeeSDBJAAUDsijHcpHetIJAK7UsfpyXGs/+//YzOxlkBsHWuNzci7gNAEigAiF1SjzdnIlgBiPomxet+Bg/f4kZs46wSIb0oAIhdUveYlaaXPkZ5Jv4DbyPdc2eCjOsIuA5DS0QCKACI3eRlxb5j3/SQVI/gEeqJwaWPccPPON84Z3dBlo1nGo0xRplsznUMeIACgNjVK9LIqXgnvStvRjP+yKmFvHGxVrpyLL7xb1Wu0Oo6Aq6RybUmd90MXuNfGRJx6q/iu6xZnpEGX45mrOq8dO75aMa6nsuvWc2Nxjf+rcrkispkb+JNTEiIUb41gTtRAVEAkJCZq9KJp6NvADaUXv9TG+lZ+5lnrMbORZ91blQ69mTkwy5ZS3sv9wI0iHxbj4IMy/9IBgUAiTn3vHTqr2xkW5zUq9JrX7UaOxfRgG8JQ+nwH0vj56Mbc3pYOviHVrX56MaMislkVezspwS4ZKR8sVv5lg7XSeARbjVFok7/tTR5wWrLQ0YdKxY/zsgp6fhTVrMj0WX7btWSdPD3rdbfYzRwn7TYVfJ6TRp8UTr9TLSrFFELMnm1dq1SuTSxsDVw49ynmHpBNq9Ca48yOS7FIFkUACRu9Kw09nmrjlVGfQNWLV1G2ZYbzziVWaO5cWnkZDyvAL5WGEpnn7M6/7LUt9Goc63U0i4F2XfOGtalyqw0dclo5LRVrUle8GaCjFraemWL3apXSwprFYW2ThmIgTGBTCarbK6oIJNvyLdEIv0oAHDCSpq6bDV1+e3/dbM/lbywKg2fsBo+cas/2ZwzpwkyyhbaJZ4QBFKNewAAAPAQBQAAAA9RAAAA8BAFAAAAD1EAAADwEAUAAAAPUQAAAPAQBSDFTMDuIgAWL+AYkmoUgBTLZ9nbHcDi5XPsFZdmFIAU6yyytziAxesssh1kmlEAUqyvs811BABNrK+j3XUExIgCkGIrejqUy3AZAMCtK2Qz6u+hAKQZBSDFMibQwMplrmMAaEIDK3uVMUwRaca3m3K7NqxxHQFAE9q1YbXrCIgZBSDltq1drp62ousYAJpId1tRW9f0u46BmFEAUi5jAr33jk2uYwBoIg/u3KzAsAdA2lEAPLB742qt7etxHQNAE1jf16M7N7L87wMKgAeMMfqRe3epJZ9zHQVAA2vJZ/WD994pzv39QAHwRFdbi37kvl3c1QvguoIg0I/ev4d7hjzCbOCRTSv79OH7dykT8LUD+DvZTEYfuW+3Blb0uo6CBDETeOb2tSv0Ew/uV1sLW3wCkDpaCvqJB/Zr+1ru+vcNBcBDG5b36FMfvE/b165wHQWAQzvWrdSnHrlf65d3u44CB3jVk6faiwU99u49Ojs0pu+8cUpnh8dcRwKQkI0rlumBOzZrw3KeDvIZBcBzG1cs08YVyzQyPasj5y/r9JUxXRqbVD0MXUcDEJFMEGhNb6duW9GnO9avVG8HLwoDBQBv6eto0wN3bNYDd0jWWk3OzWtuvqL5Ws11NACL1JLNqrUlr67WFhk29sE1KAD4B4wx6m4rqpvHgQAgtbgJEAAAD1EAAADwEAUAAAAPUQAAAPAQBQAAAA9RAAAA8BAFAAAAD1EAAADwEAUAAAAPUQAAAPAQBQAAAA9RAAAA8BAFAAAAD1EAAADwEAUAAAAPUQAAAPAQBQAAAA9RAAAA8BAFAAAAD1EAAADwEAUAAAAPUQAAAPAQBQAAAA9RAAAA8BAFAAAAD1EAAADwEAUAAAAPUQAAAPAQBQAAAA9RAAAA8BAFAAAAD1EAAADwUNZ1ADSWybl5XRqb1Oj0rErlqsq1mutIABapkM2qWMipt6NNa5Z1q7O14DoSGggFAJqcm9ehMxf0+rkrGp2edR0HQEz6Otq0c8Mq7RlYSxkABcBns/NlPf36SR06c0lhGLqOAyBmI9Oz+tbrJ/WdN05r78AaPXjnZrUV8q5jwREKgKdeP39Zf/HyG5qvsMQP+CYMQ718alBHBq/o+/fv0I51K11HggPcBOgZa62+fvCovvLsYSZ/wHPzlaq+/Myr+saho7LWuo6DhFEAPGKt1Z88/7peOHHOdRQADeS5Y+f0Jy+8LiqAXygAHvnG9GMm3AAADiFJREFUoWM6fO6S6xgAGtDhs5f05KFjrmMgQRQAT7wxeEXPH+fMH8D39uyxszp6Ych1DCSEAuCB+UpVf/Hym65jAGhwVtKfvXhEpUrVdRQkgALggW8dOaW5csV1DABNoFSp6jtHTrmOgQRQAFJudr6sV04Nuo4BoIm8fHpQc/OcNKQdBSDlXj13WdU6m/wAuHm1WqjD5y67joGYUQBS7sh5fokB3LrXBzl2pB0FIMXmK1VdHp92HQNAE7o8NsXNgClHAUixS+NTErt7AVgEa62GOIFINQpAio3xZj8ASzA6wzEkzSgAKTZXZvkOwOJxDEk3CkCKVet11xEANLFKjReGpRkFIM24/A9gKTiGpBoFAAAAD1EAAADwEAUAAAAPUQAAAPAQBQAAAA9RAAAA8BAFAAAAD2VdB4Cf2pdLq+80WjYgFTulbMuNf6YyK5UmpJGTVhcPS+WZ+HMaScu3SituN+paLRXapeAGvzW2LpVnpakr0vAxq6E3pLBJ3shsrVWtPKN6paSwVlGoOs+Cx8CYQCaTUTbXqmyhVUEm7zoSPEQBQKKCnLTtYWntLrMwu96CfNvCf11rjDbeL53+G6tzz8Y3P7Uvl3Z+v1HHylv7OZORWjoX/uvfanTbu6UjfyFNDDb2TFqrzKk8MyZr2UEybtaGsrVQldqkKvOTyuXbVWhbJplb/KUAloBLAEhMtkW6+8eltbtvffK/ViYnbXnQaOcPLn2s6+lZL93zsVuf/K+ndZm0/6PSytuXPlZcqqUpzc9cZfJ3wUrV8ozmpq7I2iZZKkIqUACQDCPt+iGjzlXRztYrd0ib3xvpkCp2S3s+bJQpRDemyUh3fL9R5+roxoxKrTKncmmcpX7HwlpF5ekRvgckhgKARKy8XeodiGfsjfcbtfVFN97W9xtli9GN97YgK+14NJ4Vi8Wy1qo8M8ak0yBq1ZJqlTnXMeAJCgASsfHe+GY9Y6T190QzVmuv1L81mrGup2OF1LsxvvFvVa08w7J/g6mUJlxHgCcoAIhdsXth4otT/+Zozqz7t8R/et6/tXGWAOqVkusIuEZYryoMeQ0v4kcBQOza++Kf8PJtUr516eO0L1/6GDf+jMZZb6/XK64j4DrCetV1BHiAAoDY5YrJTHhRFIBcDNf+r5UtNs4KQNNsUOCbkMsyiB8FALFLapW5GsHnRDFGI3zGTQs4BDQiYzKuI8AD/PYjdnOj8X9GtbSw+95SzY7Gv1qRxN/HzQoyOdcRcB0mwx5tiB8FALGbG5dmR+L9jJFTNpJH2a6eWPoYjfAZNysTxXUTRCrI5ChmSAQFAIk4+3yMZ9ZWOvdCNEPNXJVGTkcz1vVMD79VVhpEvtDGcnODyRU7XUeAJygASMTl1+LbC//8i9L0UHTjnXjSqhbDzfFhKB37ppVtnPlfMoEKbd2uU+AtmVxB2UK76xjwBAUAibBWevUr0kzElwJGTkrHn452Rp0ZkV77qlU9wkexrZWOfV0aPx/dmFHJFtqVL3a5juG9IJNTS0d/I20UiZSjACAxlTnpxS9aXXlz6ZfrbV0684x06MtWcbw/ZeSU9NLvWs1GcMPe/JR06EtWF15tpFP/vy/f2q1Ce69kOCQkzkjZQquKXatk+PtHgrjVFImqlRfOrs+/KK3ZZdQ7IBU6b+4tqLYuzY5Lo6ekwYNWce+YOnVJevazVqvukFbcbtS9Wjf9joBaRZq+Ig0dtbr0qiJdTYhLrtCubL5V1flp1SslhfUqb6eLi5ECk1Um16JsS4cy2bzrRPAQBQBOTF6UJi8unBEbI2Vv4s171fmYQ12HDaVLr0mXXlvImskuvNTnnYR1qVk3cjMmWLgc8PYlAQpATIKGeikU/EQBgHPWupncF6Nea46z+ciwJA2kFr/dAAB4iAIAAICHKAAAAHiIAgAAgIcoAAAAeIgCAACAhygAAIDrY6+CVKMApFg2y9cLYPHyWd4UmWbMECnWmmd7UQCLV8znXEdAjCgAKbaso9V1BABNbFlHm+sIiBEFIMVW9nRyCQ/A4hijVT2drlMgRhSAFGsr5NXf3eE6BoAmtKq7g0sAKUcBSLkd61a6jgCgCe1Yz7Ej7SgAKbdnYI2CgK8ZwM3LBIF2b1jtOgZixsyQch3FgvYM8IsM4ObtvW2N2osF1zEQMwqABw7s3KyWfNZ1DABNoJjP6cE7NruOgQRQADzQ1lLQI3tudx0DQBN4dN92tbawh4gPKACe2D2wWvs2rXUdA0AD2795ve7k2r83KAAe+dBdO7R9bb/rGAAa0Pa1K/R9+7a7joEEUQA8Ehijj9y/R3sG1riOAqCB7Nu0Vh+5f7eMYeswn3BnmGcCY/SP79mpNb1d+sYrx1St111HAuBIPpvRI3tv197bOCnwEQXAU3dtWqctq5brm68e05HBIcla15EAJMUY7Vy3Uh/YvU2drTzu5ysKgMc6W1v0I/ft1gM7Z3Xw1KCOnLui6fmy61gAYtJeLGjn+pXav2kdL/oBBQBSX0ebPrhnux7es10jkzO6ODapkalZzVeqmq/WXMcDsEgtuayK+Zx6O9u0ZlmXlne1u46EBkIBwN8ykpZ3tXOQAAAP8BQAAAAeogAAAOAhCgAAAB6iAAAA4CEKAAAAHqIAAADgIQoAAAAeogAAAOAhCgAAAB6iAAAA4CEKAAAAHqIAAADgIQoAAAAeogAAAOAhCgAAAB6iAAAA4CEKAAAAHqIAAADgIQoAAAAeogAAAOAhCgAAAB6iAAAA4CEKAAAAHqIAAADgIQpAHKzqriMAQGpwTI0FBSAORrOuIwBAWlijadcZ0ogCEAdjL7uOAABpYWQvuc6QRhSAONjgqOsIAJAWxgbHXGdIIwpADGpB/a9cZwCAtKhnw2dcZ0gjCkAMHt607LyMaKwAsERG9o3339ZzznWONKIAxCU0v+M6AgA0u1Dmd11nSCsKQEzq2cz/llRynQMAmpWR5qom81nXOdKKAhCTD9zWPmRkfsN1DgBoWkb/45HNHcOuY6QVBSBGc6r9Eo8EAsCiXMjWqr/sOkSaUQBi9KEtvVNG+nGJXawA4GZZKZTVJ96zfTkbAMWIAhCzBzf3PG1lf8F1DgBoGtb83IGt3U+4jpF2FIAEPLSl59ck+0uucwBAozPW/NuHtnb9N9c5fGBcB/DJUycnfsZY/TdJBddZAKDBzEv65we2dH/OdRBfUAAS9uSJiX2B9DlJe1xnAYBGYKSD1tpPHtjac8h1Fp9QABz4krWZ5ScnPyHpX0na5DoPADhyysr+ysjm7t9+zBhulk4YBcChL1mb6T8x+ZA1ekzS+yUNuM4EAHEy0ulQetJYfenbW7qe+rQxoetMvqIANJC/OjfRU6uYbTLqHhsb/flarfoB15mS0tXV+S9a8sUh1zmAuM1XSismJ6f+u+scSclmc08sW9b7n22o8VzBHn/vhu5x15mwgALQoD7/zVd+U7I/4zpHYkx90+MfuPu06xhA3D7/xIu3yWZOuc6RHPO/Hn9476dcp8A/xGOAAAB4iAIAAICHKAAAAHiIAgAAgIcoAAAAeIgCAACAhygAAAB4iAIAAICHKAAAAHiIAgAAgIcoAAAAeIgCAACAhygAAAB4iAIAAICHKAAAAHiIAtCgjGzoOkOSQpOpu84AJMFUs179bvt2LGsmFIAGZY1mXWdIVLUw7ToCkIRKS33GdYYkWWumXGfA9VEAGpS1Zsh1hgSVO6eOTLoOASThsqYnJFVc50iKlR12nQHXRwFoVNYecx0hMVYnH3vsMS4BwAufPnCgJumU6xxJMYFHx7ImQwFoUDmbeU6SdZ0jCdbYZ1xnAJJlnnOdICFWFfO86xC4PgpAg/rJR3YPy+iw6xwJecJ1ACBJxthvuM6QkFce/9C+q65D4PooAA3N/p7rBAmYqs3br7kOASSpUgr/VLKpv/HVWvlwDGtaFIBGVjG/JaX8aQBjf+tTP7B/znUMIEmf+oH9c7Lmt1zniNlMLRf+tusQ+N4oAA1sYenM/obrHDGay5jMZ1yHAFyo5zKfkVRynSM2Rr/+qQP7R1zHwPdGAWhw+Wr130m65DpHLIz55Y+/f89F1zEAF376wO4Lkn7FdY6YXLQtc//edQi8MwpAg/uJD907pdB+TFLKHpMzz7eP5f+z6xSAS+ezk78qq7Q9BRNaGzz+yfe8J/X3ODQ7CkATePyRu56SMf/GdY7IWF2oZ4OPPPbYHd5shgJcz6cPHKjJ1n5MUmpWwozVL37yg3t8ecqhqVEAmsTjH9j7HyT7n1znWCojXQ6ywaNvLX8C3nv8kXsGg0zwiKQrrrMslZH9zCc+uO8/us6Bm0MBaCKPP3zXv7Qyv6BmvRxgdaQWZt79Uw/tOeI6CtBIfuqhPUeCIHyPpDddZ1mkmjH6+U88fNcvuA6Cm0cBaDKffHjvZ2T1fsmcdp3lFoSy+s1qObznpx/ZfcZ1GKAR/dT795/Khpm7ZfRZNdcuoCeNsQ994gP7fs11ENwa4zoAFudLzzxTnJ0p/pw19uck9bnO8w6eUBj+68cf2c92oMBN+twTB+8z0i/L6iHXWd7BVSv9WpCd/C+fOHBg3nUY3DoKQJP74l++2lYN6j9irH5MRu+T1OY6k6QTkvmasfriJz6495DrMECz+vyTL+2TNT8pa/6RpM2u82hhY7JvG6s/qJTDP2ITr+ZGAUiRL33pSH62u7IjNOFWWbMskLqS+FxrbMUaM2WkczbUG5/84L507lsAOPS5bxxcbQLtsNIGY22nsSafxOeG0qSMHQtscLyyrH7kU/v3V5P4XAAAAAAAAAAAAAAAAAAAAAAAAAAAAAAAAJ/8f+m0ubAi4FwqAAAAAElFTkSuQmCC;" parent="1" vertex="1">
          <mxGeometry x="346.31" y="570" width="88.5" height="88.5" as="geometry" />
        </mxCell>
        <mxCell id="5jVfxsf8ShCBXA_Zx5xe-3" value="Server fog" style="text;html=1;align=center;verticalAlign=middle;whiteSpace=wrap;rounded=0;fontSize=20;fontFamily=Computer Modern;fontColor=light-dark(#5C5C5C,#EDEDED);" parent="1" vertex="1">
          <mxGeometry x="338.06" y="660" width="105" height="30" as="geometry" />
        </mxCell>
      </root>
    </mxGraphModel>
  </diagram>
</mxfile>
